M48
; DRILL file {KiCad (5.1.5)-3} date 1/29/2020 2:55:55 PM
; FORMAT={2:4/ absolute / inch / suppress leading zeros}
; #@! TF.CreationDate,2020-01-29T14:55:55+01:00
; #@! TF.GenerationSoftware,Kicad,Pcbnew,(5.1.5)-3
; #@! TF.FileFunction,Plated,1,2,PTH
FMAT,2
INCH,TZ
T1C0.0157
T2C0.0256
T3C0.0394
%
G90
G05
T1
X59585Y-36404
X60965Y-35416
T2
X61740Y-32440
X61740Y-32940
X61740Y-33440
X61740Y-33940
X61740Y-34440
X61740Y-34940
X61740Y-35440
X61740Y-35940
X61740Y-36440
X61740Y-36940
T3
X52412Y-43340
X53412Y-43340
X54412Y-43340
X55412Y-43340
X56983Y-43340
X57983Y-43340
X58983Y-43340
X59983Y-43340
X60983Y-43340
X61983Y-43340
X63510Y-32580
X63510Y-33580
X63510Y-34580
X63510Y-35580
X63510Y-36580
X63510Y-37580
X63510Y-38580
X63510Y-39580
X63510Y-40580
X63510Y-41580
X51620Y-32580
X51620Y-33580
X51620Y-34580
X51620Y-35580
X51620Y-36580
X51620Y-37580
X51620Y-38580
X51620Y-39580
X51620Y-40580
X51620Y-41580
T0
M30
