G04 #@! TF.GenerationSoftware,KiCad,Pcbnew,(5.1.2)-2*
G04 #@! TF.CreationDate,2020-07-25T19:39:27+02:00*
G04 #@! TF.ProjectId,Adapter,41646170-7465-4722-9e6b-696361645f70,1*
G04 #@! TF.SameCoordinates,Original*
G04 #@! TF.FileFunction,Soldermask,Top*
G04 #@! TF.FilePolarity,Negative*
%FSLAX46Y46*%
G04 Gerber Fmt 4.6, Leading zero omitted, Abs format (unit mm)*
G04 Created by KiCad (PCBNEW (5.1.2)-2) date 2020-07-25 19:39:27*
%MOMM*%
%LPD*%
G04 APERTURE LIST*
%ADD10C,0.100000*%
G04 APERTURE END LIST*
D10*
G36*
X166651923Y-114076079D02*
G01*
X166718107Y-114082597D01*
X166887946Y-114134117D01*
X167044471Y-114217782D01*
X167053696Y-114225353D01*
X167181666Y-114330374D01*
X167241456Y-114403230D01*
X167294258Y-114467569D01*
X167377923Y-114624094D01*
X167429443Y-114793933D01*
X167446839Y-114970560D01*
X167429443Y-115147187D01*
X167377923Y-115317026D01*
X167294258Y-115473551D01*
X167273296Y-115499093D01*
X167181666Y-115610746D01*
X167080209Y-115694008D01*
X167044471Y-115723338D01*
X166887946Y-115807003D01*
X166718107Y-115858523D01*
X166651923Y-115865041D01*
X166585740Y-115871560D01*
X166497220Y-115871560D01*
X166431037Y-115865041D01*
X166364853Y-115858523D01*
X166195014Y-115807003D01*
X166038489Y-115723338D01*
X166002751Y-115694008D01*
X165901294Y-115610746D01*
X165809664Y-115499093D01*
X165788702Y-115473551D01*
X165705037Y-115317026D01*
X165653517Y-115147187D01*
X165636121Y-114970560D01*
X165653517Y-114793933D01*
X165705037Y-114624094D01*
X165788702Y-114467569D01*
X165841504Y-114403230D01*
X165901294Y-114330374D01*
X166029264Y-114225353D01*
X166038489Y-114217782D01*
X166195014Y-114134117D01*
X166364853Y-114082597D01*
X166431037Y-114076079D01*
X166497220Y-114069560D01*
X166585740Y-114069560D01*
X166651923Y-114076079D01*
X166651923Y-114076079D01*
G37*
G36*
X137464923Y-114076079D02*
G01*
X137531107Y-114082597D01*
X137700946Y-114134117D01*
X137857471Y-114217782D01*
X137866696Y-114225353D01*
X137994666Y-114330374D01*
X138054456Y-114403230D01*
X138107258Y-114467569D01*
X138190923Y-114624094D01*
X138242443Y-114793933D01*
X138259839Y-114970560D01*
X138242443Y-115147187D01*
X138190923Y-115317026D01*
X138107258Y-115473551D01*
X138086296Y-115499093D01*
X137994666Y-115610746D01*
X137893209Y-115694008D01*
X137857471Y-115723338D01*
X137700946Y-115807003D01*
X137531107Y-115858523D01*
X137464923Y-115865041D01*
X137398740Y-115871560D01*
X137310220Y-115871560D01*
X137244037Y-115865041D01*
X137177853Y-115858523D01*
X137008014Y-115807003D01*
X136851489Y-115723338D01*
X136815751Y-115694008D01*
X136714294Y-115610746D01*
X136622664Y-115499093D01*
X136601702Y-115473551D01*
X136518037Y-115317026D01*
X136466517Y-115147187D01*
X136449121Y-114970560D01*
X136466517Y-114793933D01*
X136518037Y-114624094D01*
X136601702Y-114467569D01*
X136654504Y-114403230D01*
X136714294Y-114330374D01*
X136842264Y-114225353D01*
X136851489Y-114217782D01*
X137008014Y-114134117D01*
X137177853Y-114082597D01*
X137244037Y-114076079D01*
X137310220Y-114069560D01*
X137398740Y-114069560D01*
X137464923Y-114076079D01*
X137464923Y-114076079D01*
G37*
G36*
X154303539Y-114036820D02*
G01*
X154363774Y-114061770D01*
X154440212Y-114093432D01*
X154563215Y-114175620D01*
X154667820Y-114280225D01*
X154750008Y-114403228D01*
X154806620Y-114539901D01*
X154835480Y-114684993D01*
X154835480Y-114832927D01*
X154806620Y-114978019D01*
X154750008Y-115114692D01*
X154667820Y-115237695D01*
X154563215Y-115342300D01*
X154440212Y-115424488D01*
X154440211Y-115424489D01*
X154440210Y-115424489D01*
X154303539Y-115481100D01*
X154158448Y-115509960D01*
X154010512Y-115509960D01*
X153865421Y-115481100D01*
X153728750Y-115424489D01*
X153728749Y-115424489D01*
X153728748Y-115424488D01*
X153605745Y-115342300D01*
X153501140Y-115237695D01*
X153418952Y-115114692D01*
X153362340Y-114978019D01*
X153333480Y-114832927D01*
X153333480Y-114684993D01*
X153362340Y-114539901D01*
X153418952Y-114403228D01*
X153501140Y-114280225D01*
X153605745Y-114175620D01*
X153728748Y-114093432D01*
X153805187Y-114061770D01*
X153865421Y-114036820D01*
X154010512Y-114007960D01*
X154158448Y-114007960D01*
X154303539Y-114036820D01*
X154303539Y-114036820D01*
G37*
G36*
X149056252Y-114009426D02*
G01*
X149151702Y-114018827D01*
X149293266Y-114061770D01*
X149423732Y-114131506D01*
X149453520Y-114155952D01*
X149538087Y-114225353D01*
X149597418Y-114297650D01*
X149631934Y-114339708D01*
X149701670Y-114470174D01*
X149744613Y-114611738D01*
X149759113Y-114758960D01*
X149744613Y-114906182D01*
X149701670Y-115047746D01*
X149631934Y-115178212D01*
X149607488Y-115208000D01*
X149538087Y-115292567D01*
X149477484Y-115342301D01*
X149423732Y-115386414D01*
X149293266Y-115456150D01*
X149151702Y-115499093D01*
X149078145Y-115506338D01*
X149041368Y-115509960D01*
X148967592Y-115509960D01*
X148930815Y-115506338D01*
X148857258Y-115499093D01*
X148715694Y-115456150D01*
X148585228Y-115386414D01*
X148531476Y-115342301D01*
X148470873Y-115292567D01*
X148401472Y-115208000D01*
X148377026Y-115178212D01*
X148307290Y-115047746D01*
X148264347Y-114906182D01*
X148249847Y-114758960D01*
X148264347Y-114611738D01*
X148307290Y-114470174D01*
X148377026Y-114339708D01*
X148411542Y-114297650D01*
X148470873Y-114225353D01*
X148555440Y-114155952D01*
X148585228Y-114131506D01*
X148715694Y-114061770D01*
X148857258Y-114018827D01*
X148952708Y-114009426D01*
X148967592Y-114007960D01*
X149041368Y-114007960D01*
X149056252Y-114009426D01*
X149056252Y-114009426D01*
G37*
G36*
X143591875Y-112644506D02*
G01*
X143764946Y-112716194D01*
X143764947Y-112716195D01*
X143920707Y-112820270D01*
X144053170Y-112952733D01*
X144053171Y-112952735D01*
X144157246Y-113108494D01*
X144228934Y-113281565D01*
X144265480Y-113465293D01*
X144265480Y-113652627D01*
X144228934Y-113836355D01*
X144157246Y-114009426D01*
X144157245Y-114009427D01*
X144053170Y-114165187D01*
X143920707Y-114297650D01*
X143871732Y-114330374D01*
X143764946Y-114401726D01*
X143591875Y-114473414D01*
X143408147Y-114509960D01*
X143220813Y-114509960D01*
X143037085Y-114473414D01*
X142864014Y-114401726D01*
X142757228Y-114330374D01*
X142708253Y-114297650D01*
X142575790Y-114165187D01*
X142471715Y-114009427D01*
X142471714Y-114009426D01*
X142400026Y-113836355D01*
X142363480Y-113652627D01*
X142363480Y-113465293D01*
X142400026Y-113281565D01*
X142471714Y-113108494D01*
X142575789Y-112952735D01*
X142575790Y-112952733D01*
X142708253Y-112820270D01*
X142864013Y-112716195D01*
X142864014Y-112716194D01*
X143037085Y-112644506D01*
X143220813Y-112607960D01*
X143408147Y-112607960D01*
X143591875Y-112644506D01*
X143591875Y-112644506D01*
G37*
G36*
X146805480Y-114509960D02*
G01*
X144903480Y-114509960D01*
X144903480Y-112607960D01*
X146805480Y-112607960D01*
X146805480Y-114509960D01*
X146805480Y-114509960D01*
G37*
G36*
X166651922Y-111536078D02*
G01*
X166718107Y-111542597D01*
X166887946Y-111594117D01*
X167044471Y-111677782D01*
X167080209Y-111707112D01*
X167181666Y-111790374D01*
X167264928Y-111891831D01*
X167294258Y-111927569D01*
X167377923Y-112084094D01*
X167429443Y-112253933D01*
X167446839Y-112430560D01*
X167429443Y-112607187D01*
X167377923Y-112777026D01*
X167294258Y-112933551D01*
X167278514Y-112952735D01*
X167181666Y-113070746D01*
X167080209Y-113154008D01*
X167044471Y-113183338D01*
X166887946Y-113267003D01*
X166718107Y-113318523D01*
X166651923Y-113325041D01*
X166585740Y-113331560D01*
X166497220Y-113331560D01*
X166431037Y-113325041D01*
X166364853Y-113318523D01*
X166195014Y-113267003D01*
X166038489Y-113183338D01*
X166002751Y-113154008D01*
X165901294Y-113070746D01*
X165804446Y-112952735D01*
X165788702Y-112933551D01*
X165705037Y-112777026D01*
X165653517Y-112607187D01*
X165636121Y-112430560D01*
X165653517Y-112253933D01*
X165705037Y-112084094D01*
X165788702Y-111927569D01*
X165818032Y-111891831D01*
X165901294Y-111790374D01*
X166002751Y-111707112D01*
X166038489Y-111677782D01*
X166195014Y-111594117D01*
X166364853Y-111542597D01*
X166431038Y-111536078D01*
X166497220Y-111529560D01*
X166585740Y-111529560D01*
X166651922Y-111536078D01*
X166651922Y-111536078D01*
G37*
G36*
X137464922Y-111536078D02*
G01*
X137531107Y-111542597D01*
X137700946Y-111594117D01*
X137857471Y-111677782D01*
X137893209Y-111707112D01*
X137994666Y-111790374D01*
X138077928Y-111891831D01*
X138107258Y-111927569D01*
X138190923Y-112084094D01*
X138242443Y-112253933D01*
X138259839Y-112430560D01*
X138242443Y-112607187D01*
X138190923Y-112777026D01*
X138107258Y-112933551D01*
X138091514Y-112952735D01*
X137994666Y-113070746D01*
X137893209Y-113154008D01*
X137857471Y-113183338D01*
X137700946Y-113267003D01*
X137531107Y-113318523D01*
X137464923Y-113325041D01*
X137398740Y-113331560D01*
X137310220Y-113331560D01*
X137244037Y-113325041D01*
X137177853Y-113318523D01*
X137008014Y-113267003D01*
X136851489Y-113183338D01*
X136815751Y-113154008D01*
X136714294Y-113070746D01*
X136617446Y-112952735D01*
X136601702Y-112933551D01*
X136518037Y-112777026D01*
X136466517Y-112607187D01*
X136449121Y-112430560D01*
X136466517Y-112253933D01*
X136518037Y-112084094D01*
X136601702Y-111927569D01*
X136631032Y-111891831D01*
X136714294Y-111790374D01*
X136815751Y-111707112D01*
X136851489Y-111677782D01*
X137008014Y-111594117D01*
X137177853Y-111542597D01*
X137244038Y-111536078D01*
X137310220Y-111529560D01*
X137398740Y-111529560D01*
X137464922Y-111536078D01*
X137464922Y-111536078D01*
G37*
G36*
X166651922Y-108996078D02*
G01*
X166718107Y-109002597D01*
X166887946Y-109054117D01*
X167044471Y-109137782D01*
X167080209Y-109167112D01*
X167181666Y-109250374D01*
X167264928Y-109351831D01*
X167294258Y-109387569D01*
X167377923Y-109544094D01*
X167429443Y-109713933D01*
X167446839Y-109890560D01*
X167429443Y-110067187D01*
X167377923Y-110237026D01*
X167294258Y-110393551D01*
X167264928Y-110429289D01*
X167181666Y-110530746D01*
X167080209Y-110614008D01*
X167044471Y-110643338D01*
X166887946Y-110727003D01*
X166718107Y-110778523D01*
X166651922Y-110785042D01*
X166585740Y-110791560D01*
X166497220Y-110791560D01*
X166431038Y-110785042D01*
X166364853Y-110778523D01*
X166195014Y-110727003D01*
X166038489Y-110643338D01*
X166002751Y-110614008D01*
X165901294Y-110530746D01*
X165818032Y-110429289D01*
X165788702Y-110393551D01*
X165705037Y-110237026D01*
X165653517Y-110067187D01*
X165636121Y-109890560D01*
X165653517Y-109713933D01*
X165705037Y-109544094D01*
X165788702Y-109387569D01*
X165818032Y-109351831D01*
X165901294Y-109250374D01*
X166002751Y-109167112D01*
X166038489Y-109137782D01*
X166195014Y-109054117D01*
X166364853Y-109002597D01*
X166431038Y-108996078D01*
X166497220Y-108989560D01*
X166585740Y-108989560D01*
X166651922Y-108996078D01*
X166651922Y-108996078D01*
G37*
G36*
X137464922Y-108996078D02*
G01*
X137531107Y-109002597D01*
X137700946Y-109054117D01*
X137857471Y-109137782D01*
X137893209Y-109167112D01*
X137994666Y-109250374D01*
X138077928Y-109351831D01*
X138107258Y-109387569D01*
X138190923Y-109544094D01*
X138242443Y-109713933D01*
X138259839Y-109890560D01*
X138242443Y-110067187D01*
X138190923Y-110237026D01*
X138107258Y-110393551D01*
X138077928Y-110429289D01*
X137994666Y-110530746D01*
X137893209Y-110614008D01*
X137857471Y-110643338D01*
X137700946Y-110727003D01*
X137531107Y-110778523D01*
X137464922Y-110785042D01*
X137398740Y-110791560D01*
X137310220Y-110791560D01*
X137244038Y-110785042D01*
X137177853Y-110778523D01*
X137008014Y-110727003D01*
X136851489Y-110643338D01*
X136815751Y-110614008D01*
X136714294Y-110530746D01*
X136631032Y-110429289D01*
X136601702Y-110393551D01*
X136518037Y-110237026D01*
X136466517Y-110067187D01*
X136449121Y-109890560D01*
X136466517Y-109713933D01*
X136518037Y-109544094D01*
X136601702Y-109387569D01*
X136631032Y-109351831D01*
X136714294Y-109250374D01*
X136815751Y-109167112D01*
X136851489Y-109137782D01*
X137008014Y-109054117D01*
X137177853Y-109002597D01*
X137244038Y-108996078D01*
X137310220Y-108989560D01*
X137398740Y-108989560D01*
X137464922Y-108996078D01*
X137464922Y-108996078D01*
G37*
G36*
X160363922Y-106583478D02*
G01*
X160430107Y-106589997D01*
X160599946Y-106641517D01*
X160756471Y-106725182D01*
X160792209Y-106754512D01*
X160893666Y-106837774D01*
X160976928Y-106939231D01*
X161006258Y-106974969D01*
X161089923Y-107131494D01*
X161141443Y-107301333D01*
X161158839Y-107477960D01*
X161141443Y-107654587D01*
X161089923Y-107824426D01*
X161006258Y-107980951D01*
X160998220Y-107990745D01*
X160893666Y-108118146D01*
X160809763Y-108187002D01*
X160756471Y-108230738D01*
X160599946Y-108314403D01*
X160430107Y-108365923D01*
X160363923Y-108372441D01*
X160297740Y-108378960D01*
X160209220Y-108378960D01*
X160143037Y-108372441D01*
X160076853Y-108365923D01*
X159907014Y-108314403D01*
X159750489Y-108230738D01*
X159697197Y-108187002D01*
X159613294Y-108118146D01*
X159508740Y-107990745D01*
X159500702Y-107980951D01*
X159417037Y-107824426D01*
X159365517Y-107654587D01*
X159348121Y-107477960D01*
X159365517Y-107301333D01*
X159417037Y-107131494D01*
X159500702Y-106974969D01*
X159530032Y-106939231D01*
X159613294Y-106837774D01*
X159714751Y-106754512D01*
X159750489Y-106725182D01*
X159907014Y-106641517D01*
X160076853Y-106589997D01*
X160143038Y-106583478D01*
X160209220Y-106576960D01*
X160297740Y-106576960D01*
X160363922Y-106583478D01*
X160363922Y-106583478D01*
G37*
G36*
X157823922Y-106583478D02*
G01*
X157890107Y-106589997D01*
X158059946Y-106641517D01*
X158216471Y-106725182D01*
X158252209Y-106754512D01*
X158353666Y-106837774D01*
X158436928Y-106939231D01*
X158466258Y-106974969D01*
X158549923Y-107131494D01*
X158601443Y-107301333D01*
X158618839Y-107477960D01*
X158601443Y-107654587D01*
X158549923Y-107824426D01*
X158466258Y-107980951D01*
X158458220Y-107990745D01*
X158353666Y-108118146D01*
X158269763Y-108187002D01*
X158216471Y-108230738D01*
X158059946Y-108314403D01*
X157890107Y-108365923D01*
X157823923Y-108372441D01*
X157757740Y-108378960D01*
X157669220Y-108378960D01*
X157603037Y-108372441D01*
X157536853Y-108365923D01*
X157367014Y-108314403D01*
X157210489Y-108230738D01*
X157157197Y-108187002D01*
X157073294Y-108118146D01*
X156968740Y-107990745D01*
X156960702Y-107980951D01*
X156877037Y-107824426D01*
X156825517Y-107654587D01*
X156808121Y-107477960D01*
X156825517Y-107301333D01*
X156877037Y-107131494D01*
X156960702Y-106974969D01*
X156990032Y-106939231D01*
X157073294Y-106837774D01*
X157174751Y-106754512D01*
X157210489Y-106725182D01*
X157367014Y-106641517D01*
X157536853Y-106589997D01*
X157603038Y-106583478D01*
X157669220Y-106576960D01*
X157757740Y-106576960D01*
X157823922Y-106583478D01*
X157823922Y-106583478D01*
G37*
G36*
X152743922Y-106583478D02*
G01*
X152810107Y-106589997D01*
X152979946Y-106641517D01*
X153136471Y-106725182D01*
X153172209Y-106754512D01*
X153273666Y-106837774D01*
X153356928Y-106939231D01*
X153386258Y-106974969D01*
X153469923Y-107131494D01*
X153521443Y-107301333D01*
X153538839Y-107477960D01*
X153521443Y-107654587D01*
X153469923Y-107824426D01*
X153386258Y-107980951D01*
X153378220Y-107990745D01*
X153273666Y-108118146D01*
X153189763Y-108187002D01*
X153136471Y-108230738D01*
X152979946Y-108314403D01*
X152810107Y-108365923D01*
X152743923Y-108372441D01*
X152677740Y-108378960D01*
X152589220Y-108378960D01*
X152523037Y-108372441D01*
X152456853Y-108365923D01*
X152287014Y-108314403D01*
X152130489Y-108230738D01*
X152077197Y-108187002D01*
X151993294Y-108118146D01*
X151888740Y-107990745D01*
X151880702Y-107980951D01*
X151797037Y-107824426D01*
X151745517Y-107654587D01*
X151728121Y-107477960D01*
X151745517Y-107301333D01*
X151797037Y-107131494D01*
X151880702Y-106974969D01*
X151910032Y-106939231D01*
X151993294Y-106837774D01*
X152094751Y-106754512D01*
X152130489Y-106725182D01*
X152287014Y-106641517D01*
X152456853Y-106589997D01*
X152523038Y-106583478D01*
X152589220Y-106576960D01*
X152677740Y-106576960D01*
X152743922Y-106583478D01*
X152743922Y-106583478D01*
G37*
G36*
X150203922Y-106583478D02*
G01*
X150270107Y-106589997D01*
X150439946Y-106641517D01*
X150596471Y-106725182D01*
X150632209Y-106754512D01*
X150733666Y-106837774D01*
X150816928Y-106939231D01*
X150846258Y-106974969D01*
X150929923Y-107131494D01*
X150981443Y-107301333D01*
X150998839Y-107477960D01*
X150981443Y-107654587D01*
X150929923Y-107824426D01*
X150846258Y-107980951D01*
X150838220Y-107990745D01*
X150733666Y-108118146D01*
X150649763Y-108187002D01*
X150596471Y-108230738D01*
X150439946Y-108314403D01*
X150270107Y-108365923D01*
X150203923Y-108372441D01*
X150137740Y-108378960D01*
X150049220Y-108378960D01*
X149983037Y-108372441D01*
X149916853Y-108365923D01*
X149747014Y-108314403D01*
X149590489Y-108230738D01*
X149537197Y-108187002D01*
X149453294Y-108118146D01*
X149348740Y-107990745D01*
X149340702Y-107980951D01*
X149257037Y-107824426D01*
X149205517Y-107654587D01*
X149188121Y-107477960D01*
X149205517Y-107301333D01*
X149257037Y-107131494D01*
X149340702Y-106974969D01*
X149370032Y-106939231D01*
X149453294Y-106837774D01*
X149554751Y-106754512D01*
X149590489Y-106725182D01*
X149747014Y-106641517D01*
X149916853Y-106589997D01*
X149983038Y-106583478D01*
X150049220Y-106576960D01*
X150137740Y-106576960D01*
X150203922Y-106583478D01*
X150203922Y-106583478D01*
G37*
G36*
X155283922Y-106583478D02*
G01*
X155350107Y-106589997D01*
X155519946Y-106641517D01*
X155676471Y-106725182D01*
X155712209Y-106754512D01*
X155813666Y-106837774D01*
X155896928Y-106939231D01*
X155926258Y-106974969D01*
X156009923Y-107131494D01*
X156061443Y-107301333D01*
X156078839Y-107477960D01*
X156061443Y-107654587D01*
X156009923Y-107824426D01*
X155926258Y-107980951D01*
X155918220Y-107990745D01*
X155813666Y-108118146D01*
X155729763Y-108187002D01*
X155676471Y-108230738D01*
X155519946Y-108314403D01*
X155350107Y-108365923D01*
X155283923Y-108372441D01*
X155217740Y-108378960D01*
X155129220Y-108378960D01*
X155063037Y-108372441D01*
X154996853Y-108365923D01*
X154827014Y-108314403D01*
X154670489Y-108230738D01*
X154617197Y-108187002D01*
X154533294Y-108118146D01*
X154428740Y-107990745D01*
X154420702Y-107980951D01*
X154337037Y-107824426D01*
X154285517Y-107654587D01*
X154268121Y-107477960D01*
X154285517Y-107301333D01*
X154337037Y-107131494D01*
X154420702Y-106974969D01*
X154450032Y-106939231D01*
X154533294Y-106837774D01*
X154634751Y-106754512D01*
X154670489Y-106725182D01*
X154827014Y-106641517D01*
X154996853Y-106589997D01*
X155063038Y-106583478D01*
X155129220Y-106576960D01*
X155217740Y-106576960D01*
X155283922Y-106583478D01*
X155283922Y-106583478D01*
G37*
G36*
X166651922Y-106456078D02*
G01*
X166718107Y-106462597D01*
X166887946Y-106514117D01*
X167044471Y-106597782D01*
X167080209Y-106627112D01*
X167181666Y-106710374D01*
X167264928Y-106811831D01*
X167294258Y-106847569D01*
X167377923Y-107004094D01*
X167429443Y-107173933D01*
X167446839Y-107350560D01*
X167429443Y-107527187D01*
X167377923Y-107697026D01*
X167294258Y-107853551D01*
X167264928Y-107889289D01*
X167181666Y-107990746D01*
X167080209Y-108074008D01*
X167044471Y-108103338D01*
X166887946Y-108187003D01*
X166718107Y-108238523D01*
X166651922Y-108245042D01*
X166585740Y-108251560D01*
X166497220Y-108251560D01*
X166431038Y-108245042D01*
X166364853Y-108238523D01*
X166195014Y-108187003D01*
X166038489Y-108103338D01*
X166002751Y-108074008D01*
X165901294Y-107990746D01*
X165818032Y-107889289D01*
X165788702Y-107853551D01*
X165705037Y-107697026D01*
X165653517Y-107527187D01*
X165636121Y-107350560D01*
X165653517Y-107173933D01*
X165705037Y-107004094D01*
X165788702Y-106847569D01*
X165818032Y-106811831D01*
X165901294Y-106710374D01*
X166002751Y-106627112D01*
X166038489Y-106597782D01*
X166195014Y-106514117D01*
X166364853Y-106462597D01*
X166431038Y-106456078D01*
X166497220Y-106449560D01*
X166585740Y-106449560D01*
X166651922Y-106456078D01*
X166651922Y-106456078D01*
G37*
G36*
X137464922Y-106456078D02*
G01*
X137531107Y-106462597D01*
X137700946Y-106514117D01*
X137857471Y-106597782D01*
X137893209Y-106627112D01*
X137994666Y-106710374D01*
X138077928Y-106811831D01*
X138107258Y-106847569D01*
X138190923Y-107004094D01*
X138242443Y-107173933D01*
X138259839Y-107350560D01*
X138242443Y-107527187D01*
X138190923Y-107697026D01*
X138107258Y-107853551D01*
X138077928Y-107889289D01*
X137994666Y-107990746D01*
X137893209Y-108074008D01*
X137857471Y-108103338D01*
X137700946Y-108187003D01*
X137531107Y-108238523D01*
X137464922Y-108245042D01*
X137398740Y-108251560D01*
X137310220Y-108251560D01*
X137244038Y-108245042D01*
X137177853Y-108238523D01*
X137008014Y-108187003D01*
X136851489Y-108103338D01*
X136815751Y-108074008D01*
X136714294Y-107990746D01*
X136631032Y-107889289D01*
X136601702Y-107853551D01*
X136518037Y-107697026D01*
X136466517Y-107527187D01*
X136449121Y-107350560D01*
X136466517Y-107173933D01*
X136518037Y-107004094D01*
X136601702Y-106847569D01*
X136631032Y-106811831D01*
X136714294Y-106710374D01*
X136815751Y-106627112D01*
X136851489Y-106597782D01*
X137008014Y-106514117D01*
X137177853Y-106462597D01*
X137244038Y-106456078D01*
X137310220Y-106449560D01*
X137398740Y-106449560D01*
X137464922Y-106456078D01*
X137464922Y-106456078D01*
G37*
G36*
X155283922Y-104043478D02*
G01*
X155350107Y-104049997D01*
X155519946Y-104101517D01*
X155676471Y-104185182D01*
X155712209Y-104214512D01*
X155813666Y-104297774D01*
X155896928Y-104399231D01*
X155926258Y-104434969D01*
X156009923Y-104591494D01*
X156061443Y-104761333D01*
X156078839Y-104937960D01*
X156061443Y-105114587D01*
X156009923Y-105284426D01*
X155926258Y-105440951D01*
X155918220Y-105450745D01*
X155813666Y-105578146D01*
X155729763Y-105647002D01*
X155676471Y-105690738D01*
X155519946Y-105774403D01*
X155350107Y-105825923D01*
X155283922Y-105832442D01*
X155217740Y-105838960D01*
X155129220Y-105838960D01*
X155063038Y-105832442D01*
X154996853Y-105825923D01*
X154827014Y-105774403D01*
X154670489Y-105690738D01*
X154617197Y-105647002D01*
X154533294Y-105578146D01*
X154428740Y-105450745D01*
X154420702Y-105440951D01*
X154337037Y-105284426D01*
X154285517Y-105114587D01*
X154268121Y-104937960D01*
X154285517Y-104761333D01*
X154337037Y-104591494D01*
X154420702Y-104434969D01*
X154450032Y-104399231D01*
X154533294Y-104297774D01*
X154634751Y-104214512D01*
X154670489Y-104185182D01*
X154827014Y-104101517D01*
X154996853Y-104049997D01*
X155063038Y-104043478D01*
X155129220Y-104036960D01*
X155217740Y-104036960D01*
X155283922Y-104043478D01*
X155283922Y-104043478D01*
G37*
G36*
X150203922Y-104043478D02*
G01*
X150270107Y-104049997D01*
X150439946Y-104101517D01*
X150596471Y-104185182D01*
X150632209Y-104214512D01*
X150733666Y-104297774D01*
X150816928Y-104399231D01*
X150846258Y-104434969D01*
X150929923Y-104591494D01*
X150981443Y-104761333D01*
X150998839Y-104937960D01*
X150981443Y-105114587D01*
X150929923Y-105284426D01*
X150846258Y-105440951D01*
X150838220Y-105450745D01*
X150733666Y-105578146D01*
X150649763Y-105647002D01*
X150596471Y-105690738D01*
X150439946Y-105774403D01*
X150270107Y-105825923D01*
X150203922Y-105832442D01*
X150137740Y-105838960D01*
X150049220Y-105838960D01*
X149983038Y-105832442D01*
X149916853Y-105825923D01*
X149747014Y-105774403D01*
X149590489Y-105690738D01*
X149537197Y-105647002D01*
X149453294Y-105578146D01*
X149348740Y-105450745D01*
X149340702Y-105440951D01*
X149257037Y-105284426D01*
X149205517Y-105114587D01*
X149188121Y-104937960D01*
X149205517Y-104761333D01*
X149257037Y-104591494D01*
X149340702Y-104434969D01*
X149370032Y-104399231D01*
X149453294Y-104297774D01*
X149554751Y-104214512D01*
X149590489Y-104185182D01*
X149747014Y-104101517D01*
X149916853Y-104049997D01*
X149983038Y-104043478D01*
X150049220Y-104036960D01*
X150137740Y-104036960D01*
X150203922Y-104043478D01*
X150203922Y-104043478D01*
G37*
G36*
X161154480Y-105838960D02*
G01*
X159352480Y-105838960D01*
X159352480Y-104036960D01*
X161154480Y-104036960D01*
X161154480Y-105838960D01*
X161154480Y-105838960D01*
G37*
G36*
X152743922Y-104043478D02*
G01*
X152810107Y-104049997D01*
X152979946Y-104101517D01*
X153136471Y-104185182D01*
X153172209Y-104214512D01*
X153273666Y-104297774D01*
X153356928Y-104399231D01*
X153386258Y-104434969D01*
X153469923Y-104591494D01*
X153521443Y-104761333D01*
X153538839Y-104937960D01*
X153521443Y-105114587D01*
X153469923Y-105284426D01*
X153386258Y-105440951D01*
X153378220Y-105450745D01*
X153273666Y-105578146D01*
X153189763Y-105647002D01*
X153136471Y-105690738D01*
X152979946Y-105774403D01*
X152810107Y-105825923D01*
X152743922Y-105832442D01*
X152677740Y-105838960D01*
X152589220Y-105838960D01*
X152523038Y-105832442D01*
X152456853Y-105825923D01*
X152287014Y-105774403D01*
X152130489Y-105690738D01*
X152077197Y-105647002D01*
X151993294Y-105578146D01*
X151888740Y-105450745D01*
X151880702Y-105440951D01*
X151797037Y-105284426D01*
X151745517Y-105114587D01*
X151728121Y-104937960D01*
X151745517Y-104761333D01*
X151797037Y-104591494D01*
X151880702Y-104434969D01*
X151910032Y-104399231D01*
X151993294Y-104297774D01*
X152094751Y-104214512D01*
X152130489Y-104185182D01*
X152287014Y-104101517D01*
X152456853Y-104049997D01*
X152523038Y-104043478D01*
X152589220Y-104036960D01*
X152677740Y-104036960D01*
X152743922Y-104043478D01*
X152743922Y-104043478D01*
G37*
G36*
X157823922Y-104043478D02*
G01*
X157890107Y-104049997D01*
X158059946Y-104101517D01*
X158216471Y-104185182D01*
X158252209Y-104214512D01*
X158353666Y-104297774D01*
X158436928Y-104399231D01*
X158466258Y-104434969D01*
X158549923Y-104591494D01*
X158601443Y-104761333D01*
X158618839Y-104937960D01*
X158601443Y-105114587D01*
X158549923Y-105284426D01*
X158466258Y-105440951D01*
X158458220Y-105450745D01*
X158353666Y-105578146D01*
X158269763Y-105647002D01*
X158216471Y-105690738D01*
X158059946Y-105774403D01*
X157890107Y-105825923D01*
X157823922Y-105832442D01*
X157757740Y-105838960D01*
X157669220Y-105838960D01*
X157603038Y-105832442D01*
X157536853Y-105825923D01*
X157367014Y-105774403D01*
X157210489Y-105690738D01*
X157157197Y-105647002D01*
X157073294Y-105578146D01*
X156968740Y-105450745D01*
X156960702Y-105440951D01*
X156877037Y-105284426D01*
X156825517Y-105114587D01*
X156808121Y-104937960D01*
X156825517Y-104761333D01*
X156877037Y-104591494D01*
X156960702Y-104434969D01*
X156990032Y-104399231D01*
X157073294Y-104297774D01*
X157174751Y-104214512D01*
X157210489Y-104185182D01*
X157367014Y-104101517D01*
X157536853Y-104049997D01*
X157603038Y-104043478D01*
X157669220Y-104036960D01*
X157757740Y-104036960D01*
X157823922Y-104043478D01*
X157823922Y-104043478D01*
G37*
G36*
X137464922Y-103916078D02*
G01*
X137531107Y-103922597D01*
X137700946Y-103974117D01*
X137857471Y-104057782D01*
X137893209Y-104087112D01*
X137994666Y-104170374D01*
X138077928Y-104271831D01*
X138107258Y-104307569D01*
X138190923Y-104464094D01*
X138242443Y-104633933D01*
X138259839Y-104810560D01*
X138242443Y-104987187D01*
X138190923Y-105157026D01*
X138107258Y-105313551D01*
X138077928Y-105349289D01*
X137994666Y-105450746D01*
X137893209Y-105534008D01*
X137857471Y-105563338D01*
X137700946Y-105647003D01*
X137531107Y-105698523D01*
X137464922Y-105705042D01*
X137398740Y-105711560D01*
X137310220Y-105711560D01*
X137244038Y-105705042D01*
X137177853Y-105698523D01*
X137008014Y-105647003D01*
X136851489Y-105563338D01*
X136815751Y-105534008D01*
X136714294Y-105450746D01*
X136631032Y-105349289D01*
X136601702Y-105313551D01*
X136518037Y-105157026D01*
X136466517Y-104987187D01*
X136449121Y-104810560D01*
X136466517Y-104633933D01*
X136518037Y-104464094D01*
X136601702Y-104307569D01*
X136631032Y-104271831D01*
X136714294Y-104170374D01*
X136815751Y-104087112D01*
X136851489Y-104057782D01*
X137008014Y-103974117D01*
X137177853Y-103922597D01*
X137244037Y-103916079D01*
X137310220Y-103909560D01*
X137398740Y-103909560D01*
X137464922Y-103916078D01*
X137464922Y-103916078D01*
G37*
G36*
X166651922Y-103916078D02*
G01*
X166718107Y-103922597D01*
X166887946Y-103974117D01*
X167044471Y-104057782D01*
X167080209Y-104087112D01*
X167181666Y-104170374D01*
X167264928Y-104271831D01*
X167294258Y-104307569D01*
X167377923Y-104464094D01*
X167429443Y-104633933D01*
X167446839Y-104810560D01*
X167429443Y-104987187D01*
X167377923Y-105157026D01*
X167294258Y-105313551D01*
X167264928Y-105349289D01*
X167181666Y-105450746D01*
X167080209Y-105534008D01*
X167044471Y-105563338D01*
X166887946Y-105647003D01*
X166718107Y-105698523D01*
X166651922Y-105705042D01*
X166585740Y-105711560D01*
X166497220Y-105711560D01*
X166431038Y-105705042D01*
X166364853Y-105698523D01*
X166195014Y-105647003D01*
X166038489Y-105563338D01*
X166002751Y-105534008D01*
X165901294Y-105450746D01*
X165818032Y-105349289D01*
X165788702Y-105313551D01*
X165705037Y-105157026D01*
X165653517Y-104987187D01*
X165636121Y-104810560D01*
X165653517Y-104633933D01*
X165705037Y-104464094D01*
X165788702Y-104307569D01*
X165818032Y-104271831D01*
X165901294Y-104170374D01*
X166002751Y-104087112D01*
X166038489Y-104057782D01*
X166195014Y-103974117D01*
X166364853Y-103922597D01*
X166431037Y-103916079D01*
X166497220Y-103909560D01*
X166585740Y-103909560D01*
X166651922Y-103916078D01*
X166651922Y-103916078D01*
G37*
G36*
X166651923Y-101376079D02*
G01*
X166718107Y-101382597D01*
X166887946Y-101434117D01*
X167044471Y-101517782D01*
X167080209Y-101547112D01*
X167181666Y-101630374D01*
X167264928Y-101731831D01*
X167294258Y-101767569D01*
X167377923Y-101924094D01*
X167429443Y-102093933D01*
X167446839Y-102270560D01*
X167429443Y-102447187D01*
X167377923Y-102617026D01*
X167294258Y-102773551D01*
X167264928Y-102809289D01*
X167181666Y-102910746D01*
X167080209Y-102994008D01*
X167044471Y-103023338D01*
X166887946Y-103107003D01*
X166718107Y-103158523D01*
X166651922Y-103165042D01*
X166585740Y-103171560D01*
X166497220Y-103171560D01*
X166431038Y-103165042D01*
X166364853Y-103158523D01*
X166195014Y-103107003D01*
X166038489Y-103023338D01*
X166002751Y-102994008D01*
X165901294Y-102910746D01*
X165818032Y-102809289D01*
X165788702Y-102773551D01*
X165705037Y-102617026D01*
X165653517Y-102447187D01*
X165636121Y-102270560D01*
X165653517Y-102093933D01*
X165705037Y-101924094D01*
X165788702Y-101767569D01*
X165818032Y-101731831D01*
X165901294Y-101630374D01*
X166002751Y-101547112D01*
X166038489Y-101517782D01*
X166195014Y-101434117D01*
X166364853Y-101382597D01*
X166431037Y-101376079D01*
X166497220Y-101369560D01*
X166585740Y-101369560D01*
X166651923Y-101376079D01*
X166651923Y-101376079D01*
G37*
G36*
X137464923Y-101376079D02*
G01*
X137531107Y-101382597D01*
X137700946Y-101434117D01*
X137857471Y-101517782D01*
X137893209Y-101547112D01*
X137994666Y-101630374D01*
X138077928Y-101731831D01*
X138107258Y-101767569D01*
X138190923Y-101924094D01*
X138242443Y-102093933D01*
X138259839Y-102270560D01*
X138242443Y-102447187D01*
X138190923Y-102617026D01*
X138107258Y-102773551D01*
X138077928Y-102809289D01*
X137994666Y-102910746D01*
X137893209Y-102994008D01*
X137857471Y-103023338D01*
X137700946Y-103107003D01*
X137531107Y-103158523D01*
X137464922Y-103165042D01*
X137398740Y-103171560D01*
X137310220Y-103171560D01*
X137244038Y-103165042D01*
X137177853Y-103158523D01*
X137008014Y-103107003D01*
X136851489Y-103023338D01*
X136815751Y-102994008D01*
X136714294Y-102910746D01*
X136631032Y-102809289D01*
X136601702Y-102773551D01*
X136518037Y-102617026D01*
X136466517Y-102447187D01*
X136449121Y-102270560D01*
X136466517Y-102093933D01*
X136518037Y-101924094D01*
X136601702Y-101767569D01*
X136631032Y-101731831D01*
X136714294Y-101630374D01*
X136815751Y-101547112D01*
X136851489Y-101517782D01*
X137008014Y-101434117D01*
X137177853Y-101382597D01*
X137244037Y-101376079D01*
X137310220Y-101369560D01*
X137398740Y-101369560D01*
X137464923Y-101376079D01*
X137464923Y-101376079D01*
G37*
G36*
X166651922Y-98836078D02*
G01*
X166718107Y-98842597D01*
X166887946Y-98894117D01*
X167044471Y-98977782D01*
X167080209Y-99007112D01*
X167181666Y-99090374D01*
X167264928Y-99191831D01*
X167294258Y-99227569D01*
X167377923Y-99384094D01*
X167429443Y-99553933D01*
X167446839Y-99730560D01*
X167429443Y-99907187D01*
X167377923Y-100077026D01*
X167294258Y-100233551D01*
X167264928Y-100269289D01*
X167181666Y-100370746D01*
X167080209Y-100454008D01*
X167044471Y-100483338D01*
X166887946Y-100567003D01*
X166718107Y-100618523D01*
X166651922Y-100625042D01*
X166585740Y-100631560D01*
X166497220Y-100631560D01*
X166431037Y-100625041D01*
X166364853Y-100618523D01*
X166195014Y-100567003D01*
X166038489Y-100483338D01*
X166002751Y-100454008D01*
X165901294Y-100370746D01*
X165818032Y-100269289D01*
X165788702Y-100233551D01*
X165705037Y-100077026D01*
X165653517Y-99907187D01*
X165636121Y-99730560D01*
X165653517Y-99553933D01*
X165705037Y-99384094D01*
X165788702Y-99227569D01*
X165818032Y-99191831D01*
X165901294Y-99090374D01*
X166002751Y-99007112D01*
X166038489Y-98977782D01*
X166195014Y-98894117D01*
X166364853Y-98842597D01*
X166431038Y-98836078D01*
X166497220Y-98829560D01*
X166585740Y-98829560D01*
X166651922Y-98836078D01*
X166651922Y-98836078D01*
G37*
G36*
X137464922Y-98836078D02*
G01*
X137531107Y-98842597D01*
X137700946Y-98894117D01*
X137857471Y-98977782D01*
X137893209Y-99007112D01*
X137994666Y-99090374D01*
X138077928Y-99191831D01*
X138107258Y-99227569D01*
X138190923Y-99384094D01*
X138242443Y-99553933D01*
X138259839Y-99730560D01*
X138242443Y-99907187D01*
X138190923Y-100077026D01*
X138107258Y-100233551D01*
X138077928Y-100269289D01*
X137994666Y-100370746D01*
X137893209Y-100454008D01*
X137857471Y-100483338D01*
X137700946Y-100567003D01*
X137531107Y-100618523D01*
X137464922Y-100625042D01*
X137398740Y-100631560D01*
X137310220Y-100631560D01*
X137244037Y-100625041D01*
X137177853Y-100618523D01*
X137008014Y-100567003D01*
X136851489Y-100483338D01*
X136815751Y-100454008D01*
X136714294Y-100370746D01*
X136631032Y-100269289D01*
X136601702Y-100233551D01*
X136518037Y-100077026D01*
X136466517Y-99907187D01*
X136449121Y-99730560D01*
X136466517Y-99553933D01*
X136518037Y-99384094D01*
X136601702Y-99227569D01*
X136631032Y-99191831D01*
X136714294Y-99090374D01*
X136815751Y-99007112D01*
X136851489Y-98977782D01*
X137008014Y-98894117D01*
X137177853Y-98842597D01*
X137244038Y-98836078D01*
X137310220Y-98829560D01*
X137398740Y-98829560D01*
X137464922Y-98836078D01*
X137464922Y-98836078D01*
G37*
G36*
X166651923Y-96296079D02*
G01*
X166718107Y-96302597D01*
X166887946Y-96354117D01*
X167044471Y-96437782D01*
X167080209Y-96467112D01*
X167181666Y-96550374D01*
X167264928Y-96651831D01*
X167294258Y-96687569D01*
X167377923Y-96844094D01*
X167429443Y-97013933D01*
X167446839Y-97190560D01*
X167429443Y-97367187D01*
X167377923Y-97537026D01*
X167294258Y-97693551D01*
X167264928Y-97729289D01*
X167181666Y-97830746D01*
X167080209Y-97914008D01*
X167044471Y-97943338D01*
X166887946Y-98027003D01*
X166718107Y-98078523D01*
X166651923Y-98085041D01*
X166585740Y-98091560D01*
X166497220Y-98091560D01*
X166431038Y-98085042D01*
X166364853Y-98078523D01*
X166195014Y-98027003D01*
X166038489Y-97943338D01*
X166002751Y-97914008D01*
X165901294Y-97830746D01*
X165818032Y-97729289D01*
X165788702Y-97693551D01*
X165705037Y-97537026D01*
X165653517Y-97367187D01*
X165636121Y-97190560D01*
X165653517Y-97013933D01*
X165705037Y-96844094D01*
X165788702Y-96687569D01*
X165818032Y-96651831D01*
X165901294Y-96550374D01*
X166002751Y-96467112D01*
X166038489Y-96437782D01*
X166195014Y-96354117D01*
X166364853Y-96302597D01*
X166431037Y-96296079D01*
X166497220Y-96289560D01*
X166585740Y-96289560D01*
X166651923Y-96296079D01*
X166651923Y-96296079D01*
G37*
G36*
X137464923Y-96296079D02*
G01*
X137531107Y-96302597D01*
X137700946Y-96354117D01*
X137857471Y-96437782D01*
X137893209Y-96467112D01*
X137994666Y-96550374D01*
X138077928Y-96651831D01*
X138107258Y-96687569D01*
X138190923Y-96844094D01*
X138242443Y-97013933D01*
X138259839Y-97190560D01*
X138242443Y-97367187D01*
X138190923Y-97537026D01*
X138107258Y-97693551D01*
X138077928Y-97729289D01*
X137994666Y-97830746D01*
X137893209Y-97914008D01*
X137857471Y-97943338D01*
X137700946Y-98027003D01*
X137531107Y-98078523D01*
X137464923Y-98085041D01*
X137398740Y-98091560D01*
X137310220Y-98091560D01*
X137244038Y-98085042D01*
X137177853Y-98078523D01*
X137008014Y-98027003D01*
X136851489Y-97943338D01*
X136815751Y-97914008D01*
X136714294Y-97830746D01*
X136631032Y-97729289D01*
X136601702Y-97693551D01*
X136518037Y-97537026D01*
X136466517Y-97367187D01*
X136449121Y-97190560D01*
X136466517Y-97013933D01*
X136518037Y-96844094D01*
X136601702Y-96687569D01*
X136631032Y-96651831D01*
X136714294Y-96550374D01*
X136815751Y-96467112D01*
X136851489Y-96437782D01*
X137008014Y-96354117D01*
X137177853Y-96302597D01*
X137244037Y-96296079D01*
X137310220Y-96289560D01*
X137398740Y-96289560D01*
X137464923Y-96296079D01*
X137464923Y-96296079D01*
G37*
G36*
X166651922Y-93756078D02*
G01*
X166718107Y-93762597D01*
X166887946Y-93814117D01*
X167044471Y-93897782D01*
X167080209Y-93927112D01*
X167181666Y-94010374D01*
X167264928Y-94111831D01*
X167294258Y-94147569D01*
X167377923Y-94304094D01*
X167429443Y-94473933D01*
X167446839Y-94650560D01*
X167429443Y-94827187D01*
X167377923Y-94997026D01*
X167294258Y-95153551D01*
X167264928Y-95189289D01*
X167181666Y-95290746D01*
X167080209Y-95374008D01*
X167044471Y-95403338D01*
X166887946Y-95487003D01*
X166718107Y-95538523D01*
X166651922Y-95545042D01*
X166585740Y-95551560D01*
X166497220Y-95551560D01*
X166431038Y-95545042D01*
X166364853Y-95538523D01*
X166195014Y-95487003D01*
X166038489Y-95403338D01*
X166002751Y-95374008D01*
X165901294Y-95290746D01*
X165818032Y-95189289D01*
X165788702Y-95153551D01*
X165705037Y-94997026D01*
X165653517Y-94827187D01*
X165636121Y-94650560D01*
X165653517Y-94473933D01*
X165705037Y-94304094D01*
X165788702Y-94147569D01*
X165818032Y-94111831D01*
X165901294Y-94010374D01*
X166002751Y-93927112D01*
X166038489Y-93897782D01*
X166195014Y-93814117D01*
X166364853Y-93762597D01*
X166431038Y-93756078D01*
X166497220Y-93749560D01*
X166585740Y-93749560D01*
X166651922Y-93756078D01*
X166651922Y-93756078D01*
G37*
G36*
X137464922Y-93756078D02*
G01*
X137531107Y-93762597D01*
X137700946Y-93814117D01*
X137857471Y-93897782D01*
X137893209Y-93927112D01*
X137994666Y-94010374D01*
X138077928Y-94111831D01*
X138107258Y-94147569D01*
X138190923Y-94304094D01*
X138242443Y-94473933D01*
X138259839Y-94650560D01*
X138242443Y-94827187D01*
X138190923Y-94997026D01*
X138107258Y-95153551D01*
X138077928Y-95189289D01*
X137994666Y-95290746D01*
X137893209Y-95374008D01*
X137857471Y-95403338D01*
X137700946Y-95487003D01*
X137531107Y-95538523D01*
X137464922Y-95545042D01*
X137398740Y-95551560D01*
X137310220Y-95551560D01*
X137244038Y-95545042D01*
X137177853Y-95538523D01*
X137008014Y-95487003D01*
X136851489Y-95403338D01*
X136815751Y-95374008D01*
X136714294Y-95290746D01*
X136631032Y-95189289D01*
X136601702Y-95153551D01*
X136518037Y-94997026D01*
X136466517Y-94827187D01*
X136449121Y-94650560D01*
X136466517Y-94473933D01*
X136518037Y-94304094D01*
X136601702Y-94147569D01*
X136631032Y-94111831D01*
X136714294Y-94010374D01*
X136815751Y-93927112D01*
X136851489Y-93897782D01*
X137008014Y-93814117D01*
X137177853Y-93762597D01*
X137244038Y-93756078D01*
X137310220Y-93749560D01*
X137398740Y-93749560D01*
X137464922Y-93756078D01*
X137464922Y-93756078D01*
G37*
G36*
X156883480Y-94980960D02*
G01*
X155881480Y-94980960D01*
X155881480Y-92778960D01*
X156883480Y-92778960D01*
X156883480Y-94980960D01*
X156883480Y-94980960D01*
G37*
G36*
X146723480Y-94980960D02*
G01*
X145721480Y-94980960D01*
X145721480Y-92778960D01*
X146723480Y-92778960D01*
X146723480Y-94980960D01*
X146723480Y-94980960D01*
G37*
G36*
X147998480Y-94980960D02*
G01*
X146996480Y-94980960D01*
X146996480Y-92778960D01*
X147998480Y-92778960D01*
X147998480Y-94980960D01*
X147998480Y-94980960D01*
G37*
G36*
X149263480Y-94980960D02*
G01*
X148261480Y-94980960D01*
X148261480Y-92778960D01*
X149263480Y-92778960D01*
X149263480Y-94980960D01*
X149263480Y-94980960D01*
G37*
G36*
X150533480Y-94980960D02*
G01*
X149531480Y-94980960D01*
X149531480Y-92778960D01*
X150533480Y-92778960D01*
X150533480Y-94980960D01*
X150533480Y-94980960D01*
G37*
G36*
X151803480Y-94980960D02*
G01*
X150801480Y-94980960D01*
X150801480Y-92778960D01*
X151803480Y-92778960D01*
X151803480Y-94980960D01*
X151803480Y-94980960D01*
G37*
G36*
X153073480Y-94980960D02*
G01*
X152071480Y-94980960D01*
X152071480Y-92778960D01*
X153073480Y-92778960D01*
X153073480Y-94980960D01*
X153073480Y-94980960D01*
G37*
G36*
X154343480Y-94980960D02*
G01*
X153341480Y-94980960D01*
X153341480Y-92778960D01*
X154343480Y-92778960D01*
X154343480Y-94980960D01*
X154343480Y-94980960D01*
G37*
G36*
X158153480Y-94980960D02*
G01*
X157151480Y-94980960D01*
X157151480Y-92778960D01*
X158153480Y-92778960D01*
X158153480Y-94980960D01*
X158153480Y-94980960D01*
G37*
G36*
X159423480Y-94980960D02*
G01*
X158421480Y-94980960D01*
X158421480Y-92778960D01*
X159423480Y-92778960D01*
X159423480Y-94980960D01*
X159423480Y-94980960D01*
G37*
G36*
X155613480Y-94980960D02*
G01*
X154611480Y-94980960D01*
X154611480Y-92778960D01*
X155613480Y-92778960D01*
X155613480Y-94980960D01*
X155613480Y-94980960D01*
G37*
G36*
X145463480Y-94980960D02*
G01*
X144461480Y-94980960D01*
X144461480Y-92778960D01*
X145463480Y-92778960D01*
X145463480Y-94980960D01*
X145463480Y-94980960D01*
G37*
G36*
X166651923Y-91216079D02*
G01*
X166718107Y-91222597D01*
X166887946Y-91274117D01*
X167044471Y-91357782D01*
X167048343Y-91360960D01*
X167181666Y-91470374D01*
X167264928Y-91571831D01*
X167294258Y-91607569D01*
X167377923Y-91764094D01*
X167429443Y-91933933D01*
X167446839Y-92110560D01*
X167429443Y-92287187D01*
X167377923Y-92457026D01*
X167294258Y-92613551D01*
X167264928Y-92649289D01*
X167181666Y-92750746D01*
X167080209Y-92834008D01*
X167044471Y-92863338D01*
X166887946Y-92947003D01*
X166718107Y-92998523D01*
X166651923Y-93005041D01*
X166585740Y-93011560D01*
X166497220Y-93011560D01*
X166431037Y-93005041D01*
X166364853Y-92998523D01*
X166195014Y-92947003D01*
X166038489Y-92863338D01*
X166002751Y-92834008D01*
X165901294Y-92750746D01*
X165818032Y-92649289D01*
X165788702Y-92613551D01*
X165705037Y-92457026D01*
X165653517Y-92287187D01*
X165636121Y-92110560D01*
X165653517Y-91933933D01*
X165705037Y-91764094D01*
X165788702Y-91607569D01*
X165818032Y-91571831D01*
X165901294Y-91470374D01*
X166034617Y-91360960D01*
X166038489Y-91357782D01*
X166195014Y-91274117D01*
X166364853Y-91222597D01*
X166431037Y-91216079D01*
X166497220Y-91209560D01*
X166585740Y-91209560D01*
X166651923Y-91216079D01*
X166651923Y-91216079D01*
G37*
G36*
X137464923Y-91216079D02*
G01*
X137531107Y-91222597D01*
X137700946Y-91274117D01*
X137857471Y-91357782D01*
X137861343Y-91360960D01*
X137994666Y-91470374D01*
X138077928Y-91571831D01*
X138107258Y-91607569D01*
X138190923Y-91764094D01*
X138242443Y-91933933D01*
X138259839Y-92110560D01*
X138242443Y-92287187D01*
X138190923Y-92457026D01*
X138107258Y-92613551D01*
X138077928Y-92649289D01*
X137994666Y-92750746D01*
X137893209Y-92834008D01*
X137857471Y-92863338D01*
X137700946Y-92947003D01*
X137531107Y-92998523D01*
X137464923Y-93005041D01*
X137398740Y-93011560D01*
X137310220Y-93011560D01*
X137244037Y-93005041D01*
X137177853Y-92998523D01*
X137008014Y-92947003D01*
X136851489Y-92863338D01*
X136815751Y-92834008D01*
X136714294Y-92750746D01*
X136631032Y-92649289D01*
X136601702Y-92613551D01*
X136518037Y-92457026D01*
X136466517Y-92287187D01*
X136449121Y-92110560D01*
X136466517Y-91933933D01*
X136518037Y-91764094D01*
X136601702Y-91607569D01*
X136631032Y-91571831D01*
X136714294Y-91470374D01*
X136847617Y-91360960D01*
X136851489Y-91357782D01*
X137008014Y-91274117D01*
X137177853Y-91222597D01*
X137244037Y-91216079D01*
X137310220Y-91209560D01*
X137398740Y-91209560D01*
X137464923Y-91216079D01*
X137464923Y-91216079D01*
G37*
G36*
X161793480Y-92630960D02*
G01*
X159591480Y-92630960D01*
X159591480Y-91628960D01*
X161793480Y-91628960D01*
X161793480Y-92630960D01*
X161793480Y-92630960D01*
G37*
G36*
X144293480Y-92630960D02*
G01*
X142091480Y-92630960D01*
X142091480Y-91628960D01*
X144293480Y-91628960D01*
X144293480Y-92630960D01*
X144293480Y-92630960D01*
G37*
G36*
X161793480Y-91360960D02*
G01*
X159591480Y-91360960D01*
X159591480Y-90358960D01*
X161793480Y-90358960D01*
X161793480Y-91360960D01*
X161793480Y-91360960D01*
G37*
G36*
X144267780Y-91360960D02*
G01*
X142065780Y-91360960D01*
X142065780Y-90358960D01*
X144267780Y-90358960D01*
X144267780Y-91360960D01*
X144267780Y-91360960D01*
G37*
G36*
X137464922Y-88676078D02*
G01*
X137531107Y-88682597D01*
X137700946Y-88734117D01*
X137857471Y-88817782D01*
X137861343Y-88820960D01*
X137994666Y-88930374D01*
X138077928Y-89031831D01*
X138107258Y-89067569D01*
X138190923Y-89224094D01*
X138242443Y-89393933D01*
X138259839Y-89570560D01*
X138242443Y-89747187D01*
X138190923Y-89917026D01*
X138107258Y-90073551D01*
X138077928Y-90109289D01*
X137994666Y-90210746D01*
X137893209Y-90294008D01*
X137857471Y-90323338D01*
X137700946Y-90407003D01*
X137531107Y-90458523D01*
X137464923Y-90465041D01*
X137398740Y-90471560D01*
X137310220Y-90471560D01*
X137244037Y-90465041D01*
X137177853Y-90458523D01*
X137008014Y-90407003D01*
X136851489Y-90323338D01*
X136815751Y-90294008D01*
X136714294Y-90210746D01*
X136631032Y-90109289D01*
X136601702Y-90073551D01*
X136518037Y-89917026D01*
X136466517Y-89747187D01*
X136449121Y-89570560D01*
X136466517Y-89393933D01*
X136518037Y-89224094D01*
X136601702Y-89067569D01*
X136631032Y-89031831D01*
X136714294Y-88930374D01*
X136847617Y-88820960D01*
X136851489Y-88817782D01*
X137008014Y-88734117D01*
X137177853Y-88682597D01*
X137244038Y-88676078D01*
X137310220Y-88669560D01*
X137398740Y-88669560D01*
X137464922Y-88676078D01*
X137464922Y-88676078D01*
G37*
G36*
X166651922Y-88676078D02*
G01*
X166718107Y-88682597D01*
X166887946Y-88734117D01*
X167044471Y-88817782D01*
X167048343Y-88820960D01*
X167181666Y-88930374D01*
X167264928Y-89031831D01*
X167294258Y-89067569D01*
X167377923Y-89224094D01*
X167429443Y-89393933D01*
X167446839Y-89570560D01*
X167429443Y-89747187D01*
X167377923Y-89917026D01*
X167294258Y-90073551D01*
X167264928Y-90109289D01*
X167181666Y-90210746D01*
X167080209Y-90294008D01*
X167044471Y-90323338D01*
X166887946Y-90407003D01*
X166718107Y-90458523D01*
X166651923Y-90465041D01*
X166585740Y-90471560D01*
X166497220Y-90471560D01*
X166431037Y-90465041D01*
X166364853Y-90458523D01*
X166195014Y-90407003D01*
X166038489Y-90323338D01*
X166002751Y-90294008D01*
X165901294Y-90210746D01*
X165818032Y-90109289D01*
X165788702Y-90073551D01*
X165705037Y-89917026D01*
X165653517Y-89747187D01*
X165636121Y-89570560D01*
X165653517Y-89393933D01*
X165705037Y-89224094D01*
X165788702Y-89067569D01*
X165818032Y-89031831D01*
X165901294Y-88930374D01*
X166034617Y-88820960D01*
X166038489Y-88817782D01*
X166195014Y-88734117D01*
X166364853Y-88682597D01*
X166431038Y-88676078D01*
X166497220Y-88669560D01*
X166585740Y-88669560D01*
X166651922Y-88676078D01*
X166651922Y-88676078D01*
G37*
G36*
X144293480Y-90090960D02*
G01*
X142091480Y-90090960D01*
X142091480Y-89088960D01*
X144293480Y-89088960D01*
X144293480Y-90090960D01*
X144293480Y-90090960D01*
G37*
G36*
X161793480Y-90090960D02*
G01*
X159591480Y-90090960D01*
X159591480Y-89088960D01*
X161793480Y-89088960D01*
X161793480Y-90090960D01*
X161793480Y-90090960D01*
G37*
G36*
X161793480Y-88820960D02*
G01*
X159591480Y-88820960D01*
X159591480Y-87818960D01*
X161793480Y-87818960D01*
X161793480Y-88820960D01*
X161793480Y-88820960D01*
G37*
G36*
X144293480Y-88820960D02*
G01*
X142091480Y-88820960D01*
X142091480Y-87818960D01*
X144293480Y-87818960D01*
X144293480Y-88820960D01*
X144293480Y-88820960D01*
G37*
G36*
X137464923Y-86136079D02*
G01*
X137531107Y-86142597D01*
X137700946Y-86194117D01*
X137857471Y-86277782D01*
X137861343Y-86280960D01*
X137994666Y-86390374D01*
X138077928Y-86491831D01*
X138107258Y-86527569D01*
X138190923Y-86684094D01*
X138242443Y-86853933D01*
X138259839Y-87030560D01*
X138242443Y-87207187D01*
X138190923Y-87377026D01*
X138107258Y-87533551D01*
X138077928Y-87569289D01*
X137994666Y-87670746D01*
X137893209Y-87754008D01*
X137857471Y-87783338D01*
X137700946Y-87867003D01*
X137531107Y-87918523D01*
X137464922Y-87925042D01*
X137398740Y-87931560D01*
X137310220Y-87931560D01*
X137244038Y-87925042D01*
X137177853Y-87918523D01*
X137008014Y-87867003D01*
X136851489Y-87783338D01*
X136815751Y-87754008D01*
X136714294Y-87670746D01*
X136631032Y-87569289D01*
X136601702Y-87533551D01*
X136518037Y-87377026D01*
X136466517Y-87207187D01*
X136449121Y-87030560D01*
X136466517Y-86853933D01*
X136518037Y-86684094D01*
X136601702Y-86527569D01*
X136631032Y-86491831D01*
X136714294Y-86390374D01*
X136847617Y-86280960D01*
X136851489Y-86277782D01*
X137008014Y-86194117D01*
X137177853Y-86142597D01*
X137244037Y-86136079D01*
X137310220Y-86129560D01*
X137398740Y-86129560D01*
X137464923Y-86136079D01*
X137464923Y-86136079D01*
G37*
G36*
X166651923Y-86136079D02*
G01*
X166718107Y-86142597D01*
X166887946Y-86194117D01*
X167044471Y-86277782D01*
X167048343Y-86280960D01*
X167181666Y-86390374D01*
X167264928Y-86491831D01*
X167294258Y-86527569D01*
X167377923Y-86684094D01*
X167429443Y-86853933D01*
X167446839Y-87030560D01*
X167429443Y-87207187D01*
X167377923Y-87377026D01*
X167294258Y-87533551D01*
X167264928Y-87569289D01*
X167181666Y-87670746D01*
X167080209Y-87754008D01*
X167044471Y-87783338D01*
X166887946Y-87867003D01*
X166718107Y-87918523D01*
X166651922Y-87925042D01*
X166585740Y-87931560D01*
X166497220Y-87931560D01*
X166431038Y-87925042D01*
X166364853Y-87918523D01*
X166195014Y-87867003D01*
X166038489Y-87783338D01*
X166002751Y-87754008D01*
X165901294Y-87670746D01*
X165818032Y-87569289D01*
X165788702Y-87533551D01*
X165705037Y-87377026D01*
X165653517Y-87207187D01*
X165636121Y-87030560D01*
X165653517Y-86853933D01*
X165705037Y-86684094D01*
X165788702Y-86527569D01*
X165818032Y-86491831D01*
X165901294Y-86390374D01*
X166034617Y-86280960D01*
X166038489Y-86277782D01*
X166195014Y-86194117D01*
X166364853Y-86142597D01*
X166431037Y-86136079D01*
X166497220Y-86129560D01*
X166585740Y-86129560D01*
X166651923Y-86136079D01*
X166651923Y-86136079D01*
G37*
G36*
X144293480Y-87550960D02*
G01*
X142091480Y-87550960D01*
X142091480Y-86548960D01*
X144293480Y-86548960D01*
X144293480Y-87550960D01*
X144293480Y-87550960D01*
G37*
G36*
X161793480Y-87550960D02*
G01*
X159591480Y-87550960D01*
X159591480Y-86548960D01*
X161793480Y-86548960D01*
X161793480Y-87550960D01*
X161793480Y-87550960D01*
G37*
G36*
X161793480Y-86280960D02*
G01*
X159591480Y-86280960D01*
X159591480Y-85278960D01*
X161793480Y-85278960D01*
X161793480Y-86280960D01*
X161793480Y-86280960D01*
G37*
G36*
X144293480Y-86280960D02*
G01*
X142091480Y-86280960D01*
X142091480Y-85278960D01*
X144293480Y-85278960D01*
X144293480Y-86280960D01*
X144293480Y-86280960D01*
G37*
G36*
X166651922Y-83596078D02*
G01*
X166718107Y-83602597D01*
X166887946Y-83654117D01*
X167044471Y-83737782D01*
X167048343Y-83740960D01*
X167181666Y-83850374D01*
X167264928Y-83951831D01*
X167294258Y-83987569D01*
X167377923Y-84144094D01*
X167429443Y-84313933D01*
X167446839Y-84490560D01*
X167429443Y-84667187D01*
X167377923Y-84837026D01*
X167294258Y-84993551D01*
X167264928Y-85029289D01*
X167181666Y-85130746D01*
X167080209Y-85214008D01*
X167044471Y-85243338D01*
X166887946Y-85327003D01*
X166718107Y-85378523D01*
X166651922Y-85385042D01*
X166585740Y-85391560D01*
X166497220Y-85391560D01*
X166431038Y-85385042D01*
X166364853Y-85378523D01*
X166195014Y-85327003D01*
X166038489Y-85243338D01*
X166002751Y-85214008D01*
X165901294Y-85130746D01*
X165818032Y-85029289D01*
X165788702Y-84993551D01*
X165705037Y-84837026D01*
X165653517Y-84667187D01*
X165636121Y-84490560D01*
X165653517Y-84313933D01*
X165705037Y-84144094D01*
X165788702Y-83987569D01*
X165818032Y-83951831D01*
X165901294Y-83850374D01*
X166034617Y-83740960D01*
X166038489Y-83737782D01*
X166195014Y-83654117D01*
X166364853Y-83602597D01*
X166431038Y-83596078D01*
X166497220Y-83589560D01*
X166585740Y-83589560D01*
X166651922Y-83596078D01*
X166651922Y-83596078D01*
G37*
G36*
X137464922Y-83596078D02*
G01*
X137531107Y-83602597D01*
X137700946Y-83654117D01*
X137857471Y-83737782D01*
X137861343Y-83740960D01*
X137994666Y-83850374D01*
X138077928Y-83951831D01*
X138107258Y-83987569D01*
X138190923Y-84144094D01*
X138242443Y-84313933D01*
X138259839Y-84490560D01*
X138242443Y-84667187D01*
X138190923Y-84837026D01*
X138107258Y-84993551D01*
X138077928Y-85029289D01*
X137994666Y-85130746D01*
X137893209Y-85214008D01*
X137857471Y-85243338D01*
X137700946Y-85327003D01*
X137531107Y-85378523D01*
X137464922Y-85385042D01*
X137398740Y-85391560D01*
X137310220Y-85391560D01*
X137244038Y-85385042D01*
X137177853Y-85378523D01*
X137008014Y-85327003D01*
X136851489Y-85243338D01*
X136815751Y-85214008D01*
X136714294Y-85130746D01*
X136631032Y-85029289D01*
X136601702Y-84993551D01*
X136518037Y-84837026D01*
X136466517Y-84667187D01*
X136449121Y-84490560D01*
X136466517Y-84313933D01*
X136518037Y-84144094D01*
X136601702Y-83987569D01*
X136631032Y-83951831D01*
X136714294Y-83850374D01*
X136847617Y-83740960D01*
X136851489Y-83737782D01*
X137008014Y-83654117D01*
X137177853Y-83602597D01*
X137244038Y-83596078D01*
X137310220Y-83589560D01*
X137398740Y-83589560D01*
X137464922Y-83596078D01*
X137464922Y-83596078D01*
G37*
G36*
X161793480Y-85010960D02*
G01*
X159591480Y-85010960D01*
X159591480Y-84008960D01*
X161793480Y-84008960D01*
X161793480Y-85010960D01*
X161793480Y-85010960D01*
G37*
G36*
X144293480Y-85010960D02*
G01*
X142091480Y-85010960D01*
X142091480Y-84008960D01*
X144293480Y-84008960D01*
X144293480Y-85010960D01*
X144293480Y-85010960D01*
G37*
G36*
X161793480Y-83740960D02*
G01*
X159591480Y-83740960D01*
X159591480Y-82738960D01*
X161793480Y-82738960D01*
X161793480Y-83740960D01*
X161793480Y-83740960D01*
G37*
G36*
X144293480Y-83740960D02*
G01*
X142091480Y-83740960D01*
X142091480Y-82738960D01*
X144293480Y-82738960D01*
X144293480Y-83740960D01*
X144293480Y-83740960D01*
G37*
G36*
X137464922Y-81056078D02*
G01*
X137531107Y-81062597D01*
X137700946Y-81114117D01*
X137857471Y-81197782D01*
X137861343Y-81200960D01*
X137994666Y-81310374D01*
X138077928Y-81411831D01*
X138107258Y-81447569D01*
X138190923Y-81604094D01*
X138242443Y-81773933D01*
X138259839Y-81950560D01*
X138242443Y-82127187D01*
X138190923Y-82297026D01*
X138107258Y-82453551D01*
X138077928Y-82489289D01*
X137994666Y-82590746D01*
X137893209Y-82674008D01*
X137857471Y-82703338D01*
X137700946Y-82787003D01*
X137531107Y-82838523D01*
X137464923Y-82845041D01*
X137398740Y-82851560D01*
X137310220Y-82851560D01*
X137244037Y-82845041D01*
X137177853Y-82838523D01*
X137008014Y-82787003D01*
X136851489Y-82703338D01*
X136815751Y-82674008D01*
X136714294Y-82590746D01*
X136631032Y-82489289D01*
X136601702Y-82453551D01*
X136518037Y-82297026D01*
X136466517Y-82127187D01*
X136449121Y-81950560D01*
X136466517Y-81773933D01*
X136518037Y-81604094D01*
X136601702Y-81447569D01*
X136631032Y-81411831D01*
X136714294Y-81310374D01*
X136847617Y-81200960D01*
X136851489Y-81197782D01*
X137008014Y-81114117D01*
X137177853Y-81062597D01*
X137244038Y-81056078D01*
X137310220Y-81049560D01*
X137398740Y-81049560D01*
X137464922Y-81056078D01*
X137464922Y-81056078D01*
G37*
G36*
X166651922Y-81056078D02*
G01*
X166718107Y-81062597D01*
X166887946Y-81114117D01*
X167044471Y-81197782D01*
X167048343Y-81200960D01*
X167181666Y-81310374D01*
X167264928Y-81411831D01*
X167294258Y-81447569D01*
X167377923Y-81604094D01*
X167429443Y-81773933D01*
X167446839Y-81950560D01*
X167429443Y-82127187D01*
X167377923Y-82297026D01*
X167294258Y-82453551D01*
X167264928Y-82489289D01*
X167181666Y-82590746D01*
X167080209Y-82674008D01*
X167044471Y-82703338D01*
X166887946Y-82787003D01*
X166718107Y-82838523D01*
X166651923Y-82845041D01*
X166585740Y-82851560D01*
X166497220Y-82851560D01*
X166431037Y-82845041D01*
X166364853Y-82838523D01*
X166195014Y-82787003D01*
X166038489Y-82703338D01*
X166002751Y-82674008D01*
X165901294Y-82590746D01*
X165818032Y-82489289D01*
X165788702Y-82453551D01*
X165705037Y-82297026D01*
X165653517Y-82127187D01*
X165636121Y-81950560D01*
X165653517Y-81773933D01*
X165705037Y-81604094D01*
X165788702Y-81447569D01*
X165818032Y-81411831D01*
X165901294Y-81310374D01*
X166034617Y-81200960D01*
X166038489Y-81197782D01*
X166195014Y-81114117D01*
X166364853Y-81062597D01*
X166431038Y-81056078D01*
X166497220Y-81049560D01*
X166585740Y-81049560D01*
X166651922Y-81056078D01*
X166651922Y-81056078D01*
G37*
G36*
X161793480Y-82470960D02*
G01*
X159591480Y-82470960D01*
X159591480Y-81468960D01*
X161793480Y-81468960D01*
X161793480Y-82470960D01*
X161793480Y-82470960D01*
G37*
G36*
X144293480Y-82470960D02*
G01*
X142091480Y-82470960D01*
X142091480Y-81468960D01*
X144293480Y-81468960D01*
X144293480Y-82470960D01*
X144293480Y-82470960D01*
G37*
G36*
X144293480Y-81200960D02*
G01*
X142091480Y-81200960D01*
X142091480Y-80198960D01*
X144293480Y-80198960D01*
X144293480Y-81200960D01*
X144293480Y-81200960D01*
G37*
G36*
X161793480Y-81200960D02*
G01*
X159591480Y-81200960D01*
X159591480Y-80198960D01*
X161793480Y-80198960D01*
X161793480Y-81200960D01*
X161793480Y-81200960D01*
G37*
G36*
X166651923Y-78516079D02*
G01*
X166718107Y-78522597D01*
X166887946Y-78574117D01*
X167044471Y-78657782D01*
X167048343Y-78660960D01*
X167181666Y-78770374D01*
X167264928Y-78871831D01*
X167294258Y-78907569D01*
X167377923Y-79064094D01*
X167429443Y-79233933D01*
X167446839Y-79410560D01*
X167429443Y-79587187D01*
X167377923Y-79757026D01*
X167294258Y-79913551D01*
X167264928Y-79949289D01*
X167181666Y-80050746D01*
X167080209Y-80134008D01*
X167044471Y-80163338D01*
X166887946Y-80247003D01*
X166718107Y-80298523D01*
X166651923Y-80305041D01*
X166585740Y-80311560D01*
X166497220Y-80311560D01*
X166431037Y-80305041D01*
X166364853Y-80298523D01*
X166195014Y-80247003D01*
X166038489Y-80163338D01*
X166002751Y-80134008D01*
X165901294Y-80050746D01*
X165818032Y-79949289D01*
X165788702Y-79913551D01*
X165705037Y-79757026D01*
X165653517Y-79587187D01*
X165636121Y-79410560D01*
X165653517Y-79233933D01*
X165705037Y-79064094D01*
X165788702Y-78907569D01*
X165818032Y-78871831D01*
X165901294Y-78770374D01*
X166034617Y-78660960D01*
X166038489Y-78657782D01*
X166195014Y-78574117D01*
X166364853Y-78522597D01*
X166431037Y-78516079D01*
X166497220Y-78509560D01*
X166585740Y-78509560D01*
X166651923Y-78516079D01*
X166651923Y-78516079D01*
G37*
G36*
X137464923Y-78516079D02*
G01*
X137531107Y-78522597D01*
X137700946Y-78574117D01*
X137857471Y-78657782D01*
X137861343Y-78660960D01*
X137994666Y-78770374D01*
X138077928Y-78871831D01*
X138107258Y-78907569D01*
X138190923Y-79064094D01*
X138242443Y-79233933D01*
X138259839Y-79410560D01*
X138242443Y-79587187D01*
X138190923Y-79757026D01*
X138107258Y-79913551D01*
X138077928Y-79949289D01*
X137994666Y-80050746D01*
X137893209Y-80134008D01*
X137857471Y-80163338D01*
X137700946Y-80247003D01*
X137531107Y-80298523D01*
X137464923Y-80305041D01*
X137398740Y-80311560D01*
X137310220Y-80311560D01*
X137244037Y-80305041D01*
X137177853Y-80298523D01*
X137008014Y-80247003D01*
X136851489Y-80163338D01*
X136815751Y-80134008D01*
X136714294Y-80050746D01*
X136631032Y-79949289D01*
X136601702Y-79913551D01*
X136518037Y-79757026D01*
X136466517Y-79587187D01*
X136449121Y-79410560D01*
X136466517Y-79233933D01*
X136518037Y-79064094D01*
X136601702Y-78907569D01*
X136631032Y-78871831D01*
X136714294Y-78770374D01*
X136847617Y-78660960D01*
X136851489Y-78657782D01*
X137008014Y-78574117D01*
X137177853Y-78522597D01*
X137244037Y-78516079D01*
X137310220Y-78509560D01*
X137398740Y-78509560D01*
X137464923Y-78516079D01*
X137464923Y-78516079D01*
G37*
G36*
X161793480Y-79930960D02*
G01*
X159591480Y-79930960D01*
X159591480Y-78928960D01*
X161793480Y-78928960D01*
X161793480Y-79930960D01*
X161793480Y-79930960D01*
G37*
G36*
X144293480Y-79930960D02*
G01*
X142091480Y-79930960D01*
X142091480Y-78928960D01*
X144293480Y-78928960D01*
X144293480Y-79930960D01*
X144293480Y-79930960D01*
G37*
G36*
X161793480Y-78660960D02*
G01*
X159591480Y-78660960D01*
X159591480Y-77658960D01*
X161793480Y-77658960D01*
X161793480Y-78660960D01*
X161793480Y-78660960D01*
G37*
G36*
X144293480Y-78660960D02*
G01*
X142091480Y-78660960D01*
X142091480Y-77658960D01*
X144293480Y-77658960D01*
X144293480Y-78660960D01*
X144293480Y-78660960D01*
G37*
G36*
X166651923Y-75976079D02*
G01*
X166718107Y-75982597D01*
X166887946Y-76034117D01*
X167044471Y-76117782D01*
X167048343Y-76120960D01*
X167181666Y-76230374D01*
X167264928Y-76331831D01*
X167294258Y-76367569D01*
X167377923Y-76524094D01*
X167429443Y-76693933D01*
X167446839Y-76870560D01*
X167429443Y-77047187D01*
X167377923Y-77217026D01*
X167294258Y-77373551D01*
X167264928Y-77409289D01*
X167181666Y-77510746D01*
X167080209Y-77594008D01*
X167044471Y-77623338D01*
X166887946Y-77707003D01*
X166718107Y-77758523D01*
X166651922Y-77765042D01*
X166585740Y-77771560D01*
X166497220Y-77771560D01*
X166431038Y-77765042D01*
X166364853Y-77758523D01*
X166195014Y-77707003D01*
X166038489Y-77623338D01*
X166002751Y-77594008D01*
X165901294Y-77510746D01*
X165818032Y-77409289D01*
X165788702Y-77373551D01*
X165705037Y-77217026D01*
X165653517Y-77047187D01*
X165636121Y-76870560D01*
X165653517Y-76693933D01*
X165705037Y-76524094D01*
X165788702Y-76367569D01*
X165818032Y-76331831D01*
X165901294Y-76230374D01*
X166034617Y-76120960D01*
X166038489Y-76117782D01*
X166195014Y-76034117D01*
X166364853Y-75982597D01*
X166431037Y-75976079D01*
X166497220Y-75969560D01*
X166585740Y-75969560D01*
X166651923Y-75976079D01*
X166651923Y-75976079D01*
G37*
G36*
X137464923Y-75976079D02*
G01*
X137531107Y-75982597D01*
X137700946Y-76034117D01*
X137857471Y-76117782D01*
X137861343Y-76120960D01*
X137994666Y-76230374D01*
X138077928Y-76331831D01*
X138107258Y-76367569D01*
X138190923Y-76524094D01*
X138242443Y-76693933D01*
X138259839Y-76870560D01*
X138242443Y-77047187D01*
X138190923Y-77217026D01*
X138107258Y-77373551D01*
X138077928Y-77409289D01*
X137994666Y-77510746D01*
X137893209Y-77594008D01*
X137857471Y-77623338D01*
X137700946Y-77707003D01*
X137531107Y-77758523D01*
X137464922Y-77765042D01*
X137398740Y-77771560D01*
X137310220Y-77771560D01*
X137244038Y-77765042D01*
X137177853Y-77758523D01*
X137008014Y-77707003D01*
X136851489Y-77623338D01*
X136815751Y-77594008D01*
X136714294Y-77510746D01*
X136631032Y-77409289D01*
X136601702Y-77373551D01*
X136518037Y-77217026D01*
X136466517Y-77047187D01*
X136449121Y-76870560D01*
X136466517Y-76693933D01*
X136518037Y-76524094D01*
X136601702Y-76367569D01*
X136631032Y-76331831D01*
X136714294Y-76230374D01*
X136847617Y-76120960D01*
X136851489Y-76117782D01*
X137008014Y-76034117D01*
X137177853Y-75982597D01*
X137244037Y-75976079D01*
X137310220Y-75969560D01*
X137398740Y-75969560D01*
X137464923Y-75976079D01*
X137464923Y-75976079D01*
G37*
G36*
X161793480Y-77390960D02*
G01*
X159591480Y-77390960D01*
X159591480Y-76388960D01*
X161793480Y-76388960D01*
X161793480Y-77390960D01*
X161793480Y-77390960D01*
G37*
G36*
X144293480Y-77390960D02*
G01*
X142091480Y-77390960D01*
X142091480Y-76388960D01*
X144293480Y-76388960D01*
X144293480Y-77390960D01*
X144293480Y-77390960D01*
G37*
G36*
X161793480Y-76120960D02*
G01*
X159591480Y-76120960D01*
X159591480Y-75118960D01*
X161793480Y-75118960D01*
X161793480Y-76120960D01*
X161793480Y-76120960D01*
G37*
G36*
X144293480Y-76120960D02*
G01*
X142091480Y-76120960D01*
X142091480Y-75118960D01*
X144293480Y-75118960D01*
X144293480Y-76120960D01*
X144293480Y-76120960D01*
G37*
G36*
X166651923Y-73436079D02*
G01*
X166718107Y-73442597D01*
X166887946Y-73494117D01*
X167044471Y-73577782D01*
X167048343Y-73580960D01*
X167181666Y-73690374D01*
X167264928Y-73791831D01*
X167294258Y-73827569D01*
X167377923Y-73984094D01*
X167429443Y-74153933D01*
X167446839Y-74330560D01*
X167429443Y-74507187D01*
X167377923Y-74677026D01*
X167294258Y-74833551D01*
X167264928Y-74869289D01*
X167181666Y-74970746D01*
X167080209Y-75054008D01*
X167044471Y-75083338D01*
X166887946Y-75167003D01*
X166718107Y-75218523D01*
X166651923Y-75225041D01*
X166585740Y-75231560D01*
X166497220Y-75231560D01*
X166431037Y-75225041D01*
X166364853Y-75218523D01*
X166195014Y-75167003D01*
X166038489Y-75083338D01*
X166002751Y-75054008D01*
X165901294Y-74970746D01*
X165818032Y-74869289D01*
X165788702Y-74833551D01*
X165705037Y-74677026D01*
X165653517Y-74507187D01*
X165636121Y-74330560D01*
X165653517Y-74153933D01*
X165705037Y-73984094D01*
X165788702Y-73827569D01*
X165818032Y-73791831D01*
X165901294Y-73690374D01*
X166034617Y-73580960D01*
X166038489Y-73577782D01*
X166195014Y-73494117D01*
X166364853Y-73442597D01*
X166431037Y-73436079D01*
X166497220Y-73429560D01*
X166585740Y-73429560D01*
X166651923Y-73436079D01*
X166651923Y-73436079D01*
G37*
G36*
X137464923Y-73436079D02*
G01*
X137531107Y-73442597D01*
X137700946Y-73494117D01*
X137857471Y-73577782D01*
X137861343Y-73580960D01*
X137994666Y-73690374D01*
X138077928Y-73791831D01*
X138107258Y-73827569D01*
X138190923Y-73984094D01*
X138242443Y-74153933D01*
X138259839Y-74330560D01*
X138242443Y-74507187D01*
X138190923Y-74677026D01*
X138107258Y-74833551D01*
X138077928Y-74869289D01*
X137994666Y-74970746D01*
X137893209Y-75054008D01*
X137857471Y-75083338D01*
X137700946Y-75167003D01*
X137531107Y-75218523D01*
X137464923Y-75225041D01*
X137398740Y-75231560D01*
X137310220Y-75231560D01*
X137244037Y-75225041D01*
X137177853Y-75218523D01*
X137008014Y-75167003D01*
X136851489Y-75083338D01*
X136815751Y-75054008D01*
X136714294Y-74970746D01*
X136631032Y-74869289D01*
X136601702Y-74833551D01*
X136518037Y-74677026D01*
X136466517Y-74507187D01*
X136449121Y-74330560D01*
X136466517Y-74153933D01*
X136518037Y-73984094D01*
X136601702Y-73827569D01*
X136631032Y-73791831D01*
X136714294Y-73690374D01*
X136847617Y-73580960D01*
X136851489Y-73577782D01*
X137008014Y-73494117D01*
X137177853Y-73442597D01*
X137244037Y-73436079D01*
X137310220Y-73429560D01*
X137398740Y-73429560D01*
X137464923Y-73436079D01*
X137464923Y-73436079D01*
G37*
G36*
X161793480Y-73580960D02*
G01*
X159591480Y-73580960D01*
X159591480Y-72578960D01*
X161793480Y-72578960D01*
X161793480Y-73580960D01*
X161793480Y-73580960D01*
G37*
G36*
X144293480Y-73580960D02*
G01*
X142091480Y-73580960D01*
X142091480Y-72578960D01*
X144293480Y-72578960D01*
X144293480Y-73580960D01*
X144293480Y-73580960D01*
G37*
G36*
X167442480Y-72691560D02*
G01*
X165640480Y-72691560D01*
X165640480Y-70889560D01*
X167442480Y-70889560D01*
X167442480Y-72691560D01*
X167442480Y-72691560D01*
G37*
G36*
X138255480Y-72691560D02*
G01*
X136453480Y-72691560D01*
X136453480Y-70889560D01*
X138255480Y-70889560D01*
X138255480Y-72691560D01*
X138255480Y-72691560D01*
G37*
G36*
X144293480Y-72310960D02*
G01*
X142091480Y-72310960D01*
X142091480Y-71308960D01*
X144293480Y-71308960D01*
X144293480Y-72310960D01*
X144293480Y-72310960D01*
G37*
G36*
X161793480Y-72310960D02*
G01*
X159591480Y-72310960D01*
X159591480Y-71308960D01*
X161793480Y-71308960D01*
X161793480Y-72310960D01*
X161793480Y-72310960D01*
G37*
M02*
