G04 #@! TF.GenerationSoftware,KiCad,Pcbnew,(5.1.2)-2*
G04 #@! TF.CreationDate,2020-07-25T19:39:27+02:00*
G04 #@! TF.ProjectId,Adapter,41646170-7465-4722-9e6b-696361645f70,1*
G04 #@! TF.SameCoordinates,Original*
G04 #@! TF.FileFunction,Copper,L1,Top*
G04 #@! TF.FilePolarity,Positive*
%FSLAX46Y46*%
G04 Gerber Fmt 4.6, Leading zero omitted, Abs format (unit mm)*
G04 Created by KiCad (PCBNEW (5.1.2)-2) date 2020-07-25 19:39:27*
%MOMM*%
%LPD*%
G04 APERTURE LIST*
%ADD10O,1.700000X1.700000*%
%ADD11R,1.700000X1.700000*%
%ADD12R,2.100000X0.900000*%
%ADD13R,0.900000X2.100000*%
%ADD14R,1.800000X1.800000*%
%ADD15C,1.800000*%
%ADD16C,1.400000*%
%ADD17O,1.400000X1.400000*%
%ADD18C,0.800000*%
%ADD19C,0.250000*%
G04 APERTURE END LIST*
D10*
X166541480Y-114970560D03*
X166541480Y-112430560D03*
X166541480Y-109890560D03*
X166541480Y-107350560D03*
X166541480Y-104810560D03*
X166541480Y-102270560D03*
X166541480Y-99730560D03*
X166541480Y-97190560D03*
X166541480Y-94650560D03*
X166541480Y-92110560D03*
X166541480Y-89570560D03*
X166541480Y-87030560D03*
X166541480Y-84490560D03*
X166541480Y-81950560D03*
X166541480Y-79410560D03*
X166541480Y-76870560D03*
X166541480Y-74330560D03*
D11*
X166541480Y-71790560D03*
D10*
X137354480Y-114970560D03*
X137354480Y-112430560D03*
X137354480Y-109890560D03*
X137354480Y-107350560D03*
X137354480Y-104810560D03*
X137354480Y-102270560D03*
X137354480Y-99730560D03*
X137354480Y-97190560D03*
X137354480Y-94650560D03*
X137354480Y-92110560D03*
X137354480Y-89570560D03*
X137354480Y-87030560D03*
X137354480Y-84490560D03*
X137354480Y-81950560D03*
X137354480Y-79410560D03*
X137354480Y-76870560D03*
X137354480Y-74330560D03*
D11*
X137354480Y-71790560D03*
X160253480Y-104937960D03*
D10*
X160253480Y-107477960D03*
X157713480Y-104937960D03*
X157713480Y-107477960D03*
X155173480Y-104937960D03*
X155173480Y-107477960D03*
X152633480Y-104937960D03*
X152633480Y-107477960D03*
X150093480Y-104937960D03*
X150093480Y-107477960D03*
D12*
X143192480Y-92129960D03*
X160692480Y-92129960D03*
X143192480Y-71809960D03*
X143192480Y-73079960D03*
X160692480Y-73079960D03*
X160692480Y-71809960D03*
X143192480Y-75619960D03*
X160692480Y-75619960D03*
D13*
X158922480Y-93879960D03*
X144962480Y-93879960D03*
D12*
X143166780Y-90859960D03*
X160692480Y-90859960D03*
X160692480Y-89589960D03*
X160692480Y-88319960D03*
X160692480Y-87049960D03*
X160692480Y-85779960D03*
X160692480Y-84509960D03*
X160692480Y-83239960D03*
X160692480Y-81969960D03*
X160692480Y-80699960D03*
X160692480Y-79429960D03*
X160692480Y-78159960D03*
X160692480Y-76889960D03*
X143192480Y-88319960D03*
X143192480Y-89589960D03*
X143192480Y-85779960D03*
X143192480Y-87049960D03*
X143192480Y-83239960D03*
X143192480Y-84509960D03*
X143192480Y-80699960D03*
X143192480Y-81969960D03*
X143192480Y-78159960D03*
X143192480Y-79429960D03*
X143192480Y-76889960D03*
D13*
X157652480Y-93879960D03*
X156382480Y-93879960D03*
X155112480Y-93879960D03*
X153842480Y-93879960D03*
X152572480Y-93879960D03*
X151302480Y-93879960D03*
X146222480Y-93879960D03*
X150032480Y-93879960D03*
X148762480Y-93879960D03*
X147497480Y-93879960D03*
D14*
X145854480Y-113558960D03*
D15*
X143314480Y-113558960D03*
D16*
X154084480Y-114758960D03*
D17*
X149004480Y-114758960D03*
D18*
X162352480Y-72894960D03*
X144567480Y-74349960D03*
X141518480Y-91831960D03*
D19*
X166541480Y-114970560D02*
X166541480Y-114970960D01*
X156382480Y-93879960D02*
X156382480Y-95254960D01*
X156382480Y-95254960D02*
X161934480Y-100806960D01*
X161934480Y-100806960D02*
X161934480Y-109554960D01*
X161934480Y-109554960D02*
X166174480Y-113794960D01*
X166174480Y-113794960D02*
X166541480Y-113794960D01*
X166541480Y-113794960D02*
X166541480Y-114970560D01*
X166541480Y-112430560D02*
X166541480Y-112430960D01*
X157652480Y-93879960D02*
X157652480Y-95518960D01*
X157652480Y-95518960D02*
X163343480Y-101209960D01*
X163343480Y-101209960D02*
X163343480Y-108358960D01*
X163343480Y-108358960D02*
X166240480Y-111254960D01*
X166240480Y-111254960D02*
X166541480Y-111254960D01*
X166541480Y-111254960D02*
X166541480Y-112430560D01*
X166541480Y-109890560D02*
X166541480Y-109890960D01*
X158922480Y-93879960D02*
X158922480Y-95891960D01*
X158922480Y-95891960D02*
X164425480Y-101394960D01*
X164425480Y-101394960D02*
X164425480Y-106966960D01*
X164425480Y-106966960D02*
X166174480Y-108714960D01*
X166174480Y-108714960D02*
X166541480Y-108714960D01*
X166541480Y-108714960D02*
X166541480Y-109890560D01*
X166541480Y-107350560D02*
X166541480Y-107350960D01*
X160692480Y-92129960D02*
X160692480Y-96886960D01*
X160692480Y-96886960D02*
X164876480Y-101070960D01*
X164876480Y-101070960D02*
X164876480Y-104876960D01*
X164876480Y-104876960D02*
X166174480Y-106174960D01*
X166174480Y-106174960D02*
X166541480Y-106174960D01*
X166541480Y-106174960D02*
X166541480Y-107350560D01*
X166541480Y-104810560D02*
X166541480Y-104810960D01*
X160692480Y-90859960D02*
X162067480Y-90859960D01*
X162067480Y-90859960D02*
X162067480Y-97625960D01*
X162067480Y-97625960D02*
X165366480Y-100923960D01*
X165366480Y-100923960D02*
X165366480Y-102760960D01*
X165366480Y-102760960D02*
X166240480Y-103634960D01*
X166240480Y-103634960D02*
X166541480Y-103634960D01*
X166541480Y-103634960D02*
X166541480Y-104810560D01*
X166541480Y-102270560D02*
X166541480Y-102270960D01*
X160692480Y-89589960D02*
X162067480Y-89589960D01*
X162067480Y-89589960D02*
X162518480Y-90039960D01*
X162518480Y-90039960D02*
X162518480Y-97403960D01*
X162518480Y-97403960D02*
X166209480Y-101094960D01*
X166209480Y-101094960D02*
X166541480Y-101094960D01*
X166541480Y-101094960D02*
X166541480Y-102270560D01*
X166541480Y-99730560D02*
X166541480Y-99730960D01*
X160692480Y-88319960D02*
X162067480Y-88319960D01*
X162067480Y-88319960D02*
X163195480Y-89447960D01*
X163195480Y-89447960D02*
X163195480Y-95576960D01*
X163195480Y-95576960D02*
X166174480Y-98554960D01*
X166174480Y-98554960D02*
X166541480Y-98554960D01*
X166541480Y-98554960D02*
X166541480Y-99730560D01*
X166541480Y-97190560D02*
X166541480Y-97190960D01*
X160692480Y-87049960D02*
X162067480Y-87049960D01*
X162067480Y-87049960D02*
X163868480Y-88850960D01*
X163868480Y-88850960D02*
X163868480Y-93709960D01*
X163868480Y-93709960D02*
X166174480Y-96014960D01*
X166174480Y-96014960D02*
X166541480Y-96014960D01*
X166541480Y-96014960D02*
X166541480Y-97190560D01*
X166541480Y-94650560D02*
X166541480Y-94650960D01*
X160692480Y-85779960D02*
X162067480Y-85779960D01*
X162067480Y-85779960D02*
X164319480Y-88031960D01*
X164319480Y-88031960D02*
X164319480Y-91619960D01*
X164319480Y-91619960D02*
X166174480Y-93474960D01*
X166174480Y-93474960D02*
X166541480Y-93474960D01*
X166541480Y-93474960D02*
X166541480Y-94650560D01*
X166541480Y-92110560D02*
X166541480Y-92110960D01*
X160692480Y-84509960D02*
X161439480Y-84509960D01*
X161439480Y-84509960D02*
X165366480Y-88436960D01*
X165366480Y-88436960D02*
X165366480Y-90126960D01*
X165366480Y-90126960D02*
X166174480Y-90934960D01*
X166174480Y-90934960D02*
X166541480Y-90934960D01*
X166541480Y-90934960D02*
X166541480Y-92110560D01*
X166541480Y-89570560D02*
X166541480Y-89570960D01*
X160692480Y-83239960D02*
X162067480Y-83239960D01*
X162067480Y-83239960D02*
X162067480Y-84288960D01*
X162067480Y-84288960D02*
X166174480Y-88394960D01*
X166174480Y-88394960D02*
X166541480Y-88394960D01*
X166541480Y-88394960D02*
X166541480Y-89570560D01*
X166541480Y-87030560D02*
X166541480Y-87030960D01*
X160692480Y-81969960D02*
X162067480Y-81969960D01*
X162067480Y-81969960D02*
X165953480Y-85854960D01*
X165953480Y-85854960D02*
X166541480Y-85854960D01*
X166541480Y-85854960D02*
X166541480Y-87030560D01*
X166541480Y-84490560D02*
X166541480Y-84490960D01*
X160692480Y-80699960D02*
X162067480Y-80699960D01*
X162067480Y-80699960D02*
X162067480Y-81191960D01*
X162067480Y-81191960D02*
X165366480Y-84490960D01*
X165366480Y-84490960D02*
X166541480Y-84490960D01*
X166541480Y-81950560D02*
X166541480Y-81950960D01*
X160692480Y-79429960D02*
X162845480Y-79429960D01*
X162845480Y-79429960D02*
X165366480Y-81950960D01*
X165366480Y-81950960D02*
X166541480Y-81950960D01*
X166541080Y-79410960D02*
X166541480Y-79410560D01*
X166541080Y-79410960D02*
X166541480Y-79410960D01*
X160692480Y-78159960D02*
X164115480Y-78159960D01*
X164115480Y-78159960D02*
X165366480Y-79410960D01*
X165366480Y-79410960D02*
X166541080Y-79410960D01*
X160692480Y-76889960D02*
X165346480Y-76889960D01*
X165346480Y-76889960D02*
X165366480Y-76870560D01*
X165366480Y-76870560D02*
X166541480Y-76870560D01*
X160692480Y-75619960D02*
X164076480Y-75619960D01*
X164076480Y-75619960D02*
X165366480Y-74330560D01*
X165366480Y-74330560D02*
X166541480Y-74330560D01*
X162067480Y-72894960D02*
X162067480Y-71809960D01*
X162067480Y-71809960D02*
X160692480Y-71809960D01*
X162352480Y-72894960D02*
X162067480Y-72894960D01*
X144567480Y-71809960D02*
X144567480Y-73079960D01*
X143192480Y-75619960D02*
X144567480Y-75619960D01*
X144567480Y-75619960D02*
X144567480Y-74349960D01*
X143192480Y-92129960D02*
X141817480Y-92129960D01*
X141817480Y-92129960D02*
X141518480Y-91831960D01*
X143192480Y-73079960D02*
X144567480Y-73079960D01*
X160692480Y-73079960D02*
X162067480Y-73079960D01*
X162067480Y-73079960D02*
X162067480Y-72894960D01*
X144567480Y-73079960D02*
X144567480Y-74349960D01*
X154084480Y-114758960D02*
X154084480Y-111106960D01*
X154084480Y-111106960D02*
X157713480Y-107477960D01*
X143192480Y-71809960D02*
X144567480Y-71809960D01*
X144567480Y-71809960D02*
X160692480Y-71809960D01*
X137354880Y-109890960D02*
X137354480Y-109890560D01*
X140477480Y-109890960D02*
X137354880Y-109890960D01*
X137354880Y-109890960D02*
X137354480Y-109890960D01*
X143314480Y-113558960D02*
X140477480Y-110721960D01*
X140477480Y-110721960D02*
X140477480Y-109890960D01*
X155112480Y-93879960D02*
X155112480Y-95254960D01*
X155112480Y-95254960D02*
X140477480Y-109890960D01*
X137354880Y-107350960D02*
X137354480Y-107350560D01*
X153842480Y-93879960D02*
X153842480Y-95254960D01*
X153842480Y-95254960D02*
X141747480Y-107350960D01*
X141747480Y-107350960D02*
X137354880Y-107350960D01*
X137354880Y-107350960D02*
X137354480Y-107350960D01*
X137354880Y-104810960D02*
X137354480Y-104810560D01*
X152572480Y-93879960D02*
X152572480Y-95254960D01*
X152572480Y-95254960D02*
X143017480Y-104810960D01*
X143017480Y-104810960D02*
X137354880Y-104810960D01*
X137354880Y-104810960D02*
X137354480Y-104810960D01*
X137354880Y-102270960D02*
X137354480Y-102270560D01*
X151302480Y-93879960D02*
X151302480Y-95254960D01*
X151302480Y-95254960D02*
X144287480Y-102270960D01*
X144287480Y-102270960D02*
X137354880Y-102270960D01*
X137354880Y-102270960D02*
X137354480Y-102270960D01*
X137354880Y-99730960D02*
X137354480Y-99730560D01*
X150032480Y-93879960D02*
X150032480Y-95254960D01*
X150032480Y-95254960D02*
X145557480Y-99730960D01*
X145557480Y-99730960D02*
X137354880Y-99730960D01*
X137354880Y-99730960D02*
X137354480Y-99730960D01*
X137354880Y-97190960D02*
X137354480Y-97190560D01*
X148762480Y-93879960D02*
X148762480Y-95254960D01*
X148762480Y-95254960D02*
X146827480Y-97190960D01*
X146827480Y-97190960D02*
X137354880Y-97190960D01*
X137354880Y-97190960D02*
X137354480Y-97190960D01*
X137354880Y-94650960D02*
X137354480Y-94650560D01*
X147497480Y-93879960D02*
X147497480Y-95254960D01*
X147497480Y-95254960D02*
X147047480Y-95705960D01*
X147047480Y-95705960D02*
X139584480Y-95705960D01*
X139584480Y-95705960D02*
X138529480Y-94650960D01*
X138529480Y-94650960D02*
X137354880Y-94650960D01*
X137354880Y-94650960D02*
X137354480Y-94650960D01*
X137354880Y-92110960D02*
X137354480Y-92110560D01*
X146222480Y-93879960D02*
X146222480Y-95254960D01*
X146222480Y-95254960D02*
X141674480Y-95254960D01*
X141674480Y-95254960D02*
X138529480Y-92110960D01*
X138529480Y-92110960D02*
X137354880Y-92110960D01*
X137354880Y-92110960D02*
X137354480Y-92110960D01*
X137354480Y-89570560D02*
X137354480Y-89570960D01*
X137354480Y-89570960D02*
X138529480Y-89570960D01*
X138529480Y-89570960D02*
X138529480Y-89885960D01*
X138529480Y-89885960D02*
X142523480Y-93879960D01*
X142523480Y-93879960D02*
X144962480Y-93879960D01*
X137354880Y-87030960D02*
X137354480Y-87030560D01*
X143192480Y-87049960D02*
X138549480Y-87049960D01*
X138549480Y-87049960D02*
X138529480Y-87030960D01*
X138529480Y-87030960D02*
X137354880Y-87030960D01*
X137354880Y-87030960D02*
X137354480Y-87030960D01*
X137354880Y-84490960D02*
X137354480Y-84490560D01*
X143192480Y-85779960D02*
X139819480Y-85779960D01*
X139819480Y-85779960D02*
X138529480Y-84490960D01*
X138529480Y-84490960D02*
X137354880Y-84490960D01*
X137354880Y-84490960D02*
X137354480Y-84490960D01*
X137354880Y-81950960D02*
X137354480Y-81950560D01*
X143192480Y-84509960D02*
X141089480Y-84509960D01*
X141089480Y-84509960D02*
X138529480Y-81950960D01*
X138529480Y-81950960D02*
X137354880Y-81950960D01*
X137354880Y-81950960D02*
X137354480Y-81950960D01*
X137354880Y-79410960D02*
X137354480Y-79410560D01*
X143192480Y-83239960D02*
X141817480Y-83239960D01*
X141817480Y-83239960D02*
X141817480Y-82697960D01*
X141817480Y-82697960D02*
X138529480Y-79410960D01*
X138529480Y-79410960D02*
X137354880Y-79410960D01*
X137354880Y-79410960D02*
X137354480Y-79410960D01*
X137354480Y-76870560D02*
X137354480Y-78045860D01*
X137354480Y-78045860D02*
X137893480Y-78045860D01*
X137893480Y-78045860D02*
X141817480Y-81969960D01*
X141817480Y-81969960D02*
X143192480Y-81969960D01*
X137354480Y-74330560D02*
X137354480Y-75505860D01*
X137354480Y-75505860D02*
X137721480Y-75505860D01*
X137721480Y-75505860D02*
X138529480Y-76313760D01*
X138529480Y-76313760D02*
X138529480Y-77412560D01*
X138529480Y-77412560D02*
X141817480Y-80699960D01*
X141817480Y-80699960D02*
X143192480Y-80699960D01*
X143192480Y-79429960D02*
X141817480Y-79429960D01*
X141817480Y-79429960D02*
X141817480Y-77061260D01*
X141817480Y-77061260D02*
X137721480Y-72965860D01*
X137721480Y-72965860D02*
X137354480Y-72965860D01*
X137354480Y-72965860D02*
X137354480Y-71790560D01*
X145854480Y-113558960D02*
X147804480Y-113558960D01*
X147804480Y-113558960D02*
X149004480Y-114758960D01*
M02*
