G04 #@! TF.GenerationSoftware,KiCad,Pcbnew,(5.1.2)-2*
G04 #@! TF.CreationDate,2020-07-25T19:39:27+02:00*
G04 #@! TF.ProjectId,Adapter,41646170-7465-4722-9e6b-696361645f70,1*
G04 #@! TF.SameCoordinates,Original*
G04 #@! TF.FileFunction,Legend,Bot*
G04 #@! TF.FilePolarity,Positive*
%FSLAX46Y46*%
G04 Gerber Fmt 4.6, Leading zero omitted, Abs format (unit mm)*
G04 Created by KiCad (PCBNEW (5.1.2)-2) date 2020-07-25 19:39:27*
%MOMM*%
%LPD*%
G04 APERTURE LIST*
%ADD10C,0.250000*%
%ADD11C,0.010000*%
G04 APERTURE END LIST*
D10*
X159059094Y-102159321D02*
X159725760Y-101206940D01*
X160201951Y-102159321D02*
X160201951Y-100159321D01*
X159440046Y-100159321D01*
X159249570Y-100254560D01*
X159154332Y-100349798D01*
X159059094Y-100540274D01*
X159059094Y-100825988D01*
X159154332Y-101016464D01*
X159249570Y-101111702D01*
X159440046Y-101206940D01*
X160201951Y-101206940D01*
X157440046Y-102064083D02*
X157630522Y-102159321D01*
X158011475Y-102159321D01*
X158201951Y-102064083D01*
X158297189Y-101873607D01*
X158297189Y-101111702D01*
X158201951Y-100921226D01*
X158011475Y-100825988D01*
X157630522Y-100825988D01*
X157440046Y-100921226D01*
X157344808Y-101111702D01*
X157344808Y-101302179D01*
X158297189Y-101492655D01*
X156678141Y-100825988D02*
X156201951Y-102159321D01*
X155725760Y-100825988D01*
X154963856Y-102159321D02*
X154963856Y-100825988D01*
X154963856Y-100159321D02*
X155059094Y-100254560D01*
X154963856Y-100349798D01*
X154868618Y-100254560D01*
X154963856Y-100159321D01*
X154963856Y-100349798D01*
X154106713Y-102064083D02*
X153916237Y-102159321D01*
X153535284Y-102159321D01*
X153344808Y-102064083D01*
X153249570Y-101873607D01*
X153249570Y-101778369D01*
X153344808Y-101587893D01*
X153535284Y-101492655D01*
X153820999Y-101492655D01*
X154011475Y-101397417D01*
X154106713Y-101206940D01*
X154106713Y-101111702D01*
X154011475Y-100921226D01*
X153820999Y-100825988D01*
X153535284Y-100825988D01*
X153344808Y-100921226D01*
X152392427Y-102159321D02*
X152392427Y-100825988D01*
X152392427Y-100159321D02*
X152487665Y-100254560D01*
X152392427Y-100349798D01*
X152297189Y-100254560D01*
X152392427Y-100159321D01*
X152392427Y-100349798D01*
X151154332Y-102159321D02*
X151344808Y-102064083D01*
X151440046Y-101968845D01*
X151535284Y-101778369D01*
X151535284Y-101206940D01*
X151440046Y-101016464D01*
X151344808Y-100921226D01*
X151154332Y-100825988D01*
X150868618Y-100825988D01*
X150678141Y-100921226D01*
X150582903Y-101016464D01*
X150487665Y-101206940D01*
X150487665Y-101778369D01*
X150582903Y-101968845D01*
X150678141Y-102064083D01*
X150868618Y-102159321D01*
X151154332Y-102159321D01*
X149630522Y-100825988D02*
X149630522Y-102159321D01*
X149630522Y-101016464D02*
X149535284Y-100921226D01*
X149344808Y-100825988D01*
X149059094Y-100825988D01*
X148868618Y-100921226D01*
X148773380Y-101111702D01*
X148773380Y-102159321D01*
X146392427Y-100349798D02*
X146297189Y-100254560D01*
X146106713Y-100159321D01*
X145630522Y-100159321D01*
X145440046Y-100254560D01*
X145344808Y-100349798D01*
X145249570Y-100540274D01*
X145249570Y-100730750D01*
X145344808Y-101016464D01*
X146487665Y-102159321D01*
X145249570Y-102159321D01*
X161582903Y-99085921D02*
X161582903Y-97085921D01*
X160440046Y-99085921D01*
X160440046Y-97085921D01*
X158344808Y-99085921D02*
X159011475Y-98133540D01*
X159487665Y-99085921D02*
X159487665Y-97085921D01*
X158725760Y-97085921D01*
X158535284Y-97181160D01*
X158440046Y-97276398D01*
X158344808Y-97466874D01*
X158344808Y-97752588D01*
X158440046Y-97943064D01*
X158535284Y-98038302D01*
X158725760Y-98133540D01*
X159487665Y-98133540D01*
X156820999Y-98038302D02*
X157487665Y-98038302D01*
X157487665Y-99085921D02*
X157487665Y-97085921D01*
X156535284Y-97085921D01*
X154344808Y-98514493D02*
X153392427Y-98514493D01*
X154535284Y-99085921D02*
X153868618Y-97085921D01*
X153201951Y-99085921D01*
X151678141Y-99085921D02*
X151678141Y-97085921D01*
X151678141Y-98990683D02*
X151868618Y-99085921D01*
X152249570Y-99085921D01*
X152440046Y-98990683D01*
X152535284Y-98895445D01*
X152630522Y-98704969D01*
X152630522Y-98133540D01*
X152535284Y-97943064D01*
X152440046Y-97847826D01*
X152249570Y-97752588D01*
X151868618Y-97752588D01*
X151678141Y-97847826D01*
X149868618Y-99085921D02*
X149868618Y-98038302D01*
X149963856Y-97847826D01*
X150154332Y-97752588D01*
X150535284Y-97752588D01*
X150725760Y-97847826D01*
X149868618Y-98990683D02*
X150059094Y-99085921D01*
X150535284Y-99085921D01*
X150725760Y-98990683D01*
X150820999Y-98800207D01*
X150820999Y-98609731D01*
X150725760Y-98419255D01*
X150535284Y-98324017D01*
X150059094Y-98324017D01*
X149868618Y-98228779D01*
X148916237Y-97752588D02*
X148916237Y-99752588D01*
X148916237Y-97847826D02*
X148725760Y-97752588D01*
X148344808Y-97752588D01*
X148154332Y-97847826D01*
X148059094Y-97943064D01*
X147963856Y-98133540D01*
X147963856Y-98704969D01*
X148059094Y-98895445D01*
X148154332Y-98990683D01*
X148344808Y-99085921D01*
X148725760Y-99085921D01*
X148916237Y-98990683D01*
X147392427Y-97752588D02*
X146630522Y-97752588D01*
X147106713Y-97085921D02*
X147106713Y-98800207D01*
X147011475Y-98990683D01*
X146820999Y-99085921D01*
X146630522Y-99085921D01*
X145201951Y-98990683D02*
X145392427Y-99085921D01*
X145773380Y-99085921D01*
X145963856Y-98990683D01*
X146059094Y-98800207D01*
X146059094Y-98038302D01*
X145963856Y-97847826D01*
X145773380Y-97752588D01*
X145392427Y-97752588D01*
X145201951Y-97847826D01*
X145106713Y-98038302D01*
X145106713Y-98228779D01*
X146059094Y-98419255D01*
X144249570Y-99085921D02*
X144249570Y-97752588D01*
X144249570Y-98133540D02*
X144154332Y-97943064D01*
X144059094Y-97847826D01*
X143868618Y-97752588D01*
X143678141Y-97752588D01*
D11*
G36*
X152310723Y-70279857D02*
G01*
X152047403Y-70281299D01*
X151856834Y-70285202D01*
X151726735Y-70292797D01*
X151644823Y-70305310D01*
X151598814Y-70323971D01*
X151576427Y-70350008D01*
X151565378Y-70384648D01*
X151564304Y-70389132D01*
X151547521Y-70470049D01*
X151516455Y-70629702D01*
X151474338Y-70851098D01*
X151424401Y-71117245D01*
X151369877Y-71411150D01*
X151367973Y-71421472D01*
X151313357Y-71709496D01*
X151262258Y-71963975D01*
X151217974Y-72169645D01*
X151183801Y-72311245D01*
X151163037Y-72373510D01*
X151162047Y-72374613D01*
X151100881Y-72405019D01*
X150974770Y-72455688D01*
X150810949Y-72515682D01*
X150810037Y-72516002D01*
X150603692Y-72593564D01*
X150360420Y-72692367D01*
X150131111Y-72791708D01*
X150120258Y-72796620D01*
X149746763Y-72966136D01*
X148919715Y-72401355D01*
X148666003Y-72229180D01*
X148436178Y-72075255D01*
X148243555Y-71948334D01*
X148101448Y-71857169D01*
X148023173Y-71810515D01*
X148015740Y-71807055D01*
X147958856Y-71822460D01*
X147852611Y-71896787D01*
X147692861Y-72033541D01*
X147475464Y-72236228D01*
X147253532Y-72451868D01*
X147039589Y-72664363D01*
X146848111Y-72858270D01*
X146690625Y-73021614D01*
X146578658Y-73142421D01*
X146523737Y-73208715D01*
X146521694Y-73212128D01*
X146515622Y-73257621D01*
X146538496Y-73331916D01*
X146595965Y-73445046D01*
X146693681Y-73607045D01*
X146837296Y-73827946D01*
X147028747Y-74112320D01*
X147198657Y-74362619D01*
X147350542Y-74587110D01*
X147475625Y-74772760D01*
X147565131Y-74906535D01*
X147610280Y-74975402D01*
X147613122Y-74980078D01*
X147607610Y-75046061D01*
X147565825Y-75174308D01*
X147496083Y-75340580D01*
X147471226Y-75393679D01*
X147362769Y-75630237D01*
X147247060Y-75898649D01*
X147153065Y-76130895D01*
X147085335Y-76303267D01*
X147031537Y-76434263D01*
X147000449Y-76502727D01*
X146996584Y-76508002D01*
X146939409Y-76516740D01*
X146804632Y-76540683D01*
X146610174Y-76576422D01*
X146373955Y-76620549D01*
X146113896Y-76669655D01*
X145847917Y-76720332D01*
X145593937Y-76769173D01*
X145369879Y-76812769D01*
X145193660Y-76847711D01*
X145083203Y-76870592D01*
X145056110Y-76877061D01*
X145028124Y-76893027D01*
X145006999Y-76929087D01*
X144991783Y-76997412D01*
X144981527Y-77110175D01*
X144975280Y-77279546D01*
X144972092Y-77517698D01*
X144971013Y-77836802D01*
X144970957Y-77967601D01*
X144970957Y-79031371D01*
X145226417Y-79081793D01*
X145368543Y-79109133D01*
X145580630Y-79149042D01*
X145836887Y-79196705D01*
X146111522Y-79247306D01*
X146187432Y-79261204D01*
X146440859Y-79310477D01*
X146661633Y-79358930D01*
X146831223Y-79402075D01*
X146931100Y-79435423D01*
X146947737Y-79445362D01*
X146988591Y-79515751D01*
X147047167Y-79652143D01*
X147112125Y-79827665D01*
X147125009Y-79865473D01*
X147210146Y-80099890D01*
X147315824Y-80364384D01*
X147419240Y-80601901D01*
X147419750Y-80603004D01*
X147591968Y-80975593D01*
X147025556Y-81808753D01*
X146459145Y-82641913D01*
X147186378Y-83370360D01*
X147406332Y-83587162D01*
X147606948Y-83778274D01*
X147776958Y-83933496D01*
X147905095Y-84042624D01*
X147980091Y-84095455D01*
X147990849Y-84098807D01*
X148054013Y-84072409D01*
X148182900Y-83999020D01*
X148363431Y-83887344D01*
X148581526Y-83746084D01*
X148817326Y-83587887D01*
X149056644Y-83426524D01*
X149270021Y-83286112D01*
X149443905Y-83175291D01*
X149564746Y-83102698D01*
X149618817Y-83076968D01*
X149684786Y-83098740D01*
X149809882Y-83156111D01*
X149968300Y-83237160D01*
X149985093Y-83246169D01*
X150198428Y-83353160D01*
X150344716Y-83405632D01*
X150435700Y-83406190D01*
X150483121Y-83357440D01*
X150483397Y-83356757D01*
X150507100Y-83299024D01*
X150563631Y-83161975D01*
X150648606Y-82956217D01*
X150757642Y-82692358D01*
X150886356Y-82381004D01*
X151030365Y-82032764D01*
X151169829Y-81695604D01*
X151323100Y-81323526D01*
X151463829Y-80978847D01*
X151587798Y-80672131D01*
X151690789Y-80413945D01*
X151768584Y-80214854D01*
X151816966Y-80085425D01*
X151831876Y-80037121D01*
X151794486Y-79981710D01*
X151696682Y-79893398D01*
X151566265Y-79796034D01*
X151194857Y-79488113D01*
X150904550Y-79135164D01*
X150698824Y-78744621D01*
X150581157Y-78323917D01*
X150555029Y-77880489D01*
X150574020Y-77675818D01*
X150677497Y-77251183D01*
X150855707Y-76876196D01*
X151097598Y-76554556D01*
X151392117Y-76289961D01*
X151728209Y-76086110D01*
X152094822Y-75946702D01*
X152480903Y-75875434D01*
X152875399Y-75876005D01*
X153267255Y-75952114D01*
X153645420Y-76107459D01*
X153998840Y-76345739D01*
X154146353Y-76480499D01*
X154429264Y-76826539D01*
X154626248Y-77204686D01*
X154738616Y-77603915D01*
X154767679Y-78013205D01*
X154714749Y-78421532D01*
X154581137Y-78817873D01*
X154368155Y-79191205D01*
X154077114Y-79530505D01*
X153751894Y-79796034D01*
X153616428Y-79897531D01*
X153520731Y-79984885D01*
X153486283Y-80037203D01*
X153504320Y-80094258D01*
X153555618Y-80230558D01*
X153635956Y-80435538D01*
X153741116Y-80698632D01*
X153866876Y-81009276D01*
X154009017Y-81356903D01*
X154148715Y-81695686D01*
X154302839Y-82068082D01*
X154445598Y-82413167D01*
X154572609Y-82720337D01*
X154679491Y-82978985D01*
X154761860Y-83178507D01*
X154815333Y-83308295D01*
X154835147Y-83356757D01*
X154881956Y-83405989D01*
X154972497Y-83405845D01*
X155118422Y-83353737D01*
X155331382Y-83247076D01*
X155333066Y-83246169D01*
X155493410Y-83163396D01*
X155623028Y-83103102D01*
X155696117Y-83077206D01*
X155699343Y-83076968D01*
X155754364Y-83103234D01*
X155875837Y-83176276D01*
X156050209Y-83287455D01*
X156263930Y-83428133D01*
X156500833Y-83587887D01*
X156742025Y-83749639D01*
X156959406Y-83890310D01*
X157138896Y-84001195D01*
X157266416Y-84073590D01*
X157327310Y-84098807D01*
X157383383Y-84065663D01*
X157496120Y-83973033D01*
X157654257Y-83831117D01*
X157846529Y-83650115D01*
X158061671Y-83440229D01*
X158132032Y-83370109D01*
X158859514Y-82641412D01*
X158305785Y-81828760D01*
X158137503Y-81579202D01*
X157989809Y-81355226D01*
X157870990Y-81169809D01*
X157789330Y-81035925D01*
X157753116Y-80966550D01*
X157752055Y-80961615D01*
X157771147Y-80896224D01*
X157822498Y-80764685D01*
X157897220Y-80589041D01*
X157949668Y-80471451D01*
X158047734Y-80246321D01*
X158140087Y-80018875D01*
X158211686Y-79826699D01*
X158231136Y-79768155D01*
X158286394Y-79611816D01*
X158340411Y-79491018D01*
X158370081Y-79445362D01*
X158435556Y-79417421D01*
X158578456Y-79377811D01*
X158780241Y-79331022D01*
X159022368Y-79281543D01*
X159130727Y-79261204D01*
X159405891Y-79210641D01*
X159669826Y-79161682D01*
X159896739Y-79119141D01*
X160060841Y-79087835D01*
X160091742Y-79081793D01*
X160347202Y-79031371D01*
X160347202Y-77967601D01*
X160346628Y-77617810D01*
X160344273Y-77353160D01*
X160339187Y-77161482D01*
X160330419Y-77030604D01*
X160317018Y-76948353D01*
X160298034Y-76902558D01*
X160272518Y-76881048D01*
X160262049Y-76877061D01*
X160198906Y-76862916D01*
X160059405Y-76834694D01*
X159861469Y-76795803D01*
X159623015Y-76749652D01*
X159361966Y-76699648D01*
X159096241Y-76649201D01*
X158843761Y-76601718D01*
X158622445Y-76560608D01*
X158450214Y-76529279D01*
X158344988Y-76511138D01*
X158321575Y-76508002D01*
X158300364Y-76466033D01*
X158253412Y-76354230D01*
X158189499Y-76193748D01*
X158165094Y-76130895D01*
X158066660Y-75888063D01*
X157950746Y-75619778D01*
X157846933Y-75393679D01*
X157770545Y-75220795D01*
X157719724Y-75078737D01*
X157702759Y-74991738D01*
X157705464Y-74980078D01*
X157741319Y-74925030D01*
X157823188Y-74802599D01*
X157942285Y-74625822D01*
X158089822Y-74407737D01*
X158257011Y-74161380D01*
X158290070Y-74112751D01*
X158484060Y-73824633D01*
X158626659Y-73605237D01*
X158723553Y-73444462D01*
X158780426Y-73332206D01*
X158802964Y-73258370D01*
X158796852Y-73212850D01*
X158796696Y-73212560D01*
X158748591Y-73152770D01*
X158642191Y-73037179D01*
X158489028Y-72877769D01*
X158300635Y-72686525D01*
X158088545Y-72475428D01*
X158064627Y-72451868D01*
X157797342Y-72193032D01*
X157591072Y-72002977D01*
X157441672Y-71878197D01*
X157345000Y-71815187D01*
X157302419Y-71807055D01*
X157240276Y-71842532D01*
X157111317Y-71924483D01*
X156928858Y-72044152D01*
X156706213Y-72192786D01*
X156456696Y-72361632D01*
X156398444Y-72401355D01*
X155571396Y-72966136D01*
X155197901Y-72796620D01*
X154970764Y-72697831D01*
X154726952Y-72598477D01*
X154517355Y-72519261D01*
X154508122Y-72516002D01*
X154344175Y-72455989D01*
X154217795Y-72405242D01*
X154156217Y-72374701D01*
X154156112Y-72374613D01*
X154136573Y-72319408D01*
X154103359Y-72183639D01*
X154059767Y-71982569D01*
X154009096Y-71731459D01*
X153954641Y-71445573D01*
X153950186Y-71421472D01*
X153895562Y-71126919D01*
X153845416Y-70859544D01*
X153802978Y-70636340D01*
X153771482Y-70474299D01*
X153754157Y-70390413D01*
X153753855Y-70389132D01*
X153743312Y-70353448D01*
X153722811Y-70326506D01*
X153680069Y-70307078D01*
X153602804Y-70293935D01*
X153478732Y-70285849D01*
X153295571Y-70281592D01*
X153041038Y-70279935D01*
X152702849Y-70279650D01*
X152659080Y-70279650D01*
X152310723Y-70279857D01*
X152310723Y-70279857D01*
G37*
X152310723Y-70279857D02*
X152047403Y-70281299D01*
X151856834Y-70285202D01*
X151726735Y-70292797D01*
X151644823Y-70305310D01*
X151598814Y-70323971D01*
X151576427Y-70350008D01*
X151565378Y-70384648D01*
X151564304Y-70389132D01*
X151547521Y-70470049D01*
X151516455Y-70629702D01*
X151474338Y-70851098D01*
X151424401Y-71117245D01*
X151369877Y-71411150D01*
X151367973Y-71421472D01*
X151313357Y-71709496D01*
X151262258Y-71963975D01*
X151217974Y-72169645D01*
X151183801Y-72311245D01*
X151163037Y-72373510D01*
X151162047Y-72374613D01*
X151100881Y-72405019D01*
X150974770Y-72455688D01*
X150810949Y-72515682D01*
X150810037Y-72516002D01*
X150603692Y-72593564D01*
X150360420Y-72692367D01*
X150131111Y-72791708D01*
X150120258Y-72796620D01*
X149746763Y-72966136D01*
X148919715Y-72401355D01*
X148666003Y-72229180D01*
X148436178Y-72075255D01*
X148243555Y-71948334D01*
X148101448Y-71857169D01*
X148023173Y-71810515D01*
X148015740Y-71807055D01*
X147958856Y-71822460D01*
X147852611Y-71896787D01*
X147692861Y-72033541D01*
X147475464Y-72236228D01*
X147253532Y-72451868D01*
X147039589Y-72664363D01*
X146848111Y-72858270D01*
X146690625Y-73021614D01*
X146578658Y-73142421D01*
X146523737Y-73208715D01*
X146521694Y-73212128D01*
X146515622Y-73257621D01*
X146538496Y-73331916D01*
X146595965Y-73445046D01*
X146693681Y-73607045D01*
X146837296Y-73827946D01*
X147028747Y-74112320D01*
X147198657Y-74362619D01*
X147350542Y-74587110D01*
X147475625Y-74772760D01*
X147565131Y-74906535D01*
X147610280Y-74975402D01*
X147613122Y-74980078D01*
X147607610Y-75046061D01*
X147565825Y-75174308D01*
X147496083Y-75340580D01*
X147471226Y-75393679D01*
X147362769Y-75630237D01*
X147247060Y-75898649D01*
X147153065Y-76130895D01*
X147085335Y-76303267D01*
X147031537Y-76434263D01*
X147000449Y-76502727D01*
X146996584Y-76508002D01*
X146939409Y-76516740D01*
X146804632Y-76540683D01*
X146610174Y-76576422D01*
X146373955Y-76620549D01*
X146113896Y-76669655D01*
X145847917Y-76720332D01*
X145593937Y-76769173D01*
X145369879Y-76812769D01*
X145193660Y-76847711D01*
X145083203Y-76870592D01*
X145056110Y-76877061D01*
X145028124Y-76893027D01*
X145006999Y-76929087D01*
X144991783Y-76997412D01*
X144981527Y-77110175D01*
X144975280Y-77279546D01*
X144972092Y-77517698D01*
X144971013Y-77836802D01*
X144970957Y-77967601D01*
X144970957Y-79031371D01*
X145226417Y-79081793D01*
X145368543Y-79109133D01*
X145580630Y-79149042D01*
X145836887Y-79196705D01*
X146111522Y-79247306D01*
X146187432Y-79261204D01*
X146440859Y-79310477D01*
X146661633Y-79358930D01*
X146831223Y-79402075D01*
X146931100Y-79435423D01*
X146947737Y-79445362D01*
X146988591Y-79515751D01*
X147047167Y-79652143D01*
X147112125Y-79827665D01*
X147125009Y-79865473D01*
X147210146Y-80099890D01*
X147315824Y-80364384D01*
X147419240Y-80601901D01*
X147419750Y-80603004D01*
X147591968Y-80975593D01*
X147025556Y-81808753D01*
X146459145Y-82641913D01*
X147186378Y-83370360D01*
X147406332Y-83587162D01*
X147606948Y-83778274D01*
X147776958Y-83933496D01*
X147905095Y-84042624D01*
X147980091Y-84095455D01*
X147990849Y-84098807D01*
X148054013Y-84072409D01*
X148182900Y-83999020D01*
X148363431Y-83887344D01*
X148581526Y-83746084D01*
X148817326Y-83587887D01*
X149056644Y-83426524D01*
X149270021Y-83286112D01*
X149443905Y-83175291D01*
X149564746Y-83102698D01*
X149618817Y-83076968D01*
X149684786Y-83098740D01*
X149809882Y-83156111D01*
X149968300Y-83237160D01*
X149985093Y-83246169D01*
X150198428Y-83353160D01*
X150344716Y-83405632D01*
X150435700Y-83406190D01*
X150483121Y-83357440D01*
X150483397Y-83356757D01*
X150507100Y-83299024D01*
X150563631Y-83161975D01*
X150648606Y-82956217D01*
X150757642Y-82692358D01*
X150886356Y-82381004D01*
X151030365Y-82032764D01*
X151169829Y-81695604D01*
X151323100Y-81323526D01*
X151463829Y-80978847D01*
X151587798Y-80672131D01*
X151690789Y-80413945D01*
X151768584Y-80214854D01*
X151816966Y-80085425D01*
X151831876Y-80037121D01*
X151794486Y-79981710D01*
X151696682Y-79893398D01*
X151566265Y-79796034D01*
X151194857Y-79488113D01*
X150904550Y-79135164D01*
X150698824Y-78744621D01*
X150581157Y-78323917D01*
X150555029Y-77880489D01*
X150574020Y-77675818D01*
X150677497Y-77251183D01*
X150855707Y-76876196D01*
X151097598Y-76554556D01*
X151392117Y-76289961D01*
X151728209Y-76086110D01*
X152094822Y-75946702D01*
X152480903Y-75875434D01*
X152875399Y-75876005D01*
X153267255Y-75952114D01*
X153645420Y-76107459D01*
X153998840Y-76345739D01*
X154146353Y-76480499D01*
X154429264Y-76826539D01*
X154626248Y-77204686D01*
X154738616Y-77603915D01*
X154767679Y-78013205D01*
X154714749Y-78421532D01*
X154581137Y-78817873D01*
X154368155Y-79191205D01*
X154077114Y-79530505D01*
X153751894Y-79796034D01*
X153616428Y-79897531D01*
X153520731Y-79984885D01*
X153486283Y-80037203D01*
X153504320Y-80094258D01*
X153555618Y-80230558D01*
X153635956Y-80435538D01*
X153741116Y-80698632D01*
X153866876Y-81009276D01*
X154009017Y-81356903D01*
X154148715Y-81695686D01*
X154302839Y-82068082D01*
X154445598Y-82413167D01*
X154572609Y-82720337D01*
X154679491Y-82978985D01*
X154761860Y-83178507D01*
X154815333Y-83308295D01*
X154835147Y-83356757D01*
X154881956Y-83405989D01*
X154972497Y-83405845D01*
X155118422Y-83353737D01*
X155331382Y-83247076D01*
X155333066Y-83246169D01*
X155493410Y-83163396D01*
X155623028Y-83103102D01*
X155696117Y-83077206D01*
X155699343Y-83076968D01*
X155754364Y-83103234D01*
X155875837Y-83176276D01*
X156050209Y-83287455D01*
X156263930Y-83428133D01*
X156500833Y-83587887D01*
X156742025Y-83749639D01*
X156959406Y-83890310D01*
X157138896Y-84001195D01*
X157266416Y-84073590D01*
X157327310Y-84098807D01*
X157383383Y-84065663D01*
X157496120Y-83973033D01*
X157654257Y-83831117D01*
X157846529Y-83650115D01*
X158061671Y-83440229D01*
X158132032Y-83370109D01*
X158859514Y-82641412D01*
X158305785Y-81828760D01*
X158137503Y-81579202D01*
X157989809Y-81355226D01*
X157870990Y-81169809D01*
X157789330Y-81035925D01*
X157753116Y-80966550D01*
X157752055Y-80961615D01*
X157771147Y-80896224D01*
X157822498Y-80764685D01*
X157897220Y-80589041D01*
X157949668Y-80471451D01*
X158047734Y-80246321D01*
X158140087Y-80018875D01*
X158211686Y-79826699D01*
X158231136Y-79768155D01*
X158286394Y-79611816D01*
X158340411Y-79491018D01*
X158370081Y-79445362D01*
X158435556Y-79417421D01*
X158578456Y-79377811D01*
X158780241Y-79331022D01*
X159022368Y-79281543D01*
X159130727Y-79261204D01*
X159405891Y-79210641D01*
X159669826Y-79161682D01*
X159896739Y-79119141D01*
X160060841Y-79087835D01*
X160091742Y-79081793D01*
X160347202Y-79031371D01*
X160347202Y-77967601D01*
X160346628Y-77617810D01*
X160344273Y-77353160D01*
X160339187Y-77161482D01*
X160330419Y-77030604D01*
X160317018Y-76948353D01*
X160298034Y-76902558D01*
X160272518Y-76881048D01*
X160262049Y-76877061D01*
X160198906Y-76862916D01*
X160059405Y-76834694D01*
X159861469Y-76795803D01*
X159623015Y-76749652D01*
X159361966Y-76699648D01*
X159096241Y-76649201D01*
X158843761Y-76601718D01*
X158622445Y-76560608D01*
X158450214Y-76529279D01*
X158344988Y-76511138D01*
X158321575Y-76508002D01*
X158300364Y-76466033D01*
X158253412Y-76354230D01*
X158189499Y-76193748D01*
X158165094Y-76130895D01*
X158066660Y-75888063D01*
X157950746Y-75619778D01*
X157846933Y-75393679D01*
X157770545Y-75220795D01*
X157719724Y-75078737D01*
X157702759Y-74991738D01*
X157705464Y-74980078D01*
X157741319Y-74925030D01*
X157823188Y-74802599D01*
X157942285Y-74625822D01*
X158089822Y-74407737D01*
X158257011Y-74161380D01*
X158290070Y-74112751D01*
X158484060Y-73824633D01*
X158626659Y-73605237D01*
X158723553Y-73444462D01*
X158780426Y-73332206D01*
X158802964Y-73258370D01*
X158796852Y-73212850D01*
X158796696Y-73212560D01*
X158748591Y-73152770D01*
X158642191Y-73037179D01*
X158489028Y-72877769D01*
X158300635Y-72686525D01*
X158088545Y-72475428D01*
X158064627Y-72451868D01*
X157797342Y-72193032D01*
X157591072Y-72002977D01*
X157441672Y-71878197D01*
X157345000Y-71815187D01*
X157302419Y-71807055D01*
X157240276Y-71842532D01*
X157111317Y-71924483D01*
X156928858Y-72044152D01*
X156706213Y-72192786D01*
X156456696Y-72361632D01*
X156398444Y-72401355D01*
X155571396Y-72966136D01*
X155197901Y-72796620D01*
X154970764Y-72697831D01*
X154726952Y-72598477D01*
X154517355Y-72519261D01*
X154508122Y-72516002D01*
X154344175Y-72455989D01*
X154217795Y-72405242D01*
X154156217Y-72374701D01*
X154156112Y-72374613D01*
X154136573Y-72319408D01*
X154103359Y-72183639D01*
X154059767Y-71982569D01*
X154009096Y-71731459D01*
X153954641Y-71445573D01*
X153950186Y-71421472D01*
X153895562Y-71126919D01*
X153845416Y-70859544D01*
X153802978Y-70636340D01*
X153771482Y-70474299D01*
X153754157Y-70390413D01*
X153753855Y-70389132D01*
X153743312Y-70353448D01*
X153722811Y-70326506D01*
X153680069Y-70307078D01*
X153602804Y-70293935D01*
X153478732Y-70285849D01*
X153295571Y-70281592D01*
X153041038Y-70279935D01*
X152702849Y-70279650D01*
X152659080Y-70279650D01*
X152310723Y-70279857D01*
G36*
X142086681Y-86119093D02*
G01*
X141894163Y-86244917D01*
X141801306Y-86357556D01*
X141727740Y-86561952D01*
X141721897Y-86723690D01*
X141735133Y-86939954D01*
X142233888Y-87158258D01*
X142476395Y-87269790D01*
X142634851Y-87359510D01*
X142717244Y-87437221D01*
X142731562Y-87512727D01*
X142685793Y-87595831D01*
X142635325Y-87650914D01*
X142488475Y-87739249D01*
X142328752Y-87745439D01*
X142182060Y-87676595D01*
X142074299Y-87539832D01*
X142055025Y-87491540D01*
X141962704Y-87340708D01*
X141856492Y-87276427D01*
X141710804Y-87221436D01*
X141710804Y-87429917D01*
X141723684Y-87571786D01*
X141774137Y-87691423D01*
X141879883Y-87828787D01*
X141895600Y-87846637D01*
X142013225Y-87968846D01*
X142114334Y-88034430D01*
X142240830Y-88064602D01*
X142345696Y-88074483D01*
X142533269Y-88076945D01*
X142666796Y-88045752D01*
X142750097Y-87999439D01*
X142881017Y-87897595D01*
X142971641Y-87787451D01*
X143028993Y-87648929D01*
X143060100Y-87461950D01*
X143071986Y-87206437D01*
X143072935Y-87076754D01*
X143069709Y-86921281D01*
X142775914Y-86921281D01*
X142772507Y-87004687D01*
X142764014Y-87018347D01*
X142707970Y-86999791D01*
X142587362Y-86950682D01*
X142426167Y-86880862D01*
X142392458Y-86865855D01*
X142188741Y-86762264D01*
X142076501Y-86671219D01*
X142051833Y-86585941D01*
X142110835Y-86499654D01*
X142159562Y-86461527D01*
X142335386Y-86385277D01*
X142499953Y-86397874D01*
X142637726Y-86490946D01*
X142733167Y-86656116D01*
X142763766Y-86787217D01*
X142775914Y-86921281D01*
X143069709Y-86921281D01*
X143066648Y-86773779D01*
X143043481Y-86549616D01*
X142997590Y-86386386D01*
X142923126Y-86266212D01*
X142814244Y-86171215D01*
X142766775Y-86140515D01*
X142551142Y-86060563D01*
X142315059Y-86055532D01*
X142086681Y-86119093D01*
X142086681Y-86119093D01*
G37*
X142086681Y-86119093D02*
X141894163Y-86244917D01*
X141801306Y-86357556D01*
X141727740Y-86561952D01*
X141721897Y-86723690D01*
X141735133Y-86939954D01*
X142233888Y-87158258D01*
X142476395Y-87269790D01*
X142634851Y-87359510D01*
X142717244Y-87437221D01*
X142731562Y-87512727D01*
X142685793Y-87595831D01*
X142635325Y-87650914D01*
X142488475Y-87739249D01*
X142328752Y-87745439D01*
X142182060Y-87676595D01*
X142074299Y-87539832D01*
X142055025Y-87491540D01*
X141962704Y-87340708D01*
X141856492Y-87276427D01*
X141710804Y-87221436D01*
X141710804Y-87429917D01*
X141723684Y-87571786D01*
X141774137Y-87691423D01*
X141879883Y-87828787D01*
X141895600Y-87846637D01*
X142013225Y-87968846D01*
X142114334Y-88034430D01*
X142240830Y-88064602D01*
X142345696Y-88074483D01*
X142533269Y-88076945D01*
X142666796Y-88045752D01*
X142750097Y-87999439D01*
X142881017Y-87897595D01*
X142971641Y-87787451D01*
X143028993Y-87648929D01*
X143060100Y-87461950D01*
X143071986Y-87206437D01*
X143072935Y-87076754D01*
X143069709Y-86921281D01*
X142775914Y-86921281D01*
X142772507Y-87004687D01*
X142764014Y-87018347D01*
X142707970Y-86999791D01*
X142587362Y-86950682D01*
X142426167Y-86880862D01*
X142392458Y-86865855D01*
X142188741Y-86762264D01*
X142076501Y-86671219D01*
X142051833Y-86585941D01*
X142110835Y-86499654D01*
X142159562Y-86461527D01*
X142335386Y-86385277D01*
X142499953Y-86397874D01*
X142637726Y-86490946D01*
X142733167Y-86656116D01*
X142763766Y-86787217D01*
X142775914Y-86921281D01*
X143069709Y-86921281D01*
X143066648Y-86773779D01*
X143043481Y-86549616D01*
X142997590Y-86386386D01*
X142923126Y-86266212D01*
X142814244Y-86171215D01*
X142766775Y-86140515D01*
X142551142Y-86060563D01*
X142315059Y-86055532D01*
X142086681Y-86119093D01*
G36*
X143766264Y-86091557D02*
G01*
X143708104Y-86116976D01*
X143569285Y-86226919D01*
X143450575Y-86385890D01*
X143377159Y-86555537D01*
X143365210Y-86639173D01*
X143405271Y-86755938D01*
X143493145Y-86817722D01*
X143587362Y-86855133D01*
X143630503Y-86862027D01*
X143651509Y-86811998D01*
X143692990Y-86703129D01*
X143711188Y-86653936D01*
X143813232Y-86483773D01*
X143960977Y-86398898D01*
X144150425Y-86401508D01*
X144164457Y-86404851D01*
X144265599Y-86452805D01*
X144339956Y-86546292D01*
X144390742Y-86696799D01*
X144421172Y-86915811D01*
X144434462Y-87214816D01*
X144435708Y-87373916D01*
X144436326Y-87624715D01*
X144440375Y-87795685D01*
X144451147Y-87904314D01*
X144471933Y-87968090D01*
X144506025Y-88004503D01*
X144556715Y-88031039D01*
X144559645Y-88032375D01*
X144657262Y-88073647D01*
X144705622Y-88088845D01*
X144713053Y-88042897D01*
X144719414Y-87915894D01*
X144724248Y-87724095D01*
X144727095Y-87483762D01*
X144727662Y-87307884D01*
X144724767Y-86967548D01*
X144713443Y-86709355D01*
X144689734Y-86518234D01*
X144649683Y-86379113D01*
X144589333Y-86276920D01*
X144504727Y-86196584D01*
X144421181Y-86140515D01*
X144220289Y-86065892D01*
X143986484Y-86049062D01*
X143766264Y-86091557D01*
X143766264Y-86091557D01*
G37*
X143766264Y-86091557D02*
X143708104Y-86116976D01*
X143569285Y-86226919D01*
X143450575Y-86385890D01*
X143377159Y-86555537D01*
X143365210Y-86639173D01*
X143405271Y-86755938D01*
X143493145Y-86817722D01*
X143587362Y-86855133D01*
X143630503Y-86862027D01*
X143651509Y-86811998D01*
X143692990Y-86703129D01*
X143711188Y-86653936D01*
X143813232Y-86483773D01*
X143960977Y-86398898D01*
X144150425Y-86401508D01*
X144164457Y-86404851D01*
X144265599Y-86452805D01*
X144339956Y-86546292D01*
X144390742Y-86696799D01*
X144421172Y-86915811D01*
X144434462Y-87214816D01*
X144435708Y-87373916D01*
X144436326Y-87624715D01*
X144440375Y-87795685D01*
X144451147Y-87904314D01*
X144471933Y-87968090D01*
X144506025Y-88004503D01*
X144556715Y-88031039D01*
X144559645Y-88032375D01*
X144657262Y-88073647D01*
X144705622Y-88088845D01*
X144713053Y-88042897D01*
X144719414Y-87915894D01*
X144724248Y-87724095D01*
X144727095Y-87483762D01*
X144727662Y-87307884D01*
X144724767Y-86967548D01*
X144713443Y-86709355D01*
X144689734Y-86518234D01*
X144649683Y-86379113D01*
X144589333Y-86276920D01*
X144504727Y-86196584D01*
X144421181Y-86140515D01*
X144220289Y-86065892D01*
X143986484Y-86049062D01*
X143766264Y-86091557D01*
G36*
X145468402Y-86083454D02*
G01*
X145328298Y-86147183D01*
X145218330Y-86224403D01*
X145137756Y-86310747D01*
X145082126Y-86422132D01*
X145046991Y-86574476D01*
X145027901Y-86783695D01*
X145020408Y-87065706D01*
X145019616Y-87251415D01*
X145019616Y-87975906D01*
X145143553Y-88032375D01*
X145241170Y-88073647D01*
X145289530Y-88088845D01*
X145298782Y-88043622D01*
X145306122Y-87921684D01*
X145310616Y-87743632D01*
X145311570Y-87602255D01*
X145315670Y-87398006D01*
X145326726Y-87235973D01*
X145342869Y-87136751D01*
X145355693Y-87115665D01*
X145441894Y-87137198D01*
X145577218Y-87192426D01*
X145733910Y-87267296D01*
X145884217Y-87347752D01*
X146000387Y-87419740D01*
X146054667Y-87469206D01*
X146054882Y-87469741D01*
X146050213Y-87561288D01*
X146008348Y-87648680D01*
X145934845Y-87719662D01*
X145827564Y-87743403D01*
X145735878Y-87740637D01*
X145606022Y-87738601D01*
X145537859Y-87769024D01*
X145496921Y-87849403D01*
X145491759Y-87864560D01*
X145474013Y-87979191D01*
X145521471Y-88048794D01*
X145645173Y-88081965D01*
X145778799Y-88088100D01*
X146019263Y-88042623D01*
X146143742Y-87977677D01*
X146297475Y-87825106D01*
X146379007Y-87637831D01*
X146386324Y-87439945D01*
X146317411Y-87255545D01*
X146213752Y-87139994D01*
X146110257Y-87075302D01*
X145947588Y-86993402D01*
X145758026Y-86910346D01*
X145726430Y-86897655D01*
X145518211Y-86805768D01*
X145398182Y-86724783D01*
X145359579Y-86644273D01*
X145395640Y-86553810D01*
X145457547Y-86483098D01*
X145603867Y-86396030D01*
X145764863Y-86389500D01*
X145912507Y-86456595D01*
X146018770Y-86590404D01*
X146032718Y-86624927D01*
X146113920Y-86751902D01*
X146232472Y-86846169D01*
X146382068Y-86923528D01*
X146382068Y-86704167D01*
X146373263Y-86570140D01*
X146335510Y-86464504D01*
X146251801Y-86351799D01*
X146171444Y-86264987D01*
X146046489Y-86142064D01*
X145949403Y-86076031D01*
X145845126Y-86049544D01*
X145727091Y-86045167D01*
X145468402Y-86083454D01*
X145468402Y-86083454D01*
G37*
X145468402Y-86083454D02*
X145328298Y-86147183D01*
X145218330Y-86224403D01*
X145137756Y-86310747D01*
X145082126Y-86422132D01*
X145046991Y-86574476D01*
X145027901Y-86783695D01*
X145020408Y-87065706D01*
X145019616Y-87251415D01*
X145019616Y-87975906D01*
X145143553Y-88032375D01*
X145241170Y-88073647D01*
X145289530Y-88088845D01*
X145298782Y-88043622D01*
X145306122Y-87921684D01*
X145310616Y-87743632D01*
X145311570Y-87602255D01*
X145315670Y-87398006D01*
X145326726Y-87235973D01*
X145342869Y-87136751D01*
X145355693Y-87115665D01*
X145441894Y-87137198D01*
X145577218Y-87192426D01*
X145733910Y-87267296D01*
X145884217Y-87347752D01*
X146000387Y-87419740D01*
X146054667Y-87469206D01*
X146054882Y-87469741D01*
X146050213Y-87561288D01*
X146008348Y-87648680D01*
X145934845Y-87719662D01*
X145827564Y-87743403D01*
X145735878Y-87740637D01*
X145606022Y-87738601D01*
X145537859Y-87769024D01*
X145496921Y-87849403D01*
X145491759Y-87864560D01*
X145474013Y-87979191D01*
X145521471Y-88048794D01*
X145645173Y-88081965D01*
X145778799Y-88088100D01*
X146019263Y-88042623D01*
X146143742Y-87977677D01*
X146297475Y-87825106D01*
X146379007Y-87637831D01*
X146386324Y-87439945D01*
X146317411Y-87255545D01*
X146213752Y-87139994D01*
X146110257Y-87075302D01*
X145947588Y-86993402D01*
X145758026Y-86910346D01*
X145726430Y-86897655D01*
X145518211Y-86805768D01*
X145398182Y-86724783D01*
X145359579Y-86644273D01*
X145395640Y-86553810D01*
X145457547Y-86483098D01*
X145603867Y-86396030D01*
X145764863Y-86389500D01*
X145912507Y-86456595D01*
X146018770Y-86590404D01*
X146032718Y-86624927D01*
X146113920Y-86751902D01*
X146232472Y-86846169D01*
X146382068Y-86923528D01*
X146382068Y-86704167D01*
X146373263Y-86570140D01*
X146335510Y-86464504D01*
X146251801Y-86351799D01*
X146171444Y-86264987D01*
X146046489Y-86142064D01*
X145949403Y-86076031D01*
X145845126Y-86049544D01*
X145727091Y-86045167D01*
X145468402Y-86083454D01*
G36*
X146692207Y-86091260D02*
G01*
X146684781Y-86219282D01*
X146678962Y-86413845D01*
X146675221Y-86659562D01*
X146674022Y-86917286D01*
X146674022Y-87789405D01*
X146828005Y-87943388D01*
X146934117Y-88038272D01*
X147027264Y-88076705D01*
X147154576Y-88074273D01*
X147205112Y-88068083D01*
X147363063Y-88050070D01*
X147493709Y-88039748D01*
X147525555Y-88038795D01*
X147632914Y-88045031D01*
X147786461Y-88060684D01*
X147845997Y-88068083D01*
X147992223Y-88079528D01*
X148090491Y-88054668D01*
X148187930Y-87977918D01*
X148223104Y-87943388D01*
X148377087Y-87789405D01*
X148377087Y-86158106D01*
X148253150Y-86101636D01*
X148146430Y-86059810D01*
X148083993Y-86045167D01*
X148067984Y-86091443D01*
X148053022Y-86220744D01*
X148040102Y-86418774D01*
X148030223Y-86671240D01*
X148025458Y-86884535D01*
X148012145Y-87723902D01*
X147896000Y-87740324D01*
X147790364Y-87728842D01*
X147738603Y-87691665D01*
X147724135Y-87622158D01*
X147711782Y-87474100D01*
X147702528Y-87266251D01*
X147697352Y-87017372D01*
X147696606Y-86889295D01*
X147695861Y-86152005D01*
X147542623Y-86098586D01*
X147434164Y-86062266D01*
X147375167Y-86045328D01*
X147373466Y-86045167D01*
X147367547Y-86091209D01*
X147361041Y-86218878D01*
X147354494Y-86412492D01*
X147348453Y-86656367D01*
X147344232Y-86884535D01*
X147330919Y-87723902D01*
X147038965Y-87723902D01*
X147025567Y-86958135D01*
X147012170Y-86192368D01*
X146869842Y-86118768D01*
X146764758Y-86068226D01*
X146702563Y-86045291D01*
X146700768Y-86045167D01*
X146692207Y-86091260D01*
X146692207Y-86091260D01*
G37*
X146692207Y-86091260D02*
X146684781Y-86219282D01*
X146678962Y-86413845D01*
X146675221Y-86659562D01*
X146674022Y-86917286D01*
X146674022Y-87789405D01*
X146828005Y-87943388D01*
X146934117Y-88038272D01*
X147027264Y-88076705D01*
X147154576Y-88074273D01*
X147205112Y-88068083D01*
X147363063Y-88050070D01*
X147493709Y-88039748D01*
X147525555Y-88038795D01*
X147632914Y-88045031D01*
X147786461Y-88060684D01*
X147845997Y-88068083D01*
X147992223Y-88079528D01*
X148090491Y-88054668D01*
X148187930Y-87977918D01*
X148223104Y-87943388D01*
X148377087Y-87789405D01*
X148377087Y-86158106D01*
X148253150Y-86101636D01*
X148146430Y-86059810D01*
X148083993Y-86045167D01*
X148067984Y-86091443D01*
X148053022Y-86220744D01*
X148040102Y-86418774D01*
X148030223Y-86671240D01*
X148025458Y-86884535D01*
X148012145Y-87723902D01*
X147896000Y-87740324D01*
X147790364Y-87728842D01*
X147738603Y-87691665D01*
X147724135Y-87622158D01*
X147711782Y-87474100D01*
X147702528Y-87266251D01*
X147697352Y-87017372D01*
X147696606Y-86889295D01*
X147695861Y-86152005D01*
X147542623Y-86098586D01*
X147434164Y-86062266D01*
X147375167Y-86045328D01*
X147373466Y-86045167D01*
X147367547Y-86091209D01*
X147361041Y-86218878D01*
X147354494Y-86412492D01*
X147348453Y-86656367D01*
X147344232Y-86884535D01*
X147330919Y-87723902D01*
X147038965Y-87723902D01*
X147025567Y-86958135D01*
X147012170Y-86192368D01*
X146869842Y-86118768D01*
X146764758Y-86068226D01*
X146702563Y-86045291D01*
X146700768Y-86045167D01*
X146692207Y-86091260D01*
G36*
X148669223Y-86448953D02*
G01*
X148669841Y-86812629D01*
X148672233Y-87092392D01*
X148677409Y-87301644D01*
X148686376Y-87453786D01*
X148700144Y-87562219D01*
X148719719Y-87640345D01*
X148746112Y-87701567D01*
X148766096Y-87736512D01*
X148931597Y-87926017D01*
X149141432Y-88044802D01*
X149373594Y-88087424D01*
X149606072Y-88048443D01*
X149744508Y-87978392D01*
X149889838Y-87857213D01*
X149988885Y-87709214D01*
X150048645Y-87515394D01*
X150076111Y-87256752D01*
X150080001Y-87067006D01*
X150079477Y-87053370D01*
X149739539Y-87053370D01*
X149737463Y-87270956D01*
X149727950Y-87414994D01*
X149706072Y-87509224D01*
X149666904Y-87577383D01*
X149620104Y-87628796D01*
X149462934Y-87728035D01*
X149294180Y-87736513D01*
X149134687Y-87653659D01*
X149122273Y-87642432D01*
X149069289Y-87584031D01*
X149036066Y-87514546D01*
X149018080Y-87411130D01*
X149010805Y-87250933D01*
X149009654Y-87073825D01*
X149012148Y-86851327D01*
X149022472Y-86702897D01*
X149044889Y-86605349D01*
X149083662Y-86535497D01*
X149115454Y-86498399D01*
X149263141Y-86404835D01*
X149433234Y-86393585D01*
X149595588Y-86465050D01*
X149626920Y-86491580D01*
X149680258Y-86550496D01*
X149713549Y-86620697D01*
X149731424Y-86725278D01*
X149738514Y-86887339D01*
X149739539Y-87053370D01*
X150079477Y-87053370D01*
X150068240Y-86761439D01*
X150028293Y-86531853D01*
X149953167Y-86359247D01*
X149835866Y-86224620D01*
X149744508Y-86155619D01*
X149578453Y-86081074D01*
X149385988Y-86046473D01*
X149207081Y-86055735D01*
X149106972Y-86093098D01*
X149067687Y-86103732D01*
X149041619Y-86064085D01*
X149023422Y-85957841D01*
X149009654Y-85796005D01*
X148994581Y-85615762D01*
X148973644Y-85507318D01*
X148935548Y-85445306D01*
X148868995Y-85404359D01*
X148827183Y-85386226D01*
X148669041Y-85319980D01*
X148669223Y-86448953D01*
X148669223Y-86448953D01*
G37*
X148669223Y-86448953D02*
X148669841Y-86812629D01*
X148672233Y-87092392D01*
X148677409Y-87301644D01*
X148686376Y-87453786D01*
X148700144Y-87562219D01*
X148719719Y-87640345D01*
X148746112Y-87701567D01*
X148766096Y-87736512D01*
X148931597Y-87926017D01*
X149141432Y-88044802D01*
X149373594Y-88087424D01*
X149606072Y-88048443D01*
X149744508Y-87978392D01*
X149889838Y-87857213D01*
X149988885Y-87709214D01*
X150048645Y-87515394D01*
X150076111Y-87256752D01*
X150080001Y-87067006D01*
X150079477Y-87053370D01*
X149739539Y-87053370D01*
X149737463Y-87270956D01*
X149727950Y-87414994D01*
X149706072Y-87509224D01*
X149666904Y-87577383D01*
X149620104Y-87628796D01*
X149462934Y-87728035D01*
X149294180Y-87736513D01*
X149134687Y-87653659D01*
X149122273Y-87642432D01*
X149069289Y-87584031D01*
X149036066Y-87514546D01*
X149018080Y-87411130D01*
X149010805Y-87250933D01*
X149009654Y-87073825D01*
X149012148Y-86851327D01*
X149022472Y-86702897D01*
X149044889Y-86605349D01*
X149083662Y-86535497D01*
X149115454Y-86498399D01*
X149263141Y-86404835D01*
X149433234Y-86393585D01*
X149595588Y-86465050D01*
X149626920Y-86491580D01*
X149680258Y-86550496D01*
X149713549Y-86620697D01*
X149731424Y-86725278D01*
X149738514Y-86887339D01*
X149739539Y-87053370D01*
X150079477Y-87053370D01*
X150068240Y-86761439D01*
X150028293Y-86531853D01*
X149953167Y-86359247D01*
X149835866Y-86224620D01*
X149744508Y-86155619D01*
X149578453Y-86081074D01*
X149385988Y-86046473D01*
X149207081Y-86055735D01*
X149106972Y-86093098D01*
X149067687Y-86103732D01*
X149041619Y-86064085D01*
X149023422Y-85957841D01*
X149009654Y-85796005D01*
X148994581Y-85615762D01*
X148973644Y-85507318D01*
X148935548Y-85445306D01*
X148868995Y-85404359D01*
X148827183Y-85386226D01*
X148669041Y-85319980D01*
X148669223Y-86448953D01*
G36*
X150882508Y-86061394D02*
G01*
X150661471Y-86142959D01*
X150482397Y-86287226D01*
X150412360Y-86388780D01*
X150336009Y-86575128D01*
X150337595Y-86709870D01*
X150417733Y-86800491D01*
X150447384Y-86815900D01*
X150575406Y-86863944D01*
X150640786Y-86851636D01*
X150662932Y-86770958D01*
X150664060Y-86726393D01*
X150704603Y-86562441D01*
X150810278Y-86447751D01*
X150957156Y-86392357D01*
X151121307Y-86406295D01*
X151254743Y-86478687D01*
X151299811Y-86519980D01*
X151331757Y-86570076D01*
X151353336Y-86645802D01*
X151367307Y-86763988D01*
X151376425Y-86941460D01*
X151383449Y-87195046D01*
X151385268Y-87275339D01*
X151391902Y-87550018D01*
X151399444Y-87743341D01*
X151410755Y-87871248D01*
X151428695Y-87949682D01*
X151456125Y-87994585D01*
X151495903Y-88021898D01*
X151521370Y-88033965D01*
X151629524Y-88075227D01*
X151693190Y-88088845D01*
X151714226Y-88043365D01*
X151727067Y-87905866D01*
X151731780Y-87674762D01*
X151728436Y-87348464D01*
X151727394Y-87298136D01*
X151720045Y-87000441D01*
X151711354Y-86783065D01*
X151698988Y-86629013D01*
X151680610Y-86521290D01*
X151653885Y-86442902D01*
X151616478Y-86376854D01*
X151596910Y-86348551D01*
X151484714Y-86223327D01*
X151359230Y-86125923D01*
X151343867Y-86117421D01*
X151118857Y-86050293D01*
X150882508Y-86061394D01*
X150882508Y-86061394D01*
G37*
X150882508Y-86061394D02*
X150661471Y-86142959D01*
X150482397Y-86287226D01*
X150412360Y-86388780D01*
X150336009Y-86575128D01*
X150337595Y-86709870D01*
X150417733Y-86800491D01*
X150447384Y-86815900D01*
X150575406Y-86863944D01*
X150640786Y-86851636D01*
X150662932Y-86770958D01*
X150664060Y-86726393D01*
X150704603Y-86562441D01*
X150810278Y-86447751D01*
X150957156Y-86392357D01*
X151121307Y-86406295D01*
X151254743Y-86478687D01*
X151299811Y-86519980D01*
X151331757Y-86570076D01*
X151353336Y-86645802D01*
X151367307Y-86763988D01*
X151376425Y-86941460D01*
X151383449Y-87195046D01*
X151385268Y-87275339D01*
X151391902Y-87550018D01*
X151399444Y-87743341D01*
X151410755Y-87871248D01*
X151428695Y-87949682D01*
X151456125Y-87994585D01*
X151495903Y-88021898D01*
X151521370Y-88033965D01*
X151629524Y-88075227D01*
X151693190Y-88088845D01*
X151714226Y-88043365D01*
X151727067Y-87905866D01*
X151731780Y-87674762D01*
X151728436Y-87348464D01*
X151727394Y-87298136D01*
X151720045Y-87000441D01*
X151711354Y-86783065D01*
X151698988Y-86629013D01*
X151680610Y-86521290D01*
X151653885Y-86442902D01*
X151616478Y-86376854D01*
X151596910Y-86348551D01*
X151484714Y-86223327D01*
X151359230Y-86125923D01*
X151343867Y-86117421D01*
X151118857Y-86050293D01*
X150882508Y-86061394D01*
G36*
X152525839Y-86065461D02*
G01*
X152335175Y-86136263D01*
X152332994Y-86137624D01*
X152215074Y-86224410D01*
X152128020Y-86325833D01*
X152066794Y-86458005D01*
X152026357Y-86637042D01*
X152001671Y-86879055D01*
X151987698Y-87200159D01*
X151986473Y-87245908D01*
X151968880Y-87935729D01*
X152116928Y-88012287D01*
X152224050Y-88064023D01*
X152288729Y-88088538D01*
X152291721Y-88088845D01*
X152302914Y-88043611D01*
X152311805Y-87921596D01*
X152317274Y-87743328D01*
X152318467Y-87598976D01*
X152318494Y-87365131D01*
X152329184Y-87218279D01*
X152366447Y-87148236D01*
X152446192Y-87144818D01*
X152584331Y-87197843D01*
X152792892Y-87295314D01*
X152946251Y-87376269D01*
X153025128Y-87446504D01*
X153048316Y-87523054D01*
X153048352Y-87526842D01*
X153010087Y-87658712D01*
X152896797Y-87729951D01*
X152723416Y-87740270D01*
X152598530Y-87738480D01*
X152532681Y-87774449D01*
X152491616Y-87860845D01*
X152467981Y-87970914D01*
X152502041Y-88033368D01*
X152514866Y-88042306D01*
X152635608Y-88078203D01*
X152804692Y-88083286D01*
X152978819Y-88059491D01*
X153102204Y-88016007D01*
X153272793Y-87871169D01*
X153369761Y-87669554D01*
X153388965Y-87512040D01*
X153374310Y-87369964D01*
X153321279Y-87253987D01*
X153216274Y-87150981D01*
X153045694Y-87047814D01*
X152795942Y-86931356D01*
X152780727Y-86924774D01*
X152555751Y-86820841D01*
X152416923Y-86735603D01*
X152357418Y-86659007D01*
X152370408Y-86580999D01*
X152449068Y-86491524D01*
X152472590Y-86470933D01*
X152630147Y-86391096D01*
X152793403Y-86394457D01*
X152935585Y-86472734D01*
X153029920Y-86617641D01*
X153038685Y-86646084D01*
X153124042Y-86784034D01*
X153232351Y-86850480D01*
X153388965Y-86916331D01*
X153388965Y-86745957D01*
X153341324Y-86498314D01*
X153199921Y-86271167D01*
X153126338Y-86195178D01*
X152959071Y-86097650D01*
X152746354Y-86053500D01*
X152525839Y-86065461D01*
X152525839Y-86065461D01*
G37*
X152525839Y-86065461D02*
X152335175Y-86136263D01*
X152332994Y-86137624D01*
X152215074Y-86224410D01*
X152128020Y-86325833D01*
X152066794Y-86458005D01*
X152026357Y-86637042D01*
X152001671Y-86879055D01*
X151987698Y-87200159D01*
X151986473Y-87245908D01*
X151968880Y-87935729D01*
X152116928Y-88012287D01*
X152224050Y-88064023D01*
X152288729Y-88088538D01*
X152291721Y-88088845D01*
X152302914Y-88043611D01*
X152311805Y-87921596D01*
X152317274Y-87743328D01*
X152318467Y-87598976D01*
X152318494Y-87365131D01*
X152329184Y-87218279D01*
X152366447Y-87148236D01*
X152446192Y-87144818D01*
X152584331Y-87197843D01*
X152792892Y-87295314D01*
X152946251Y-87376269D01*
X153025128Y-87446504D01*
X153048316Y-87523054D01*
X153048352Y-87526842D01*
X153010087Y-87658712D01*
X152896797Y-87729951D01*
X152723416Y-87740270D01*
X152598530Y-87738480D01*
X152532681Y-87774449D01*
X152491616Y-87860845D01*
X152467981Y-87970914D01*
X152502041Y-88033368D01*
X152514866Y-88042306D01*
X152635608Y-88078203D01*
X152804692Y-88083286D01*
X152978819Y-88059491D01*
X153102204Y-88016007D01*
X153272793Y-87871169D01*
X153369761Y-87669554D01*
X153388965Y-87512040D01*
X153374310Y-87369964D01*
X153321279Y-87253987D01*
X153216274Y-87150981D01*
X153045694Y-87047814D01*
X152795942Y-86931356D01*
X152780727Y-86924774D01*
X152555751Y-86820841D01*
X152416923Y-86735603D01*
X152357418Y-86659007D01*
X152370408Y-86580999D01*
X152449068Y-86491524D01*
X152472590Y-86470933D01*
X152630147Y-86391096D01*
X152793403Y-86394457D01*
X152935585Y-86472734D01*
X153029920Y-86617641D01*
X153038685Y-86646084D01*
X153124042Y-86784034D01*
X153232351Y-86850480D01*
X153388965Y-86916331D01*
X153388965Y-86745957D01*
X153341324Y-86498314D01*
X153199921Y-86271167D01*
X153126338Y-86195178D01*
X152959071Y-86097650D01*
X152746354Y-86053500D01*
X152525839Y-86065461D01*
G36*
X154751417Y-85731289D02*
G01*
X154737157Y-85930173D01*
X154720778Y-86047371D01*
X154698082Y-86098492D01*
X154664868Y-86099146D01*
X154654099Y-86093043D01*
X154510847Y-86048857D01*
X154324505Y-86051437D01*
X154135056Y-86096859D01*
X154016563Y-86155619D01*
X153895071Y-86249491D01*
X153806257Y-86355725D01*
X153745288Y-86490710D01*
X153707330Y-86670836D01*
X153687548Y-86912493D01*
X153681110Y-87232071D01*
X153680994Y-87293376D01*
X153680919Y-87982007D01*
X153834157Y-88035426D01*
X153942993Y-88071768D01*
X154002706Y-88088688D01*
X154004463Y-88088845D01*
X154010344Y-88042960D01*
X154015348Y-87916399D01*
X154019096Y-87725801D01*
X154021207Y-87487808D01*
X154021532Y-87343112D01*
X154022209Y-87057815D01*
X154025694Y-86853340D01*
X154034168Y-86713194D01*
X154049814Y-86620883D01*
X154074811Y-86559913D01*
X154111342Y-86513791D01*
X154134151Y-86491580D01*
X154290831Y-86402074D01*
X154461806Y-86395371D01*
X154616930Y-86471068D01*
X154645617Y-86498399D01*
X154687693Y-86549789D01*
X154716879Y-86610746D01*
X154735509Y-86698885D01*
X154745919Y-86831821D01*
X154750443Y-87027169D01*
X154751417Y-87296512D01*
X154751417Y-87982007D01*
X154904655Y-88035426D01*
X155013491Y-88071768D01*
X155073204Y-88088688D01*
X155074961Y-88088845D01*
X155079455Y-88042274D01*
X155083505Y-87910911D01*
X155086950Y-87707282D01*
X155089627Y-87443914D01*
X155091374Y-87133331D01*
X155092029Y-86788061D01*
X155092030Y-86772703D01*
X155092030Y-85456561D01*
X154775746Y-85323149D01*
X154751417Y-85731289D01*
X154751417Y-85731289D01*
G37*
X154751417Y-85731289D02*
X154737157Y-85930173D01*
X154720778Y-86047371D01*
X154698082Y-86098492D01*
X154664868Y-86099146D01*
X154654099Y-86093043D01*
X154510847Y-86048857D01*
X154324505Y-86051437D01*
X154135056Y-86096859D01*
X154016563Y-86155619D01*
X153895071Y-86249491D01*
X153806257Y-86355725D01*
X153745288Y-86490710D01*
X153707330Y-86670836D01*
X153687548Y-86912493D01*
X153681110Y-87232071D01*
X153680994Y-87293376D01*
X153680919Y-87982007D01*
X153834157Y-88035426D01*
X153942993Y-88071768D01*
X154002706Y-88088688D01*
X154004463Y-88088845D01*
X154010344Y-88042960D01*
X154015348Y-87916399D01*
X154019096Y-87725801D01*
X154021207Y-87487808D01*
X154021532Y-87343112D01*
X154022209Y-87057815D01*
X154025694Y-86853340D01*
X154034168Y-86713194D01*
X154049814Y-86620883D01*
X154074811Y-86559913D01*
X154111342Y-86513791D01*
X154134151Y-86491580D01*
X154290831Y-86402074D01*
X154461806Y-86395371D01*
X154616930Y-86471068D01*
X154645617Y-86498399D01*
X154687693Y-86549789D01*
X154716879Y-86610746D01*
X154735509Y-86698885D01*
X154745919Y-86831821D01*
X154750443Y-87027169D01*
X154751417Y-87296512D01*
X154751417Y-87982007D01*
X154904655Y-88035426D01*
X155013491Y-88071768D01*
X155073204Y-88088688D01*
X155074961Y-88088845D01*
X155079455Y-88042274D01*
X155083505Y-87910911D01*
X155086950Y-87707282D01*
X155089627Y-87443914D01*
X155091374Y-87133331D01*
X155092029Y-86788061D01*
X155092030Y-86772703D01*
X155092030Y-85456561D01*
X154775746Y-85323149D01*
X154751417Y-85731289D01*
G36*
X158799827Y-85999321D02*
G01*
X158607983Y-86128379D01*
X158459728Y-86314775D01*
X158371164Y-86551969D01*
X158353252Y-86726551D01*
X158355286Y-86799404D01*
X158372320Y-86855184D01*
X158419144Y-86905158D01*
X158510553Y-86960593D01*
X158661338Y-87032756D01*
X158886293Y-87132915D01*
X158887432Y-87133418D01*
X159094495Y-87228256D01*
X159264292Y-87312469D01*
X159379468Y-87376993D01*
X159422670Y-87412760D01*
X159422681Y-87413048D01*
X159384605Y-87490934D01*
X159295564Y-87576784D01*
X159193343Y-87638629D01*
X159141554Y-87650914D01*
X159000264Y-87608424D01*
X158878592Y-87502012D01*
X158819225Y-87385016D01*
X158762113Y-87298765D01*
X158650241Y-87200541D01*
X158518734Y-87115687D01*
X158402712Y-87069541D01*
X158378451Y-87067006D01*
X158351142Y-87108728D01*
X158349496Y-87215379D01*
X158369566Y-87359181D01*
X158407402Y-87512361D01*
X158459057Y-87647143D01*
X158461666Y-87652376D01*
X158617111Y-87869417D01*
X158818573Y-88017045D01*
X159047368Y-88089504D01*
X159284813Y-88081037D01*
X159512226Y-87985887D01*
X159522337Y-87979197D01*
X159701230Y-87817071D01*
X159818860Y-87605542D01*
X159883957Y-87327403D01*
X159892693Y-87249258D01*
X159908166Y-86880409D01*
X159889617Y-86708401D01*
X159422681Y-86708401D01*
X159416614Y-86815698D01*
X159383431Y-86847012D01*
X159300703Y-86823585D01*
X159170301Y-86768208D01*
X159024537Y-86698792D01*
X159020914Y-86696954D01*
X158897363Y-86631968D01*
X158847777Y-86588600D01*
X158860005Y-86543135D01*
X158911492Y-86483396D01*
X159042479Y-86396945D01*
X159183542Y-86390593D01*
X159310075Y-86453509D01*
X159397472Y-86574863D01*
X159422681Y-86708401D01*
X159889617Y-86708401D01*
X159876340Y-86585295D01*
X159794689Y-86351242D01*
X159681019Y-86187273D01*
X159475855Y-86021576D01*
X159249866Y-85939379D01*
X159019155Y-85934141D01*
X158799827Y-85999321D01*
X158799827Y-85999321D01*
G37*
X158799827Y-85999321D02*
X158607983Y-86128379D01*
X158459728Y-86314775D01*
X158371164Y-86551969D01*
X158353252Y-86726551D01*
X158355286Y-86799404D01*
X158372320Y-86855184D01*
X158419144Y-86905158D01*
X158510553Y-86960593D01*
X158661338Y-87032756D01*
X158886293Y-87132915D01*
X158887432Y-87133418D01*
X159094495Y-87228256D01*
X159264292Y-87312469D01*
X159379468Y-87376993D01*
X159422670Y-87412760D01*
X159422681Y-87413048D01*
X159384605Y-87490934D01*
X159295564Y-87576784D01*
X159193343Y-87638629D01*
X159141554Y-87650914D01*
X159000264Y-87608424D01*
X158878592Y-87502012D01*
X158819225Y-87385016D01*
X158762113Y-87298765D01*
X158650241Y-87200541D01*
X158518734Y-87115687D01*
X158402712Y-87069541D01*
X158378451Y-87067006D01*
X158351142Y-87108728D01*
X158349496Y-87215379D01*
X158369566Y-87359181D01*
X158407402Y-87512361D01*
X158459057Y-87647143D01*
X158461666Y-87652376D01*
X158617111Y-87869417D01*
X158818573Y-88017045D01*
X159047368Y-88089504D01*
X159284813Y-88081037D01*
X159512226Y-87985887D01*
X159522337Y-87979197D01*
X159701230Y-87817071D01*
X159818860Y-87605542D01*
X159883957Y-87327403D01*
X159892693Y-87249258D01*
X159908166Y-86880409D01*
X159889617Y-86708401D01*
X159422681Y-86708401D01*
X159416614Y-86815698D01*
X159383431Y-86847012D01*
X159300703Y-86823585D01*
X159170301Y-86768208D01*
X159024537Y-86698792D01*
X159020914Y-86696954D01*
X158897363Y-86631968D01*
X158847777Y-86588600D01*
X158860005Y-86543135D01*
X158911492Y-86483396D01*
X159042479Y-86396945D01*
X159183542Y-86390593D01*
X159310075Y-86453509D01*
X159397472Y-86574863D01*
X159422681Y-86708401D01*
X159889617Y-86708401D01*
X159876340Y-86585295D01*
X159794689Y-86351242D01*
X159681019Y-86187273D01*
X159475855Y-86021576D01*
X159249866Y-85939379D01*
X159019155Y-85934141D01*
X158799827Y-85999321D01*
G36*
X162578712Y-85968218D02*
G01*
X162350644Y-86088140D01*
X162182328Y-86281138D01*
X162122539Y-86405215D01*
X162076014Y-86591513D01*
X162052198Y-86826905D01*
X162049940Y-87083812D01*
X162068088Y-87334659D01*
X162105491Y-87551869D01*
X162160996Y-87707865D01*
X162178055Y-87734731D01*
X162380110Y-87935275D01*
X162620102Y-88055389D01*
X162880514Y-88090540D01*
X163143833Y-88036197D01*
X163217113Y-88003616D01*
X163359819Y-87903213D01*
X163485066Y-87770085D01*
X163496903Y-87753201D01*
X163545015Y-87671829D01*
X163576818Y-87584844D01*
X163595606Y-87470335D01*
X163604672Y-87306390D01*
X163607309Y-87071100D01*
X163607355Y-87018347D01*
X163607234Y-87001559D01*
X163120765Y-87001559D01*
X163117934Y-87223621D01*
X163106792Y-87370983D01*
X163083371Y-87466168D01*
X163043699Y-87531697D01*
X163023447Y-87553596D01*
X162907020Y-87636813D01*
X162793982Y-87633018D01*
X162679689Y-87560833D01*
X162611521Y-87483771D01*
X162571150Y-87371289D01*
X162548478Y-87193915D01*
X162546923Y-87173227D01*
X162543053Y-86851771D01*
X162583497Y-86613027D01*
X162667706Y-86458460D01*
X162795133Y-86389538D01*
X162840620Y-86385780D01*
X162960061Y-86404681D01*
X163041763Y-86470166D01*
X163091717Y-86595404D01*
X163115914Y-86793564D01*
X163120765Y-87001559D01*
X163607234Y-87001559D01*
X163605543Y-86767625D01*
X163597933Y-86592442D01*
X163581266Y-86471051D01*
X163552281Y-86381707D01*
X163507720Y-86302663D01*
X163497873Y-86287967D01*
X163332360Y-86089871D01*
X163152010Y-85974874D01*
X162932445Y-85929225D01*
X162857885Y-85926995D01*
X162578712Y-85968218D01*
X162578712Y-85968218D01*
G37*
X162578712Y-85968218D02*
X162350644Y-86088140D01*
X162182328Y-86281138D01*
X162122539Y-86405215D01*
X162076014Y-86591513D01*
X162052198Y-86826905D01*
X162049940Y-87083812D01*
X162068088Y-87334659D01*
X162105491Y-87551869D01*
X162160996Y-87707865D01*
X162178055Y-87734731D01*
X162380110Y-87935275D01*
X162620102Y-88055389D01*
X162880514Y-88090540D01*
X163143833Y-88036197D01*
X163217113Y-88003616D01*
X163359819Y-87903213D01*
X163485066Y-87770085D01*
X163496903Y-87753201D01*
X163545015Y-87671829D01*
X163576818Y-87584844D01*
X163595606Y-87470335D01*
X163604672Y-87306390D01*
X163607309Y-87071100D01*
X163607355Y-87018347D01*
X163607234Y-87001559D01*
X163120765Y-87001559D01*
X163117934Y-87223621D01*
X163106792Y-87370983D01*
X163083371Y-87466168D01*
X163043699Y-87531697D01*
X163023447Y-87553596D01*
X162907020Y-87636813D01*
X162793982Y-87633018D01*
X162679689Y-87560833D01*
X162611521Y-87483771D01*
X162571150Y-87371289D01*
X162548478Y-87193915D01*
X162546923Y-87173227D01*
X162543053Y-86851771D01*
X162583497Y-86613027D01*
X162667706Y-86458460D01*
X162795133Y-86389538D01*
X162840620Y-86385780D01*
X162960061Y-86404681D01*
X163041763Y-86470166D01*
X163091717Y-86595404D01*
X163115914Y-86793564D01*
X163120765Y-87001559D01*
X163607234Y-87001559D01*
X163605543Y-86767625D01*
X163597933Y-86592442D01*
X163581266Y-86471051D01*
X163552281Y-86381707D01*
X163507720Y-86302663D01*
X163497873Y-86287967D01*
X163332360Y-86089871D01*
X163152010Y-85974874D01*
X162932445Y-85929225D01*
X162857885Y-85926995D01*
X162578712Y-85968218D01*
G36*
X156963364Y-85987725D02*
G01*
X156807208Y-86078050D01*
X156698639Y-86167705D01*
X156619235Y-86261636D01*
X156564534Y-86376506D01*
X156530070Y-86528974D01*
X156511379Y-86735704D01*
X156503999Y-87013356D01*
X156503141Y-87212946D01*
X156503141Y-87947626D01*
X156709942Y-88040332D01*
X156916742Y-88133039D01*
X156941072Y-87328352D01*
X156951125Y-87027826D01*
X156961671Y-86809695D01*
X156974737Y-86659046D01*
X156992351Y-86560967D01*
X157016541Y-86500548D01*
X157049334Y-86462876D01*
X157059855Y-86454722D01*
X157219267Y-86391038D01*
X157380401Y-86416238D01*
X157476321Y-86483098D01*
X157515339Y-86530476D01*
X157542347Y-86592647D01*
X157559512Y-86686899D01*
X157568998Y-86830517D01*
X157572973Y-87040791D01*
X157573639Y-87259930D01*
X157573770Y-87534859D01*
X157578477Y-87729462D01*
X157594234Y-87860711D01*
X157627513Y-87945578D01*
X157684787Y-88001037D01*
X157772527Y-88044061D01*
X157889718Y-88088767D01*
X158017712Y-88137431D01*
X158002476Y-87273770D01*
X157996341Y-86962425D01*
X157989162Y-86732343D01*
X157978875Y-86567474D01*
X157963410Y-86451769D01*
X157940701Y-86369176D01*
X157908681Y-86303648D01*
X157870077Y-86245834D01*
X157683827Y-86061143D01*
X157456559Y-85954341D01*
X157209371Y-85928758D01*
X156963364Y-85987725D01*
X156963364Y-85987725D01*
G37*
X156963364Y-85987725D02*
X156807208Y-86078050D01*
X156698639Y-86167705D01*
X156619235Y-86261636D01*
X156564534Y-86376506D01*
X156530070Y-86528974D01*
X156511379Y-86735704D01*
X156503999Y-87013356D01*
X156503141Y-87212946D01*
X156503141Y-87947626D01*
X156709942Y-88040332D01*
X156916742Y-88133039D01*
X156941072Y-87328352D01*
X156951125Y-87027826D01*
X156961671Y-86809695D01*
X156974737Y-86659046D01*
X156992351Y-86560967D01*
X157016541Y-86500548D01*
X157049334Y-86462876D01*
X157059855Y-86454722D01*
X157219267Y-86391038D01*
X157380401Y-86416238D01*
X157476321Y-86483098D01*
X157515339Y-86530476D01*
X157542347Y-86592647D01*
X157559512Y-86686899D01*
X157568998Y-86830517D01*
X157572973Y-87040791D01*
X157573639Y-87259930D01*
X157573770Y-87534859D01*
X157578477Y-87729462D01*
X157594234Y-87860711D01*
X157627513Y-87945578D01*
X157684787Y-88001037D01*
X157772527Y-88044061D01*
X157889718Y-88088767D01*
X158017712Y-88137431D01*
X158002476Y-87273770D01*
X157996341Y-86962425D01*
X157989162Y-86732343D01*
X157978875Y-86567474D01*
X157963410Y-86451769D01*
X157940701Y-86369176D01*
X157908681Y-86303648D01*
X157870077Y-86245834D01*
X157683827Y-86061143D01*
X157456559Y-85954341D01*
X157209371Y-85928758D01*
X156963364Y-85987725D01*
G36*
X160705914Y-85961366D02*
G01*
X160519996Y-86054064D01*
X160355900Y-86224745D01*
X160310708Y-86287967D01*
X160261476Y-86370694D01*
X160229533Y-86460547D01*
X160211258Y-86580468D01*
X160203032Y-86753397D01*
X160201225Y-86981695D01*
X160209383Y-87294553D01*
X160237739Y-87529458D01*
X160292118Y-87704707D01*
X160378343Y-87838598D01*
X160502239Y-87949429D01*
X160511343Y-87955991D01*
X160633446Y-88023116D01*
X160780480Y-88056327D01*
X160967476Y-88064515D01*
X161271467Y-88064515D01*
X161271595Y-88359622D01*
X161274424Y-88523977D01*
X161291662Y-88620383D01*
X161336710Y-88678203D01*
X161422966Y-88726801D01*
X161443681Y-88736729D01*
X161540618Y-88783258D01*
X161615673Y-88812646D01*
X161671482Y-88815184D01*
X161710683Y-88781162D01*
X161735912Y-88700872D01*
X161749808Y-88564603D01*
X161755007Y-88362647D01*
X161754146Y-88085294D01*
X161749864Y-87722836D01*
X161748527Y-87614420D01*
X161743709Y-87240697D01*
X161739393Y-86996229D01*
X161271723Y-86996229D01*
X161269095Y-87203737D01*
X161257413Y-87339505D01*
X161230983Y-87429052D01*
X161184111Y-87497899D01*
X161152287Y-87531478D01*
X161022188Y-87629729D01*
X160907001Y-87637726D01*
X160788146Y-87556590D01*
X160785133Y-87553596D01*
X160736775Y-87490890D01*
X160707358Y-87405668D01*
X160692520Y-87274424D01*
X160687899Y-87073653D01*
X160687815Y-87029174D01*
X160698982Y-86752499D01*
X160735333Y-86560702D01*
X160801139Y-86443617D01*
X160900673Y-86391075D01*
X160958199Y-86385780D01*
X161094729Y-86410627D01*
X161188378Y-86492441D01*
X161244750Y-86642130D01*
X161269447Y-86870603D01*
X161271723Y-86996229D01*
X161739393Y-86996229D01*
X161738602Y-86951447D01*
X161732002Y-86733830D01*
X161722703Y-86575006D01*
X161709503Y-86462134D01*
X161691195Y-86382373D01*
X161666577Y-86322883D01*
X161634443Y-86270823D01*
X161620665Y-86251233D01*
X161437892Y-86066188D01*
X161206804Y-85961272D01*
X160939490Y-85932023D01*
X160705914Y-85961366D01*
X160705914Y-85961366D01*
G37*
X160705914Y-85961366D02*
X160519996Y-86054064D01*
X160355900Y-86224745D01*
X160310708Y-86287967D01*
X160261476Y-86370694D01*
X160229533Y-86460547D01*
X160211258Y-86580468D01*
X160203032Y-86753397D01*
X160201225Y-86981695D01*
X160209383Y-87294553D01*
X160237739Y-87529458D01*
X160292118Y-87704707D01*
X160378343Y-87838598D01*
X160502239Y-87949429D01*
X160511343Y-87955991D01*
X160633446Y-88023116D01*
X160780480Y-88056327D01*
X160967476Y-88064515D01*
X161271467Y-88064515D01*
X161271595Y-88359622D01*
X161274424Y-88523977D01*
X161291662Y-88620383D01*
X161336710Y-88678203D01*
X161422966Y-88726801D01*
X161443681Y-88736729D01*
X161540618Y-88783258D01*
X161615673Y-88812646D01*
X161671482Y-88815184D01*
X161710683Y-88781162D01*
X161735912Y-88700872D01*
X161749808Y-88564603D01*
X161755007Y-88362647D01*
X161754146Y-88085294D01*
X161749864Y-87722836D01*
X161748527Y-87614420D01*
X161743709Y-87240697D01*
X161739393Y-86996229D01*
X161271723Y-86996229D01*
X161269095Y-87203737D01*
X161257413Y-87339505D01*
X161230983Y-87429052D01*
X161184111Y-87497899D01*
X161152287Y-87531478D01*
X161022188Y-87629729D01*
X160907001Y-87637726D01*
X160788146Y-87556590D01*
X160785133Y-87553596D01*
X160736775Y-87490890D01*
X160707358Y-87405668D01*
X160692520Y-87274424D01*
X160687899Y-87073653D01*
X160687815Y-87029174D01*
X160698982Y-86752499D01*
X160735333Y-86560702D01*
X160801139Y-86443617D01*
X160900673Y-86391075D01*
X160958199Y-86385780D01*
X161094729Y-86410627D01*
X161188378Y-86492441D01*
X161244750Y-86642130D01*
X161269447Y-86870603D01*
X161271723Y-86996229D01*
X161739393Y-86996229D01*
X161738602Y-86951447D01*
X161732002Y-86733830D01*
X161722703Y-86575006D01*
X161709503Y-86462134D01*
X161691195Y-86382373D01*
X161666577Y-86322883D01*
X161634443Y-86270823D01*
X161620665Y-86251233D01*
X161437892Y-86066188D01*
X161206804Y-85961272D01*
X160939490Y-85932023D01*
X160705914Y-85961366D01*
G36*
X147001757Y-94321593D02*
G01*
X146970378Y-94343836D01*
X146942669Y-94371545D01*
X146942669Y-94680980D01*
X146942742Y-94772859D01*
X146943085Y-94844900D01*
X146943888Y-94899840D01*
X146945339Y-94940420D01*
X146947628Y-94969377D01*
X146950944Y-94989451D01*
X146955475Y-95003381D01*
X146961411Y-95013905D01*
X146966066Y-95020160D01*
X146996797Y-95044733D01*
X147032084Y-95047401D01*
X147064335Y-95032331D01*
X147074992Y-95023434D01*
X147082116Y-95011617D01*
X147086413Y-94992586D01*
X147088589Y-94962052D01*
X147089352Y-94915722D01*
X147089425Y-94879931D01*
X147089425Y-94745105D01*
X147586136Y-94745105D01*
X147586136Y-94867760D01*
X147586649Y-94923847D01*
X147588704Y-94962393D01*
X147593072Y-94988421D01*
X147600524Y-95006957D01*
X147609533Y-95020160D01*
X147640436Y-95044664D01*
X147675384Y-95047566D01*
X147708842Y-95030149D01*
X147717976Y-95021019D01*
X147724428Y-95008915D01*
X147728683Y-94990061D01*
X147731228Y-94960680D01*
X147732551Y-94916997D01*
X147733137Y-94855235D01*
X147733205Y-94841060D01*
X147733689Y-94724691D01*
X147733939Y-94628787D01*
X147733857Y-94551237D01*
X147733349Y-94489929D01*
X147732318Y-94442750D01*
X147730667Y-94407590D01*
X147728301Y-94382336D01*
X147725123Y-94364877D01*
X147721036Y-94353101D01*
X147715946Y-94344895D01*
X147710314Y-94338705D01*
X147678452Y-94318904D01*
X147645223Y-94321593D01*
X147613845Y-94343836D01*
X147601147Y-94358186D01*
X147593054Y-94374038D01*
X147588538Y-94396614D01*
X147586574Y-94431138D01*
X147586136Y-94482836D01*
X147586136Y-94598349D01*
X147089425Y-94598349D01*
X147089425Y-94479816D01*
X147088918Y-94425208D01*
X147086882Y-94388335D01*
X147082545Y-94364367D01*
X147075133Y-94348475D01*
X147066847Y-94338705D01*
X147034986Y-94318904D01*
X147001757Y-94321593D01*
X147001757Y-94321593D01*
G37*
X147001757Y-94321593D02*
X146970378Y-94343836D01*
X146942669Y-94371545D01*
X146942669Y-94680980D01*
X146942742Y-94772859D01*
X146943085Y-94844900D01*
X146943888Y-94899840D01*
X146945339Y-94940420D01*
X146947628Y-94969377D01*
X146950944Y-94989451D01*
X146955475Y-95003381D01*
X146961411Y-95013905D01*
X146966066Y-95020160D01*
X146996797Y-95044733D01*
X147032084Y-95047401D01*
X147064335Y-95032331D01*
X147074992Y-95023434D01*
X147082116Y-95011617D01*
X147086413Y-94992586D01*
X147088589Y-94962052D01*
X147089352Y-94915722D01*
X147089425Y-94879931D01*
X147089425Y-94745105D01*
X147586136Y-94745105D01*
X147586136Y-94867760D01*
X147586649Y-94923847D01*
X147588704Y-94962393D01*
X147593072Y-94988421D01*
X147600524Y-95006957D01*
X147609533Y-95020160D01*
X147640436Y-95044664D01*
X147675384Y-95047566D01*
X147708842Y-95030149D01*
X147717976Y-95021019D01*
X147724428Y-95008915D01*
X147728683Y-94990061D01*
X147731228Y-94960680D01*
X147732551Y-94916997D01*
X147733137Y-94855235D01*
X147733205Y-94841060D01*
X147733689Y-94724691D01*
X147733939Y-94628787D01*
X147733857Y-94551237D01*
X147733349Y-94489929D01*
X147732318Y-94442750D01*
X147730667Y-94407590D01*
X147728301Y-94382336D01*
X147725123Y-94364877D01*
X147721036Y-94353101D01*
X147715946Y-94344895D01*
X147710314Y-94338705D01*
X147678452Y-94318904D01*
X147645223Y-94321593D01*
X147613845Y-94343836D01*
X147601147Y-94358186D01*
X147593054Y-94374038D01*
X147588538Y-94396614D01*
X147586574Y-94431138D01*
X147586136Y-94482836D01*
X147586136Y-94598349D01*
X147089425Y-94598349D01*
X147089425Y-94479816D01*
X147088918Y-94425208D01*
X147086882Y-94388335D01*
X147082545Y-94364367D01*
X147075133Y-94348475D01*
X147066847Y-94338705D01*
X147034986Y-94318904D01*
X147001757Y-94321593D01*
G36*
X148267515Y-94316223D02*
G01*
X148188808Y-94316602D01*
X148127717Y-94317393D01*
X148081763Y-94318730D01*
X148048466Y-94320743D01*
X148025344Y-94323566D01*
X148009918Y-94327329D01*
X147999709Y-94332165D01*
X147994767Y-94335882D01*
X147969123Y-94368418D01*
X147966021Y-94402198D01*
X147981869Y-94432886D01*
X147992232Y-94445149D01*
X148003384Y-94453510D01*
X148019545Y-94458717D01*
X148044938Y-94461517D01*
X148083782Y-94462656D01*
X148140300Y-94462881D01*
X148151400Y-94462882D01*
X148297336Y-94462882D01*
X148297336Y-94733816D01*
X148297432Y-94819214D01*
X148297869Y-94884924D01*
X148298868Y-94933834D01*
X148300652Y-94968833D01*
X148303443Y-94992809D01*
X148307463Y-95008653D01*
X148312935Y-95019251D01*
X148319914Y-95027327D01*
X148352846Y-95047172D01*
X148387226Y-95045608D01*
X148418404Y-95022966D01*
X148420694Y-95020160D01*
X148428151Y-95009552D01*
X148433833Y-94997141D01*
X148437979Y-94979910D01*
X148440830Y-94954844D01*
X148442626Y-94918927D01*
X148443608Y-94869143D01*
X148444016Y-94802477D01*
X148444091Y-94726649D01*
X148444091Y-94462882D01*
X148583453Y-94462882D01*
X148643258Y-94462478D01*
X148684662Y-94460900D01*
X148711832Y-94457607D01*
X148728934Y-94452052D01*
X148740137Y-94443691D01*
X148741497Y-94442238D01*
X148757855Y-94408999D01*
X148756408Y-94371422D01*
X148737602Y-94338705D01*
X148730330Y-94332358D01*
X148720953Y-94327326D01*
X148706971Y-94323456D01*
X148685884Y-94320597D01*
X148655191Y-94318595D01*
X148612391Y-94317299D01*
X148554985Y-94316558D01*
X148480470Y-94316218D01*
X148386347Y-94316128D01*
X148366320Y-94316127D01*
X148267515Y-94316223D01*
X148267515Y-94316223D01*
G37*
X148267515Y-94316223D02*
X148188808Y-94316602D01*
X148127717Y-94317393D01*
X148081763Y-94318730D01*
X148048466Y-94320743D01*
X148025344Y-94323566D01*
X148009918Y-94327329D01*
X147999709Y-94332165D01*
X147994767Y-94335882D01*
X147969123Y-94368418D01*
X147966021Y-94402198D01*
X147981869Y-94432886D01*
X147992232Y-94445149D01*
X148003384Y-94453510D01*
X148019545Y-94458717D01*
X148044938Y-94461517D01*
X148083782Y-94462656D01*
X148140300Y-94462881D01*
X148151400Y-94462882D01*
X148297336Y-94462882D01*
X148297336Y-94733816D01*
X148297432Y-94819214D01*
X148297869Y-94884924D01*
X148298868Y-94933834D01*
X148300652Y-94968833D01*
X148303443Y-94992809D01*
X148307463Y-95008653D01*
X148312935Y-95019251D01*
X148319914Y-95027327D01*
X148352846Y-95047172D01*
X148387226Y-95045608D01*
X148418404Y-95022966D01*
X148420694Y-95020160D01*
X148428151Y-95009552D01*
X148433833Y-94997141D01*
X148437979Y-94979910D01*
X148440830Y-94954844D01*
X148442626Y-94918927D01*
X148443608Y-94869143D01*
X148444016Y-94802477D01*
X148444091Y-94726649D01*
X148444091Y-94462882D01*
X148583453Y-94462882D01*
X148643258Y-94462478D01*
X148684662Y-94460900D01*
X148711832Y-94457607D01*
X148728934Y-94452052D01*
X148740137Y-94443691D01*
X148741497Y-94442238D01*
X148757855Y-94408999D01*
X148756408Y-94371422D01*
X148737602Y-94338705D01*
X148730330Y-94332358D01*
X148720953Y-94327326D01*
X148706971Y-94323456D01*
X148685884Y-94320597D01*
X148655191Y-94318595D01*
X148612391Y-94317299D01*
X148554985Y-94316558D01*
X148480470Y-94316218D01*
X148386347Y-94316128D01*
X148366320Y-94316127D01*
X148267515Y-94316223D01*
G36*
X149041966Y-94322937D02*
G01*
X149018253Y-94337707D01*
X148991602Y-94359287D01*
X148991602Y-94680833D01*
X148991687Y-94774890D01*
X148992051Y-94848992D01*
X148992856Y-94905764D01*
X148994267Y-94947828D01*
X148996447Y-94977808D01*
X148999559Y-94998327D01*
X149003766Y-95012009D01*
X149009232Y-95021476D01*
X149013108Y-95026142D01*
X149044546Y-95046635D01*
X149080347Y-95045799D01*
X149111707Y-95028324D01*
X149138358Y-95006744D01*
X149138358Y-94359287D01*
X149111707Y-94337707D01*
X149085986Y-94322009D01*
X149064980Y-94316127D01*
X149041966Y-94322937D01*
X149041966Y-94322937D01*
G37*
X149041966Y-94322937D02*
X149018253Y-94337707D01*
X148991602Y-94359287D01*
X148991602Y-94680833D01*
X148991687Y-94774890D01*
X148992051Y-94848992D01*
X148992856Y-94905764D01*
X148994267Y-94947828D01*
X148996447Y-94977808D01*
X148999559Y-94998327D01*
X149003766Y-95012009D01*
X149009232Y-95021476D01*
X149013108Y-95026142D01*
X149044546Y-95046635D01*
X149080347Y-95045799D01*
X149111707Y-95028324D01*
X149138358Y-95006744D01*
X149138358Y-94359287D01*
X149111707Y-94337707D01*
X149085986Y-94322009D01*
X149064980Y-94316127D01*
X149041966Y-94322937D01*
G36*
X149485915Y-94318094D02*
G01*
X149466325Y-94325095D01*
X149465570Y-94325437D01*
X149438967Y-94345738D01*
X149424310Y-94366621D01*
X149421442Y-94376412D01*
X149421584Y-94389421D01*
X149425619Y-94407955D01*
X149434434Y-94434317D01*
X149448911Y-94470812D01*
X149469935Y-94519747D01*
X149498392Y-94583425D01*
X149535165Y-94664153D01*
X149555405Y-94708276D01*
X149591955Y-94787045D01*
X149626265Y-94859483D01*
X149657028Y-94922940D01*
X149682932Y-94974768D01*
X149702670Y-95012319D01*
X149714930Y-95032944D01*
X149717356Y-95035793D01*
X149748397Y-95048362D01*
X149783459Y-95046679D01*
X149811580Y-95031392D01*
X149812726Y-95030149D01*
X149823912Y-95013214D01*
X149842676Y-94980230D01*
X149866705Y-94935440D01*
X149893683Y-94883092D01*
X149903379Y-94863802D01*
X149976566Y-94717210D01*
X150056340Y-94876453D01*
X150084813Y-94931475D01*
X150111230Y-94979192D01*
X150133432Y-95015953D01*
X150149261Y-95038104D01*
X150154626Y-95042801D01*
X150196323Y-95049162D01*
X150230731Y-95035793D01*
X150240852Y-95021506D01*
X150258366Y-94989752D01*
X150281845Y-94943657D01*
X150309860Y-94886345D01*
X150340981Y-94820940D01*
X150373781Y-94750567D01*
X150406830Y-94678351D01*
X150438699Y-94607415D01*
X150467961Y-94540885D01*
X150493185Y-94481886D01*
X150512944Y-94433541D01*
X150525808Y-94398975D01*
X150530349Y-94381313D01*
X150530303Y-94380673D01*
X150519254Y-94358448D01*
X150497170Y-94335813D01*
X150495870Y-94334828D01*
X150468727Y-94319485D01*
X150443622Y-94319634D01*
X150434212Y-94322526D01*
X150422746Y-94328778D01*
X150410570Y-94341074D01*
X150396223Y-94361968D01*
X150378244Y-94394009D01*
X150355173Y-94439748D01*
X150325550Y-94501737D01*
X150298835Y-94558958D01*
X150268100Y-94625286D01*
X150240559Y-94684934D01*
X150217642Y-94734785D01*
X150200782Y-94771724D01*
X150191407Y-94792633D01*
X150190040Y-94795905D01*
X150183891Y-94790557D01*
X150169758Y-94768169D01*
X150149523Y-94732006D01*
X150125065Y-94685337D01*
X150115332Y-94666082D01*
X150082363Y-94601064D01*
X150056937Y-94553714D01*
X150036968Y-94521279D01*
X150020370Y-94501006D01*
X150005056Y-94490142D01*
X149988940Y-94485935D01*
X149978437Y-94485460D01*
X149959910Y-94487102D01*
X149943676Y-94493891D01*
X149927545Y-94508626D01*
X149909329Y-94534104D01*
X149886841Y-94573121D01*
X149857891Y-94628474D01*
X149841918Y-94659963D01*
X149816010Y-94710147D01*
X149793413Y-94751764D01*
X149776122Y-94781302D01*
X149766130Y-94795249D01*
X149764771Y-94795830D01*
X149758319Y-94784853D01*
X149743872Y-94756350D01*
X149722877Y-94713304D01*
X149696783Y-94658698D01*
X149667034Y-94595514D01*
X149652400Y-94564131D01*
X149614330Y-94483138D01*
X149583675Y-94420816D01*
X149558843Y-94375131D01*
X149538243Y-94344049D01*
X149520282Y-94325538D01*
X149503370Y-94317564D01*
X149485915Y-94318094D01*
X149485915Y-94318094D01*
G37*
X149485915Y-94318094D02*
X149466325Y-94325095D01*
X149465570Y-94325437D01*
X149438967Y-94345738D01*
X149424310Y-94366621D01*
X149421442Y-94376412D01*
X149421584Y-94389421D01*
X149425619Y-94407955D01*
X149434434Y-94434317D01*
X149448911Y-94470812D01*
X149469935Y-94519747D01*
X149498392Y-94583425D01*
X149535165Y-94664153D01*
X149555405Y-94708276D01*
X149591955Y-94787045D01*
X149626265Y-94859483D01*
X149657028Y-94922940D01*
X149682932Y-94974768D01*
X149702670Y-95012319D01*
X149714930Y-95032944D01*
X149717356Y-95035793D01*
X149748397Y-95048362D01*
X149783459Y-95046679D01*
X149811580Y-95031392D01*
X149812726Y-95030149D01*
X149823912Y-95013214D01*
X149842676Y-94980230D01*
X149866705Y-94935440D01*
X149893683Y-94883092D01*
X149903379Y-94863802D01*
X149976566Y-94717210D01*
X150056340Y-94876453D01*
X150084813Y-94931475D01*
X150111230Y-94979192D01*
X150133432Y-95015953D01*
X150149261Y-95038104D01*
X150154626Y-95042801D01*
X150196323Y-95049162D01*
X150230731Y-95035793D01*
X150240852Y-95021506D01*
X150258366Y-94989752D01*
X150281845Y-94943657D01*
X150309860Y-94886345D01*
X150340981Y-94820940D01*
X150373781Y-94750567D01*
X150406830Y-94678351D01*
X150438699Y-94607415D01*
X150467961Y-94540885D01*
X150493185Y-94481886D01*
X150512944Y-94433541D01*
X150525808Y-94398975D01*
X150530349Y-94381313D01*
X150530303Y-94380673D01*
X150519254Y-94358448D01*
X150497170Y-94335813D01*
X150495870Y-94334828D01*
X150468727Y-94319485D01*
X150443622Y-94319634D01*
X150434212Y-94322526D01*
X150422746Y-94328778D01*
X150410570Y-94341074D01*
X150396223Y-94361968D01*
X150378244Y-94394009D01*
X150355173Y-94439748D01*
X150325550Y-94501737D01*
X150298835Y-94558958D01*
X150268100Y-94625286D01*
X150240559Y-94684934D01*
X150217642Y-94734785D01*
X150200782Y-94771724D01*
X150191407Y-94792633D01*
X150190040Y-94795905D01*
X150183891Y-94790557D01*
X150169758Y-94768169D01*
X150149523Y-94732006D01*
X150125065Y-94685337D01*
X150115332Y-94666082D01*
X150082363Y-94601064D01*
X150056937Y-94553714D01*
X150036968Y-94521279D01*
X150020370Y-94501006D01*
X150005056Y-94490142D01*
X149988940Y-94485935D01*
X149978437Y-94485460D01*
X149959910Y-94487102D01*
X149943676Y-94493891D01*
X149927545Y-94508626D01*
X149909329Y-94534104D01*
X149886841Y-94573121D01*
X149857891Y-94628474D01*
X149841918Y-94659963D01*
X149816010Y-94710147D01*
X149793413Y-94751764D01*
X149776122Y-94781302D01*
X149766130Y-94795249D01*
X149764771Y-94795830D01*
X149758319Y-94784853D01*
X149743872Y-94756350D01*
X149722877Y-94713304D01*
X149696783Y-94658698D01*
X149667034Y-94595514D01*
X149652400Y-94564131D01*
X149614330Y-94483138D01*
X149583675Y-94420816D01*
X149558843Y-94375131D01*
X149538243Y-94344049D01*
X149520282Y-94325538D01*
X149503370Y-94317564D01*
X149485915Y-94318094D01*
G36*
X152212271Y-94316335D02*
G01*
X152083292Y-94320696D01*
X151973589Y-94333921D01*
X151881354Y-94356801D01*
X151804778Y-94390130D01*
X151742053Y-94434698D01*
X151691368Y-94491296D01*
X151650917Y-94560718D01*
X151650121Y-94562411D01*
X151625979Y-94624543D01*
X151617377Y-94679569D01*
X151624349Y-94734947D01*
X151646926Y-94798133D01*
X151651208Y-94807749D01*
X151680408Y-94864026D01*
X151713224Y-94907511D01*
X151755578Y-94944477D01*
X151813390Y-94981195D01*
X151816749Y-94983112D01*
X151867076Y-95007287D01*
X151923959Y-95025342D01*
X151991053Y-95037899D01*
X152072015Y-95045582D01*
X152170498Y-95049013D01*
X152205294Y-95049311D01*
X152370986Y-95049905D01*
X152394383Y-95020160D01*
X152401323Y-95010379D01*
X152406738Y-94998957D01*
X152410815Y-94983155D01*
X152413743Y-94960235D01*
X152415713Y-94927456D01*
X152416355Y-94903149D01*
X152259736Y-94903149D01*
X152165854Y-94903149D01*
X152110916Y-94901543D01*
X152054520Y-94897315D01*
X152008235Y-94891352D01*
X152005441Y-94890850D01*
X151923232Y-94868796D01*
X151859466Y-94835660D01*
X151812128Y-94789907D01*
X151779198Y-94729999D01*
X151773472Y-94714121D01*
X151767859Y-94689393D01*
X151770289Y-94664962D01*
X151782113Y-94632460D01*
X151789240Y-94616494D01*
X151812580Y-94574066D01*
X151840700Y-94544300D01*
X151871640Y-94523571D01*
X151933614Y-94496597D01*
X152012929Y-94477058D01*
X152105327Y-94465806D01*
X152172247Y-94463330D01*
X152259736Y-94462882D01*
X152259736Y-94903149D01*
X152416355Y-94903149D01*
X152416912Y-94882081D01*
X152417530Y-94821371D01*
X152417755Y-94742586D01*
X152417780Y-94680980D01*
X152417780Y-94371545D01*
X152390071Y-94343836D01*
X152377774Y-94332604D01*
X152364477Y-94324913D01*
X152345908Y-94320100D01*
X152317794Y-94317506D01*
X152275863Y-94316470D01*
X152215843Y-94316330D01*
X152212271Y-94316335D01*
X152212271Y-94316335D01*
G37*
X152212271Y-94316335D02*
X152083292Y-94320696D01*
X151973589Y-94333921D01*
X151881354Y-94356801D01*
X151804778Y-94390130D01*
X151742053Y-94434698D01*
X151691368Y-94491296D01*
X151650917Y-94560718D01*
X151650121Y-94562411D01*
X151625979Y-94624543D01*
X151617377Y-94679569D01*
X151624349Y-94734947D01*
X151646926Y-94798133D01*
X151651208Y-94807749D01*
X151680408Y-94864026D01*
X151713224Y-94907511D01*
X151755578Y-94944477D01*
X151813390Y-94981195D01*
X151816749Y-94983112D01*
X151867076Y-95007287D01*
X151923959Y-95025342D01*
X151991053Y-95037899D01*
X152072015Y-95045582D01*
X152170498Y-95049013D01*
X152205294Y-95049311D01*
X152370986Y-95049905D01*
X152394383Y-95020160D01*
X152401323Y-95010379D01*
X152406738Y-94998957D01*
X152410815Y-94983155D01*
X152413743Y-94960235D01*
X152415713Y-94927456D01*
X152416355Y-94903149D01*
X152259736Y-94903149D01*
X152165854Y-94903149D01*
X152110916Y-94901543D01*
X152054520Y-94897315D01*
X152008235Y-94891352D01*
X152005441Y-94890850D01*
X151923232Y-94868796D01*
X151859466Y-94835660D01*
X151812128Y-94789907D01*
X151779198Y-94729999D01*
X151773472Y-94714121D01*
X151767859Y-94689393D01*
X151770289Y-94664962D01*
X151782113Y-94632460D01*
X151789240Y-94616494D01*
X151812580Y-94574066D01*
X151840700Y-94544300D01*
X151871640Y-94523571D01*
X151933614Y-94496597D01*
X152012929Y-94477058D01*
X152105327Y-94465806D01*
X152172247Y-94463330D01*
X152259736Y-94462882D01*
X152259736Y-94903149D01*
X152416355Y-94903149D01*
X152416912Y-94882081D01*
X152417530Y-94821371D01*
X152417755Y-94742586D01*
X152417780Y-94680980D01*
X152417780Y-94371545D01*
X152390071Y-94343836D01*
X152377774Y-94332604D01*
X152364477Y-94324913D01*
X152345908Y-94320100D01*
X152317794Y-94317506D01*
X152275863Y-94316470D01*
X152215843Y-94316330D01*
X152212271Y-94316335D01*
G36*
X153000237Y-94316320D02*
G01*
X152923879Y-94317234D01*
X152865363Y-94319371D01*
X152822325Y-94323235D01*
X152792397Y-94329327D01*
X152773212Y-94338150D01*
X152762404Y-94350206D01*
X152757607Y-94365999D01*
X152756453Y-94386030D01*
X152756447Y-94388395D01*
X152757449Y-94411052D01*
X152762184Y-94428563D01*
X152773247Y-94441634D01*
X152793232Y-94450973D01*
X152824734Y-94457287D01*
X152870348Y-94461282D01*
X152932667Y-94463666D01*
X153014287Y-94465146D01*
X153039303Y-94465474D01*
X153281380Y-94468527D01*
X153284766Y-94533438D01*
X153288151Y-94598349D01*
X153120004Y-94598349D01*
X153054314Y-94598591D01*
X153007408Y-94599616D01*
X152975497Y-94601871D01*
X152954789Y-94605802D01*
X152941496Y-94611858D01*
X152931825Y-94620484D01*
X152931763Y-94620553D01*
X152914224Y-94654172D01*
X152914858Y-94690508D01*
X152933266Y-94721483D01*
X152936909Y-94724667D01*
X152949839Y-94732872D01*
X152967556Y-94738581D01*
X152994010Y-94742222D01*
X153033148Y-94744227D01*
X153088918Y-94745024D01*
X153124586Y-94745105D01*
X153287025Y-94745105D01*
X153287025Y-94903149D01*
X153040419Y-94903149D01*
X152959000Y-94903291D01*
X152897170Y-94903874D01*
X152851943Y-94905128D01*
X152820332Y-94907287D01*
X152799349Y-94910583D01*
X152786007Y-94915249D01*
X152777319Y-94921517D01*
X152775130Y-94923793D01*
X152758966Y-94955340D01*
X152757783Y-94991228D01*
X152771044Y-95022345D01*
X152781537Y-95032331D01*
X152792451Y-95037829D01*
X152809363Y-95042082D01*
X152834947Y-95045240D01*
X152871879Y-95047452D01*
X152922834Y-95048866D01*
X152990486Y-95049632D01*
X153077511Y-95049898D01*
X153097186Y-95049905D01*
X153185669Y-95049847D01*
X153254353Y-95049527D01*
X153306016Y-95048727D01*
X153343435Y-95047227D01*
X153369390Y-95044809D01*
X153386658Y-95041254D01*
X153398018Y-95036342D01*
X153406248Y-95029855D01*
X153410763Y-95025198D01*
X153417559Y-95016949D01*
X153422868Y-95006729D01*
X153426874Y-94991860D01*
X153429759Y-94969662D01*
X153431706Y-94937453D01*
X153432899Y-94892556D01*
X153433519Y-94832288D01*
X153433751Y-94753971D01*
X153433780Y-94688054D01*
X153433709Y-94595688D01*
X153433372Y-94523177D01*
X153432582Y-94467797D01*
X153431154Y-94426825D01*
X153428901Y-94397538D01*
X153425637Y-94377213D01*
X153421176Y-94363126D01*
X153415332Y-94352555D01*
X153410383Y-94345871D01*
X153386986Y-94316127D01*
X153096806Y-94316127D01*
X153000237Y-94316320D01*
X153000237Y-94316320D01*
G37*
X153000237Y-94316320D02*
X152923879Y-94317234D01*
X152865363Y-94319371D01*
X152822325Y-94323235D01*
X152792397Y-94329327D01*
X152773212Y-94338150D01*
X152762404Y-94350206D01*
X152757607Y-94365999D01*
X152756453Y-94386030D01*
X152756447Y-94388395D01*
X152757449Y-94411052D01*
X152762184Y-94428563D01*
X152773247Y-94441634D01*
X152793232Y-94450973D01*
X152824734Y-94457287D01*
X152870348Y-94461282D01*
X152932667Y-94463666D01*
X153014287Y-94465146D01*
X153039303Y-94465474D01*
X153281380Y-94468527D01*
X153284766Y-94533438D01*
X153288151Y-94598349D01*
X153120004Y-94598349D01*
X153054314Y-94598591D01*
X153007408Y-94599616D01*
X152975497Y-94601871D01*
X152954789Y-94605802D01*
X152941496Y-94611858D01*
X152931825Y-94620484D01*
X152931763Y-94620553D01*
X152914224Y-94654172D01*
X152914858Y-94690508D01*
X152933266Y-94721483D01*
X152936909Y-94724667D01*
X152949839Y-94732872D01*
X152967556Y-94738581D01*
X152994010Y-94742222D01*
X153033148Y-94744227D01*
X153088918Y-94745024D01*
X153124586Y-94745105D01*
X153287025Y-94745105D01*
X153287025Y-94903149D01*
X153040419Y-94903149D01*
X152959000Y-94903291D01*
X152897170Y-94903874D01*
X152851943Y-94905128D01*
X152820332Y-94907287D01*
X152799349Y-94910583D01*
X152786007Y-94915249D01*
X152777319Y-94921517D01*
X152775130Y-94923793D01*
X152758966Y-94955340D01*
X152757783Y-94991228D01*
X152771044Y-95022345D01*
X152781537Y-95032331D01*
X152792451Y-95037829D01*
X152809363Y-95042082D01*
X152834947Y-95045240D01*
X152871879Y-95047452D01*
X152922834Y-95048866D01*
X152990486Y-95049632D01*
X153077511Y-95049898D01*
X153097186Y-95049905D01*
X153185669Y-95049847D01*
X153254353Y-95049527D01*
X153306016Y-95048727D01*
X153343435Y-95047227D01*
X153369390Y-95044809D01*
X153386658Y-95041254D01*
X153398018Y-95036342D01*
X153406248Y-95029855D01*
X153410763Y-95025198D01*
X153417559Y-95016949D01*
X153422868Y-95006729D01*
X153426874Y-94991860D01*
X153429759Y-94969662D01*
X153431706Y-94937453D01*
X153432899Y-94892556D01*
X153433519Y-94832288D01*
X153433751Y-94753971D01*
X153433780Y-94688054D01*
X153433709Y-94595688D01*
X153433372Y-94523177D01*
X153432582Y-94467797D01*
X153431154Y-94426825D01*
X153428901Y-94397538D01*
X153425637Y-94377213D01*
X153421176Y-94363126D01*
X153415332Y-94352555D01*
X153410383Y-94345871D01*
X153386986Y-94316127D01*
X153096806Y-94316127D01*
X153000237Y-94316320D01*
G36*
X154530694Y-94320508D02*
G01*
X154507128Y-94334333D01*
X154476315Y-94356941D01*
X154436658Y-94389398D01*
X154386560Y-94432768D01*
X154324423Y-94488118D01*
X154248652Y-94556511D01*
X154161914Y-94635144D01*
X153981291Y-94798938D01*
X153975647Y-94579089D01*
X153973609Y-94503411D01*
X153971643Y-94447054D01*
X153969314Y-94406766D01*
X153966186Y-94379295D01*
X153961825Y-94361389D01*
X153955796Y-94349797D01*
X153947664Y-94341268D01*
X153943352Y-94337683D01*
X153908821Y-94318730D01*
X153875963Y-94321501D01*
X153849898Y-94337693D01*
X153823247Y-94359259D01*
X153819932Y-94674211D01*
X153819015Y-94766839D01*
X153818548Y-94839604D01*
X153818693Y-94895221D01*
X153819612Y-94936402D01*
X153821467Y-94965863D01*
X153824419Y-94986315D01*
X153828630Y-95000473D01*
X153834262Y-95011051D01*
X153840507Y-95019534D01*
X153854019Y-95035267D01*
X153867463Y-95045696D01*
X153882704Y-95049699D01*
X153901606Y-95046154D01*
X153926035Y-95033939D01*
X153957853Y-95011931D01*
X153998928Y-94979009D01*
X154051122Y-94934051D01*
X154116302Y-94875935D01*
X154190136Y-94809159D01*
X154455425Y-94568518D01*
X154461069Y-94787649D01*
X154463111Y-94863188D01*
X154465082Y-94919414D01*
X154467419Y-94959584D01*
X154470561Y-94986956D01*
X154474944Y-95004788D01*
X154481004Y-95016339D01*
X154489180Y-95024867D01*
X154493364Y-95028342D01*
X154530345Y-95047432D01*
X154565288Y-95044553D01*
X154595716Y-95020160D01*
X154602677Y-95010346D01*
X154608103Y-94998886D01*
X154612183Y-94983028D01*
X154615109Y-94960023D01*
X154617072Y-94927122D01*
X154618263Y-94881576D01*
X154618872Y-94820633D01*
X154619091Y-94741546D01*
X154619114Y-94683016D01*
X154619040Y-94591467D01*
X154618693Y-94519747D01*
X154617881Y-94465105D01*
X154616413Y-94424792D01*
X154614099Y-94396058D01*
X154610747Y-94376153D01*
X154606168Y-94362328D01*
X154600169Y-94351832D01*
X154595716Y-94345871D01*
X154584430Y-94331751D01*
X154573881Y-94321089D01*
X154562473Y-94314952D01*
X154548610Y-94314403D01*
X154530694Y-94320508D01*
X154530694Y-94320508D01*
G37*
X154530694Y-94320508D02*
X154507128Y-94334333D01*
X154476315Y-94356941D01*
X154436658Y-94389398D01*
X154386560Y-94432768D01*
X154324423Y-94488118D01*
X154248652Y-94556511D01*
X154161914Y-94635144D01*
X153981291Y-94798938D01*
X153975647Y-94579089D01*
X153973609Y-94503411D01*
X153971643Y-94447054D01*
X153969314Y-94406766D01*
X153966186Y-94379295D01*
X153961825Y-94361389D01*
X153955796Y-94349797D01*
X153947664Y-94341268D01*
X153943352Y-94337683D01*
X153908821Y-94318730D01*
X153875963Y-94321501D01*
X153849898Y-94337693D01*
X153823247Y-94359259D01*
X153819932Y-94674211D01*
X153819015Y-94766839D01*
X153818548Y-94839604D01*
X153818693Y-94895221D01*
X153819612Y-94936402D01*
X153821467Y-94965863D01*
X153824419Y-94986315D01*
X153828630Y-95000473D01*
X153834262Y-95011051D01*
X153840507Y-95019534D01*
X153854019Y-95035267D01*
X153867463Y-95045696D01*
X153882704Y-95049699D01*
X153901606Y-95046154D01*
X153926035Y-95033939D01*
X153957853Y-95011931D01*
X153998928Y-94979009D01*
X154051122Y-94934051D01*
X154116302Y-94875935D01*
X154190136Y-94809159D01*
X154455425Y-94568518D01*
X154461069Y-94787649D01*
X154463111Y-94863188D01*
X154465082Y-94919414D01*
X154467419Y-94959584D01*
X154470561Y-94986956D01*
X154474944Y-95004788D01*
X154481004Y-95016339D01*
X154489180Y-95024867D01*
X154493364Y-95028342D01*
X154530345Y-95047432D01*
X154565288Y-95044553D01*
X154595716Y-95020160D01*
X154602677Y-95010346D01*
X154608103Y-94998886D01*
X154612183Y-94983028D01*
X154615109Y-94960023D01*
X154617072Y-94927122D01*
X154618263Y-94881576D01*
X154618872Y-94820633D01*
X154619091Y-94741546D01*
X154619114Y-94683016D01*
X154619040Y-94591467D01*
X154618693Y-94519747D01*
X154617881Y-94465105D01*
X154616413Y-94424792D01*
X154614099Y-94396058D01*
X154610747Y-94376153D01*
X154606168Y-94362328D01*
X154600169Y-94351832D01*
X154595716Y-94345871D01*
X154584430Y-94331751D01*
X154573881Y-94321089D01*
X154562473Y-94314952D01*
X154548610Y-94314403D01*
X154530694Y-94320508D01*
G36*
X155180661Y-94321659D02*
G01*
X155112145Y-94333155D01*
X155059523Y-94351027D01*
X155025288Y-94374559D01*
X155015959Y-94387984D01*
X155006473Y-94419208D01*
X155012857Y-94447455D01*
X155033010Y-94474242D01*
X155064325Y-94486773D01*
X155109763Y-94485756D01*
X155144906Y-94478966D01*
X155222999Y-94466031D01*
X155302806Y-94464802D01*
X155392135Y-94475301D01*
X155416809Y-94479750D01*
X155499871Y-94503168D01*
X155564853Y-94538005D01*
X155611041Y-94583664D01*
X155637725Y-94639554D01*
X155643243Y-94668448D01*
X155639631Y-94727072D01*
X155616309Y-94778939D01*
X155575404Y-94823038D01*
X155519039Y-94858359D01*
X155449340Y-94883889D01*
X155368432Y-94898619D01*
X155278440Y-94901538D01*
X155181490Y-94891635D01*
X155176016Y-94890701D01*
X155137455Y-94883519D01*
X155116074Y-94876581D01*
X155106807Y-94866287D01*
X155104586Y-94849036D01*
X155104536Y-94839901D01*
X155104536Y-94801549D01*
X155173011Y-94801549D01*
X155233480Y-94797407D01*
X155274745Y-94784207D01*
X155298755Y-94760790D01*
X155307457Y-94725996D01*
X155307563Y-94721454D01*
X155302472Y-94691714D01*
X155285013Y-94670479D01*
X155252519Y-94656426D01*
X155202323Y-94648233D01*
X155153703Y-94645221D01*
X155083036Y-94643493D01*
X155031778Y-94646130D01*
X154996819Y-94655860D01*
X154975050Y-94675413D01*
X154963360Y-94707516D01*
X154958640Y-94754898D01*
X154957780Y-94817131D01*
X154959189Y-94886595D01*
X154963428Y-94933846D01*
X154970516Y-94959072D01*
X154971891Y-94961048D01*
X155010808Y-94992568D01*
X155067866Y-95017530D01*
X155139449Y-95035400D01*
X155221938Y-95045646D01*
X155311719Y-95047733D01*
X155405172Y-95041128D01*
X155460136Y-95033016D01*
X155546346Y-95008614D01*
X155626472Y-94968722D01*
X155693557Y-94916947D01*
X155703753Y-94906599D01*
X155736882Y-94863095D01*
X155766774Y-94809178D01*
X155789937Y-94752652D01*
X155802878Y-94701319D01*
X155804438Y-94681604D01*
X155797798Y-94640479D01*
X155780148Y-94589312D01*
X155754877Y-94535454D01*
X155725369Y-94486255D01*
X155699299Y-94453394D01*
X155638345Y-94404512D01*
X155559549Y-94365605D01*
X155465737Y-94337554D01*
X155359730Y-94321239D01*
X155262580Y-94317252D01*
X155180661Y-94321659D01*
X155180661Y-94321659D01*
G37*
X155180661Y-94321659D02*
X155112145Y-94333155D01*
X155059523Y-94351027D01*
X155025288Y-94374559D01*
X155015959Y-94387984D01*
X155006473Y-94419208D01*
X155012857Y-94447455D01*
X155033010Y-94474242D01*
X155064325Y-94486773D01*
X155109763Y-94485756D01*
X155144906Y-94478966D01*
X155222999Y-94466031D01*
X155302806Y-94464802D01*
X155392135Y-94475301D01*
X155416809Y-94479750D01*
X155499871Y-94503168D01*
X155564853Y-94538005D01*
X155611041Y-94583664D01*
X155637725Y-94639554D01*
X155643243Y-94668448D01*
X155639631Y-94727072D01*
X155616309Y-94778939D01*
X155575404Y-94823038D01*
X155519039Y-94858359D01*
X155449340Y-94883889D01*
X155368432Y-94898619D01*
X155278440Y-94901538D01*
X155181490Y-94891635D01*
X155176016Y-94890701D01*
X155137455Y-94883519D01*
X155116074Y-94876581D01*
X155106807Y-94866287D01*
X155104586Y-94849036D01*
X155104536Y-94839901D01*
X155104536Y-94801549D01*
X155173011Y-94801549D01*
X155233480Y-94797407D01*
X155274745Y-94784207D01*
X155298755Y-94760790D01*
X155307457Y-94725996D01*
X155307563Y-94721454D01*
X155302472Y-94691714D01*
X155285013Y-94670479D01*
X155252519Y-94656426D01*
X155202323Y-94648233D01*
X155153703Y-94645221D01*
X155083036Y-94643493D01*
X155031778Y-94646130D01*
X154996819Y-94655860D01*
X154975050Y-94675413D01*
X154963360Y-94707516D01*
X154958640Y-94754898D01*
X154957780Y-94817131D01*
X154959189Y-94886595D01*
X154963428Y-94933846D01*
X154970516Y-94959072D01*
X154971891Y-94961048D01*
X155010808Y-94992568D01*
X155067866Y-95017530D01*
X155139449Y-95035400D01*
X155221938Y-95045646D01*
X155311719Y-95047733D01*
X155405172Y-95041128D01*
X155460136Y-95033016D01*
X155546346Y-95008614D01*
X155626472Y-94968722D01*
X155693557Y-94916947D01*
X155703753Y-94906599D01*
X155736882Y-94863095D01*
X155766774Y-94809178D01*
X155789937Y-94752652D01*
X155802878Y-94701319D01*
X155804438Y-94681604D01*
X155797798Y-94640479D01*
X155780148Y-94589312D01*
X155754877Y-94535454D01*
X155725369Y-94486255D01*
X155699299Y-94453394D01*
X155638345Y-94404512D01*
X155559549Y-94365605D01*
X155465737Y-94337554D01*
X155359730Y-94321239D01*
X155262580Y-94317252D01*
X155180661Y-94321659D01*
G36*
X156154402Y-94338705D02*
G01*
X156147822Y-94346278D01*
X156142659Y-94356047D01*
X156138744Y-94370631D01*
X156135904Y-94392645D01*
X156133967Y-94424708D01*
X156132763Y-94469435D01*
X156132119Y-94529445D01*
X156131864Y-94607354D01*
X156131825Y-94683016D01*
X156131894Y-94776862D01*
X156132218Y-94850749D01*
X156132966Y-94907292D01*
X156134312Y-94949109D01*
X156136426Y-94978817D01*
X156139480Y-94999033D01*
X156143646Y-95012374D01*
X156149096Y-95021458D01*
X156154402Y-95027327D01*
X156187406Y-95047007D01*
X156222571Y-95045241D01*
X156254035Y-95023777D01*
X156261264Y-95015397D01*
X156266914Y-95005674D01*
X156271179Y-94991921D01*
X156274253Y-94971449D01*
X156276332Y-94941572D01*
X156277610Y-94899601D01*
X156278281Y-94842849D01*
X156278539Y-94768627D01*
X156278580Y-94684597D01*
X156278580Y-94371545D01*
X156250871Y-94343836D01*
X156216717Y-94320523D01*
X156183586Y-94319683D01*
X156154402Y-94338705D01*
X156154402Y-94338705D01*
G37*
X156154402Y-94338705D02*
X156147822Y-94346278D01*
X156142659Y-94356047D01*
X156138744Y-94370631D01*
X156135904Y-94392645D01*
X156133967Y-94424708D01*
X156132763Y-94469435D01*
X156132119Y-94529445D01*
X156131864Y-94607354D01*
X156131825Y-94683016D01*
X156131894Y-94776862D01*
X156132218Y-94850749D01*
X156132966Y-94907292D01*
X156134312Y-94949109D01*
X156136426Y-94978817D01*
X156139480Y-94999033D01*
X156143646Y-95012374D01*
X156149096Y-95021458D01*
X156154402Y-95027327D01*
X156187406Y-95047007D01*
X156222571Y-95045241D01*
X156254035Y-95023777D01*
X156261264Y-95015397D01*
X156266914Y-95005674D01*
X156271179Y-94991921D01*
X156274253Y-94971449D01*
X156276332Y-94941572D01*
X156277610Y-94899601D01*
X156278281Y-94842849D01*
X156278539Y-94768627D01*
X156278580Y-94684597D01*
X156278580Y-94371545D01*
X156250871Y-94343836D01*
X156216717Y-94320523D01*
X156183586Y-94319683D01*
X156154402Y-94338705D01*
G36*
X156922283Y-94317411D02*
G01*
X156847468Y-94322641D01*
X156777886Y-94330810D01*
X156717582Y-94341610D01*
X156670600Y-94354733D01*
X156640986Y-94369873D01*
X156636440Y-94374329D01*
X156620634Y-94408910D01*
X156625427Y-94444411D01*
X156649944Y-94474785D01*
X156651114Y-94475656D01*
X156665534Y-94485014D01*
X156680588Y-94489936D01*
X156701585Y-94490533D01*
X156733837Y-94486921D01*
X156782653Y-94479214D01*
X156786580Y-94478565D01*
X156859319Y-94469629D01*
X156937797Y-94465221D01*
X157016507Y-94465179D01*
X157089941Y-94469339D01*
X157152591Y-94477539D01*
X157198950Y-94489617D01*
X157201996Y-94490831D01*
X157235628Y-94509675D01*
X157247444Y-94528745D01*
X157238194Y-94547499D01*
X157208627Y-94565397D01*
X157159491Y-94581897D01*
X157091537Y-94596456D01*
X157046225Y-94603466D01*
X156952036Y-94616949D01*
X156877124Y-94629274D01*
X156818297Y-94641509D01*
X156772365Y-94654721D01*
X156736135Y-94669977D01*
X156706418Y-94688345D01*
X156680022Y-94710891D01*
X156658810Y-94733031D01*
X156633645Y-94763879D01*
X156621261Y-94790405D01*
X156617388Y-94823086D01*
X156617247Y-94835055D01*
X156620156Y-94874772D01*
X156631782Y-94904319D01*
X156651903Y-94930546D01*
X156692796Y-94970636D01*
X156738397Y-95001209D01*
X156792093Y-95023263D01*
X156857272Y-95037795D01*
X156937324Y-95045801D01*
X157035637Y-95048278D01*
X157051869Y-95048237D01*
X157117429Y-95046878D01*
X157182446Y-95043790D01*
X157239832Y-95039416D01*
X157282502Y-95034200D01*
X157285952Y-95033601D01*
X157328376Y-95023551D01*
X157364360Y-95010856D01*
X157384730Y-94999250D01*
X157403687Y-94968632D01*
X157405007Y-94932978D01*
X157388665Y-94901204D01*
X157385009Y-94897611D01*
X157369895Y-94886936D01*
X157350995Y-94882336D01*
X157321742Y-94883119D01*
X157286231Y-94887187D01*
X157246550Y-94890822D01*
X157190925Y-94893888D01*
X157125986Y-94896113D01*
X157058365Y-94897224D01*
X157040580Y-94897297D01*
X156972708Y-94897024D01*
X156923034Y-94895706D01*
X156887190Y-94892887D01*
X156860804Y-94888110D01*
X156839506Y-94880917D01*
X156826706Y-94874927D01*
X156798580Y-94858293D01*
X156780648Y-94843228D01*
X156778027Y-94838957D01*
X156783556Y-94821323D01*
X156809840Y-94804252D01*
X156855058Y-94788518D01*
X156917388Y-94774898D01*
X156935751Y-94771864D01*
X157031670Y-94756798D01*
X157108221Y-94744206D01*
X157168360Y-94733171D01*
X157215040Y-94722780D01*
X157251217Y-94712116D01*
X157279845Y-94700265D01*
X157303878Y-94686311D01*
X157326272Y-94669341D01*
X157349982Y-94648438D01*
X157357960Y-94641109D01*
X157385933Y-94613759D01*
X157400740Y-94592089D01*
X157406532Y-94567292D01*
X157407469Y-94536043D01*
X157397155Y-94474765D01*
X157366332Y-94422700D01*
X157315175Y-94380018D01*
X157243863Y-94346885D01*
X157192980Y-94332024D01*
X157137680Y-94322426D01*
X157071433Y-94316996D01*
X156998286Y-94315427D01*
X156922283Y-94317411D01*
X156922283Y-94317411D01*
G37*
X156922283Y-94317411D02*
X156847468Y-94322641D01*
X156777886Y-94330810D01*
X156717582Y-94341610D01*
X156670600Y-94354733D01*
X156640986Y-94369873D01*
X156636440Y-94374329D01*
X156620634Y-94408910D01*
X156625427Y-94444411D01*
X156649944Y-94474785D01*
X156651114Y-94475656D01*
X156665534Y-94485014D01*
X156680588Y-94489936D01*
X156701585Y-94490533D01*
X156733837Y-94486921D01*
X156782653Y-94479214D01*
X156786580Y-94478565D01*
X156859319Y-94469629D01*
X156937797Y-94465221D01*
X157016507Y-94465179D01*
X157089941Y-94469339D01*
X157152591Y-94477539D01*
X157198950Y-94489617D01*
X157201996Y-94490831D01*
X157235628Y-94509675D01*
X157247444Y-94528745D01*
X157238194Y-94547499D01*
X157208627Y-94565397D01*
X157159491Y-94581897D01*
X157091537Y-94596456D01*
X157046225Y-94603466D01*
X156952036Y-94616949D01*
X156877124Y-94629274D01*
X156818297Y-94641509D01*
X156772365Y-94654721D01*
X156736135Y-94669977D01*
X156706418Y-94688345D01*
X156680022Y-94710891D01*
X156658810Y-94733031D01*
X156633645Y-94763879D01*
X156621261Y-94790405D01*
X156617388Y-94823086D01*
X156617247Y-94835055D01*
X156620156Y-94874772D01*
X156631782Y-94904319D01*
X156651903Y-94930546D01*
X156692796Y-94970636D01*
X156738397Y-95001209D01*
X156792093Y-95023263D01*
X156857272Y-95037795D01*
X156937324Y-95045801D01*
X157035637Y-95048278D01*
X157051869Y-95048237D01*
X157117429Y-95046878D01*
X157182446Y-95043790D01*
X157239832Y-95039416D01*
X157282502Y-95034200D01*
X157285952Y-95033601D01*
X157328376Y-95023551D01*
X157364360Y-95010856D01*
X157384730Y-94999250D01*
X157403687Y-94968632D01*
X157405007Y-94932978D01*
X157388665Y-94901204D01*
X157385009Y-94897611D01*
X157369895Y-94886936D01*
X157350995Y-94882336D01*
X157321742Y-94883119D01*
X157286231Y-94887187D01*
X157246550Y-94890822D01*
X157190925Y-94893888D01*
X157125986Y-94896113D01*
X157058365Y-94897224D01*
X157040580Y-94897297D01*
X156972708Y-94897024D01*
X156923034Y-94895706D01*
X156887190Y-94892887D01*
X156860804Y-94888110D01*
X156839506Y-94880917D01*
X156826706Y-94874927D01*
X156798580Y-94858293D01*
X156780648Y-94843228D01*
X156778027Y-94838957D01*
X156783556Y-94821323D01*
X156809840Y-94804252D01*
X156855058Y-94788518D01*
X156917388Y-94774898D01*
X156935751Y-94771864D01*
X157031670Y-94756798D01*
X157108221Y-94744206D01*
X157168360Y-94733171D01*
X157215040Y-94722780D01*
X157251217Y-94712116D01*
X157279845Y-94700265D01*
X157303878Y-94686311D01*
X157326272Y-94669341D01*
X157349982Y-94648438D01*
X157357960Y-94641109D01*
X157385933Y-94613759D01*
X157400740Y-94592089D01*
X157406532Y-94567292D01*
X157407469Y-94536043D01*
X157397155Y-94474765D01*
X157366332Y-94422700D01*
X157315175Y-94380018D01*
X157243863Y-94346885D01*
X157192980Y-94332024D01*
X157137680Y-94322426D01*
X157071433Y-94316996D01*
X156998286Y-94315427D01*
X156922283Y-94317411D01*
G36*
X157943374Y-94316206D02*
G01*
X157873966Y-94316578D01*
X157821577Y-94317445D01*
X157783427Y-94319006D01*
X157756739Y-94321463D01*
X157738733Y-94325017D01*
X157726629Y-94329870D01*
X157717649Y-94336221D01*
X157714398Y-94339144D01*
X157694623Y-94370202D01*
X157691062Y-94405888D01*
X157704071Y-94437570D01*
X157710086Y-94443973D01*
X157719815Y-94450181D01*
X157735481Y-94454970D01*
X157759988Y-94458574D01*
X157796241Y-94461224D01*
X157847145Y-94463155D01*
X157915606Y-94464599D01*
X157978197Y-94465478D01*
X158225914Y-94468527D01*
X158229299Y-94533438D01*
X158232685Y-94598349D01*
X158064538Y-94598349D01*
X157991539Y-94598979D01*
X157938097Y-94601613D01*
X157901208Y-94607369D01*
X157877868Y-94617364D01*
X157865074Y-94632716D01*
X157859822Y-94654542D01*
X157859025Y-94674798D01*
X157861503Y-94699652D01*
X157870857Y-94717966D01*
X157889963Y-94730697D01*
X157921698Y-94738801D01*
X157968939Y-94743236D01*
X158034563Y-94744959D01*
X158070381Y-94745105D01*
X158231558Y-94745105D01*
X158231558Y-94903149D01*
X157983202Y-94903149D01*
X157901793Y-94903262D01*
X157839922Y-94903772D01*
X157794548Y-94904930D01*
X157762634Y-94906990D01*
X157741139Y-94910206D01*
X157727023Y-94914832D01*
X157717248Y-94921119D01*
X157712269Y-94925727D01*
X157695190Y-94952620D01*
X157689691Y-94976527D01*
X157697543Y-95005727D01*
X157712269Y-95027327D01*
X157720126Y-95034126D01*
X157730268Y-95039406D01*
X157745424Y-95043358D01*
X157768321Y-95046173D01*
X157801689Y-95048042D01*
X157848255Y-95049158D01*
X157910747Y-95049711D01*
X157991894Y-95049893D01*
X158034002Y-95049905D01*
X158124178Y-95049825D01*
X158194504Y-95049458D01*
X158247709Y-95048612D01*
X158286520Y-95047096D01*
X158313667Y-95044719D01*
X158331878Y-95041289D01*
X158343880Y-95036614D01*
X158352402Y-95030504D01*
X158355736Y-95027327D01*
X158362335Y-95019730D01*
X158367507Y-95009930D01*
X158371426Y-94995299D01*
X158374264Y-94973212D01*
X158376195Y-94941042D01*
X158377392Y-94896163D01*
X158378028Y-94835949D01*
X158378277Y-94757773D01*
X158378314Y-94684983D01*
X158378280Y-94591767D01*
X158378045Y-94518491D01*
X158377410Y-94462518D01*
X158376174Y-94421211D01*
X158374136Y-94391932D01*
X158371097Y-94372044D01*
X158366857Y-94358910D01*
X158361215Y-94349892D01*
X158353971Y-94342353D01*
X158352186Y-94340672D01*
X158343525Y-94333232D01*
X158333462Y-94327469D01*
X158319205Y-94323172D01*
X158297963Y-94320124D01*
X158266944Y-94318111D01*
X158223357Y-94316920D01*
X158164411Y-94316335D01*
X158087314Y-94316143D01*
X158032581Y-94316127D01*
X157943374Y-94316206D01*
X157943374Y-94316206D01*
G37*
X157943374Y-94316206D02*
X157873966Y-94316578D01*
X157821577Y-94317445D01*
X157783427Y-94319006D01*
X157756739Y-94321463D01*
X157738733Y-94325017D01*
X157726629Y-94329870D01*
X157717649Y-94336221D01*
X157714398Y-94339144D01*
X157694623Y-94370202D01*
X157691062Y-94405888D01*
X157704071Y-94437570D01*
X157710086Y-94443973D01*
X157719815Y-94450181D01*
X157735481Y-94454970D01*
X157759988Y-94458574D01*
X157796241Y-94461224D01*
X157847145Y-94463155D01*
X157915606Y-94464599D01*
X157978197Y-94465478D01*
X158225914Y-94468527D01*
X158229299Y-94533438D01*
X158232685Y-94598349D01*
X158064538Y-94598349D01*
X157991539Y-94598979D01*
X157938097Y-94601613D01*
X157901208Y-94607369D01*
X157877868Y-94617364D01*
X157865074Y-94632716D01*
X157859822Y-94654542D01*
X157859025Y-94674798D01*
X157861503Y-94699652D01*
X157870857Y-94717966D01*
X157889963Y-94730697D01*
X157921698Y-94738801D01*
X157968939Y-94743236D01*
X158034563Y-94744959D01*
X158070381Y-94745105D01*
X158231558Y-94745105D01*
X158231558Y-94903149D01*
X157983202Y-94903149D01*
X157901793Y-94903262D01*
X157839922Y-94903772D01*
X157794548Y-94904930D01*
X157762634Y-94906990D01*
X157741139Y-94910206D01*
X157727023Y-94914832D01*
X157717248Y-94921119D01*
X157712269Y-94925727D01*
X157695190Y-94952620D01*
X157689691Y-94976527D01*
X157697543Y-95005727D01*
X157712269Y-95027327D01*
X157720126Y-95034126D01*
X157730268Y-95039406D01*
X157745424Y-95043358D01*
X157768321Y-95046173D01*
X157801689Y-95048042D01*
X157848255Y-95049158D01*
X157910747Y-95049711D01*
X157991894Y-95049893D01*
X158034002Y-95049905D01*
X158124178Y-95049825D01*
X158194504Y-95049458D01*
X158247709Y-95048612D01*
X158286520Y-95047096D01*
X158313667Y-95044719D01*
X158331878Y-95041289D01*
X158343880Y-95036614D01*
X158352402Y-95030504D01*
X158355736Y-95027327D01*
X158362335Y-95019730D01*
X158367507Y-95009930D01*
X158371426Y-94995299D01*
X158374264Y-94973212D01*
X158376195Y-94941042D01*
X158377392Y-94896163D01*
X158378028Y-94835949D01*
X158378277Y-94757773D01*
X158378314Y-94684983D01*
X158378280Y-94591767D01*
X158378045Y-94518491D01*
X158377410Y-94462518D01*
X158376174Y-94421211D01*
X158374136Y-94391932D01*
X158371097Y-94372044D01*
X158366857Y-94358910D01*
X158361215Y-94349892D01*
X158353971Y-94342353D01*
X158352186Y-94340672D01*
X158343525Y-94333232D01*
X158333462Y-94327469D01*
X158319205Y-94323172D01*
X158297963Y-94320124D01*
X158266944Y-94318111D01*
X158223357Y-94316920D01*
X158164411Y-94316335D01*
X158087314Y-94316143D01*
X158032581Y-94316127D01*
X157943374Y-94316206D01*
G36*
X159351951Y-94316126D02*
G01*
X159312469Y-94316527D01*
X159196780Y-94319319D01*
X159099891Y-94327610D01*
X159018499Y-94342292D01*
X158949303Y-94364253D01*
X158889000Y-94394382D01*
X158834288Y-94433570D01*
X158814747Y-94450592D01*
X158782330Y-94490423D01*
X158753100Y-94544473D01*
X158730571Y-94604383D01*
X158718259Y-94661799D01*
X158716980Y-94683016D01*
X158724997Y-94741829D01*
X158746479Y-94806073D01*
X158777579Y-94866881D01*
X158814446Y-94915390D01*
X158820434Y-94921242D01*
X158871159Y-94962381D01*
X158926705Y-94994495D01*
X158990276Y-95018425D01*
X159065074Y-95035013D01*
X159154302Y-95045101D01*
X159261162Y-95049529D01*
X159310108Y-95049905D01*
X159372342Y-95049605D01*
X159416108Y-95048352D01*
X159445511Y-95045614D01*
X159464659Y-95040861D01*
X159477657Y-95033561D01*
X159484625Y-95027327D01*
X159491206Y-95019754D01*
X159496368Y-95009984D01*
X159500283Y-94995400D01*
X159503123Y-94973386D01*
X159505060Y-94941324D01*
X159506264Y-94896596D01*
X159506908Y-94836586D01*
X159507163Y-94758677D01*
X159507202Y-94683016D01*
X159507450Y-94582101D01*
X159507397Y-94501487D01*
X159506437Y-94462882D01*
X159360447Y-94462882D01*
X159360447Y-94903149D01*
X159267314Y-94903064D01*
X159211273Y-94901456D01*
X159152579Y-94897316D01*
X159103608Y-94891524D01*
X159102118Y-94891286D01*
X159022972Y-94872150D01*
X158961582Y-94842347D01*
X158914885Y-94799938D01*
X158885215Y-94754021D01*
X158866933Y-94703086D01*
X158868351Y-94655260D01*
X158889568Y-94603993D01*
X158931069Y-94550959D01*
X158988578Y-94511660D01*
X159063330Y-94485391D01*
X159113288Y-94476095D01*
X159169996Y-94469567D01*
X159230099Y-94464842D01*
X159281219Y-94462877D01*
X159284247Y-94462868D01*
X159360447Y-94462882D01*
X159506437Y-94462882D01*
X159505840Y-94438911D01*
X159501578Y-94392115D01*
X159493410Y-94358838D01*
X159480136Y-94336819D01*
X159460554Y-94323799D01*
X159433463Y-94317517D01*
X159397662Y-94315713D01*
X159351951Y-94316126D01*
X159351951Y-94316126D01*
G37*
X159351951Y-94316126D02*
X159312469Y-94316527D01*
X159196780Y-94319319D01*
X159099891Y-94327610D01*
X159018499Y-94342292D01*
X158949303Y-94364253D01*
X158889000Y-94394382D01*
X158834288Y-94433570D01*
X158814747Y-94450592D01*
X158782330Y-94490423D01*
X158753100Y-94544473D01*
X158730571Y-94604383D01*
X158718259Y-94661799D01*
X158716980Y-94683016D01*
X158724997Y-94741829D01*
X158746479Y-94806073D01*
X158777579Y-94866881D01*
X158814446Y-94915390D01*
X158820434Y-94921242D01*
X158871159Y-94962381D01*
X158926705Y-94994495D01*
X158990276Y-95018425D01*
X159065074Y-95035013D01*
X159154302Y-95045101D01*
X159261162Y-95049529D01*
X159310108Y-95049905D01*
X159372342Y-95049605D01*
X159416108Y-95048352D01*
X159445511Y-95045614D01*
X159464659Y-95040861D01*
X159477657Y-95033561D01*
X159484625Y-95027327D01*
X159491206Y-95019754D01*
X159496368Y-95009984D01*
X159500283Y-94995400D01*
X159503123Y-94973386D01*
X159505060Y-94941324D01*
X159506264Y-94896596D01*
X159506908Y-94836586D01*
X159507163Y-94758677D01*
X159507202Y-94683016D01*
X159507450Y-94582101D01*
X159507397Y-94501487D01*
X159506437Y-94462882D01*
X159360447Y-94462882D01*
X159360447Y-94903149D01*
X159267314Y-94903064D01*
X159211273Y-94901456D01*
X159152579Y-94897316D01*
X159103608Y-94891524D01*
X159102118Y-94891286D01*
X159022972Y-94872150D01*
X158961582Y-94842347D01*
X158914885Y-94799938D01*
X158885215Y-94754021D01*
X158866933Y-94703086D01*
X158868351Y-94655260D01*
X158889568Y-94603993D01*
X158931069Y-94550959D01*
X158988578Y-94511660D01*
X159063330Y-94485391D01*
X159113288Y-94476095D01*
X159169996Y-94469567D01*
X159230099Y-94464842D01*
X159281219Y-94462877D01*
X159284247Y-94462868D01*
X159360447Y-94462882D01*
X159506437Y-94462882D01*
X159505840Y-94438911D01*
X159501578Y-94392115D01*
X159493410Y-94358838D01*
X159480136Y-94336819D01*
X159460554Y-94323799D01*
X159433463Y-94317517D01*
X159397662Y-94315713D01*
X159351951Y-94316126D01*
G36*
X155503623Y-89073631D02*
G01*
X155407348Y-89097869D01*
X155320764Y-89140701D01*
X155245953Y-89200479D01*
X155184998Y-89275554D01*
X155139979Y-89364280D01*
X155113716Y-89460590D01*
X155107866Y-89557855D01*
X155122720Y-89651714D01*
X155156420Y-89739571D01*
X155207108Y-89818830D01*
X155272925Y-89886896D01*
X155352014Y-89941172D01*
X155442514Y-89979062D01*
X155493780Y-89991486D01*
X155538278Y-89999007D01*
X155572579Y-90001979D01*
X155605540Y-90000154D01*
X155646014Y-89993285D01*
X155679111Y-89986310D01*
X155772527Y-89954801D01*
X155856199Y-89903677D01*
X155928245Y-89834489D01*
X155986780Y-89748788D01*
X156000728Y-89721549D01*
X156017166Y-89685182D01*
X156027474Y-89654642D01*
X156033040Y-89622510D01*
X156035249Y-89581367D01*
X156035528Y-89535282D01*
X156031441Y-89450925D01*
X156018026Y-89381646D01*
X155992836Y-89321021D01*
X155953426Y-89262627D01*
X155914878Y-89218362D01*
X155842986Y-89152544D01*
X155767893Y-89107113D01*
X155685142Y-89079910D01*
X155607508Y-89069636D01*
X155503623Y-89073631D01*
X155503623Y-89073631D01*
G37*
X155503623Y-89073631D02*
X155407348Y-89097869D01*
X155320764Y-89140701D01*
X155245953Y-89200479D01*
X155184998Y-89275554D01*
X155139979Y-89364280D01*
X155113716Y-89460590D01*
X155107866Y-89557855D01*
X155122720Y-89651714D01*
X155156420Y-89739571D01*
X155207108Y-89818830D01*
X155272925Y-89886896D01*
X155352014Y-89941172D01*
X155442514Y-89979062D01*
X155493780Y-89991486D01*
X155538278Y-89999007D01*
X155572579Y-90001979D01*
X155605540Y-90000154D01*
X155646014Y-89993285D01*
X155679111Y-89986310D01*
X155772527Y-89954801D01*
X155856199Y-89903677D01*
X155928245Y-89834489D01*
X155986780Y-89748788D01*
X156000728Y-89721549D01*
X156017166Y-89685182D01*
X156027474Y-89654642D01*
X156033040Y-89622510D01*
X156035249Y-89581367D01*
X156035528Y-89535282D01*
X156031441Y-89450925D01*
X156018026Y-89381646D01*
X155992836Y-89321021D01*
X155953426Y-89262627D01*
X155914878Y-89218362D01*
X155842986Y-89152544D01*
X155767893Y-89107113D01*
X155685142Y-89079910D01*
X155607508Y-89069636D01*
X155503623Y-89073631D01*
G36*
X147044073Y-91519305D02*
G01*
X147044054Y-91753722D01*
X147044028Y-91966663D01*
X147043955Y-92159228D01*
X147043798Y-92332519D01*
X147043516Y-92487636D01*
X147043071Y-92625680D01*
X147042424Y-92747752D01*
X147041535Y-92854954D01*
X147040367Y-92948386D01*
X147038879Y-93029150D01*
X147037034Y-93098346D01*
X147034791Y-93157075D01*
X147032111Y-93206439D01*
X147028957Y-93247538D01*
X147025288Y-93281473D01*
X147021067Y-93309346D01*
X147016253Y-93332258D01*
X147010807Y-93351309D01*
X147004692Y-93367600D01*
X146997868Y-93382233D01*
X146990295Y-93396309D01*
X146981935Y-93410928D01*
X146976741Y-93420034D01*
X146942476Y-93480749D01*
X147800625Y-93480749D01*
X147800625Y-93384793D01*
X147801356Y-93341430D01*
X147803308Y-93308265D01*
X147806117Y-93290484D01*
X147807359Y-93288838D01*
X147818781Y-93295722D01*
X147841496Y-93313565D01*
X147864195Y-93332939D01*
X147918780Y-93373674D01*
X147988259Y-93414677D01*
X148065310Y-93452183D01*
X148142615Y-93482424D01*
X148173467Y-93492072D01*
X148241964Y-93506638D01*
X148324816Y-93516599D01*
X148414209Y-93521643D01*
X148502332Y-93521456D01*
X148581373Y-93515726D01*
X148619069Y-93509918D01*
X148757166Y-93471857D01*
X148884467Y-93414133D01*
X149000288Y-93337271D01*
X149103943Y-93241799D01*
X149194747Y-93128239D01*
X149261549Y-93017441D01*
X149316416Y-92900685D01*
X149358417Y-92781336D01*
X149388413Y-92655343D01*
X149407269Y-92518654D01*
X149415848Y-92367218D01*
X149416574Y-92289771D01*
X149414480Y-92232994D01*
X148585363Y-92232994D01*
X148585156Y-92326062D01*
X148582243Y-92413752D01*
X148576580Y-92490832D01*
X148568125Y-92552069D01*
X148565542Y-92564410D01*
X148533740Y-92671693D01*
X148492082Y-92758718D01*
X148440217Y-92825702D01*
X148377799Y-92872865D01*
X148304480Y-92900425D01*
X148219911Y-92908601D01*
X148123745Y-92897611D01*
X148060269Y-92881889D01*
X148011126Y-92863699D01*
X147956997Y-92837851D01*
X147916336Y-92814149D01*
X147845780Y-92767781D01*
X147845780Y-91617590D01*
X147913188Y-91574022D01*
X147991713Y-91533100D01*
X148075899Y-91506449D01*
X148161023Y-91494525D01*
X148242364Y-91497782D01*
X148315200Y-91516675D01*
X148347154Y-91532244D01*
X148405079Y-91575241D01*
X148454036Y-91632013D01*
X148495190Y-91704635D01*
X148529706Y-91795181D01*
X148558747Y-91905726D01*
X148560028Y-91911593D01*
X148570199Y-91973848D01*
X148577841Y-92051654D01*
X148582910Y-92139780D01*
X148585363Y-92232994D01*
X149414480Y-92232994D01*
X149408723Y-92076955D01*
X149386778Y-91881119D01*
X149350794Y-91702392D01*
X149300821Y-91540905D01*
X149236912Y-91396786D01*
X149159118Y-91270166D01*
X149067491Y-91161175D01*
X148962083Y-91069943D01*
X148916918Y-91038992D01*
X148815969Y-90982845D01*
X148712679Y-90943234D01*
X148602591Y-90919074D01*
X148481250Y-90909279D01*
X148388744Y-90910325D01*
X148259090Y-90921291D01*
X148146496Y-90943106D01*
X148047705Y-90976774D01*
X147959459Y-91023296D01*
X147910594Y-91057508D01*
X147881227Y-91079422D01*
X147859537Y-91094393D01*
X147851327Y-91098793D01*
X147849712Y-91087964D01*
X147848421Y-91057311D01*
X147847442Y-91009586D01*
X147846763Y-90947539D01*
X147846370Y-90873922D01*
X147846250Y-90791487D01*
X147846392Y-90702985D01*
X147846783Y-90611167D01*
X147847409Y-90518784D01*
X147848260Y-90428588D01*
X147849320Y-90343331D01*
X147850579Y-90265763D01*
X147852024Y-90198636D01*
X147853642Y-90144701D01*
X147855419Y-90106710D01*
X147855911Y-90099727D01*
X147863488Y-90029311D01*
X147875049Y-89974162D01*
X147892788Y-89927041D01*
X147918898Y-89880707D01*
X147925165Y-89871127D01*
X147949597Y-89834438D01*
X147044269Y-89834438D01*
X147044073Y-91519305D01*
X147044073Y-91519305D01*
G37*
X147044073Y-91519305D02*
X147044054Y-91753722D01*
X147044028Y-91966663D01*
X147043955Y-92159228D01*
X147043798Y-92332519D01*
X147043516Y-92487636D01*
X147043071Y-92625680D01*
X147042424Y-92747752D01*
X147041535Y-92854954D01*
X147040367Y-92948386D01*
X147038879Y-93029150D01*
X147037034Y-93098346D01*
X147034791Y-93157075D01*
X147032111Y-93206439D01*
X147028957Y-93247538D01*
X147025288Y-93281473D01*
X147021067Y-93309346D01*
X147016253Y-93332258D01*
X147010807Y-93351309D01*
X147004692Y-93367600D01*
X146997868Y-93382233D01*
X146990295Y-93396309D01*
X146981935Y-93410928D01*
X146976741Y-93420034D01*
X146942476Y-93480749D01*
X147800625Y-93480749D01*
X147800625Y-93384793D01*
X147801356Y-93341430D01*
X147803308Y-93308265D01*
X147806117Y-93290484D01*
X147807359Y-93288838D01*
X147818781Y-93295722D01*
X147841496Y-93313565D01*
X147864195Y-93332939D01*
X147918780Y-93373674D01*
X147988259Y-93414677D01*
X148065310Y-93452183D01*
X148142615Y-93482424D01*
X148173467Y-93492072D01*
X148241964Y-93506638D01*
X148324816Y-93516599D01*
X148414209Y-93521643D01*
X148502332Y-93521456D01*
X148581373Y-93515726D01*
X148619069Y-93509918D01*
X148757166Y-93471857D01*
X148884467Y-93414133D01*
X149000288Y-93337271D01*
X149103943Y-93241799D01*
X149194747Y-93128239D01*
X149261549Y-93017441D01*
X149316416Y-92900685D01*
X149358417Y-92781336D01*
X149388413Y-92655343D01*
X149407269Y-92518654D01*
X149415848Y-92367218D01*
X149416574Y-92289771D01*
X149414480Y-92232994D01*
X148585363Y-92232994D01*
X148585156Y-92326062D01*
X148582243Y-92413752D01*
X148576580Y-92490832D01*
X148568125Y-92552069D01*
X148565542Y-92564410D01*
X148533740Y-92671693D01*
X148492082Y-92758718D01*
X148440217Y-92825702D01*
X148377799Y-92872865D01*
X148304480Y-92900425D01*
X148219911Y-92908601D01*
X148123745Y-92897611D01*
X148060269Y-92881889D01*
X148011126Y-92863699D01*
X147956997Y-92837851D01*
X147916336Y-92814149D01*
X147845780Y-92767781D01*
X147845780Y-91617590D01*
X147913188Y-91574022D01*
X147991713Y-91533100D01*
X148075899Y-91506449D01*
X148161023Y-91494525D01*
X148242364Y-91497782D01*
X148315200Y-91516675D01*
X148347154Y-91532244D01*
X148405079Y-91575241D01*
X148454036Y-91632013D01*
X148495190Y-91704635D01*
X148529706Y-91795181D01*
X148558747Y-91905726D01*
X148560028Y-91911593D01*
X148570199Y-91973848D01*
X148577841Y-92051654D01*
X148582910Y-92139780D01*
X148585363Y-92232994D01*
X149414480Y-92232994D01*
X149408723Y-92076955D01*
X149386778Y-91881119D01*
X149350794Y-91702392D01*
X149300821Y-91540905D01*
X149236912Y-91396786D01*
X149159118Y-91270166D01*
X149067491Y-91161175D01*
X148962083Y-91069943D01*
X148916918Y-91038992D01*
X148815969Y-90982845D01*
X148712679Y-90943234D01*
X148602591Y-90919074D01*
X148481250Y-90909279D01*
X148388744Y-90910325D01*
X148259090Y-90921291D01*
X148146496Y-90943106D01*
X148047705Y-90976774D01*
X147959459Y-91023296D01*
X147910594Y-91057508D01*
X147881227Y-91079422D01*
X147859537Y-91094393D01*
X147851327Y-91098793D01*
X147849712Y-91087964D01*
X147848421Y-91057311D01*
X147847442Y-91009586D01*
X147846763Y-90947539D01*
X147846370Y-90873922D01*
X147846250Y-90791487D01*
X147846392Y-90702985D01*
X147846783Y-90611167D01*
X147847409Y-90518784D01*
X147848260Y-90428588D01*
X147849320Y-90343331D01*
X147850579Y-90265763D01*
X147852024Y-90198636D01*
X147853642Y-90144701D01*
X147855419Y-90106710D01*
X147855911Y-90099727D01*
X147863488Y-90029311D01*
X147875049Y-89974162D01*
X147892788Y-89927041D01*
X147918898Y-89880707D01*
X147925165Y-89871127D01*
X147949597Y-89834438D01*
X147044269Y-89834438D01*
X147044073Y-91519305D01*
G36*
X150557006Y-90913612D02*
G01*
X150405088Y-90933627D01*
X150269824Y-90967262D01*
X150150341Y-91014785D01*
X150045765Y-91076465D01*
X149968156Y-91140025D01*
X149899315Y-91214159D01*
X149845574Y-91293931D01*
X149802670Y-91386151D01*
X149787196Y-91429221D01*
X149774336Y-91468202D01*
X149763134Y-91504349D01*
X149753460Y-91539494D01*
X149745184Y-91575470D01*
X149738177Y-91614110D01*
X149732308Y-91657245D01*
X149727449Y-91706709D01*
X149723470Y-91764333D01*
X149720240Y-91831951D01*
X149717631Y-91911394D01*
X149715513Y-92004496D01*
X149713756Y-92113087D01*
X149712231Y-92239002D01*
X149710808Y-92384072D01*
X149709555Y-92526838D01*
X149708229Y-92683028D01*
X149707024Y-92818299D01*
X149705814Y-92934306D01*
X149704474Y-93032705D01*
X149702880Y-93115153D01*
X149700905Y-93183306D01*
X149698424Y-93238820D01*
X149695311Y-93283352D01*
X149691442Y-93318558D01*
X149686691Y-93346094D01*
X149680932Y-93367616D01*
X149674041Y-93384782D01*
X149665891Y-93399246D01*
X149656357Y-93412666D01*
X149645314Y-93426698D01*
X149641014Y-93432131D01*
X149625194Y-93454970D01*
X149618158Y-93470523D01*
X149618136Y-93470982D01*
X149629013Y-93473181D01*
X149659998Y-93475207D01*
X149708623Y-93477002D01*
X149772417Y-93478511D01*
X149848911Y-93479676D01*
X149935636Y-93480440D01*
X150030123Y-93480746D01*
X150041030Y-93480749D01*
X150463923Y-93480749D01*
X150467185Y-93384682D01*
X150470447Y-93288616D01*
X150532536Y-93339603D01*
X150629866Y-93407117D01*
X150739767Y-93461809D01*
X150826231Y-93492038D01*
X150895302Y-93506726D01*
X150978655Y-93516719D01*
X151068421Y-93521706D01*
X151156735Y-93521373D01*
X151235729Y-93515411D01*
X151271958Y-93509698D01*
X151411977Y-93471836D01*
X151538402Y-93416992D01*
X151650320Y-93345984D01*
X151746818Y-93259628D01*
X151826980Y-93158739D01*
X151889893Y-93044136D01*
X151934268Y-92918044D01*
X151946602Y-92861461D01*
X151954212Y-92799262D01*
X151957841Y-92724423D01*
X151958335Y-92690527D01*
X151958270Y-92687342D01*
X151198332Y-92687342D01*
X151189039Y-92762393D01*
X151160852Y-92826220D01*
X151112383Y-92881858D01*
X151107326Y-92886271D01*
X151059032Y-92921097D01*
X151007323Y-92943680D01*
X150946591Y-92955600D01*
X150871228Y-92958443D01*
X150853121Y-92958038D01*
X150799302Y-92955385D01*
X150759272Y-92949969D01*
X150724256Y-92939805D01*
X150685477Y-92922910D01*
X150674835Y-92917732D01*
X150614184Y-92881904D01*
X150567365Y-92839272D01*
X150554628Y-92824033D01*
X150509958Y-92767522D01*
X150509958Y-92571646D01*
X150510494Y-92492999D01*
X150512184Y-92435048D01*
X150515152Y-92395935D01*
X150519523Y-92373801D01*
X150523608Y-92367334D01*
X150539533Y-92364171D01*
X150573316Y-92361548D01*
X150620240Y-92359715D01*
X150675587Y-92358917D01*
X150684474Y-92358902D01*
X150805250Y-92364156D01*
X150907920Y-92380323D01*
X150994474Y-92408021D01*
X151066899Y-92447868D01*
X151121829Y-92494818D01*
X151166376Y-92552705D01*
X151191100Y-92615753D01*
X151198332Y-92687342D01*
X151958270Y-92687342D01*
X151956402Y-92596772D01*
X151948058Y-92517872D01*
X151931812Y-92446650D01*
X151906175Y-92375924D01*
X151882179Y-92323553D01*
X151823560Y-92228256D01*
X151745463Y-92140230D01*
X151650265Y-92061077D01*
X151540342Y-91992400D01*
X151418070Y-91935801D01*
X151285825Y-91892881D01*
X151221158Y-91877942D01*
X151084976Y-91855837D01*
X150936531Y-91841254D01*
X150785075Y-91834873D01*
X150658516Y-91836505D01*
X150496630Y-91843284D01*
X150504050Y-91784305D01*
X150523342Y-91685152D01*
X150554476Y-91604432D01*
X150598311Y-91541526D01*
X150655709Y-91495816D01*
X150727532Y-91466682D01*
X150814639Y-91453507D01*
X150917894Y-91455671D01*
X150955869Y-91459672D01*
X151097060Y-91484840D01*
X151233873Y-91525874D01*
X151328402Y-91563875D01*
X151373562Y-91583250D01*
X151411995Y-91598820D01*
X151438346Y-91608465D01*
X151446034Y-91610512D01*
X151455778Y-91601434D01*
X151472497Y-91572465D01*
X151496348Y-91523277D01*
X151527487Y-91453544D01*
X151566073Y-91362939D01*
X151572670Y-91347149D01*
X151602727Y-91274832D01*
X151629706Y-91209485D01*
X151652444Y-91153966D01*
X151669774Y-91111132D01*
X151680532Y-91083841D01*
X151683639Y-91075002D01*
X151673640Y-91070247D01*
X151647363Y-91064970D01*
X151619091Y-91061291D01*
X151588934Y-91056534D01*
X151541147Y-91047088D01*
X151479968Y-91033880D01*
X151409634Y-91017836D01*
X151334386Y-90999880D01*
X151305825Y-90992857D01*
X151200764Y-90967269D01*
X151113100Y-90947207D01*
X151038512Y-90932029D01*
X150972677Y-90921095D01*
X150911273Y-90913764D01*
X150849978Y-90909395D01*
X150784470Y-90907347D01*
X150726452Y-90906949D01*
X150557006Y-90913612D01*
X150557006Y-90913612D01*
G37*
X150557006Y-90913612D02*
X150405088Y-90933627D01*
X150269824Y-90967262D01*
X150150341Y-91014785D01*
X150045765Y-91076465D01*
X149968156Y-91140025D01*
X149899315Y-91214159D01*
X149845574Y-91293931D01*
X149802670Y-91386151D01*
X149787196Y-91429221D01*
X149774336Y-91468202D01*
X149763134Y-91504349D01*
X149753460Y-91539494D01*
X149745184Y-91575470D01*
X149738177Y-91614110D01*
X149732308Y-91657245D01*
X149727449Y-91706709D01*
X149723470Y-91764333D01*
X149720240Y-91831951D01*
X149717631Y-91911394D01*
X149715513Y-92004496D01*
X149713756Y-92113087D01*
X149712231Y-92239002D01*
X149710808Y-92384072D01*
X149709555Y-92526838D01*
X149708229Y-92683028D01*
X149707024Y-92818299D01*
X149705814Y-92934306D01*
X149704474Y-93032705D01*
X149702880Y-93115153D01*
X149700905Y-93183306D01*
X149698424Y-93238820D01*
X149695311Y-93283352D01*
X149691442Y-93318558D01*
X149686691Y-93346094D01*
X149680932Y-93367616D01*
X149674041Y-93384782D01*
X149665891Y-93399246D01*
X149656357Y-93412666D01*
X149645314Y-93426698D01*
X149641014Y-93432131D01*
X149625194Y-93454970D01*
X149618158Y-93470523D01*
X149618136Y-93470982D01*
X149629013Y-93473181D01*
X149659998Y-93475207D01*
X149708623Y-93477002D01*
X149772417Y-93478511D01*
X149848911Y-93479676D01*
X149935636Y-93480440D01*
X150030123Y-93480746D01*
X150041030Y-93480749D01*
X150463923Y-93480749D01*
X150467185Y-93384682D01*
X150470447Y-93288616D01*
X150532536Y-93339603D01*
X150629866Y-93407117D01*
X150739767Y-93461809D01*
X150826231Y-93492038D01*
X150895302Y-93506726D01*
X150978655Y-93516719D01*
X151068421Y-93521706D01*
X151156735Y-93521373D01*
X151235729Y-93515411D01*
X151271958Y-93509698D01*
X151411977Y-93471836D01*
X151538402Y-93416992D01*
X151650320Y-93345984D01*
X151746818Y-93259628D01*
X151826980Y-93158739D01*
X151889893Y-93044136D01*
X151934268Y-92918044D01*
X151946602Y-92861461D01*
X151954212Y-92799262D01*
X151957841Y-92724423D01*
X151958335Y-92690527D01*
X151958270Y-92687342D01*
X151198332Y-92687342D01*
X151189039Y-92762393D01*
X151160852Y-92826220D01*
X151112383Y-92881858D01*
X151107326Y-92886271D01*
X151059032Y-92921097D01*
X151007323Y-92943680D01*
X150946591Y-92955600D01*
X150871228Y-92958443D01*
X150853121Y-92958038D01*
X150799302Y-92955385D01*
X150759272Y-92949969D01*
X150724256Y-92939805D01*
X150685477Y-92922910D01*
X150674835Y-92917732D01*
X150614184Y-92881904D01*
X150567365Y-92839272D01*
X150554628Y-92824033D01*
X150509958Y-92767522D01*
X150509958Y-92571646D01*
X150510494Y-92492999D01*
X150512184Y-92435048D01*
X150515152Y-92395935D01*
X150519523Y-92373801D01*
X150523608Y-92367334D01*
X150539533Y-92364171D01*
X150573316Y-92361548D01*
X150620240Y-92359715D01*
X150675587Y-92358917D01*
X150684474Y-92358902D01*
X150805250Y-92364156D01*
X150907920Y-92380323D01*
X150994474Y-92408021D01*
X151066899Y-92447868D01*
X151121829Y-92494818D01*
X151166376Y-92552705D01*
X151191100Y-92615753D01*
X151198332Y-92687342D01*
X151958270Y-92687342D01*
X151956402Y-92596772D01*
X151948058Y-92517872D01*
X151931812Y-92446650D01*
X151906175Y-92375924D01*
X151882179Y-92323553D01*
X151823560Y-92228256D01*
X151745463Y-92140230D01*
X151650265Y-92061077D01*
X151540342Y-91992400D01*
X151418070Y-91935801D01*
X151285825Y-91892881D01*
X151221158Y-91877942D01*
X151084976Y-91855837D01*
X150936531Y-91841254D01*
X150785075Y-91834873D01*
X150658516Y-91836505D01*
X150496630Y-91843284D01*
X150504050Y-91784305D01*
X150523342Y-91685152D01*
X150554476Y-91604432D01*
X150598311Y-91541526D01*
X150655709Y-91495816D01*
X150727532Y-91466682D01*
X150814639Y-91453507D01*
X150917894Y-91455671D01*
X150955869Y-91459672D01*
X151097060Y-91484840D01*
X151233873Y-91525874D01*
X151328402Y-91563875D01*
X151373562Y-91583250D01*
X151411995Y-91598820D01*
X151438346Y-91608465D01*
X151446034Y-91610512D01*
X151455778Y-91601434D01*
X151472497Y-91572465D01*
X151496348Y-91523277D01*
X151527487Y-91453544D01*
X151566073Y-91362939D01*
X151572670Y-91347149D01*
X151602727Y-91274832D01*
X151629706Y-91209485D01*
X151652444Y-91153966D01*
X151669774Y-91111132D01*
X151680532Y-91083841D01*
X151683639Y-91075002D01*
X151673640Y-91070247D01*
X151647363Y-91064970D01*
X151619091Y-91061291D01*
X151588934Y-91056534D01*
X151541147Y-91047088D01*
X151479968Y-91033880D01*
X151409634Y-91017836D01*
X151334386Y-90999880D01*
X151305825Y-90992857D01*
X151200764Y-90967269D01*
X151113100Y-90947207D01*
X151038512Y-90932029D01*
X150972677Y-90921095D01*
X150911273Y-90913764D01*
X150849978Y-90909395D01*
X150784470Y-90907347D01*
X150726452Y-90906949D01*
X150557006Y-90913612D01*
G36*
X152902151Y-89996131D02*
G01*
X152742010Y-90017305D01*
X152578070Y-90057445D01*
X152408267Y-90116949D01*
X152230537Y-90196214D01*
X152219270Y-90201759D01*
X152161575Y-90229785D01*
X152110028Y-90253862D01*
X152068389Y-90272309D01*
X152040418Y-90283446D01*
X152030847Y-90285993D01*
X152011630Y-90291001D01*
X152007019Y-90295207D01*
X152012122Y-90305640D01*
X152028162Y-90331928D01*
X152053292Y-90371317D01*
X152085666Y-90421051D01*
X152123437Y-90478375D01*
X152164758Y-90540536D01*
X152207782Y-90604778D01*
X152250663Y-90668345D01*
X152291554Y-90728485D01*
X152328609Y-90782440D01*
X152359980Y-90827457D01*
X152383821Y-90860781D01*
X152398286Y-90879657D01*
X152400271Y-90881847D01*
X152410389Y-90877198D01*
X152432730Y-90860022D01*
X152463300Y-90833500D01*
X152479044Y-90819024D01*
X152575533Y-90743742D01*
X152682244Y-90688301D01*
X152797748Y-90653201D01*
X152920618Y-90638940D01*
X152990019Y-90640111D01*
X153111157Y-90657272D01*
X153220375Y-90693154D01*
X153317998Y-90748019D01*
X153404352Y-90822130D01*
X153479765Y-90915748D01*
X153544562Y-91029136D01*
X153581979Y-91115727D01*
X153625832Y-91251426D01*
X153658152Y-91398910D01*
X153679023Y-91554374D01*
X153688529Y-91714016D01*
X153686753Y-91874033D01*
X153673777Y-92030621D01*
X153649686Y-92179978D01*
X153614562Y-92318300D01*
X153568488Y-92441784D01*
X153552207Y-92476038D01*
X153483960Y-92590124D01*
X153403501Y-92686617D01*
X153312010Y-92764730D01*
X153210669Y-92823677D01*
X153100660Y-92862672D01*
X152983165Y-92880928D01*
X152941697Y-92882271D01*
X152820139Y-92871350D01*
X152699702Y-92838534D01*
X152581914Y-92784499D01*
X152468303Y-92709925D01*
X152376895Y-92631599D01*
X152330365Y-92587068D01*
X152149097Y-92884331D01*
X152104000Y-92958493D01*
X152062761Y-93026706D01*
X152026845Y-93086519D01*
X151997714Y-93135480D01*
X151976830Y-93171139D01*
X151965656Y-93191044D01*
X151964205Y-93194139D01*
X151972434Y-93203778D01*
X151998013Y-93221059D01*
X152037707Y-93244343D01*
X152088283Y-93271994D01*
X152146506Y-93302375D01*
X152209143Y-93333850D01*
X152272959Y-93364782D01*
X152334720Y-93393533D01*
X152391192Y-93418468D01*
X152439142Y-93437949D01*
X152462594Y-93446378D01*
X152596359Y-93484193D01*
X152734253Y-93509196D01*
X152881958Y-93522200D01*
X153008747Y-93524528D01*
X153076702Y-93523433D01*
X153142303Y-93521335D01*
X153199733Y-93518494D01*
X153243177Y-93515166D01*
X153257282Y-93513482D01*
X153396296Y-93484647D01*
X153537823Y-93439528D01*
X153675305Y-93380810D01*
X153802186Y-93311180D01*
X153879691Y-93258501D01*
X154007099Y-93150299D01*
X154125402Y-93023731D01*
X154232408Y-92881926D01*
X154325928Y-92728011D01*
X154403770Y-92565113D01*
X154447624Y-92447816D01*
X154497872Y-92264188D01*
X154531371Y-92069641D01*
X154548131Y-91868385D01*
X154548164Y-91664628D01*
X154531479Y-91462581D01*
X154498087Y-91266452D01*
X154448000Y-91080451D01*
X154444183Y-91068863D01*
X154381299Y-90906810D01*
X154304552Y-90758892D01*
X154211338Y-90620925D01*
X154099053Y-90488721D01*
X154055188Y-90443459D01*
X153919046Y-90319517D01*
X153779089Y-90216975D01*
X153633169Y-90134716D01*
X153479138Y-90071624D01*
X153314848Y-90026583D01*
X153219291Y-90009093D01*
X153060557Y-89993526D01*
X152902151Y-89996131D01*
X152902151Y-89996131D01*
G37*
X152902151Y-89996131D02*
X152742010Y-90017305D01*
X152578070Y-90057445D01*
X152408267Y-90116949D01*
X152230537Y-90196214D01*
X152219270Y-90201759D01*
X152161575Y-90229785D01*
X152110028Y-90253862D01*
X152068389Y-90272309D01*
X152040418Y-90283446D01*
X152030847Y-90285993D01*
X152011630Y-90291001D01*
X152007019Y-90295207D01*
X152012122Y-90305640D01*
X152028162Y-90331928D01*
X152053292Y-90371317D01*
X152085666Y-90421051D01*
X152123437Y-90478375D01*
X152164758Y-90540536D01*
X152207782Y-90604778D01*
X152250663Y-90668345D01*
X152291554Y-90728485D01*
X152328609Y-90782440D01*
X152359980Y-90827457D01*
X152383821Y-90860781D01*
X152398286Y-90879657D01*
X152400271Y-90881847D01*
X152410389Y-90877198D01*
X152432730Y-90860022D01*
X152463300Y-90833500D01*
X152479044Y-90819024D01*
X152575533Y-90743742D01*
X152682244Y-90688301D01*
X152797748Y-90653201D01*
X152920618Y-90638940D01*
X152990019Y-90640111D01*
X153111157Y-90657272D01*
X153220375Y-90693154D01*
X153317998Y-90748019D01*
X153404352Y-90822130D01*
X153479765Y-90915748D01*
X153544562Y-91029136D01*
X153581979Y-91115727D01*
X153625832Y-91251426D01*
X153658152Y-91398910D01*
X153679023Y-91554374D01*
X153688529Y-91714016D01*
X153686753Y-91874033D01*
X153673777Y-92030621D01*
X153649686Y-92179978D01*
X153614562Y-92318300D01*
X153568488Y-92441784D01*
X153552207Y-92476038D01*
X153483960Y-92590124D01*
X153403501Y-92686617D01*
X153312010Y-92764730D01*
X153210669Y-92823677D01*
X153100660Y-92862672D01*
X152983165Y-92880928D01*
X152941697Y-92882271D01*
X152820139Y-92871350D01*
X152699702Y-92838534D01*
X152581914Y-92784499D01*
X152468303Y-92709925D01*
X152376895Y-92631599D01*
X152330365Y-92587068D01*
X152149097Y-92884331D01*
X152104000Y-92958493D01*
X152062761Y-93026706D01*
X152026845Y-93086519D01*
X151997714Y-93135480D01*
X151976830Y-93171139D01*
X151965656Y-93191044D01*
X151964205Y-93194139D01*
X151972434Y-93203778D01*
X151998013Y-93221059D01*
X152037707Y-93244343D01*
X152088283Y-93271994D01*
X152146506Y-93302375D01*
X152209143Y-93333850D01*
X152272959Y-93364782D01*
X152334720Y-93393533D01*
X152391192Y-93418468D01*
X152439142Y-93437949D01*
X152462594Y-93446378D01*
X152596359Y-93484193D01*
X152734253Y-93509196D01*
X152881958Y-93522200D01*
X153008747Y-93524528D01*
X153076702Y-93523433D01*
X153142303Y-93521335D01*
X153199733Y-93518494D01*
X153243177Y-93515166D01*
X153257282Y-93513482D01*
X153396296Y-93484647D01*
X153537823Y-93439528D01*
X153675305Y-93380810D01*
X153802186Y-93311180D01*
X153879691Y-93258501D01*
X154007099Y-93150299D01*
X154125402Y-93023731D01*
X154232408Y-92881926D01*
X154325928Y-92728011D01*
X154403770Y-92565113D01*
X154447624Y-92447816D01*
X154497872Y-92264188D01*
X154531371Y-92069641D01*
X154548131Y-91868385D01*
X154548164Y-91664628D01*
X154531479Y-91462581D01*
X154498087Y-91266452D01*
X154448000Y-91080451D01*
X154444183Y-91068863D01*
X154381299Y-90906810D01*
X154304552Y-90758892D01*
X154211338Y-90620925D01*
X154099053Y-90488721D01*
X154055188Y-90443459D01*
X153919046Y-90319517D01*
X153779089Y-90216975D01*
X153633169Y-90134716D01*
X153479138Y-90071624D01*
X153314848Y-90026583D01*
X153219291Y-90009093D01*
X153060557Y-89993526D01*
X152902151Y-89996131D01*
G36*
X156176980Y-89536114D02*
G01*
X156166115Y-89650053D01*
X156134498Y-89757676D01*
X156083595Y-89856675D01*
X156014873Y-89944744D01*
X155929799Y-90019576D01*
X155832812Y-90077444D01*
X155726544Y-90117065D01*
X155619530Y-90135633D01*
X155513880Y-90134494D01*
X155411705Y-90114990D01*
X155315114Y-90078466D01*
X155226218Y-90026265D01*
X155147126Y-89959733D01*
X155079949Y-89880212D01*
X155026797Y-89789047D01*
X154989779Y-89687583D01*
X154971007Y-89577162D01*
X154969069Y-89527266D01*
X154969069Y-89439327D01*
X154917140Y-89439327D01*
X154880833Y-89442171D01*
X154853935Y-89453971D01*
X154826829Y-89477709D01*
X154788447Y-89516091D01*
X154788447Y-91707662D01*
X154788456Y-91969799D01*
X154788488Y-92210301D01*
X154788552Y-92430108D01*
X154788656Y-92630161D01*
X154788807Y-92811404D01*
X154789014Y-92974776D01*
X154789286Y-93121220D01*
X154789630Y-93251677D01*
X154790054Y-93367089D01*
X154790567Y-93468398D01*
X154791177Y-93556544D01*
X154791892Y-93632470D01*
X154792720Y-93697117D01*
X154793669Y-93751427D01*
X154794747Y-93796340D01*
X154795963Y-93832800D01*
X154797325Y-93861747D01*
X154798841Y-93884123D01*
X154800518Y-93900869D01*
X154802366Y-93912928D01*
X154804393Y-93921240D01*
X154806605Y-93926747D01*
X154807688Y-93928597D01*
X154811851Y-93935609D01*
X154815385Y-93942056D01*
X154819215Y-93947960D01*
X154824262Y-93953346D01*
X154831451Y-93958238D01*
X154841703Y-93962658D01*
X154855944Y-93966632D01*
X154875094Y-93970181D01*
X154900079Y-93973330D01*
X154931820Y-93976102D01*
X154971242Y-93978521D01*
X155019266Y-93980611D01*
X155076817Y-93982395D01*
X155144817Y-93983897D01*
X155224190Y-93985140D01*
X155315859Y-93986149D01*
X155420746Y-93986945D01*
X155539776Y-93987554D01*
X155673870Y-93987999D01*
X155823953Y-93988303D01*
X155990947Y-93988490D01*
X156175776Y-93988584D01*
X156379363Y-93988608D01*
X156602630Y-93988585D01*
X156846502Y-93988540D01*
X157111901Y-93988497D01*
X157150284Y-93988492D01*
X157417262Y-93988449D01*
X157662582Y-93988378D01*
X157887163Y-93988273D01*
X158091925Y-93988126D01*
X158277786Y-93987929D01*
X158445668Y-93987676D01*
X158596488Y-93987360D01*
X158731167Y-93986973D01*
X158850624Y-93986507D01*
X158955779Y-93985957D01*
X159047551Y-93985313D01*
X159126859Y-93984571D01*
X159194623Y-93983721D01*
X159251762Y-93982757D01*
X159299197Y-93981671D01*
X159337846Y-93980457D01*
X159368629Y-93979107D01*
X159392465Y-93977615D01*
X159410274Y-93975971D01*
X159422975Y-93974171D01*
X159431488Y-93972205D01*
X159435846Y-93970537D01*
X159444308Y-93966966D01*
X159452077Y-93964330D01*
X159459182Y-93961694D01*
X159465653Y-93958122D01*
X159471519Y-93952681D01*
X159476809Y-93944435D01*
X159481554Y-93932450D01*
X159485782Y-93915791D01*
X159489523Y-93893523D01*
X159492807Y-93864712D01*
X159495663Y-93828423D01*
X159498120Y-93783721D01*
X159500209Y-93729671D01*
X159501958Y-93665339D01*
X159503397Y-93589790D01*
X159504556Y-93502090D01*
X159505463Y-93401303D01*
X159506149Y-93286494D01*
X159506643Y-93156730D01*
X159506975Y-93011075D01*
X159507173Y-92848595D01*
X159507267Y-92668355D01*
X159507288Y-92469420D01*
X159507265Y-92250856D01*
X159507226Y-92011728D01*
X159507202Y-91751100D01*
X159507202Y-91708949D01*
X159507216Y-91446052D01*
X159507241Y-91204792D01*
X159507251Y-90984225D01*
X159507222Y-90783412D01*
X159507128Y-90601409D01*
X159506942Y-90437276D01*
X159506639Y-90290071D01*
X159506194Y-90158852D01*
X159505614Y-90048927D01*
X159202777Y-90048927D01*
X159162987Y-90106771D01*
X159151816Y-90122539D01*
X159141746Y-90136501D01*
X159132718Y-90149844D01*
X159124677Y-90163753D01*
X159117566Y-90179416D01*
X159111327Y-90198018D01*
X159105905Y-90220746D01*
X159101242Y-90248787D01*
X159097281Y-90283327D01*
X159093965Y-90325552D01*
X159091239Y-90376649D01*
X159089044Y-90437804D01*
X159087325Y-90510204D01*
X159086024Y-90595035D01*
X159085085Y-90693482D01*
X159084450Y-90806734D01*
X159084064Y-90935976D01*
X159083868Y-91082394D01*
X159083807Y-91247176D01*
X159083823Y-91431507D01*
X159083860Y-91636573D01*
X159083869Y-91759193D01*
X159083845Y-91976142D01*
X159083811Y-92171702D01*
X159083823Y-92347059D01*
X159083938Y-92503401D01*
X159084210Y-92641917D01*
X159084698Y-92763794D01*
X159085456Y-92870220D01*
X159086542Y-92962382D01*
X159088011Y-93041469D01*
X159089920Y-93108668D01*
X159092324Y-93165167D01*
X159095281Y-93212153D01*
X159098846Y-93250815D01*
X159103075Y-93282340D01*
X159108026Y-93307915D01*
X159113753Y-93328730D01*
X159120313Y-93345971D01*
X159127763Y-93360825D01*
X159136159Y-93374482D01*
X159145556Y-93388129D01*
X159156012Y-93402953D01*
X159162103Y-93411843D01*
X159200876Y-93469460D01*
X158669312Y-93469460D01*
X158546063Y-93469425D01*
X158443567Y-93469275D01*
X158360000Y-93468938D01*
X158293536Y-93468346D01*
X158242351Y-93467427D01*
X158204621Y-93466111D01*
X158178520Y-93464329D01*
X158162224Y-93462011D01*
X158153908Y-93459086D01*
X158151748Y-93455484D01*
X158153919Y-93451135D01*
X158155115Y-93449705D01*
X158180265Y-93412633D01*
X158206163Y-93359832D01*
X158229772Y-93297830D01*
X158238041Y-93271417D01*
X158242658Y-93253476D01*
X158246559Y-93232415D01*
X158249828Y-93206149D01*
X158252546Y-93172592D01*
X158254795Y-93129659D01*
X158256657Y-93075264D01*
X158258216Y-93007322D01*
X158259552Y-92923748D01*
X158260749Y-92822455D01*
X158261888Y-92701360D01*
X158262265Y-92656660D01*
X158263282Y-92531509D01*
X158264040Y-92427142D01*
X158264483Y-92341767D01*
X158264550Y-92273593D01*
X158264185Y-92220825D01*
X158263328Y-92181674D01*
X158261921Y-92154345D01*
X158259905Y-92137046D01*
X158257223Y-92127986D01*
X158253816Y-92125372D01*
X158249624Y-92127411D01*
X158245151Y-92131727D01*
X158234796Y-92144662D01*
X158212738Y-92173736D01*
X158180537Y-92216819D01*
X158139754Y-92271778D01*
X158091950Y-92336483D01*
X158038685Y-92408802D01*
X157981520Y-92486604D01*
X157922017Y-92567758D01*
X157861735Y-92650132D01*
X157802235Y-92731596D01*
X157745078Y-92810017D01*
X157691825Y-92883264D01*
X157644037Y-92949207D01*
X157603273Y-93005714D01*
X157571096Y-93050653D01*
X157549065Y-93081894D01*
X157544497Y-93088526D01*
X157521576Y-93125429D01*
X157494768Y-93173419D01*
X157469369Y-93222957D01*
X157466148Y-93229637D01*
X157444470Y-93277832D01*
X157431884Y-93315394D01*
X157426154Y-93351220D01*
X157425036Y-93393260D01*
X157425670Y-93469460D01*
X156271231Y-93469460D01*
X156362395Y-93375729D01*
X156409192Y-93325835D01*
X156459479Y-93269355D01*
X156505524Y-93215086D01*
X156525949Y-93189733D01*
X156556387Y-93150188D01*
X156596442Y-93096976D01*
X156644941Y-93031727D01*
X156700715Y-92956071D01*
X156762591Y-92871637D01*
X156829399Y-92780054D01*
X156899967Y-92682952D01*
X156973125Y-92581961D01*
X157047701Y-92478710D01*
X157122524Y-92374828D01*
X157196423Y-92271945D01*
X157268226Y-92171691D01*
X157336764Y-92075696D01*
X157400864Y-91985587D01*
X157459355Y-91902996D01*
X157511066Y-91829552D01*
X157554827Y-91766884D01*
X157589465Y-91716621D01*
X157613810Y-91680394D01*
X157626691Y-91659831D01*
X157628449Y-91655728D01*
X157620490Y-91644402D01*
X157599695Y-91617222D01*
X157567427Y-91575889D01*
X157525050Y-91522104D01*
X157473927Y-91457566D01*
X157415421Y-91383978D01*
X157350894Y-91303038D01*
X157281711Y-91216448D01*
X157209233Y-91125908D01*
X157134826Y-91033120D01*
X157075097Y-90958762D01*
X156064091Y-90958762D01*
X156058182Y-90971719D01*
X156043852Y-90993968D01*
X156042805Y-90995451D01*
X156024018Y-91025604D01*
X156004371Y-91062435D01*
X156000472Y-91070571D01*
X155996936Y-91079000D01*
X155993810Y-91089119D01*
X155991066Y-91102320D01*
X155988672Y-91119998D01*
X155986599Y-91143544D01*
X155984815Y-91174353D01*
X155983292Y-91213817D01*
X155981999Y-91263329D01*
X155980906Y-91324283D01*
X155979983Y-91398071D01*
X155979199Y-91486088D01*
X155978525Y-91589725D01*
X155977930Y-91710376D01*
X155977385Y-91849434D01*
X155976859Y-92008292D01*
X155976325Y-92187149D01*
X155975786Y-92372267D01*
X155975352Y-92536205D01*
X155975089Y-92680363D01*
X155975064Y-92806139D01*
X155975345Y-92914931D01*
X155975999Y-93008137D01*
X155977094Y-93087157D01*
X155978698Y-93153388D01*
X155980877Y-93208230D01*
X155983699Y-93253081D01*
X155987231Y-93289338D01*
X155991541Y-93318401D01*
X155996697Y-93341669D01*
X156002765Y-93360539D01*
X156009813Y-93376411D01*
X156017909Y-93390682D01*
X156027120Y-93404751D01*
X156035620Y-93417218D01*
X156052756Y-93443512D01*
X156062902Y-93461097D01*
X156064091Y-93464317D01*
X156053184Y-93465394D01*
X156021991Y-93466395D01*
X155972803Y-93467295D01*
X155907913Y-93468070D01*
X155829610Y-93468697D01*
X155740187Y-93469151D01*
X155641936Y-93469409D01*
X155573025Y-93469460D01*
X155468032Y-93469240D01*
X155371190Y-93468608D01*
X155284687Y-93467609D01*
X155210712Y-93466287D01*
X155151454Y-93464686D01*
X155109100Y-93462851D01*
X155085840Y-93460825D01*
X155081958Y-93459553D01*
X155089656Y-93444651D01*
X155097654Y-93436620D01*
X155110826Y-93419494D01*
X155128065Y-93389243D01*
X155139987Y-93364682D01*
X155166625Y-93305771D01*
X155169700Y-92128905D01*
X155172775Y-90952038D01*
X155618433Y-90952038D01*
X155716250Y-90952202D01*
X155806644Y-90952671D01*
X155887210Y-90953407D01*
X155955542Y-90954376D01*
X156009236Y-90955540D01*
X156045885Y-90956863D01*
X156063084Y-90958309D01*
X156064091Y-90958762D01*
X157075097Y-90958762D01*
X157059850Y-90939782D01*
X156985670Y-90847597D01*
X156913649Y-90758264D01*
X156845149Y-90673484D01*
X156781535Y-90594958D01*
X156724168Y-90524386D01*
X156674413Y-90463469D01*
X156633632Y-90413907D01*
X156616468Y-90393238D01*
X156530176Y-90292576D01*
X156453577Y-90209319D01*
X156384763Y-90141498D01*
X156321828Y-90087149D01*
X156312447Y-90079782D01*
X156272936Y-90049177D01*
X157404696Y-90048927D01*
X157399407Y-90096904D01*
X157402710Y-90154248D01*
X157424241Y-90222523D01*
X157464215Y-90302272D01*
X157509523Y-90374555D01*
X157525741Y-90397200D01*
X157553794Y-90434756D01*
X157592010Y-90485081D01*
X157638717Y-90546033D01*
X157692241Y-90615471D01*
X157750911Y-90691254D01*
X157813055Y-90771240D01*
X157877001Y-90853288D01*
X157941075Y-90935256D01*
X158003607Y-91015003D01*
X158062923Y-91090387D01*
X158117351Y-91159267D01*
X158165219Y-91219502D01*
X158204855Y-91268949D01*
X158234586Y-91305468D01*
X158252741Y-91326918D01*
X158255800Y-91330216D01*
X158258659Y-91322209D01*
X158260873Y-91291915D01*
X158262437Y-91239616D01*
X158263347Y-91165591D01*
X158263600Y-91070123D01*
X158263193Y-90953494D01*
X158262284Y-90833505D01*
X158260962Y-90701393D01*
X158259437Y-90589654D01*
X158257461Y-90496085D01*
X158254786Y-90418479D01*
X158251162Y-90354634D01*
X158246341Y-90302343D01*
X158240074Y-90259404D01*
X158232112Y-90223611D01*
X158222207Y-90192760D01*
X158210111Y-90164646D01*
X158195573Y-90137065D01*
X158180891Y-90112026D01*
X158142894Y-90048927D01*
X159202777Y-90048927D01*
X159505614Y-90048927D01*
X159505581Y-90042677D01*
X159504775Y-89940604D01*
X159503750Y-89851693D01*
X159502480Y-89775001D01*
X159500940Y-89709587D01*
X159499104Y-89654509D01*
X159496947Y-89608825D01*
X159494443Y-89571594D01*
X159491567Y-89541873D01*
X159488293Y-89518722D01*
X159484595Y-89501199D01*
X159480449Y-89488361D01*
X159475827Y-89479268D01*
X159470706Y-89472978D01*
X159465058Y-89468548D01*
X159458859Y-89465038D01*
X159452084Y-89461505D01*
X159446088Y-89457936D01*
X159440855Y-89455360D01*
X159432679Y-89453032D01*
X159420466Y-89450938D01*
X159403121Y-89449067D01*
X159379549Y-89447407D01*
X159348657Y-89445944D01*
X159309348Y-89444668D01*
X159260530Y-89443564D01*
X159201107Y-89442621D01*
X159129984Y-89441827D01*
X159046068Y-89441169D01*
X158948263Y-89440635D01*
X158835474Y-89440213D01*
X158706609Y-89439889D01*
X158560571Y-89439652D01*
X158396266Y-89439490D01*
X158212600Y-89439390D01*
X158008477Y-89439340D01*
X157797333Y-89439327D01*
X156176980Y-89439327D01*
X156176980Y-89536114D01*
X156176980Y-89536114D01*
G37*
X156176980Y-89536114D02*
X156166115Y-89650053D01*
X156134498Y-89757676D01*
X156083595Y-89856675D01*
X156014873Y-89944744D01*
X155929799Y-90019576D01*
X155832812Y-90077444D01*
X155726544Y-90117065D01*
X155619530Y-90135633D01*
X155513880Y-90134494D01*
X155411705Y-90114990D01*
X155315114Y-90078466D01*
X155226218Y-90026265D01*
X155147126Y-89959733D01*
X155079949Y-89880212D01*
X155026797Y-89789047D01*
X154989779Y-89687583D01*
X154971007Y-89577162D01*
X154969069Y-89527266D01*
X154969069Y-89439327D01*
X154917140Y-89439327D01*
X154880833Y-89442171D01*
X154853935Y-89453971D01*
X154826829Y-89477709D01*
X154788447Y-89516091D01*
X154788447Y-91707662D01*
X154788456Y-91969799D01*
X154788488Y-92210301D01*
X154788552Y-92430108D01*
X154788656Y-92630161D01*
X154788807Y-92811404D01*
X154789014Y-92974776D01*
X154789286Y-93121220D01*
X154789630Y-93251677D01*
X154790054Y-93367089D01*
X154790567Y-93468398D01*
X154791177Y-93556544D01*
X154791892Y-93632470D01*
X154792720Y-93697117D01*
X154793669Y-93751427D01*
X154794747Y-93796340D01*
X154795963Y-93832800D01*
X154797325Y-93861747D01*
X154798841Y-93884123D01*
X154800518Y-93900869D01*
X154802366Y-93912928D01*
X154804393Y-93921240D01*
X154806605Y-93926747D01*
X154807688Y-93928597D01*
X154811851Y-93935609D01*
X154815385Y-93942056D01*
X154819215Y-93947960D01*
X154824262Y-93953346D01*
X154831451Y-93958238D01*
X154841703Y-93962658D01*
X154855944Y-93966632D01*
X154875094Y-93970181D01*
X154900079Y-93973330D01*
X154931820Y-93976102D01*
X154971242Y-93978521D01*
X155019266Y-93980611D01*
X155076817Y-93982395D01*
X155144817Y-93983897D01*
X155224190Y-93985140D01*
X155315859Y-93986149D01*
X155420746Y-93986945D01*
X155539776Y-93987554D01*
X155673870Y-93987999D01*
X155823953Y-93988303D01*
X155990947Y-93988490D01*
X156175776Y-93988584D01*
X156379363Y-93988608D01*
X156602630Y-93988585D01*
X156846502Y-93988540D01*
X157111901Y-93988497D01*
X157150284Y-93988492D01*
X157417262Y-93988449D01*
X157662582Y-93988378D01*
X157887163Y-93988273D01*
X158091925Y-93988126D01*
X158277786Y-93987929D01*
X158445668Y-93987676D01*
X158596488Y-93987360D01*
X158731167Y-93986973D01*
X158850624Y-93986507D01*
X158955779Y-93985957D01*
X159047551Y-93985313D01*
X159126859Y-93984571D01*
X159194623Y-93983721D01*
X159251762Y-93982757D01*
X159299197Y-93981671D01*
X159337846Y-93980457D01*
X159368629Y-93979107D01*
X159392465Y-93977615D01*
X159410274Y-93975971D01*
X159422975Y-93974171D01*
X159431488Y-93972205D01*
X159435846Y-93970537D01*
X159444308Y-93966966D01*
X159452077Y-93964330D01*
X159459182Y-93961694D01*
X159465653Y-93958122D01*
X159471519Y-93952681D01*
X159476809Y-93944435D01*
X159481554Y-93932450D01*
X159485782Y-93915791D01*
X159489523Y-93893523D01*
X159492807Y-93864712D01*
X159495663Y-93828423D01*
X159498120Y-93783721D01*
X159500209Y-93729671D01*
X159501958Y-93665339D01*
X159503397Y-93589790D01*
X159504556Y-93502090D01*
X159505463Y-93401303D01*
X159506149Y-93286494D01*
X159506643Y-93156730D01*
X159506975Y-93011075D01*
X159507173Y-92848595D01*
X159507267Y-92668355D01*
X159507288Y-92469420D01*
X159507265Y-92250856D01*
X159507226Y-92011728D01*
X159507202Y-91751100D01*
X159507202Y-91708949D01*
X159507216Y-91446052D01*
X159507241Y-91204792D01*
X159507251Y-90984225D01*
X159507222Y-90783412D01*
X159507128Y-90601409D01*
X159506942Y-90437276D01*
X159506639Y-90290071D01*
X159506194Y-90158852D01*
X159505614Y-90048927D01*
X159202777Y-90048927D01*
X159162987Y-90106771D01*
X159151816Y-90122539D01*
X159141746Y-90136501D01*
X159132718Y-90149844D01*
X159124677Y-90163753D01*
X159117566Y-90179416D01*
X159111327Y-90198018D01*
X159105905Y-90220746D01*
X159101242Y-90248787D01*
X159097281Y-90283327D01*
X159093965Y-90325552D01*
X159091239Y-90376649D01*
X159089044Y-90437804D01*
X159087325Y-90510204D01*
X159086024Y-90595035D01*
X159085085Y-90693482D01*
X159084450Y-90806734D01*
X159084064Y-90935976D01*
X159083868Y-91082394D01*
X159083807Y-91247176D01*
X159083823Y-91431507D01*
X159083860Y-91636573D01*
X159083869Y-91759193D01*
X159083845Y-91976142D01*
X159083811Y-92171702D01*
X159083823Y-92347059D01*
X159083938Y-92503401D01*
X159084210Y-92641917D01*
X159084698Y-92763794D01*
X159085456Y-92870220D01*
X159086542Y-92962382D01*
X159088011Y-93041469D01*
X159089920Y-93108668D01*
X159092324Y-93165167D01*
X159095281Y-93212153D01*
X159098846Y-93250815D01*
X159103075Y-93282340D01*
X159108026Y-93307915D01*
X159113753Y-93328730D01*
X159120313Y-93345971D01*
X159127763Y-93360825D01*
X159136159Y-93374482D01*
X159145556Y-93388129D01*
X159156012Y-93402953D01*
X159162103Y-93411843D01*
X159200876Y-93469460D01*
X158669312Y-93469460D01*
X158546063Y-93469425D01*
X158443567Y-93469275D01*
X158360000Y-93468938D01*
X158293536Y-93468346D01*
X158242351Y-93467427D01*
X158204621Y-93466111D01*
X158178520Y-93464329D01*
X158162224Y-93462011D01*
X158153908Y-93459086D01*
X158151748Y-93455484D01*
X158153919Y-93451135D01*
X158155115Y-93449705D01*
X158180265Y-93412633D01*
X158206163Y-93359832D01*
X158229772Y-93297830D01*
X158238041Y-93271417D01*
X158242658Y-93253476D01*
X158246559Y-93232415D01*
X158249828Y-93206149D01*
X158252546Y-93172592D01*
X158254795Y-93129659D01*
X158256657Y-93075264D01*
X158258216Y-93007322D01*
X158259552Y-92923748D01*
X158260749Y-92822455D01*
X158261888Y-92701360D01*
X158262265Y-92656660D01*
X158263282Y-92531509D01*
X158264040Y-92427142D01*
X158264483Y-92341767D01*
X158264550Y-92273593D01*
X158264185Y-92220825D01*
X158263328Y-92181674D01*
X158261921Y-92154345D01*
X158259905Y-92137046D01*
X158257223Y-92127986D01*
X158253816Y-92125372D01*
X158249624Y-92127411D01*
X158245151Y-92131727D01*
X158234796Y-92144662D01*
X158212738Y-92173736D01*
X158180537Y-92216819D01*
X158139754Y-92271778D01*
X158091950Y-92336483D01*
X158038685Y-92408802D01*
X157981520Y-92486604D01*
X157922017Y-92567758D01*
X157861735Y-92650132D01*
X157802235Y-92731596D01*
X157745078Y-92810017D01*
X157691825Y-92883264D01*
X157644037Y-92949207D01*
X157603273Y-93005714D01*
X157571096Y-93050653D01*
X157549065Y-93081894D01*
X157544497Y-93088526D01*
X157521576Y-93125429D01*
X157494768Y-93173419D01*
X157469369Y-93222957D01*
X157466148Y-93229637D01*
X157444470Y-93277832D01*
X157431884Y-93315394D01*
X157426154Y-93351220D01*
X157425036Y-93393260D01*
X157425670Y-93469460D01*
X156271231Y-93469460D01*
X156362395Y-93375729D01*
X156409192Y-93325835D01*
X156459479Y-93269355D01*
X156505524Y-93215086D01*
X156525949Y-93189733D01*
X156556387Y-93150188D01*
X156596442Y-93096976D01*
X156644941Y-93031727D01*
X156700715Y-92956071D01*
X156762591Y-92871637D01*
X156829399Y-92780054D01*
X156899967Y-92682952D01*
X156973125Y-92581961D01*
X157047701Y-92478710D01*
X157122524Y-92374828D01*
X157196423Y-92271945D01*
X157268226Y-92171691D01*
X157336764Y-92075696D01*
X157400864Y-91985587D01*
X157459355Y-91902996D01*
X157511066Y-91829552D01*
X157554827Y-91766884D01*
X157589465Y-91716621D01*
X157613810Y-91680394D01*
X157626691Y-91659831D01*
X157628449Y-91655728D01*
X157620490Y-91644402D01*
X157599695Y-91617222D01*
X157567427Y-91575889D01*
X157525050Y-91522104D01*
X157473927Y-91457566D01*
X157415421Y-91383978D01*
X157350894Y-91303038D01*
X157281711Y-91216448D01*
X157209233Y-91125908D01*
X157134826Y-91033120D01*
X157075097Y-90958762D01*
X156064091Y-90958762D01*
X156058182Y-90971719D01*
X156043852Y-90993968D01*
X156042805Y-90995451D01*
X156024018Y-91025604D01*
X156004371Y-91062435D01*
X156000472Y-91070571D01*
X155996936Y-91079000D01*
X155993810Y-91089119D01*
X155991066Y-91102320D01*
X155988672Y-91119998D01*
X155986599Y-91143544D01*
X155984815Y-91174353D01*
X155983292Y-91213817D01*
X155981999Y-91263329D01*
X155980906Y-91324283D01*
X155979983Y-91398071D01*
X155979199Y-91486088D01*
X155978525Y-91589725D01*
X155977930Y-91710376D01*
X155977385Y-91849434D01*
X155976859Y-92008292D01*
X155976325Y-92187149D01*
X155975786Y-92372267D01*
X155975352Y-92536205D01*
X155975089Y-92680363D01*
X155975064Y-92806139D01*
X155975345Y-92914931D01*
X155975999Y-93008137D01*
X155977094Y-93087157D01*
X155978698Y-93153388D01*
X155980877Y-93208230D01*
X155983699Y-93253081D01*
X155987231Y-93289338D01*
X155991541Y-93318401D01*
X155996697Y-93341669D01*
X156002765Y-93360539D01*
X156009813Y-93376411D01*
X156017909Y-93390682D01*
X156027120Y-93404751D01*
X156035620Y-93417218D01*
X156052756Y-93443512D01*
X156062902Y-93461097D01*
X156064091Y-93464317D01*
X156053184Y-93465394D01*
X156021991Y-93466395D01*
X155972803Y-93467295D01*
X155907913Y-93468070D01*
X155829610Y-93468697D01*
X155740187Y-93469151D01*
X155641936Y-93469409D01*
X155573025Y-93469460D01*
X155468032Y-93469240D01*
X155371190Y-93468608D01*
X155284687Y-93467609D01*
X155210712Y-93466287D01*
X155151454Y-93464686D01*
X155109100Y-93462851D01*
X155085840Y-93460825D01*
X155081958Y-93459553D01*
X155089656Y-93444651D01*
X155097654Y-93436620D01*
X155110826Y-93419494D01*
X155128065Y-93389243D01*
X155139987Y-93364682D01*
X155166625Y-93305771D01*
X155169700Y-92128905D01*
X155172775Y-90952038D01*
X155618433Y-90952038D01*
X155716250Y-90952202D01*
X155806644Y-90952671D01*
X155887210Y-90953407D01*
X155955542Y-90954376D01*
X156009236Y-90955540D01*
X156045885Y-90956863D01*
X156063084Y-90958309D01*
X156064091Y-90958762D01*
X157075097Y-90958762D01*
X157059850Y-90939782D01*
X156985670Y-90847597D01*
X156913649Y-90758264D01*
X156845149Y-90673484D01*
X156781535Y-90594958D01*
X156724168Y-90524386D01*
X156674413Y-90463469D01*
X156633632Y-90413907D01*
X156616468Y-90393238D01*
X156530176Y-90292576D01*
X156453577Y-90209319D01*
X156384763Y-90141498D01*
X156321828Y-90087149D01*
X156312447Y-90079782D01*
X156272936Y-90049177D01*
X157404696Y-90048927D01*
X157399407Y-90096904D01*
X157402710Y-90154248D01*
X157424241Y-90222523D01*
X157464215Y-90302272D01*
X157509523Y-90374555D01*
X157525741Y-90397200D01*
X157553794Y-90434756D01*
X157592010Y-90485081D01*
X157638717Y-90546033D01*
X157692241Y-90615471D01*
X157750911Y-90691254D01*
X157813055Y-90771240D01*
X157877001Y-90853288D01*
X157941075Y-90935256D01*
X158003607Y-91015003D01*
X158062923Y-91090387D01*
X158117351Y-91159267D01*
X158165219Y-91219502D01*
X158204855Y-91268949D01*
X158234586Y-91305468D01*
X158252741Y-91326918D01*
X158255800Y-91330216D01*
X158258659Y-91322209D01*
X158260873Y-91291915D01*
X158262437Y-91239616D01*
X158263347Y-91165591D01*
X158263600Y-91070123D01*
X158263193Y-90953494D01*
X158262284Y-90833505D01*
X158260962Y-90701393D01*
X158259437Y-90589654D01*
X158257461Y-90496085D01*
X158254786Y-90418479D01*
X158251162Y-90354634D01*
X158246341Y-90302343D01*
X158240074Y-90259404D01*
X158232112Y-90223611D01*
X158222207Y-90192760D01*
X158210111Y-90164646D01*
X158195573Y-90137065D01*
X158180891Y-90112026D01*
X158142894Y-90048927D01*
X159202777Y-90048927D01*
X159505614Y-90048927D01*
X159505581Y-90042677D01*
X159504775Y-89940604D01*
X159503750Y-89851693D01*
X159502480Y-89775001D01*
X159500940Y-89709587D01*
X159499104Y-89654509D01*
X159496947Y-89608825D01*
X159494443Y-89571594D01*
X159491567Y-89541873D01*
X159488293Y-89518722D01*
X159484595Y-89501199D01*
X159480449Y-89488361D01*
X159475827Y-89479268D01*
X159470706Y-89472978D01*
X159465058Y-89468548D01*
X159458859Y-89465038D01*
X159452084Y-89461505D01*
X159446088Y-89457936D01*
X159440855Y-89455360D01*
X159432679Y-89453032D01*
X159420466Y-89450938D01*
X159403121Y-89449067D01*
X159379549Y-89447407D01*
X159348657Y-89445944D01*
X159309348Y-89444668D01*
X159260530Y-89443564D01*
X159201107Y-89442621D01*
X159129984Y-89441827D01*
X159046068Y-89441169D01*
X158948263Y-89440635D01*
X158835474Y-89440213D01*
X158706609Y-89439889D01*
X158560571Y-89439652D01*
X158396266Y-89439490D01*
X158212600Y-89439390D01*
X158008477Y-89439340D01*
X157797333Y-89439327D01*
X156176980Y-89439327D01*
X156176980Y-89536114D01*
M02*
