G04 #@! TF.GenerationSoftware,KiCad,Pcbnew,(5.1.2)-2*
G04 #@! TF.CreationDate,2020-07-25T22:21:04+02:00*
G04 #@! TF.ProjectId,Adapter,41646170-7465-4722-9e6b-696361645f70,1*
G04 #@! TF.SameCoordinates,Original*
G04 #@! TF.FileFunction,Paste,Top*
G04 #@! TF.FilePolarity,Positive*
%FSLAX46Y46*%
G04 Gerber Fmt 4.6, Leading zero omitted, Abs format (unit mm)*
G04 Created by KiCad (PCBNEW (5.1.2)-2) date 2020-07-25 22:21:04*
%MOMM*%
%LPD*%
G04 APERTURE LIST*
%ADD10R,2.100000X0.900000*%
%ADD11R,0.900000X2.100000*%
G04 APERTURE END LIST*
D10*
X143355000Y-90715200D03*
X160855000Y-90715200D03*
X143355000Y-70395200D03*
X143355000Y-71665200D03*
X160855000Y-71665200D03*
X160855000Y-70395200D03*
X143355000Y-74205200D03*
X160855000Y-74205200D03*
D11*
X159085000Y-92465200D03*
X145125000Y-92465200D03*
D10*
X143329300Y-89445200D03*
X160855000Y-89445200D03*
X160855000Y-88175200D03*
X160855000Y-86905200D03*
X160855000Y-85635200D03*
X160855000Y-84365200D03*
X160855000Y-83095200D03*
X160855000Y-81825200D03*
X160855000Y-80555200D03*
X160855000Y-79285200D03*
X160855000Y-78015200D03*
X160855000Y-76745200D03*
X160855000Y-75475200D03*
X143355000Y-86905200D03*
X143355000Y-88175200D03*
X143355000Y-84365200D03*
X143355000Y-85635200D03*
X143355000Y-81825200D03*
X143355000Y-83095200D03*
X143355000Y-79285200D03*
X143355000Y-80555200D03*
X143355000Y-76745200D03*
X143355000Y-78015200D03*
X143355000Y-75475200D03*
D11*
X157815000Y-92465200D03*
X156545000Y-92465200D03*
X155275000Y-92465200D03*
X154005000Y-92465200D03*
X152735000Y-92465200D03*
X151465000Y-92465200D03*
X146385000Y-92465200D03*
X150195000Y-92465200D03*
X148925000Y-92465200D03*
X147660000Y-92465200D03*
M02*
