G04 #@! TF.GenerationSoftware,KiCad,Pcbnew,(5.1.2)-2*
G04 #@! TF.CreationDate,2020-07-25T22:21:03+02:00*
G04 #@! TF.ProjectId,Adapter,41646170-7465-4722-9e6b-696361645f70,1*
G04 #@! TF.SameCoordinates,Original*
G04 #@! TF.FileFunction,Copper,L1,Top*
G04 #@! TF.FilePolarity,Positive*
%FSLAX46Y46*%
G04 Gerber Fmt 4.6, Leading zero omitted, Abs format (unit mm)*
G04 Created by KiCad (PCBNEW (5.1.2)-2) date 2020-07-25 22:21:03*
%MOMM*%
%LPD*%
G04 APERTURE LIST*
%ADD10O,1.700000X1.700000*%
%ADD11R,1.700000X1.700000*%
%ADD12R,2.100000X0.900000*%
%ADD13R,0.900000X2.100000*%
%ADD14R,1.800000X1.800000*%
%ADD15C,1.800000*%
%ADD16C,1.400000*%
%ADD17O,1.400000X1.400000*%
%ADD18C,0.800000*%
%ADD19C,1.000000*%
%ADD20C,0.250000*%
%ADD21C,0.300000*%
G04 APERTURE END LIST*
D10*
X166541000Y-114970600D03*
X166541000Y-112430600D03*
X166541000Y-109890600D03*
X166541000Y-107350600D03*
X166541000Y-104810600D03*
X166541000Y-102270600D03*
X166541000Y-99730600D03*
X166541000Y-97190600D03*
X166541000Y-94650600D03*
X166541000Y-92110600D03*
X166541000Y-89570600D03*
X166541000Y-87030600D03*
X166541000Y-84490600D03*
X166541000Y-81950600D03*
X166541000Y-79410600D03*
X166541000Y-76870600D03*
X166541000Y-74330600D03*
D11*
X166541000Y-71790600D03*
D10*
X137354000Y-114970600D03*
X137354000Y-112430600D03*
X137354000Y-109890600D03*
X137354000Y-107350600D03*
X137354000Y-104810600D03*
X137354000Y-102270600D03*
X137354000Y-99730600D03*
X137354000Y-97190600D03*
X137354000Y-94650600D03*
X137354000Y-92110600D03*
X137354000Y-89570600D03*
X137354000Y-87030600D03*
X137354000Y-84490600D03*
X137354000Y-81950600D03*
X137354000Y-79410600D03*
X137354000Y-76870600D03*
X137354000Y-74330600D03*
D11*
X137354000Y-71790600D03*
X160253000Y-104938000D03*
D10*
X160253000Y-107478000D03*
X157713000Y-104938000D03*
X157713000Y-107478000D03*
X155173000Y-104938000D03*
X155173000Y-107478000D03*
X152633000Y-104938000D03*
X152633000Y-107478000D03*
X150093000Y-104938000D03*
X150093000Y-107478000D03*
D12*
X143355000Y-90715200D03*
X160855000Y-90715200D03*
X143355000Y-70395200D03*
X143355000Y-71665200D03*
X160855000Y-71665200D03*
X160855000Y-70395200D03*
X143355000Y-74205200D03*
X160855000Y-74205200D03*
D13*
X159085000Y-92465200D03*
X145125000Y-92465200D03*
D12*
X143329300Y-89445200D03*
X160855000Y-89445200D03*
X160855000Y-88175200D03*
X160855000Y-86905200D03*
X160855000Y-85635200D03*
X160855000Y-84365200D03*
X160855000Y-83095200D03*
X160855000Y-81825200D03*
X160855000Y-80555200D03*
X160855000Y-79285200D03*
X160855000Y-78015200D03*
X160855000Y-76745200D03*
X160855000Y-75475200D03*
X143355000Y-86905200D03*
X143355000Y-88175200D03*
X143355000Y-84365200D03*
X143355000Y-85635200D03*
X143355000Y-81825200D03*
X143355000Y-83095200D03*
X143355000Y-79285200D03*
X143355000Y-80555200D03*
X143355000Y-76745200D03*
X143355000Y-78015200D03*
X143355000Y-75475200D03*
D13*
X157815000Y-92465200D03*
X156545000Y-92465200D03*
X155275000Y-92465200D03*
X154005000Y-92465200D03*
X152735000Y-92465200D03*
X151465000Y-92465200D03*
X146385000Y-92465200D03*
X150195000Y-92465200D03*
X148925000Y-92465200D03*
X147660000Y-92465200D03*
D14*
X145854000Y-113559000D03*
D15*
X143314000Y-113559000D03*
D16*
X154084000Y-114759000D03*
D17*
X149004000Y-114759000D03*
D18*
X155844200Y-94333600D03*
D19*
X143380900Y-92360200D03*
D20*
X156545000Y-92465200D02*
X156545000Y-93840500D01*
X166541000Y-113795300D02*
X166173700Y-113795300D01*
X166173700Y-113795300D02*
X163887400Y-111509000D01*
X163887400Y-111509000D02*
X163887400Y-105914800D01*
X163887400Y-105914800D02*
X156831900Y-98859300D01*
X156831900Y-98859300D02*
X156831900Y-94127400D01*
X156831900Y-94127400D02*
X156545000Y-93840500D01*
X166541000Y-114970600D02*
X166541000Y-113795300D01*
X157815000Y-92465200D02*
X157815000Y-93840500D01*
X166541000Y-111255300D02*
X166239700Y-111255300D01*
X166239700Y-111255300D02*
X164465100Y-109480700D01*
X164465100Y-109480700D02*
X164465100Y-105855600D01*
X164465100Y-105855600D02*
X157815000Y-99205500D01*
X157815000Y-99205500D02*
X157815000Y-93840500D01*
X166541000Y-112430600D02*
X166541000Y-111255300D01*
X159085000Y-93840500D02*
X159085000Y-99838600D01*
X159085000Y-99838600D02*
X164915400Y-105669000D01*
X164915400Y-105669000D02*
X164915400Y-107457100D01*
X164915400Y-107457100D02*
X166173600Y-108715300D01*
X166173600Y-108715300D02*
X166541000Y-108715300D01*
X166541000Y-109890600D02*
X166541000Y-108715300D01*
X159085000Y-92465200D02*
X159085000Y-93840500D01*
X166541000Y-107350600D02*
X166541000Y-106175300D01*
X160855000Y-90715200D02*
X160855000Y-100786900D01*
X160855000Y-100786900D02*
X166243400Y-106175300D01*
X166243400Y-106175300D02*
X166541000Y-106175300D01*
X160855000Y-89445200D02*
X162230300Y-89445200D01*
X166541000Y-104810600D02*
X166541000Y-103635300D01*
X162230300Y-89445200D02*
X162230300Y-99691900D01*
X162230300Y-99691900D02*
X166173700Y-103635300D01*
X166173700Y-103635300D02*
X166541000Y-103635300D01*
X160855000Y-88175200D02*
X162230300Y-88175200D01*
X162230300Y-88175200D02*
X162680600Y-88625500D01*
X162680600Y-88625500D02*
X162680600Y-97543900D01*
X162680600Y-97543900D02*
X166232000Y-101095300D01*
X166232000Y-101095300D02*
X166541000Y-101095300D01*
X166541000Y-102270600D02*
X166541000Y-101095300D01*
X162230300Y-86905200D02*
X162230300Y-87369200D01*
X162230300Y-87369200D02*
X163130900Y-88269800D01*
X163130900Y-88269800D02*
X163130900Y-95512600D01*
X163130900Y-95512600D02*
X166173600Y-98555300D01*
X166173600Y-98555300D02*
X166541000Y-98555300D01*
X160855000Y-86905200D02*
X162230300Y-86905200D01*
X166541000Y-99730600D02*
X166541000Y-98555300D01*
X160855000Y-85635200D02*
X162230300Y-85635200D01*
X162230300Y-85635200D02*
X163131200Y-86536100D01*
X163131200Y-86536100D02*
X163131200Y-87633200D01*
X163131200Y-87633200D02*
X163581300Y-88083300D01*
X163581300Y-88083300D02*
X163581300Y-93422900D01*
X163581300Y-93422900D02*
X166173700Y-96015300D01*
X166173700Y-96015300D02*
X166541000Y-96015300D01*
X166541000Y-97190600D02*
X166541000Y-96015300D01*
X162230300Y-84365200D02*
X163581500Y-85716400D01*
X163581500Y-85716400D02*
X163581500Y-87446600D01*
X163581500Y-87446600D02*
X164031700Y-87896800D01*
X164031700Y-87896800D02*
X164031700Y-91333300D01*
X164031700Y-91333300D02*
X166173700Y-93475300D01*
X166173700Y-93475300D02*
X166541000Y-93475300D01*
X166541000Y-94650600D02*
X166541000Y-93475300D01*
X160855000Y-84365200D02*
X162230300Y-84365200D01*
X162230300Y-83095200D02*
X164031800Y-84896700D01*
X164031800Y-84896700D02*
X164031800Y-87260000D01*
X164031800Y-87260000D02*
X164482100Y-87710300D01*
X164482100Y-87710300D02*
X164482100Y-89243700D01*
X164482100Y-89243700D02*
X166173700Y-90935300D01*
X166173700Y-90935300D02*
X166541000Y-90935300D01*
X166541000Y-92110600D02*
X166541000Y-90935300D01*
X160855000Y-83095200D02*
X162230300Y-83095200D01*
X166541000Y-89570600D02*
X166541000Y-88395300D01*
X160855000Y-81825200D02*
X162230300Y-81825200D01*
X162230300Y-81825200D02*
X164482200Y-84077100D01*
X164482200Y-84077100D02*
X164482200Y-86634100D01*
X164482200Y-86634100D02*
X166243400Y-88395300D01*
X166243400Y-88395300D02*
X166541000Y-88395300D01*
X166541000Y-87030600D02*
X166541000Y-85855300D01*
X160855000Y-80555200D02*
X162230300Y-80555200D01*
X162230300Y-80555200D02*
X165365700Y-83690600D01*
X165365700Y-83690600D02*
X165365700Y-85047400D01*
X165365700Y-85047400D02*
X166173600Y-85855300D01*
X166173600Y-85855300D02*
X166541000Y-85855300D01*
X166541000Y-84490600D02*
X166541000Y-83315300D01*
X160855000Y-79285200D02*
X161607400Y-79285200D01*
X161607400Y-79285200D02*
X165637500Y-83315300D01*
X165637500Y-83315300D02*
X166541000Y-83315300D01*
X152633000Y-103762700D02*
X155844200Y-100551500D01*
X155844200Y-100551500D02*
X155844200Y-94333600D01*
X152633000Y-104938000D02*
X152633000Y-103762700D01*
X160855000Y-78015200D02*
X162230300Y-78015200D01*
X166541000Y-81950600D02*
X165365700Y-81950600D01*
X162230300Y-78015200D02*
X162230300Y-78815200D01*
X162230300Y-78815200D02*
X165365700Y-81950600D01*
X166541000Y-79410600D02*
X165365700Y-79410600D01*
X160855000Y-76745200D02*
X162700300Y-76745200D01*
X162700300Y-76745200D02*
X165365700Y-79410600D01*
X166541000Y-76870600D02*
X165365700Y-76870600D01*
X160855000Y-75475200D02*
X163970300Y-75475200D01*
X163970300Y-75475200D02*
X165365700Y-76870600D01*
X166541000Y-74330600D02*
X165365700Y-74330600D01*
X160855000Y-74205200D02*
X165240300Y-74205200D01*
X165240300Y-74205200D02*
X165365700Y-74330600D01*
D21*
X144105200Y-74205200D02*
X144282000Y-74205200D01*
X144282000Y-74205200D02*
X144855300Y-74778500D01*
X144855300Y-74778500D02*
X144855300Y-90715200D01*
X144105200Y-74205200D02*
X144105200Y-71665200D01*
X143355000Y-90715200D02*
X144855300Y-90715200D01*
X143380900Y-92360200D02*
X143355000Y-92334300D01*
X143355000Y-92334300D02*
X143355000Y-90715200D01*
X143355000Y-74205200D02*
X144105200Y-74205200D01*
X144105200Y-71665200D02*
X144105200Y-70395200D01*
X144105200Y-70395200D02*
X160855000Y-70395200D01*
X143355000Y-70395200D02*
X144105200Y-70395200D01*
X143355000Y-71665200D02*
X144105200Y-71665200D01*
X166541000Y-71790600D02*
X165240700Y-71790600D01*
X162355300Y-71665200D02*
X165115300Y-71665200D01*
X165115300Y-71665200D02*
X165240700Y-71790600D01*
X161605200Y-71665200D02*
X162355300Y-71665200D01*
X160855000Y-71665200D02*
X161605200Y-71665200D01*
X160855000Y-70395200D02*
X162355300Y-70395200D01*
X162355300Y-70395200D02*
X162355300Y-71665200D01*
D20*
X155275000Y-92465200D02*
X155275000Y-93840500D01*
X143314000Y-109890600D02*
X143314000Y-113559000D01*
X155275000Y-93840500D02*
X143314000Y-105801500D01*
X143314000Y-105801500D02*
X143314000Y-109890600D01*
X143314000Y-109890600D02*
X138529300Y-109890600D01*
X137354000Y-109890600D02*
X138529300Y-109890600D01*
X154005000Y-92465200D02*
X154005000Y-93840500D01*
X154005000Y-93840500D02*
X140494900Y-107350600D01*
X140494900Y-107350600D02*
X137354000Y-107350600D01*
X152735000Y-92465200D02*
X152735000Y-93840500D01*
X152735000Y-93840500D02*
X141764900Y-104810600D01*
X141764900Y-104810600D02*
X137354000Y-104810600D01*
X151465000Y-92465200D02*
X151465000Y-93840500D01*
X151465000Y-93840500D02*
X143034900Y-102270600D01*
X143034900Y-102270600D02*
X137354000Y-102270600D01*
X150195000Y-92465200D02*
X150195000Y-93840500D01*
X150195000Y-93840500D02*
X144304900Y-99730600D01*
X144304900Y-99730600D02*
X137354000Y-99730600D01*
X148925000Y-92465200D02*
X148925000Y-93840500D01*
X148925000Y-93840500D02*
X145574900Y-97190600D01*
X145574900Y-97190600D02*
X137354000Y-97190600D01*
X147660000Y-93840500D02*
X146849900Y-94650600D01*
X146849900Y-94650600D02*
X137354000Y-94650600D01*
X147660000Y-92465200D02*
X147660000Y-93840500D01*
X137354000Y-92110600D02*
X138529300Y-92110600D01*
X146385000Y-92465200D02*
X146385000Y-93840500D01*
X146385000Y-93840500D02*
X146284900Y-93940600D01*
X146284900Y-93940600D02*
X140359300Y-93940600D01*
X140359300Y-93940600D02*
X138529300Y-92110600D01*
D21*
X138654300Y-89570600D02*
X142394200Y-93310500D01*
X142394200Y-93310500D02*
X144279700Y-93310500D01*
X144279700Y-93310500D02*
X145125000Y-92465200D01*
X137354000Y-89570600D02*
X138654300Y-89570600D01*
D20*
X137354000Y-87030600D02*
X138529300Y-87030600D01*
X143355000Y-85635200D02*
X139924700Y-85635200D01*
X139924700Y-85635200D02*
X138529300Y-87030600D01*
X137354000Y-84490600D02*
X138529300Y-84490600D01*
X143355000Y-84365200D02*
X138654700Y-84365200D01*
X138654700Y-84365200D02*
X138529300Y-84490600D01*
X137354000Y-81950600D02*
X138529300Y-81950600D01*
X143355000Y-83095200D02*
X139673900Y-83095200D01*
X139673900Y-83095200D02*
X138529300Y-81950600D01*
X137354000Y-79410600D02*
X138529300Y-79410600D01*
X143355000Y-81825200D02*
X140943900Y-81825200D01*
X140943900Y-81825200D02*
X138529300Y-79410600D01*
X143355000Y-80555200D02*
X141979700Y-80555200D01*
X137354000Y-76870600D02*
X138529300Y-76870600D01*
X141979700Y-80555200D02*
X141979700Y-80321000D01*
X141979700Y-80321000D02*
X138529300Y-76870600D01*
X137354000Y-74330600D02*
X137354000Y-75505900D01*
X143355000Y-79285200D02*
X141979700Y-79285200D01*
X141979700Y-79285200D02*
X138200400Y-75505900D01*
X138200400Y-75505900D02*
X137354000Y-75505900D01*
X137354000Y-71790600D02*
X137354000Y-72965900D01*
X143355000Y-78015200D02*
X141979700Y-78015200D01*
X141979700Y-78015200D02*
X141979700Y-77224300D01*
X141979700Y-77224300D02*
X137721300Y-72965900D01*
X137721300Y-72965900D02*
X137354000Y-72965900D01*
M02*
