M48
INCH,TZ
T1C0.0157
T2C0.0276
T3C0.0315
T4C0.0354
T5C0.0394
%
G90
G05
T1
X61356Y-37139
T2
X58663Y-45181
X60663Y-45181
T3
X56449Y-36362
T4
X56423Y-44708
X57423Y-44708
T5
X54076Y-28264
X54076Y-29264
X54076Y-30264
X54076Y-31264
X54076Y-32264
X54076Y-33264
X54076Y-34264
X54076Y-35264
X54076Y-36264
X54076Y-37264
X54076Y-38264
X54076Y-39264
X54076Y-40264
X54076Y-41264
X54076Y-42264
X54076Y-43264
X54076Y-44264
X54076Y-45264
X59092Y-41314
X59092Y-42314
X60092Y-41314
X60092Y-42314
X61092Y-41314
X61092Y-42314
X62092Y-41314
X62092Y-42314
X63092Y-41314
X63092Y-42314
X65567Y-28264
X65567Y-29264
X65567Y-30264
X65567Y-31264
X65567Y-32264
X65567Y-33264
X65567Y-34264
X65567Y-35264
X65567Y-36264
X65567Y-37264
X65567Y-38264
X65567Y-39264
X65567Y-40264
X65567Y-41264
X65567Y-42264
X65567Y-43264
X65567Y-44264
X65567Y-45264
T0
M30
