G04 #@! TF.GenerationSoftware,KiCad,Pcbnew,(5.1.2)-2*
G04 #@! TF.CreationDate,2020-07-25T19:39:27+02:00*
G04 #@! TF.ProjectId,Adapter,41646170-7465-4722-9e6b-696361645f70,1*
G04 #@! TF.SameCoordinates,Original*
G04 #@! TF.FileFunction,Copper,L2,Bot*
G04 #@! TF.FilePolarity,Positive*
%FSLAX46Y46*%
G04 Gerber Fmt 4.6, Leading zero omitted, Abs format (unit mm)*
G04 Created by KiCad (PCBNEW (5.1.2)-2) date 2020-07-25 19:39:27*
%MOMM*%
%LPD*%
G04 APERTURE LIST*
%ADD10O,1.700000X1.700000*%
%ADD11R,1.700000X1.700000*%
%ADD12R,1.800000X1.800000*%
%ADD13C,1.800000*%
%ADD14C,1.400000*%
%ADD15O,1.400000X1.400000*%
%ADD16C,0.800000*%
%ADD17C,0.250000*%
%ADD18C,0.254000*%
G04 APERTURE END LIST*
D10*
X166541480Y-114970560D03*
X166541480Y-112430560D03*
X166541480Y-109890560D03*
X166541480Y-107350560D03*
X166541480Y-104810560D03*
X166541480Y-102270560D03*
X166541480Y-99730560D03*
X166541480Y-97190560D03*
X166541480Y-94650560D03*
X166541480Y-92110560D03*
X166541480Y-89570560D03*
X166541480Y-87030560D03*
X166541480Y-84490560D03*
X166541480Y-81950560D03*
X166541480Y-79410560D03*
X166541480Y-76870560D03*
X166541480Y-74330560D03*
D11*
X166541480Y-71790560D03*
D10*
X137354480Y-114970560D03*
X137354480Y-112430560D03*
X137354480Y-109890560D03*
X137354480Y-107350560D03*
X137354480Y-104810560D03*
X137354480Y-102270560D03*
X137354480Y-99730560D03*
X137354480Y-97190560D03*
X137354480Y-94650560D03*
X137354480Y-92110560D03*
X137354480Y-89570560D03*
X137354480Y-87030560D03*
X137354480Y-84490560D03*
X137354480Y-81950560D03*
X137354480Y-79410560D03*
X137354480Y-76870560D03*
X137354480Y-74330560D03*
D11*
X137354480Y-71790560D03*
X160253480Y-104937960D03*
D10*
X160253480Y-107477960D03*
X157713480Y-104937960D03*
X157713480Y-107477960D03*
X155173480Y-104937960D03*
X155173480Y-107477960D03*
X152633480Y-104937960D03*
X152633480Y-107477960D03*
X150093480Y-104937960D03*
X150093480Y-107477960D03*
D12*
X145854480Y-113558960D03*
D13*
X143314480Y-113558960D03*
D14*
X154084480Y-114758960D03*
D15*
X149004480Y-114758960D03*
D16*
X162352480Y-72894960D03*
X144567480Y-74349960D03*
X141518480Y-91831960D03*
D17*
X166541480Y-84490960D02*
X166541480Y-84490560D01*
X150093480Y-104937960D02*
X150093480Y-101746960D01*
X150093480Y-101746960D02*
X166174480Y-85665960D01*
X166174480Y-85665960D02*
X166541480Y-85665960D01*
X166541480Y-85665960D02*
X166541480Y-84490960D01*
X152633480Y-101815960D02*
X152633480Y-104937960D01*
X165440760Y-88300960D02*
X152633480Y-101108240D01*
X166541480Y-83125960D02*
X166908480Y-83125960D01*
X166541480Y-81950560D02*
X166541480Y-83125960D01*
X166908480Y-83125960D02*
X167716480Y-83933960D01*
X167716480Y-83933960D02*
X167716480Y-87614960D01*
X152633480Y-101108240D02*
X152633480Y-101815960D01*
X167716480Y-87614960D02*
X167030480Y-88300960D01*
X167030480Y-88300960D02*
X165440760Y-88300960D01*
X155173480Y-107477960D02*
X157713480Y-107477960D01*
X152633480Y-107477960D02*
X155173480Y-107477960D01*
X141518480Y-91831960D02*
X139182480Y-89495960D01*
X139182480Y-89495960D02*
X139182480Y-88384960D01*
X152633480Y-107477960D02*
X150093480Y-107477960D01*
X162352480Y-72894960D02*
X164261480Y-72894960D01*
X164261480Y-72894960D02*
X165366480Y-71790560D01*
X165366480Y-71790560D02*
X166541480Y-71790560D01*
X150093480Y-107477960D02*
X148918480Y-107477960D01*
X148918480Y-107477960D02*
X148918480Y-107036960D01*
X148918480Y-107036960D02*
X137801480Y-95920960D01*
X137801480Y-95920960D02*
X136958480Y-95920960D01*
X136958480Y-95920960D02*
X136112480Y-95074960D01*
X136112480Y-95074960D02*
X136112480Y-89125960D01*
X136112480Y-89125960D02*
X136853480Y-88384960D01*
X136853480Y-88384960D02*
X139182480Y-88384960D01*
X139182480Y-88384960D02*
X144567480Y-82999960D01*
X144567480Y-82999960D02*
X144567480Y-74349960D01*
X137354480Y-89570960D02*
X137354480Y-89570560D01*
X160253480Y-104937960D02*
X159078480Y-104937960D01*
X159078480Y-104937960D02*
X159078480Y-105304960D01*
X159078480Y-105304960D02*
X158254480Y-106128960D01*
X158254480Y-106128960D02*
X149610480Y-106128960D01*
X149610480Y-106128960D02*
X138529480Y-95047960D01*
X138529480Y-95047960D02*
X138529480Y-91553960D01*
X138529480Y-91553960D02*
X137721480Y-90745960D01*
X137721480Y-90745960D02*
X137354480Y-90745960D01*
X137354480Y-90745960D02*
X137354480Y-89570960D01*
D18*
G36*
X164658664Y-69131280D02*
G01*
X164683440Y-69133720D01*
X164688592Y-69133213D01*
X168318819Y-69975944D01*
X168783608Y-70455570D01*
X168819927Y-70509618D01*
X168488890Y-116679194D01*
X165864877Y-118160412D01*
X137065879Y-117826012D01*
X135127004Y-116369663D01*
X135011879Y-116198339D01*
X134907503Y-115960564D01*
X135318731Y-74330560D01*
X135862295Y-74330560D01*
X135890967Y-74621671D01*
X135975881Y-74901594D01*
X136113774Y-75159574D01*
X136299346Y-75385694D01*
X136525466Y-75571266D01*
X136580271Y-75600560D01*
X136525466Y-75629854D01*
X136299346Y-75815426D01*
X136113774Y-76041546D01*
X135975881Y-76299526D01*
X135890967Y-76579449D01*
X135862295Y-76870560D01*
X135890967Y-77161671D01*
X135975881Y-77441594D01*
X136113774Y-77699574D01*
X136299346Y-77925694D01*
X136525466Y-78111266D01*
X136580271Y-78140560D01*
X136525466Y-78169854D01*
X136299346Y-78355426D01*
X136113774Y-78581546D01*
X135975881Y-78839526D01*
X135890967Y-79119449D01*
X135862295Y-79410560D01*
X135890967Y-79701671D01*
X135975881Y-79981594D01*
X136113774Y-80239574D01*
X136299346Y-80465694D01*
X136525466Y-80651266D01*
X136580271Y-80680560D01*
X136525466Y-80709854D01*
X136299346Y-80895426D01*
X136113774Y-81121546D01*
X135975881Y-81379526D01*
X135890967Y-81659449D01*
X135862295Y-81950560D01*
X135890967Y-82241671D01*
X135975881Y-82521594D01*
X136113774Y-82779574D01*
X136299346Y-83005694D01*
X136525466Y-83191266D01*
X136580271Y-83220560D01*
X136525466Y-83249854D01*
X136299346Y-83435426D01*
X136113774Y-83661546D01*
X135975881Y-83919526D01*
X135890967Y-84199449D01*
X135862295Y-84490560D01*
X135890967Y-84781671D01*
X135975881Y-85061594D01*
X136113774Y-85319574D01*
X136299346Y-85545694D01*
X136525466Y-85731266D01*
X136580271Y-85760560D01*
X136525466Y-85789854D01*
X136299346Y-85975426D01*
X136113774Y-86201546D01*
X135975881Y-86459526D01*
X135890967Y-86739449D01*
X135862295Y-87030560D01*
X135890967Y-87321671D01*
X135975881Y-87601594D01*
X136113774Y-87859574D01*
X136299346Y-88085694D01*
X136525466Y-88271266D01*
X136580271Y-88300560D01*
X136525466Y-88329854D01*
X136299346Y-88515426D01*
X136113774Y-88741546D01*
X135975881Y-88999526D01*
X135890967Y-89279449D01*
X135862295Y-89570560D01*
X135890967Y-89861671D01*
X135975881Y-90141594D01*
X136113774Y-90399574D01*
X136299346Y-90625694D01*
X136525466Y-90811266D01*
X136580271Y-90840560D01*
X136525466Y-90869854D01*
X136299346Y-91055426D01*
X136113774Y-91281546D01*
X135975881Y-91539526D01*
X135890967Y-91819449D01*
X135862295Y-92110560D01*
X135890967Y-92401671D01*
X135975881Y-92681594D01*
X136113774Y-92939574D01*
X136299346Y-93165694D01*
X136525466Y-93351266D01*
X136580271Y-93380560D01*
X136525466Y-93409854D01*
X136299346Y-93595426D01*
X136113774Y-93821546D01*
X135975881Y-94079526D01*
X135890967Y-94359449D01*
X135862295Y-94650560D01*
X135890967Y-94941671D01*
X135975881Y-95221594D01*
X136113774Y-95479574D01*
X136299346Y-95705694D01*
X136525466Y-95891266D01*
X136580271Y-95920560D01*
X136525466Y-95949854D01*
X136299346Y-96135426D01*
X136113774Y-96361546D01*
X135975881Y-96619526D01*
X135890967Y-96899449D01*
X135862295Y-97190560D01*
X135890967Y-97481671D01*
X135975881Y-97761594D01*
X136113774Y-98019574D01*
X136299346Y-98245694D01*
X136525466Y-98431266D01*
X136580271Y-98460560D01*
X136525466Y-98489854D01*
X136299346Y-98675426D01*
X136113774Y-98901546D01*
X135975881Y-99159526D01*
X135890967Y-99439449D01*
X135862295Y-99730560D01*
X135890967Y-100021671D01*
X135975881Y-100301594D01*
X136113774Y-100559574D01*
X136299346Y-100785694D01*
X136525466Y-100971266D01*
X136580271Y-101000560D01*
X136525466Y-101029854D01*
X136299346Y-101215426D01*
X136113774Y-101441546D01*
X135975881Y-101699526D01*
X135890967Y-101979449D01*
X135862295Y-102270560D01*
X135890967Y-102561671D01*
X135975881Y-102841594D01*
X136113774Y-103099574D01*
X136299346Y-103325694D01*
X136525466Y-103511266D01*
X136580271Y-103540560D01*
X136525466Y-103569854D01*
X136299346Y-103755426D01*
X136113774Y-103981546D01*
X135975881Y-104239526D01*
X135890967Y-104519449D01*
X135862295Y-104810560D01*
X135890967Y-105101671D01*
X135975881Y-105381594D01*
X136113774Y-105639574D01*
X136299346Y-105865694D01*
X136525466Y-106051266D01*
X136580271Y-106080560D01*
X136525466Y-106109854D01*
X136299346Y-106295426D01*
X136113774Y-106521546D01*
X135975881Y-106779526D01*
X135890967Y-107059449D01*
X135862295Y-107350560D01*
X135890967Y-107641671D01*
X135975881Y-107921594D01*
X136113774Y-108179574D01*
X136299346Y-108405694D01*
X136525466Y-108591266D01*
X136580271Y-108620560D01*
X136525466Y-108649854D01*
X136299346Y-108835426D01*
X136113774Y-109061546D01*
X135975881Y-109319526D01*
X135890967Y-109599449D01*
X135862295Y-109890560D01*
X135890967Y-110181671D01*
X135975881Y-110461594D01*
X136113774Y-110719574D01*
X136299346Y-110945694D01*
X136525466Y-111131266D01*
X136580271Y-111160560D01*
X136525466Y-111189854D01*
X136299346Y-111375426D01*
X136113774Y-111601546D01*
X135975881Y-111859526D01*
X135890967Y-112139449D01*
X135862295Y-112430560D01*
X135890967Y-112721671D01*
X135975881Y-113001594D01*
X136113774Y-113259574D01*
X136299346Y-113485694D01*
X136525466Y-113671266D01*
X136580271Y-113700560D01*
X136525466Y-113729854D01*
X136299346Y-113915426D01*
X136113774Y-114141546D01*
X135975881Y-114399526D01*
X135890967Y-114679449D01*
X135862295Y-114970560D01*
X135890967Y-115261671D01*
X135975881Y-115541594D01*
X136113774Y-115799574D01*
X136299346Y-116025694D01*
X136525466Y-116211266D01*
X136783446Y-116349159D01*
X137063369Y-116434073D01*
X137281530Y-116455560D01*
X137427430Y-116455560D01*
X137645591Y-116434073D01*
X137925514Y-116349159D01*
X138183494Y-116211266D01*
X138409614Y-116025694D01*
X138595186Y-115799574D01*
X138733079Y-115541594D01*
X138817993Y-115261671D01*
X138846665Y-114970560D01*
X138817993Y-114679449D01*
X138733079Y-114399526D01*
X138595186Y-114141546D01*
X138409614Y-113915426D01*
X138183494Y-113729854D01*
X138128689Y-113700560D01*
X138183494Y-113671266D01*
X138409614Y-113485694D01*
X138473559Y-113407776D01*
X141779480Y-113407776D01*
X141779480Y-113710144D01*
X141838469Y-114006703D01*
X141954181Y-114286055D01*
X142122168Y-114537465D01*
X142335975Y-114751272D01*
X142587385Y-114919259D01*
X142866737Y-115034971D01*
X143163296Y-115093960D01*
X143465664Y-115093960D01*
X143762223Y-115034971D01*
X144041575Y-114919259D01*
X144292985Y-114751272D01*
X144359424Y-114684833D01*
X144364978Y-114703140D01*
X144423943Y-114813454D01*
X144503295Y-114910145D01*
X144599986Y-114989497D01*
X144710300Y-115048462D01*
X144829998Y-115084772D01*
X144954480Y-115097032D01*
X146754480Y-115097032D01*
X146878962Y-115084772D01*
X146998660Y-115048462D01*
X147108974Y-114989497D01*
X147205665Y-114910145D01*
X147285017Y-114813454D01*
X147314145Y-114758960D01*
X147663021Y-114758960D01*
X147688797Y-115020666D01*
X147765133Y-115272314D01*
X147889098Y-115504235D01*
X148055925Y-115707515D01*
X148259205Y-115874342D01*
X148491126Y-115998307D01*
X148742774Y-116074643D01*
X148938901Y-116093960D01*
X149070059Y-116093960D01*
X149266186Y-116074643D01*
X149517834Y-115998307D01*
X149749755Y-115874342D01*
X149953035Y-115707515D01*
X149975427Y-115680229D01*
X153342816Y-115680229D01*
X153402277Y-115913997D01*
X153640722Y-116024894D01*
X153896220Y-116087143D01*
X154158953Y-116098350D01*
X154418824Y-116058085D01*
X154665846Y-115967895D01*
X154766683Y-115913997D01*
X154826144Y-115680229D01*
X154084480Y-114938565D01*
X153342816Y-115680229D01*
X149975427Y-115680229D01*
X150119862Y-115504235D01*
X150243827Y-115272314D01*
X150320163Y-115020666D01*
X150338603Y-114833433D01*
X152745090Y-114833433D01*
X152785355Y-115093304D01*
X152875545Y-115340326D01*
X152929443Y-115441163D01*
X153163211Y-115500624D01*
X153904875Y-114758960D01*
X154264085Y-114758960D01*
X155005749Y-115500624D01*
X155239517Y-115441163D01*
X155350414Y-115202718D01*
X155412663Y-114947220D01*
X155423870Y-114684487D01*
X155383605Y-114424616D01*
X155293415Y-114177594D01*
X155239517Y-114076757D01*
X155005749Y-114017296D01*
X154264085Y-114758960D01*
X153904875Y-114758960D01*
X153163211Y-114017296D01*
X152929443Y-114076757D01*
X152818546Y-114315202D01*
X152756297Y-114570700D01*
X152745090Y-114833433D01*
X150338603Y-114833433D01*
X150345939Y-114758960D01*
X150320163Y-114497254D01*
X150243827Y-114245606D01*
X150119862Y-114013685D01*
X149975428Y-113837691D01*
X153342816Y-113837691D01*
X154084480Y-114579355D01*
X154826144Y-113837691D01*
X154766683Y-113603923D01*
X154528238Y-113493026D01*
X154272740Y-113430777D01*
X154010007Y-113419570D01*
X153750136Y-113459835D01*
X153503114Y-113550025D01*
X153402277Y-113603923D01*
X153342816Y-113837691D01*
X149975428Y-113837691D01*
X149953035Y-113810405D01*
X149749755Y-113643578D01*
X149517834Y-113519613D01*
X149266186Y-113443277D01*
X149070059Y-113423960D01*
X148938901Y-113423960D01*
X148742774Y-113443277D01*
X148491126Y-113519613D01*
X148259205Y-113643578D01*
X148055925Y-113810405D01*
X147889098Y-114013685D01*
X147765133Y-114245606D01*
X147688797Y-114497254D01*
X147663021Y-114758960D01*
X147314145Y-114758960D01*
X147343982Y-114703140D01*
X147380292Y-114583442D01*
X147392552Y-114458960D01*
X147392552Y-112658960D01*
X147380292Y-112534478D01*
X147343982Y-112414780D01*
X147285017Y-112304466D01*
X147205665Y-112207775D01*
X147108974Y-112128423D01*
X146998660Y-112069458D01*
X146878962Y-112033148D01*
X146754480Y-112020888D01*
X144954480Y-112020888D01*
X144829998Y-112033148D01*
X144710300Y-112069458D01*
X144599986Y-112128423D01*
X144503295Y-112207775D01*
X144423943Y-112304466D01*
X144364978Y-112414780D01*
X144359424Y-112433087D01*
X144292985Y-112366648D01*
X144041575Y-112198661D01*
X143762223Y-112082949D01*
X143465664Y-112023960D01*
X143163296Y-112023960D01*
X142866737Y-112082949D01*
X142587385Y-112198661D01*
X142335975Y-112366648D01*
X142122168Y-112580455D01*
X141954181Y-112831865D01*
X141838469Y-113111217D01*
X141779480Y-113407776D01*
X138473559Y-113407776D01*
X138595186Y-113259574D01*
X138733079Y-113001594D01*
X138817993Y-112721671D01*
X138846665Y-112430560D01*
X138817993Y-112139449D01*
X138733079Y-111859526D01*
X138595186Y-111601546D01*
X138409614Y-111375426D01*
X138183494Y-111189854D01*
X138128689Y-111160560D01*
X138183494Y-111131266D01*
X138409614Y-110945694D01*
X138595186Y-110719574D01*
X138733079Y-110461594D01*
X138817993Y-110181671D01*
X138846665Y-109890560D01*
X138817993Y-109599449D01*
X138733079Y-109319526D01*
X138595186Y-109061546D01*
X138409614Y-108835426D01*
X138183494Y-108649854D01*
X138128689Y-108620560D01*
X138183494Y-108591266D01*
X138409614Y-108405694D01*
X138595186Y-108179574D01*
X138733079Y-107921594D01*
X138759392Y-107834851D01*
X148651999Y-107834851D01*
X148749323Y-108109212D01*
X148898302Y-108359315D01*
X149093211Y-108575548D01*
X149326560Y-108749601D01*
X149589381Y-108874785D01*
X149736590Y-108919436D01*
X149966480Y-108798115D01*
X149966480Y-107604960D01*
X150220480Y-107604960D01*
X150220480Y-108798115D01*
X150450370Y-108919436D01*
X150597579Y-108874785D01*
X150860400Y-108749601D01*
X151093749Y-108575548D01*
X151288658Y-108359315D01*
X151363480Y-108233705D01*
X151438302Y-108359315D01*
X151633211Y-108575548D01*
X151866560Y-108749601D01*
X152129381Y-108874785D01*
X152276590Y-108919436D01*
X152506480Y-108798115D01*
X152506480Y-107604960D01*
X152760480Y-107604960D01*
X152760480Y-108798115D01*
X152990370Y-108919436D01*
X153137579Y-108874785D01*
X153400400Y-108749601D01*
X153633749Y-108575548D01*
X153828658Y-108359315D01*
X153903480Y-108233705D01*
X153978302Y-108359315D01*
X154173211Y-108575548D01*
X154406560Y-108749601D01*
X154669381Y-108874785D01*
X154816590Y-108919436D01*
X155046480Y-108798115D01*
X155046480Y-107604960D01*
X155300480Y-107604960D01*
X155300480Y-108798115D01*
X155530370Y-108919436D01*
X155677579Y-108874785D01*
X155940400Y-108749601D01*
X156173749Y-108575548D01*
X156368658Y-108359315D01*
X156443480Y-108233705D01*
X156518302Y-108359315D01*
X156713211Y-108575548D01*
X156946560Y-108749601D01*
X157209381Y-108874785D01*
X157356590Y-108919436D01*
X157586480Y-108798115D01*
X157586480Y-107604960D01*
X155300480Y-107604960D01*
X155046480Y-107604960D01*
X152760480Y-107604960D01*
X152506480Y-107604960D01*
X150220480Y-107604960D01*
X149966480Y-107604960D01*
X148772666Y-107604960D01*
X148651999Y-107834851D01*
X138759392Y-107834851D01*
X138817993Y-107641671D01*
X138846665Y-107350560D01*
X138817993Y-107059449D01*
X138733079Y-106779526D01*
X138595186Y-106521546D01*
X138409614Y-106295426D01*
X138183494Y-106109854D01*
X138128689Y-106080560D01*
X138183494Y-106051266D01*
X138409614Y-105865694D01*
X138595186Y-105639574D01*
X138733079Y-105381594D01*
X138817993Y-105101671D01*
X138846665Y-104810560D01*
X138817993Y-104519449D01*
X138733079Y-104239526D01*
X138595186Y-103981546D01*
X138409614Y-103755426D01*
X138183494Y-103569854D01*
X138128689Y-103540560D01*
X138183494Y-103511266D01*
X138409614Y-103325694D01*
X138595186Y-103099574D01*
X138733079Y-102841594D01*
X138817993Y-102561671D01*
X138846665Y-102270560D01*
X138817993Y-101979449D01*
X138733079Y-101699526D01*
X138595186Y-101441546D01*
X138409614Y-101215426D01*
X138183494Y-101029854D01*
X138128689Y-101000560D01*
X138183494Y-100971266D01*
X138409614Y-100785694D01*
X138595186Y-100559574D01*
X138733079Y-100301594D01*
X138817993Y-100021671D01*
X138846665Y-99730560D01*
X138817993Y-99439449D01*
X138733079Y-99159526D01*
X138595186Y-98901546D01*
X138409614Y-98675426D01*
X138183494Y-98489854D01*
X138128689Y-98460560D01*
X138183494Y-98431266D01*
X138409614Y-98245694D01*
X138595186Y-98019574D01*
X138733079Y-97761594D01*
X138817993Y-97481671D01*
X138846665Y-97190560D01*
X138817993Y-96899449D01*
X138733079Y-96619526D01*
X138595186Y-96361546D01*
X138409614Y-96135426D01*
X138183494Y-95949854D01*
X138128689Y-95920560D01*
X138183494Y-95891266D01*
X138246378Y-95839659D01*
X148948089Y-106541372D01*
X148898302Y-106596605D01*
X148749323Y-106846708D01*
X148651999Y-107121069D01*
X148772666Y-107350960D01*
X149966480Y-107350960D01*
X149966480Y-107330960D01*
X150220480Y-107330960D01*
X150220480Y-107350960D01*
X152506480Y-107350960D01*
X152506480Y-107330960D01*
X152760480Y-107330960D01*
X152760480Y-107350960D01*
X155046480Y-107350960D01*
X155046480Y-107330960D01*
X155300480Y-107330960D01*
X155300480Y-107350960D01*
X157586480Y-107350960D01*
X157586480Y-107330960D01*
X157840480Y-107330960D01*
X157840480Y-107350960D01*
X157860480Y-107350960D01*
X157860480Y-107604960D01*
X157840480Y-107604960D01*
X157840480Y-108798115D01*
X158070370Y-108919436D01*
X158217579Y-108874785D01*
X158480400Y-108749601D01*
X158713749Y-108575548D01*
X158908658Y-108359315D01*
X158978279Y-108242437D01*
X159012774Y-108306974D01*
X159198346Y-108533094D01*
X159424466Y-108718666D01*
X159682446Y-108856559D01*
X159962369Y-108941473D01*
X160180530Y-108962960D01*
X160326430Y-108962960D01*
X160544591Y-108941473D01*
X160824514Y-108856559D01*
X161082494Y-108718666D01*
X161308614Y-108533094D01*
X161494186Y-108306974D01*
X161632079Y-108048994D01*
X161716993Y-107769071D01*
X161745665Y-107477960D01*
X161716993Y-107186849D01*
X161632079Y-106906926D01*
X161494186Y-106648946D01*
X161308614Y-106422826D01*
X161278793Y-106398353D01*
X161347660Y-106377462D01*
X161457974Y-106318497D01*
X161554665Y-106239145D01*
X161634017Y-106142454D01*
X161692982Y-106032140D01*
X161729292Y-105912442D01*
X161741552Y-105787960D01*
X161741552Y-104087960D01*
X161729292Y-103963478D01*
X161692982Y-103843780D01*
X161634017Y-103733466D01*
X161554665Y-103636775D01*
X161457974Y-103557423D01*
X161347660Y-103498458D01*
X161227962Y-103462148D01*
X161103480Y-103449888D01*
X159403480Y-103449888D01*
X159278998Y-103462148D01*
X159159300Y-103498458D01*
X159048986Y-103557423D01*
X158952295Y-103636775D01*
X158872943Y-103733466D01*
X158813978Y-103843780D01*
X158793087Y-103912647D01*
X158768614Y-103882826D01*
X158542494Y-103697254D01*
X158284514Y-103559361D01*
X158004591Y-103474447D01*
X157786430Y-103452960D01*
X157640530Y-103452960D01*
X157422369Y-103474447D01*
X157142446Y-103559361D01*
X156884466Y-103697254D01*
X156658346Y-103882826D01*
X156472774Y-104108946D01*
X156443480Y-104163751D01*
X156414186Y-104108946D01*
X156228614Y-103882826D01*
X156002494Y-103697254D01*
X155744514Y-103559361D01*
X155464591Y-103474447D01*
X155246430Y-103452960D01*
X155100530Y-103452960D01*
X154882369Y-103474447D01*
X154602446Y-103559361D01*
X154344466Y-103697254D01*
X154118346Y-103882826D01*
X153932774Y-104108946D01*
X153903480Y-104163751D01*
X153874186Y-104108946D01*
X153688614Y-103882826D01*
X153462494Y-103697254D01*
X153393480Y-103660365D01*
X153393480Y-101423041D01*
X165066928Y-89749594D01*
X165077967Y-89861671D01*
X165162881Y-90141594D01*
X165300774Y-90399574D01*
X165486346Y-90625694D01*
X165712466Y-90811266D01*
X165767271Y-90840560D01*
X165712466Y-90869854D01*
X165486346Y-91055426D01*
X165300774Y-91281546D01*
X165162881Y-91539526D01*
X165077967Y-91819449D01*
X165049295Y-92110560D01*
X165077967Y-92401671D01*
X165162881Y-92681594D01*
X165300774Y-92939574D01*
X165486346Y-93165694D01*
X165712466Y-93351266D01*
X165767271Y-93380560D01*
X165712466Y-93409854D01*
X165486346Y-93595426D01*
X165300774Y-93821546D01*
X165162881Y-94079526D01*
X165077967Y-94359449D01*
X165049295Y-94650560D01*
X165077967Y-94941671D01*
X165162881Y-95221594D01*
X165300774Y-95479574D01*
X165486346Y-95705694D01*
X165712466Y-95891266D01*
X165767271Y-95920560D01*
X165712466Y-95949854D01*
X165486346Y-96135426D01*
X165300774Y-96361546D01*
X165162881Y-96619526D01*
X165077967Y-96899449D01*
X165049295Y-97190560D01*
X165077967Y-97481671D01*
X165162881Y-97761594D01*
X165300774Y-98019574D01*
X165486346Y-98245694D01*
X165712466Y-98431266D01*
X165767271Y-98460560D01*
X165712466Y-98489854D01*
X165486346Y-98675426D01*
X165300774Y-98901546D01*
X165162881Y-99159526D01*
X165077967Y-99439449D01*
X165049295Y-99730560D01*
X165077967Y-100021671D01*
X165162881Y-100301594D01*
X165300774Y-100559574D01*
X165486346Y-100785694D01*
X165712466Y-100971266D01*
X165767271Y-101000560D01*
X165712466Y-101029854D01*
X165486346Y-101215426D01*
X165300774Y-101441546D01*
X165162881Y-101699526D01*
X165077967Y-101979449D01*
X165049295Y-102270560D01*
X165077967Y-102561671D01*
X165162881Y-102841594D01*
X165300774Y-103099574D01*
X165486346Y-103325694D01*
X165712466Y-103511266D01*
X165767271Y-103540560D01*
X165712466Y-103569854D01*
X165486346Y-103755426D01*
X165300774Y-103981546D01*
X165162881Y-104239526D01*
X165077967Y-104519449D01*
X165049295Y-104810560D01*
X165077967Y-105101671D01*
X165162881Y-105381594D01*
X165300774Y-105639574D01*
X165486346Y-105865694D01*
X165712466Y-106051266D01*
X165767271Y-106080560D01*
X165712466Y-106109854D01*
X165486346Y-106295426D01*
X165300774Y-106521546D01*
X165162881Y-106779526D01*
X165077967Y-107059449D01*
X165049295Y-107350560D01*
X165077967Y-107641671D01*
X165162881Y-107921594D01*
X165300774Y-108179574D01*
X165486346Y-108405694D01*
X165712466Y-108591266D01*
X165767271Y-108620560D01*
X165712466Y-108649854D01*
X165486346Y-108835426D01*
X165300774Y-109061546D01*
X165162881Y-109319526D01*
X165077967Y-109599449D01*
X165049295Y-109890560D01*
X165077967Y-110181671D01*
X165162881Y-110461594D01*
X165300774Y-110719574D01*
X165486346Y-110945694D01*
X165712466Y-111131266D01*
X165767271Y-111160560D01*
X165712466Y-111189854D01*
X165486346Y-111375426D01*
X165300774Y-111601546D01*
X165162881Y-111859526D01*
X165077967Y-112139449D01*
X165049295Y-112430560D01*
X165077967Y-112721671D01*
X165162881Y-113001594D01*
X165300774Y-113259574D01*
X165486346Y-113485694D01*
X165712466Y-113671266D01*
X165767271Y-113700560D01*
X165712466Y-113729854D01*
X165486346Y-113915426D01*
X165300774Y-114141546D01*
X165162881Y-114399526D01*
X165077967Y-114679449D01*
X165049295Y-114970560D01*
X165077967Y-115261671D01*
X165162881Y-115541594D01*
X165300774Y-115799574D01*
X165486346Y-116025694D01*
X165712466Y-116211266D01*
X165970446Y-116349159D01*
X166250369Y-116434073D01*
X166468530Y-116455560D01*
X166614430Y-116455560D01*
X166832591Y-116434073D01*
X167112514Y-116349159D01*
X167370494Y-116211266D01*
X167596614Y-116025694D01*
X167782186Y-115799574D01*
X167920079Y-115541594D01*
X168004993Y-115261671D01*
X168033665Y-114970560D01*
X168004993Y-114679449D01*
X167920079Y-114399526D01*
X167782186Y-114141546D01*
X167596614Y-113915426D01*
X167370494Y-113729854D01*
X167315689Y-113700560D01*
X167370494Y-113671266D01*
X167596614Y-113485694D01*
X167782186Y-113259574D01*
X167920079Y-113001594D01*
X168004993Y-112721671D01*
X168033665Y-112430560D01*
X168004993Y-112139449D01*
X167920079Y-111859526D01*
X167782186Y-111601546D01*
X167596614Y-111375426D01*
X167370494Y-111189854D01*
X167315689Y-111160560D01*
X167370494Y-111131266D01*
X167596614Y-110945694D01*
X167782186Y-110719574D01*
X167920079Y-110461594D01*
X168004993Y-110181671D01*
X168033665Y-109890560D01*
X168004993Y-109599449D01*
X167920079Y-109319526D01*
X167782186Y-109061546D01*
X167596614Y-108835426D01*
X167370494Y-108649854D01*
X167315689Y-108620560D01*
X167370494Y-108591266D01*
X167596614Y-108405694D01*
X167782186Y-108179574D01*
X167920079Y-107921594D01*
X168004993Y-107641671D01*
X168033665Y-107350560D01*
X168004993Y-107059449D01*
X167920079Y-106779526D01*
X167782186Y-106521546D01*
X167596614Y-106295426D01*
X167370494Y-106109854D01*
X167315689Y-106080560D01*
X167370494Y-106051266D01*
X167596614Y-105865694D01*
X167782186Y-105639574D01*
X167920079Y-105381594D01*
X168004993Y-105101671D01*
X168033665Y-104810560D01*
X168004993Y-104519449D01*
X167920079Y-104239526D01*
X167782186Y-103981546D01*
X167596614Y-103755426D01*
X167370494Y-103569854D01*
X167315689Y-103540560D01*
X167370494Y-103511266D01*
X167596614Y-103325694D01*
X167782186Y-103099574D01*
X167920079Y-102841594D01*
X168004993Y-102561671D01*
X168033665Y-102270560D01*
X168004993Y-101979449D01*
X167920079Y-101699526D01*
X167782186Y-101441546D01*
X167596614Y-101215426D01*
X167370494Y-101029854D01*
X167315689Y-101000560D01*
X167370494Y-100971266D01*
X167596614Y-100785694D01*
X167782186Y-100559574D01*
X167920079Y-100301594D01*
X168004993Y-100021671D01*
X168033665Y-99730560D01*
X168004993Y-99439449D01*
X167920079Y-99159526D01*
X167782186Y-98901546D01*
X167596614Y-98675426D01*
X167370494Y-98489854D01*
X167315689Y-98460560D01*
X167370494Y-98431266D01*
X167596614Y-98245694D01*
X167782186Y-98019574D01*
X167920079Y-97761594D01*
X168004993Y-97481671D01*
X168033665Y-97190560D01*
X168004993Y-96899449D01*
X167920079Y-96619526D01*
X167782186Y-96361546D01*
X167596614Y-96135426D01*
X167370494Y-95949854D01*
X167315689Y-95920560D01*
X167370494Y-95891266D01*
X167596614Y-95705694D01*
X167782186Y-95479574D01*
X167920079Y-95221594D01*
X168004993Y-94941671D01*
X168033665Y-94650560D01*
X168004993Y-94359449D01*
X167920079Y-94079526D01*
X167782186Y-93821546D01*
X167596614Y-93595426D01*
X167370494Y-93409854D01*
X167315689Y-93380560D01*
X167370494Y-93351266D01*
X167596614Y-93165694D01*
X167782186Y-92939574D01*
X167920079Y-92681594D01*
X168004993Y-92401671D01*
X168033665Y-92110560D01*
X168004993Y-91819449D01*
X167920079Y-91539526D01*
X167782186Y-91281546D01*
X167596614Y-91055426D01*
X167370494Y-90869854D01*
X167315689Y-90840560D01*
X167370494Y-90811266D01*
X167596614Y-90625694D01*
X167782186Y-90399574D01*
X167920079Y-90141594D01*
X168004993Y-89861671D01*
X168033665Y-89570560D01*
X168004993Y-89279449D01*
X167920079Y-88999526D01*
X167782186Y-88741546D01*
X167729227Y-88677015D01*
X168227482Y-88178759D01*
X168256481Y-88154961D01*
X168351454Y-88039236D01*
X168422026Y-87907207D01*
X168465483Y-87763946D01*
X168476480Y-87652293D01*
X168480157Y-87614960D01*
X168476480Y-87577627D01*
X168476480Y-83971293D01*
X168480157Y-83933960D01*
X168465483Y-83784974D01*
X168422026Y-83641713D01*
X168351454Y-83509684D01*
X168280279Y-83422957D01*
X168256481Y-83393959D01*
X168227484Y-83370162D01*
X167716696Y-82859374D01*
X167782186Y-82779574D01*
X167920079Y-82521594D01*
X168004993Y-82241671D01*
X168033665Y-81950560D01*
X168004993Y-81659449D01*
X167920079Y-81379526D01*
X167782186Y-81121546D01*
X167596614Y-80895426D01*
X167370494Y-80709854D01*
X167315689Y-80680560D01*
X167370494Y-80651266D01*
X167596614Y-80465694D01*
X167782186Y-80239574D01*
X167920079Y-79981594D01*
X168004993Y-79701671D01*
X168033665Y-79410560D01*
X168004993Y-79119449D01*
X167920079Y-78839526D01*
X167782186Y-78581546D01*
X167596614Y-78355426D01*
X167370494Y-78169854D01*
X167315689Y-78140560D01*
X167370494Y-78111266D01*
X167596614Y-77925694D01*
X167782186Y-77699574D01*
X167920079Y-77441594D01*
X168004993Y-77161671D01*
X168033665Y-76870560D01*
X168004993Y-76579449D01*
X167920079Y-76299526D01*
X167782186Y-76041546D01*
X167596614Y-75815426D01*
X167370494Y-75629854D01*
X167315689Y-75600560D01*
X167370494Y-75571266D01*
X167596614Y-75385694D01*
X167782186Y-75159574D01*
X167920079Y-74901594D01*
X168004993Y-74621671D01*
X168033665Y-74330560D01*
X168004993Y-74039449D01*
X167920079Y-73759526D01*
X167782186Y-73501546D01*
X167596614Y-73275426D01*
X167566793Y-73250953D01*
X167635660Y-73230062D01*
X167745974Y-73171097D01*
X167842665Y-73091745D01*
X167922017Y-72995054D01*
X167980982Y-72884740D01*
X168017292Y-72765042D01*
X168029552Y-72640560D01*
X168026480Y-72076310D01*
X167867730Y-71917560D01*
X166668480Y-71917560D01*
X166668480Y-71937560D01*
X166414480Y-71937560D01*
X166414480Y-71917560D01*
X165215230Y-71917560D01*
X165056480Y-72076310D01*
X165053408Y-72640560D01*
X165065668Y-72765042D01*
X165101978Y-72884740D01*
X165160943Y-72995054D01*
X165240295Y-73091745D01*
X165336986Y-73171097D01*
X165447300Y-73230062D01*
X165516167Y-73250953D01*
X165486346Y-73275426D01*
X165300774Y-73501546D01*
X165162881Y-73759526D01*
X165077967Y-74039449D01*
X165049295Y-74330560D01*
X165077967Y-74621671D01*
X165162881Y-74901594D01*
X165300774Y-75159574D01*
X165486346Y-75385694D01*
X165712466Y-75571266D01*
X165767271Y-75600560D01*
X165712466Y-75629854D01*
X165486346Y-75815426D01*
X165300774Y-76041546D01*
X165162881Y-76299526D01*
X165077967Y-76579449D01*
X165049295Y-76870560D01*
X165077967Y-77161671D01*
X165162881Y-77441594D01*
X165300774Y-77699574D01*
X165486346Y-77925694D01*
X165712466Y-78111266D01*
X165767271Y-78140560D01*
X165712466Y-78169854D01*
X165486346Y-78355426D01*
X165300774Y-78581546D01*
X165162881Y-78839526D01*
X165077967Y-79119449D01*
X165049295Y-79410560D01*
X165077967Y-79701671D01*
X165162881Y-79981594D01*
X165300774Y-80239574D01*
X165486346Y-80465694D01*
X165712466Y-80651266D01*
X165767271Y-80680560D01*
X165712466Y-80709854D01*
X165486346Y-80895426D01*
X165300774Y-81121546D01*
X165162881Y-81379526D01*
X165077967Y-81659449D01*
X165049295Y-81950560D01*
X165077967Y-82241671D01*
X165162881Y-82521594D01*
X165300774Y-82779574D01*
X165486346Y-83005694D01*
X165712466Y-83191266D01*
X165767271Y-83220560D01*
X165712466Y-83249854D01*
X165486346Y-83435426D01*
X165300774Y-83661546D01*
X165162881Y-83919526D01*
X165077967Y-84199449D01*
X165049295Y-84490560D01*
X165077967Y-84781671D01*
X165162881Y-85061594D01*
X165300774Y-85319574D01*
X165366264Y-85399374D01*
X149582478Y-101183161D01*
X149553480Y-101206959D01*
X149529682Y-101235957D01*
X149529681Y-101235958D01*
X149458506Y-101322684D01*
X149387934Y-101454714D01*
X149344478Y-101597975D01*
X149329804Y-101746960D01*
X149333481Y-101784292D01*
X149333480Y-103660365D01*
X149264466Y-103697254D01*
X149038346Y-103882826D01*
X148852774Y-104108946D01*
X148787461Y-104231138D01*
X139289480Y-94733159D01*
X139289480Y-91591293D01*
X139293157Y-91553960D01*
X139278483Y-91404974D01*
X139235026Y-91261713D01*
X139164454Y-91129684D01*
X139093279Y-91042957D01*
X139069481Y-91013959D01*
X139040482Y-90990161D01*
X138529696Y-90479374D01*
X138595186Y-90399574D01*
X138733079Y-90141594D01*
X138817993Y-89861671D01*
X138846665Y-89570560D01*
X138817993Y-89279449D01*
X138733079Y-88999526D01*
X138595186Y-88741546D01*
X138409614Y-88515426D01*
X138183494Y-88329854D01*
X138128689Y-88300560D01*
X138183494Y-88271266D01*
X138409614Y-88085694D01*
X138595186Y-87859574D01*
X138733079Y-87601594D01*
X138817993Y-87321671D01*
X138846665Y-87030560D01*
X138817993Y-86739449D01*
X138733079Y-86459526D01*
X138595186Y-86201546D01*
X138409614Y-85975426D01*
X138183494Y-85789854D01*
X138128689Y-85760560D01*
X138183494Y-85731266D01*
X138409614Y-85545694D01*
X138595186Y-85319574D01*
X138733079Y-85061594D01*
X138817993Y-84781671D01*
X138846665Y-84490560D01*
X138817993Y-84199449D01*
X138733079Y-83919526D01*
X138595186Y-83661546D01*
X138409614Y-83435426D01*
X138183494Y-83249854D01*
X138128689Y-83220560D01*
X138183494Y-83191266D01*
X138409614Y-83005694D01*
X138595186Y-82779574D01*
X138733079Y-82521594D01*
X138817993Y-82241671D01*
X138846665Y-81950560D01*
X138817993Y-81659449D01*
X138733079Y-81379526D01*
X138595186Y-81121546D01*
X138409614Y-80895426D01*
X138183494Y-80709854D01*
X138128689Y-80680560D01*
X138183494Y-80651266D01*
X138409614Y-80465694D01*
X138595186Y-80239574D01*
X138733079Y-79981594D01*
X138817993Y-79701671D01*
X138846665Y-79410560D01*
X138817993Y-79119449D01*
X138733079Y-78839526D01*
X138595186Y-78581546D01*
X138409614Y-78355426D01*
X138183494Y-78169854D01*
X138128689Y-78140560D01*
X138183494Y-78111266D01*
X138409614Y-77925694D01*
X138595186Y-77699574D01*
X138733079Y-77441594D01*
X138817993Y-77161671D01*
X138846665Y-76870560D01*
X138817993Y-76579449D01*
X138733079Y-76299526D01*
X138595186Y-76041546D01*
X138409614Y-75815426D01*
X138183494Y-75629854D01*
X138128689Y-75600560D01*
X138183494Y-75571266D01*
X138409614Y-75385694D01*
X138595186Y-75159574D01*
X138733079Y-74901594D01*
X138817993Y-74621671D01*
X138846665Y-74330560D01*
X138817993Y-74039449D01*
X138733079Y-73759526D01*
X138595186Y-73501546D01*
X138409614Y-73275426D01*
X138379793Y-73250953D01*
X138448660Y-73230062D01*
X138558974Y-73171097D01*
X138655665Y-73091745D01*
X138735017Y-72995054D01*
X138793982Y-72884740D01*
X138830292Y-72765042D01*
X138842552Y-72640560D01*
X138842552Y-70940560D01*
X165053408Y-70940560D01*
X165056480Y-71504810D01*
X165215230Y-71663560D01*
X166414480Y-71663560D01*
X166414480Y-70464310D01*
X166668480Y-70464310D01*
X166668480Y-71663560D01*
X167867730Y-71663560D01*
X168026480Y-71504810D01*
X168029552Y-70940560D01*
X168017292Y-70816078D01*
X167980982Y-70696380D01*
X167922017Y-70586066D01*
X167842665Y-70489375D01*
X167745974Y-70410023D01*
X167635660Y-70351058D01*
X167515962Y-70314748D01*
X167391480Y-70302488D01*
X166827230Y-70305560D01*
X166668480Y-70464310D01*
X166414480Y-70464310D01*
X166255730Y-70305560D01*
X165691480Y-70302488D01*
X165566998Y-70314748D01*
X165447300Y-70351058D01*
X165336986Y-70410023D01*
X165240295Y-70489375D01*
X165160943Y-70586066D01*
X165101978Y-70696380D01*
X165065668Y-70816078D01*
X165053408Y-70940560D01*
X138842552Y-70940560D01*
X138830292Y-70816078D01*
X138793982Y-70696380D01*
X138735017Y-70586066D01*
X138655665Y-70489375D01*
X138558974Y-70410023D01*
X138448660Y-70351058D01*
X138328962Y-70314748D01*
X138204480Y-70302488D01*
X136504480Y-70302488D01*
X136379998Y-70314748D01*
X136260300Y-70351058D01*
X136149986Y-70410023D01*
X136053295Y-70489375D01*
X135973943Y-70586066D01*
X135914978Y-70696380D01*
X135878668Y-70816078D01*
X135866408Y-70940560D01*
X135866408Y-72640560D01*
X135878668Y-72765042D01*
X135914978Y-72884740D01*
X135973943Y-72995054D01*
X136053295Y-73091745D01*
X136149986Y-73171097D01*
X136260300Y-73230062D01*
X136329167Y-73250953D01*
X136299346Y-73275426D01*
X136113774Y-73501546D01*
X135975881Y-73759526D01*
X135890967Y-74039449D01*
X135862295Y-74330560D01*
X135318731Y-74330560D01*
X135355394Y-70619099D01*
X135529829Y-70376347D01*
X136084090Y-69839232D01*
X136350363Y-69660304D01*
X137556029Y-69164167D01*
X164650105Y-69128684D01*
X164658664Y-69131280D01*
X164658664Y-69131280D01*
G37*
X164658664Y-69131280D02*
X164683440Y-69133720D01*
X164688592Y-69133213D01*
X168318819Y-69975944D01*
X168783608Y-70455570D01*
X168819927Y-70509618D01*
X168488890Y-116679194D01*
X165864877Y-118160412D01*
X137065879Y-117826012D01*
X135127004Y-116369663D01*
X135011879Y-116198339D01*
X134907503Y-115960564D01*
X135318731Y-74330560D01*
X135862295Y-74330560D01*
X135890967Y-74621671D01*
X135975881Y-74901594D01*
X136113774Y-75159574D01*
X136299346Y-75385694D01*
X136525466Y-75571266D01*
X136580271Y-75600560D01*
X136525466Y-75629854D01*
X136299346Y-75815426D01*
X136113774Y-76041546D01*
X135975881Y-76299526D01*
X135890967Y-76579449D01*
X135862295Y-76870560D01*
X135890967Y-77161671D01*
X135975881Y-77441594D01*
X136113774Y-77699574D01*
X136299346Y-77925694D01*
X136525466Y-78111266D01*
X136580271Y-78140560D01*
X136525466Y-78169854D01*
X136299346Y-78355426D01*
X136113774Y-78581546D01*
X135975881Y-78839526D01*
X135890967Y-79119449D01*
X135862295Y-79410560D01*
X135890967Y-79701671D01*
X135975881Y-79981594D01*
X136113774Y-80239574D01*
X136299346Y-80465694D01*
X136525466Y-80651266D01*
X136580271Y-80680560D01*
X136525466Y-80709854D01*
X136299346Y-80895426D01*
X136113774Y-81121546D01*
X135975881Y-81379526D01*
X135890967Y-81659449D01*
X135862295Y-81950560D01*
X135890967Y-82241671D01*
X135975881Y-82521594D01*
X136113774Y-82779574D01*
X136299346Y-83005694D01*
X136525466Y-83191266D01*
X136580271Y-83220560D01*
X136525466Y-83249854D01*
X136299346Y-83435426D01*
X136113774Y-83661546D01*
X135975881Y-83919526D01*
X135890967Y-84199449D01*
X135862295Y-84490560D01*
X135890967Y-84781671D01*
X135975881Y-85061594D01*
X136113774Y-85319574D01*
X136299346Y-85545694D01*
X136525466Y-85731266D01*
X136580271Y-85760560D01*
X136525466Y-85789854D01*
X136299346Y-85975426D01*
X136113774Y-86201546D01*
X135975881Y-86459526D01*
X135890967Y-86739449D01*
X135862295Y-87030560D01*
X135890967Y-87321671D01*
X135975881Y-87601594D01*
X136113774Y-87859574D01*
X136299346Y-88085694D01*
X136525466Y-88271266D01*
X136580271Y-88300560D01*
X136525466Y-88329854D01*
X136299346Y-88515426D01*
X136113774Y-88741546D01*
X135975881Y-88999526D01*
X135890967Y-89279449D01*
X135862295Y-89570560D01*
X135890967Y-89861671D01*
X135975881Y-90141594D01*
X136113774Y-90399574D01*
X136299346Y-90625694D01*
X136525466Y-90811266D01*
X136580271Y-90840560D01*
X136525466Y-90869854D01*
X136299346Y-91055426D01*
X136113774Y-91281546D01*
X135975881Y-91539526D01*
X135890967Y-91819449D01*
X135862295Y-92110560D01*
X135890967Y-92401671D01*
X135975881Y-92681594D01*
X136113774Y-92939574D01*
X136299346Y-93165694D01*
X136525466Y-93351266D01*
X136580271Y-93380560D01*
X136525466Y-93409854D01*
X136299346Y-93595426D01*
X136113774Y-93821546D01*
X135975881Y-94079526D01*
X135890967Y-94359449D01*
X135862295Y-94650560D01*
X135890967Y-94941671D01*
X135975881Y-95221594D01*
X136113774Y-95479574D01*
X136299346Y-95705694D01*
X136525466Y-95891266D01*
X136580271Y-95920560D01*
X136525466Y-95949854D01*
X136299346Y-96135426D01*
X136113774Y-96361546D01*
X135975881Y-96619526D01*
X135890967Y-96899449D01*
X135862295Y-97190560D01*
X135890967Y-97481671D01*
X135975881Y-97761594D01*
X136113774Y-98019574D01*
X136299346Y-98245694D01*
X136525466Y-98431266D01*
X136580271Y-98460560D01*
X136525466Y-98489854D01*
X136299346Y-98675426D01*
X136113774Y-98901546D01*
X135975881Y-99159526D01*
X135890967Y-99439449D01*
X135862295Y-99730560D01*
X135890967Y-100021671D01*
X135975881Y-100301594D01*
X136113774Y-100559574D01*
X136299346Y-100785694D01*
X136525466Y-100971266D01*
X136580271Y-101000560D01*
X136525466Y-101029854D01*
X136299346Y-101215426D01*
X136113774Y-101441546D01*
X135975881Y-101699526D01*
X135890967Y-101979449D01*
X135862295Y-102270560D01*
X135890967Y-102561671D01*
X135975881Y-102841594D01*
X136113774Y-103099574D01*
X136299346Y-103325694D01*
X136525466Y-103511266D01*
X136580271Y-103540560D01*
X136525466Y-103569854D01*
X136299346Y-103755426D01*
X136113774Y-103981546D01*
X135975881Y-104239526D01*
X135890967Y-104519449D01*
X135862295Y-104810560D01*
X135890967Y-105101671D01*
X135975881Y-105381594D01*
X136113774Y-105639574D01*
X136299346Y-105865694D01*
X136525466Y-106051266D01*
X136580271Y-106080560D01*
X136525466Y-106109854D01*
X136299346Y-106295426D01*
X136113774Y-106521546D01*
X135975881Y-106779526D01*
X135890967Y-107059449D01*
X135862295Y-107350560D01*
X135890967Y-107641671D01*
X135975881Y-107921594D01*
X136113774Y-108179574D01*
X136299346Y-108405694D01*
X136525466Y-108591266D01*
X136580271Y-108620560D01*
X136525466Y-108649854D01*
X136299346Y-108835426D01*
X136113774Y-109061546D01*
X135975881Y-109319526D01*
X135890967Y-109599449D01*
X135862295Y-109890560D01*
X135890967Y-110181671D01*
X135975881Y-110461594D01*
X136113774Y-110719574D01*
X136299346Y-110945694D01*
X136525466Y-111131266D01*
X136580271Y-111160560D01*
X136525466Y-111189854D01*
X136299346Y-111375426D01*
X136113774Y-111601546D01*
X135975881Y-111859526D01*
X135890967Y-112139449D01*
X135862295Y-112430560D01*
X135890967Y-112721671D01*
X135975881Y-113001594D01*
X136113774Y-113259574D01*
X136299346Y-113485694D01*
X136525466Y-113671266D01*
X136580271Y-113700560D01*
X136525466Y-113729854D01*
X136299346Y-113915426D01*
X136113774Y-114141546D01*
X135975881Y-114399526D01*
X135890967Y-114679449D01*
X135862295Y-114970560D01*
X135890967Y-115261671D01*
X135975881Y-115541594D01*
X136113774Y-115799574D01*
X136299346Y-116025694D01*
X136525466Y-116211266D01*
X136783446Y-116349159D01*
X137063369Y-116434073D01*
X137281530Y-116455560D01*
X137427430Y-116455560D01*
X137645591Y-116434073D01*
X137925514Y-116349159D01*
X138183494Y-116211266D01*
X138409614Y-116025694D01*
X138595186Y-115799574D01*
X138733079Y-115541594D01*
X138817993Y-115261671D01*
X138846665Y-114970560D01*
X138817993Y-114679449D01*
X138733079Y-114399526D01*
X138595186Y-114141546D01*
X138409614Y-113915426D01*
X138183494Y-113729854D01*
X138128689Y-113700560D01*
X138183494Y-113671266D01*
X138409614Y-113485694D01*
X138473559Y-113407776D01*
X141779480Y-113407776D01*
X141779480Y-113710144D01*
X141838469Y-114006703D01*
X141954181Y-114286055D01*
X142122168Y-114537465D01*
X142335975Y-114751272D01*
X142587385Y-114919259D01*
X142866737Y-115034971D01*
X143163296Y-115093960D01*
X143465664Y-115093960D01*
X143762223Y-115034971D01*
X144041575Y-114919259D01*
X144292985Y-114751272D01*
X144359424Y-114684833D01*
X144364978Y-114703140D01*
X144423943Y-114813454D01*
X144503295Y-114910145D01*
X144599986Y-114989497D01*
X144710300Y-115048462D01*
X144829998Y-115084772D01*
X144954480Y-115097032D01*
X146754480Y-115097032D01*
X146878962Y-115084772D01*
X146998660Y-115048462D01*
X147108974Y-114989497D01*
X147205665Y-114910145D01*
X147285017Y-114813454D01*
X147314145Y-114758960D01*
X147663021Y-114758960D01*
X147688797Y-115020666D01*
X147765133Y-115272314D01*
X147889098Y-115504235D01*
X148055925Y-115707515D01*
X148259205Y-115874342D01*
X148491126Y-115998307D01*
X148742774Y-116074643D01*
X148938901Y-116093960D01*
X149070059Y-116093960D01*
X149266186Y-116074643D01*
X149517834Y-115998307D01*
X149749755Y-115874342D01*
X149953035Y-115707515D01*
X149975427Y-115680229D01*
X153342816Y-115680229D01*
X153402277Y-115913997D01*
X153640722Y-116024894D01*
X153896220Y-116087143D01*
X154158953Y-116098350D01*
X154418824Y-116058085D01*
X154665846Y-115967895D01*
X154766683Y-115913997D01*
X154826144Y-115680229D01*
X154084480Y-114938565D01*
X153342816Y-115680229D01*
X149975427Y-115680229D01*
X150119862Y-115504235D01*
X150243827Y-115272314D01*
X150320163Y-115020666D01*
X150338603Y-114833433D01*
X152745090Y-114833433D01*
X152785355Y-115093304D01*
X152875545Y-115340326D01*
X152929443Y-115441163D01*
X153163211Y-115500624D01*
X153904875Y-114758960D01*
X154264085Y-114758960D01*
X155005749Y-115500624D01*
X155239517Y-115441163D01*
X155350414Y-115202718D01*
X155412663Y-114947220D01*
X155423870Y-114684487D01*
X155383605Y-114424616D01*
X155293415Y-114177594D01*
X155239517Y-114076757D01*
X155005749Y-114017296D01*
X154264085Y-114758960D01*
X153904875Y-114758960D01*
X153163211Y-114017296D01*
X152929443Y-114076757D01*
X152818546Y-114315202D01*
X152756297Y-114570700D01*
X152745090Y-114833433D01*
X150338603Y-114833433D01*
X150345939Y-114758960D01*
X150320163Y-114497254D01*
X150243827Y-114245606D01*
X150119862Y-114013685D01*
X149975428Y-113837691D01*
X153342816Y-113837691D01*
X154084480Y-114579355D01*
X154826144Y-113837691D01*
X154766683Y-113603923D01*
X154528238Y-113493026D01*
X154272740Y-113430777D01*
X154010007Y-113419570D01*
X153750136Y-113459835D01*
X153503114Y-113550025D01*
X153402277Y-113603923D01*
X153342816Y-113837691D01*
X149975428Y-113837691D01*
X149953035Y-113810405D01*
X149749755Y-113643578D01*
X149517834Y-113519613D01*
X149266186Y-113443277D01*
X149070059Y-113423960D01*
X148938901Y-113423960D01*
X148742774Y-113443277D01*
X148491126Y-113519613D01*
X148259205Y-113643578D01*
X148055925Y-113810405D01*
X147889098Y-114013685D01*
X147765133Y-114245606D01*
X147688797Y-114497254D01*
X147663021Y-114758960D01*
X147314145Y-114758960D01*
X147343982Y-114703140D01*
X147380292Y-114583442D01*
X147392552Y-114458960D01*
X147392552Y-112658960D01*
X147380292Y-112534478D01*
X147343982Y-112414780D01*
X147285017Y-112304466D01*
X147205665Y-112207775D01*
X147108974Y-112128423D01*
X146998660Y-112069458D01*
X146878962Y-112033148D01*
X146754480Y-112020888D01*
X144954480Y-112020888D01*
X144829998Y-112033148D01*
X144710300Y-112069458D01*
X144599986Y-112128423D01*
X144503295Y-112207775D01*
X144423943Y-112304466D01*
X144364978Y-112414780D01*
X144359424Y-112433087D01*
X144292985Y-112366648D01*
X144041575Y-112198661D01*
X143762223Y-112082949D01*
X143465664Y-112023960D01*
X143163296Y-112023960D01*
X142866737Y-112082949D01*
X142587385Y-112198661D01*
X142335975Y-112366648D01*
X142122168Y-112580455D01*
X141954181Y-112831865D01*
X141838469Y-113111217D01*
X141779480Y-113407776D01*
X138473559Y-113407776D01*
X138595186Y-113259574D01*
X138733079Y-113001594D01*
X138817993Y-112721671D01*
X138846665Y-112430560D01*
X138817993Y-112139449D01*
X138733079Y-111859526D01*
X138595186Y-111601546D01*
X138409614Y-111375426D01*
X138183494Y-111189854D01*
X138128689Y-111160560D01*
X138183494Y-111131266D01*
X138409614Y-110945694D01*
X138595186Y-110719574D01*
X138733079Y-110461594D01*
X138817993Y-110181671D01*
X138846665Y-109890560D01*
X138817993Y-109599449D01*
X138733079Y-109319526D01*
X138595186Y-109061546D01*
X138409614Y-108835426D01*
X138183494Y-108649854D01*
X138128689Y-108620560D01*
X138183494Y-108591266D01*
X138409614Y-108405694D01*
X138595186Y-108179574D01*
X138733079Y-107921594D01*
X138759392Y-107834851D01*
X148651999Y-107834851D01*
X148749323Y-108109212D01*
X148898302Y-108359315D01*
X149093211Y-108575548D01*
X149326560Y-108749601D01*
X149589381Y-108874785D01*
X149736590Y-108919436D01*
X149966480Y-108798115D01*
X149966480Y-107604960D01*
X150220480Y-107604960D01*
X150220480Y-108798115D01*
X150450370Y-108919436D01*
X150597579Y-108874785D01*
X150860400Y-108749601D01*
X151093749Y-108575548D01*
X151288658Y-108359315D01*
X151363480Y-108233705D01*
X151438302Y-108359315D01*
X151633211Y-108575548D01*
X151866560Y-108749601D01*
X152129381Y-108874785D01*
X152276590Y-108919436D01*
X152506480Y-108798115D01*
X152506480Y-107604960D01*
X152760480Y-107604960D01*
X152760480Y-108798115D01*
X152990370Y-108919436D01*
X153137579Y-108874785D01*
X153400400Y-108749601D01*
X153633749Y-108575548D01*
X153828658Y-108359315D01*
X153903480Y-108233705D01*
X153978302Y-108359315D01*
X154173211Y-108575548D01*
X154406560Y-108749601D01*
X154669381Y-108874785D01*
X154816590Y-108919436D01*
X155046480Y-108798115D01*
X155046480Y-107604960D01*
X155300480Y-107604960D01*
X155300480Y-108798115D01*
X155530370Y-108919436D01*
X155677579Y-108874785D01*
X155940400Y-108749601D01*
X156173749Y-108575548D01*
X156368658Y-108359315D01*
X156443480Y-108233705D01*
X156518302Y-108359315D01*
X156713211Y-108575548D01*
X156946560Y-108749601D01*
X157209381Y-108874785D01*
X157356590Y-108919436D01*
X157586480Y-108798115D01*
X157586480Y-107604960D01*
X155300480Y-107604960D01*
X155046480Y-107604960D01*
X152760480Y-107604960D01*
X152506480Y-107604960D01*
X150220480Y-107604960D01*
X149966480Y-107604960D01*
X148772666Y-107604960D01*
X148651999Y-107834851D01*
X138759392Y-107834851D01*
X138817993Y-107641671D01*
X138846665Y-107350560D01*
X138817993Y-107059449D01*
X138733079Y-106779526D01*
X138595186Y-106521546D01*
X138409614Y-106295426D01*
X138183494Y-106109854D01*
X138128689Y-106080560D01*
X138183494Y-106051266D01*
X138409614Y-105865694D01*
X138595186Y-105639574D01*
X138733079Y-105381594D01*
X138817993Y-105101671D01*
X138846665Y-104810560D01*
X138817993Y-104519449D01*
X138733079Y-104239526D01*
X138595186Y-103981546D01*
X138409614Y-103755426D01*
X138183494Y-103569854D01*
X138128689Y-103540560D01*
X138183494Y-103511266D01*
X138409614Y-103325694D01*
X138595186Y-103099574D01*
X138733079Y-102841594D01*
X138817993Y-102561671D01*
X138846665Y-102270560D01*
X138817993Y-101979449D01*
X138733079Y-101699526D01*
X138595186Y-101441546D01*
X138409614Y-101215426D01*
X138183494Y-101029854D01*
X138128689Y-101000560D01*
X138183494Y-100971266D01*
X138409614Y-100785694D01*
X138595186Y-100559574D01*
X138733079Y-100301594D01*
X138817993Y-100021671D01*
X138846665Y-99730560D01*
X138817993Y-99439449D01*
X138733079Y-99159526D01*
X138595186Y-98901546D01*
X138409614Y-98675426D01*
X138183494Y-98489854D01*
X138128689Y-98460560D01*
X138183494Y-98431266D01*
X138409614Y-98245694D01*
X138595186Y-98019574D01*
X138733079Y-97761594D01*
X138817993Y-97481671D01*
X138846665Y-97190560D01*
X138817993Y-96899449D01*
X138733079Y-96619526D01*
X138595186Y-96361546D01*
X138409614Y-96135426D01*
X138183494Y-95949854D01*
X138128689Y-95920560D01*
X138183494Y-95891266D01*
X138246378Y-95839659D01*
X148948089Y-106541372D01*
X148898302Y-106596605D01*
X148749323Y-106846708D01*
X148651999Y-107121069D01*
X148772666Y-107350960D01*
X149966480Y-107350960D01*
X149966480Y-107330960D01*
X150220480Y-107330960D01*
X150220480Y-107350960D01*
X152506480Y-107350960D01*
X152506480Y-107330960D01*
X152760480Y-107330960D01*
X152760480Y-107350960D01*
X155046480Y-107350960D01*
X155046480Y-107330960D01*
X155300480Y-107330960D01*
X155300480Y-107350960D01*
X157586480Y-107350960D01*
X157586480Y-107330960D01*
X157840480Y-107330960D01*
X157840480Y-107350960D01*
X157860480Y-107350960D01*
X157860480Y-107604960D01*
X157840480Y-107604960D01*
X157840480Y-108798115D01*
X158070370Y-108919436D01*
X158217579Y-108874785D01*
X158480400Y-108749601D01*
X158713749Y-108575548D01*
X158908658Y-108359315D01*
X158978279Y-108242437D01*
X159012774Y-108306974D01*
X159198346Y-108533094D01*
X159424466Y-108718666D01*
X159682446Y-108856559D01*
X159962369Y-108941473D01*
X160180530Y-108962960D01*
X160326430Y-108962960D01*
X160544591Y-108941473D01*
X160824514Y-108856559D01*
X161082494Y-108718666D01*
X161308614Y-108533094D01*
X161494186Y-108306974D01*
X161632079Y-108048994D01*
X161716993Y-107769071D01*
X161745665Y-107477960D01*
X161716993Y-107186849D01*
X161632079Y-106906926D01*
X161494186Y-106648946D01*
X161308614Y-106422826D01*
X161278793Y-106398353D01*
X161347660Y-106377462D01*
X161457974Y-106318497D01*
X161554665Y-106239145D01*
X161634017Y-106142454D01*
X161692982Y-106032140D01*
X161729292Y-105912442D01*
X161741552Y-105787960D01*
X161741552Y-104087960D01*
X161729292Y-103963478D01*
X161692982Y-103843780D01*
X161634017Y-103733466D01*
X161554665Y-103636775D01*
X161457974Y-103557423D01*
X161347660Y-103498458D01*
X161227962Y-103462148D01*
X161103480Y-103449888D01*
X159403480Y-103449888D01*
X159278998Y-103462148D01*
X159159300Y-103498458D01*
X159048986Y-103557423D01*
X158952295Y-103636775D01*
X158872943Y-103733466D01*
X158813978Y-103843780D01*
X158793087Y-103912647D01*
X158768614Y-103882826D01*
X158542494Y-103697254D01*
X158284514Y-103559361D01*
X158004591Y-103474447D01*
X157786430Y-103452960D01*
X157640530Y-103452960D01*
X157422369Y-103474447D01*
X157142446Y-103559361D01*
X156884466Y-103697254D01*
X156658346Y-103882826D01*
X156472774Y-104108946D01*
X156443480Y-104163751D01*
X156414186Y-104108946D01*
X156228614Y-103882826D01*
X156002494Y-103697254D01*
X155744514Y-103559361D01*
X155464591Y-103474447D01*
X155246430Y-103452960D01*
X155100530Y-103452960D01*
X154882369Y-103474447D01*
X154602446Y-103559361D01*
X154344466Y-103697254D01*
X154118346Y-103882826D01*
X153932774Y-104108946D01*
X153903480Y-104163751D01*
X153874186Y-104108946D01*
X153688614Y-103882826D01*
X153462494Y-103697254D01*
X153393480Y-103660365D01*
X153393480Y-101423041D01*
X165066928Y-89749594D01*
X165077967Y-89861671D01*
X165162881Y-90141594D01*
X165300774Y-90399574D01*
X165486346Y-90625694D01*
X165712466Y-90811266D01*
X165767271Y-90840560D01*
X165712466Y-90869854D01*
X165486346Y-91055426D01*
X165300774Y-91281546D01*
X165162881Y-91539526D01*
X165077967Y-91819449D01*
X165049295Y-92110560D01*
X165077967Y-92401671D01*
X165162881Y-92681594D01*
X165300774Y-92939574D01*
X165486346Y-93165694D01*
X165712466Y-93351266D01*
X165767271Y-93380560D01*
X165712466Y-93409854D01*
X165486346Y-93595426D01*
X165300774Y-93821546D01*
X165162881Y-94079526D01*
X165077967Y-94359449D01*
X165049295Y-94650560D01*
X165077967Y-94941671D01*
X165162881Y-95221594D01*
X165300774Y-95479574D01*
X165486346Y-95705694D01*
X165712466Y-95891266D01*
X165767271Y-95920560D01*
X165712466Y-95949854D01*
X165486346Y-96135426D01*
X165300774Y-96361546D01*
X165162881Y-96619526D01*
X165077967Y-96899449D01*
X165049295Y-97190560D01*
X165077967Y-97481671D01*
X165162881Y-97761594D01*
X165300774Y-98019574D01*
X165486346Y-98245694D01*
X165712466Y-98431266D01*
X165767271Y-98460560D01*
X165712466Y-98489854D01*
X165486346Y-98675426D01*
X165300774Y-98901546D01*
X165162881Y-99159526D01*
X165077967Y-99439449D01*
X165049295Y-99730560D01*
X165077967Y-100021671D01*
X165162881Y-100301594D01*
X165300774Y-100559574D01*
X165486346Y-100785694D01*
X165712466Y-100971266D01*
X165767271Y-101000560D01*
X165712466Y-101029854D01*
X165486346Y-101215426D01*
X165300774Y-101441546D01*
X165162881Y-101699526D01*
X165077967Y-101979449D01*
X165049295Y-102270560D01*
X165077967Y-102561671D01*
X165162881Y-102841594D01*
X165300774Y-103099574D01*
X165486346Y-103325694D01*
X165712466Y-103511266D01*
X165767271Y-103540560D01*
X165712466Y-103569854D01*
X165486346Y-103755426D01*
X165300774Y-103981546D01*
X165162881Y-104239526D01*
X165077967Y-104519449D01*
X165049295Y-104810560D01*
X165077967Y-105101671D01*
X165162881Y-105381594D01*
X165300774Y-105639574D01*
X165486346Y-105865694D01*
X165712466Y-106051266D01*
X165767271Y-106080560D01*
X165712466Y-106109854D01*
X165486346Y-106295426D01*
X165300774Y-106521546D01*
X165162881Y-106779526D01*
X165077967Y-107059449D01*
X165049295Y-107350560D01*
X165077967Y-107641671D01*
X165162881Y-107921594D01*
X165300774Y-108179574D01*
X165486346Y-108405694D01*
X165712466Y-108591266D01*
X165767271Y-108620560D01*
X165712466Y-108649854D01*
X165486346Y-108835426D01*
X165300774Y-109061546D01*
X165162881Y-109319526D01*
X165077967Y-109599449D01*
X165049295Y-109890560D01*
X165077967Y-110181671D01*
X165162881Y-110461594D01*
X165300774Y-110719574D01*
X165486346Y-110945694D01*
X165712466Y-111131266D01*
X165767271Y-111160560D01*
X165712466Y-111189854D01*
X165486346Y-111375426D01*
X165300774Y-111601546D01*
X165162881Y-111859526D01*
X165077967Y-112139449D01*
X165049295Y-112430560D01*
X165077967Y-112721671D01*
X165162881Y-113001594D01*
X165300774Y-113259574D01*
X165486346Y-113485694D01*
X165712466Y-113671266D01*
X165767271Y-113700560D01*
X165712466Y-113729854D01*
X165486346Y-113915426D01*
X165300774Y-114141546D01*
X165162881Y-114399526D01*
X165077967Y-114679449D01*
X165049295Y-114970560D01*
X165077967Y-115261671D01*
X165162881Y-115541594D01*
X165300774Y-115799574D01*
X165486346Y-116025694D01*
X165712466Y-116211266D01*
X165970446Y-116349159D01*
X166250369Y-116434073D01*
X166468530Y-116455560D01*
X166614430Y-116455560D01*
X166832591Y-116434073D01*
X167112514Y-116349159D01*
X167370494Y-116211266D01*
X167596614Y-116025694D01*
X167782186Y-115799574D01*
X167920079Y-115541594D01*
X168004993Y-115261671D01*
X168033665Y-114970560D01*
X168004993Y-114679449D01*
X167920079Y-114399526D01*
X167782186Y-114141546D01*
X167596614Y-113915426D01*
X167370494Y-113729854D01*
X167315689Y-113700560D01*
X167370494Y-113671266D01*
X167596614Y-113485694D01*
X167782186Y-113259574D01*
X167920079Y-113001594D01*
X168004993Y-112721671D01*
X168033665Y-112430560D01*
X168004993Y-112139449D01*
X167920079Y-111859526D01*
X167782186Y-111601546D01*
X167596614Y-111375426D01*
X167370494Y-111189854D01*
X167315689Y-111160560D01*
X167370494Y-111131266D01*
X167596614Y-110945694D01*
X167782186Y-110719574D01*
X167920079Y-110461594D01*
X168004993Y-110181671D01*
X168033665Y-109890560D01*
X168004993Y-109599449D01*
X167920079Y-109319526D01*
X167782186Y-109061546D01*
X167596614Y-108835426D01*
X167370494Y-108649854D01*
X167315689Y-108620560D01*
X167370494Y-108591266D01*
X167596614Y-108405694D01*
X167782186Y-108179574D01*
X167920079Y-107921594D01*
X168004993Y-107641671D01*
X168033665Y-107350560D01*
X168004993Y-107059449D01*
X167920079Y-106779526D01*
X167782186Y-106521546D01*
X167596614Y-106295426D01*
X167370494Y-106109854D01*
X167315689Y-106080560D01*
X167370494Y-106051266D01*
X167596614Y-105865694D01*
X167782186Y-105639574D01*
X167920079Y-105381594D01*
X168004993Y-105101671D01*
X168033665Y-104810560D01*
X168004993Y-104519449D01*
X167920079Y-104239526D01*
X167782186Y-103981546D01*
X167596614Y-103755426D01*
X167370494Y-103569854D01*
X167315689Y-103540560D01*
X167370494Y-103511266D01*
X167596614Y-103325694D01*
X167782186Y-103099574D01*
X167920079Y-102841594D01*
X168004993Y-102561671D01*
X168033665Y-102270560D01*
X168004993Y-101979449D01*
X167920079Y-101699526D01*
X167782186Y-101441546D01*
X167596614Y-101215426D01*
X167370494Y-101029854D01*
X167315689Y-101000560D01*
X167370494Y-100971266D01*
X167596614Y-100785694D01*
X167782186Y-100559574D01*
X167920079Y-100301594D01*
X168004993Y-100021671D01*
X168033665Y-99730560D01*
X168004993Y-99439449D01*
X167920079Y-99159526D01*
X167782186Y-98901546D01*
X167596614Y-98675426D01*
X167370494Y-98489854D01*
X167315689Y-98460560D01*
X167370494Y-98431266D01*
X167596614Y-98245694D01*
X167782186Y-98019574D01*
X167920079Y-97761594D01*
X168004993Y-97481671D01*
X168033665Y-97190560D01*
X168004993Y-96899449D01*
X167920079Y-96619526D01*
X167782186Y-96361546D01*
X167596614Y-96135426D01*
X167370494Y-95949854D01*
X167315689Y-95920560D01*
X167370494Y-95891266D01*
X167596614Y-95705694D01*
X167782186Y-95479574D01*
X167920079Y-95221594D01*
X168004993Y-94941671D01*
X168033665Y-94650560D01*
X168004993Y-94359449D01*
X167920079Y-94079526D01*
X167782186Y-93821546D01*
X167596614Y-93595426D01*
X167370494Y-93409854D01*
X167315689Y-93380560D01*
X167370494Y-93351266D01*
X167596614Y-93165694D01*
X167782186Y-92939574D01*
X167920079Y-92681594D01*
X168004993Y-92401671D01*
X168033665Y-92110560D01*
X168004993Y-91819449D01*
X167920079Y-91539526D01*
X167782186Y-91281546D01*
X167596614Y-91055426D01*
X167370494Y-90869854D01*
X167315689Y-90840560D01*
X167370494Y-90811266D01*
X167596614Y-90625694D01*
X167782186Y-90399574D01*
X167920079Y-90141594D01*
X168004993Y-89861671D01*
X168033665Y-89570560D01*
X168004993Y-89279449D01*
X167920079Y-88999526D01*
X167782186Y-88741546D01*
X167729227Y-88677015D01*
X168227482Y-88178759D01*
X168256481Y-88154961D01*
X168351454Y-88039236D01*
X168422026Y-87907207D01*
X168465483Y-87763946D01*
X168476480Y-87652293D01*
X168480157Y-87614960D01*
X168476480Y-87577627D01*
X168476480Y-83971293D01*
X168480157Y-83933960D01*
X168465483Y-83784974D01*
X168422026Y-83641713D01*
X168351454Y-83509684D01*
X168280279Y-83422957D01*
X168256481Y-83393959D01*
X168227484Y-83370162D01*
X167716696Y-82859374D01*
X167782186Y-82779574D01*
X167920079Y-82521594D01*
X168004993Y-82241671D01*
X168033665Y-81950560D01*
X168004993Y-81659449D01*
X167920079Y-81379526D01*
X167782186Y-81121546D01*
X167596614Y-80895426D01*
X167370494Y-80709854D01*
X167315689Y-80680560D01*
X167370494Y-80651266D01*
X167596614Y-80465694D01*
X167782186Y-80239574D01*
X167920079Y-79981594D01*
X168004993Y-79701671D01*
X168033665Y-79410560D01*
X168004993Y-79119449D01*
X167920079Y-78839526D01*
X167782186Y-78581546D01*
X167596614Y-78355426D01*
X167370494Y-78169854D01*
X167315689Y-78140560D01*
X167370494Y-78111266D01*
X167596614Y-77925694D01*
X167782186Y-77699574D01*
X167920079Y-77441594D01*
X168004993Y-77161671D01*
X168033665Y-76870560D01*
X168004993Y-76579449D01*
X167920079Y-76299526D01*
X167782186Y-76041546D01*
X167596614Y-75815426D01*
X167370494Y-75629854D01*
X167315689Y-75600560D01*
X167370494Y-75571266D01*
X167596614Y-75385694D01*
X167782186Y-75159574D01*
X167920079Y-74901594D01*
X168004993Y-74621671D01*
X168033665Y-74330560D01*
X168004993Y-74039449D01*
X167920079Y-73759526D01*
X167782186Y-73501546D01*
X167596614Y-73275426D01*
X167566793Y-73250953D01*
X167635660Y-73230062D01*
X167745974Y-73171097D01*
X167842665Y-73091745D01*
X167922017Y-72995054D01*
X167980982Y-72884740D01*
X168017292Y-72765042D01*
X168029552Y-72640560D01*
X168026480Y-72076310D01*
X167867730Y-71917560D01*
X166668480Y-71917560D01*
X166668480Y-71937560D01*
X166414480Y-71937560D01*
X166414480Y-71917560D01*
X165215230Y-71917560D01*
X165056480Y-72076310D01*
X165053408Y-72640560D01*
X165065668Y-72765042D01*
X165101978Y-72884740D01*
X165160943Y-72995054D01*
X165240295Y-73091745D01*
X165336986Y-73171097D01*
X165447300Y-73230062D01*
X165516167Y-73250953D01*
X165486346Y-73275426D01*
X165300774Y-73501546D01*
X165162881Y-73759526D01*
X165077967Y-74039449D01*
X165049295Y-74330560D01*
X165077967Y-74621671D01*
X165162881Y-74901594D01*
X165300774Y-75159574D01*
X165486346Y-75385694D01*
X165712466Y-75571266D01*
X165767271Y-75600560D01*
X165712466Y-75629854D01*
X165486346Y-75815426D01*
X165300774Y-76041546D01*
X165162881Y-76299526D01*
X165077967Y-76579449D01*
X165049295Y-76870560D01*
X165077967Y-77161671D01*
X165162881Y-77441594D01*
X165300774Y-77699574D01*
X165486346Y-77925694D01*
X165712466Y-78111266D01*
X165767271Y-78140560D01*
X165712466Y-78169854D01*
X165486346Y-78355426D01*
X165300774Y-78581546D01*
X165162881Y-78839526D01*
X165077967Y-79119449D01*
X165049295Y-79410560D01*
X165077967Y-79701671D01*
X165162881Y-79981594D01*
X165300774Y-80239574D01*
X165486346Y-80465694D01*
X165712466Y-80651266D01*
X165767271Y-80680560D01*
X165712466Y-80709854D01*
X165486346Y-80895426D01*
X165300774Y-81121546D01*
X165162881Y-81379526D01*
X165077967Y-81659449D01*
X165049295Y-81950560D01*
X165077967Y-82241671D01*
X165162881Y-82521594D01*
X165300774Y-82779574D01*
X165486346Y-83005694D01*
X165712466Y-83191266D01*
X165767271Y-83220560D01*
X165712466Y-83249854D01*
X165486346Y-83435426D01*
X165300774Y-83661546D01*
X165162881Y-83919526D01*
X165077967Y-84199449D01*
X165049295Y-84490560D01*
X165077967Y-84781671D01*
X165162881Y-85061594D01*
X165300774Y-85319574D01*
X165366264Y-85399374D01*
X149582478Y-101183161D01*
X149553480Y-101206959D01*
X149529682Y-101235957D01*
X149529681Y-101235958D01*
X149458506Y-101322684D01*
X149387934Y-101454714D01*
X149344478Y-101597975D01*
X149329804Y-101746960D01*
X149333481Y-101784292D01*
X149333480Y-103660365D01*
X149264466Y-103697254D01*
X149038346Y-103882826D01*
X148852774Y-104108946D01*
X148787461Y-104231138D01*
X139289480Y-94733159D01*
X139289480Y-91591293D01*
X139293157Y-91553960D01*
X139278483Y-91404974D01*
X139235026Y-91261713D01*
X139164454Y-91129684D01*
X139093279Y-91042957D01*
X139069481Y-91013959D01*
X139040482Y-90990161D01*
X138529696Y-90479374D01*
X138595186Y-90399574D01*
X138733079Y-90141594D01*
X138817993Y-89861671D01*
X138846665Y-89570560D01*
X138817993Y-89279449D01*
X138733079Y-88999526D01*
X138595186Y-88741546D01*
X138409614Y-88515426D01*
X138183494Y-88329854D01*
X138128689Y-88300560D01*
X138183494Y-88271266D01*
X138409614Y-88085694D01*
X138595186Y-87859574D01*
X138733079Y-87601594D01*
X138817993Y-87321671D01*
X138846665Y-87030560D01*
X138817993Y-86739449D01*
X138733079Y-86459526D01*
X138595186Y-86201546D01*
X138409614Y-85975426D01*
X138183494Y-85789854D01*
X138128689Y-85760560D01*
X138183494Y-85731266D01*
X138409614Y-85545694D01*
X138595186Y-85319574D01*
X138733079Y-85061594D01*
X138817993Y-84781671D01*
X138846665Y-84490560D01*
X138817993Y-84199449D01*
X138733079Y-83919526D01*
X138595186Y-83661546D01*
X138409614Y-83435426D01*
X138183494Y-83249854D01*
X138128689Y-83220560D01*
X138183494Y-83191266D01*
X138409614Y-83005694D01*
X138595186Y-82779574D01*
X138733079Y-82521594D01*
X138817993Y-82241671D01*
X138846665Y-81950560D01*
X138817993Y-81659449D01*
X138733079Y-81379526D01*
X138595186Y-81121546D01*
X138409614Y-80895426D01*
X138183494Y-80709854D01*
X138128689Y-80680560D01*
X138183494Y-80651266D01*
X138409614Y-80465694D01*
X138595186Y-80239574D01*
X138733079Y-79981594D01*
X138817993Y-79701671D01*
X138846665Y-79410560D01*
X138817993Y-79119449D01*
X138733079Y-78839526D01*
X138595186Y-78581546D01*
X138409614Y-78355426D01*
X138183494Y-78169854D01*
X138128689Y-78140560D01*
X138183494Y-78111266D01*
X138409614Y-77925694D01*
X138595186Y-77699574D01*
X138733079Y-77441594D01*
X138817993Y-77161671D01*
X138846665Y-76870560D01*
X138817993Y-76579449D01*
X138733079Y-76299526D01*
X138595186Y-76041546D01*
X138409614Y-75815426D01*
X138183494Y-75629854D01*
X138128689Y-75600560D01*
X138183494Y-75571266D01*
X138409614Y-75385694D01*
X138595186Y-75159574D01*
X138733079Y-74901594D01*
X138817993Y-74621671D01*
X138846665Y-74330560D01*
X138817993Y-74039449D01*
X138733079Y-73759526D01*
X138595186Y-73501546D01*
X138409614Y-73275426D01*
X138379793Y-73250953D01*
X138448660Y-73230062D01*
X138558974Y-73171097D01*
X138655665Y-73091745D01*
X138735017Y-72995054D01*
X138793982Y-72884740D01*
X138830292Y-72765042D01*
X138842552Y-72640560D01*
X138842552Y-70940560D01*
X165053408Y-70940560D01*
X165056480Y-71504810D01*
X165215230Y-71663560D01*
X166414480Y-71663560D01*
X166414480Y-70464310D01*
X166668480Y-70464310D01*
X166668480Y-71663560D01*
X167867730Y-71663560D01*
X168026480Y-71504810D01*
X168029552Y-70940560D01*
X168017292Y-70816078D01*
X167980982Y-70696380D01*
X167922017Y-70586066D01*
X167842665Y-70489375D01*
X167745974Y-70410023D01*
X167635660Y-70351058D01*
X167515962Y-70314748D01*
X167391480Y-70302488D01*
X166827230Y-70305560D01*
X166668480Y-70464310D01*
X166414480Y-70464310D01*
X166255730Y-70305560D01*
X165691480Y-70302488D01*
X165566998Y-70314748D01*
X165447300Y-70351058D01*
X165336986Y-70410023D01*
X165240295Y-70489375D01*
X165160943Y-70586066D01*
X165101978Y-70696380D01*
X165065668Y-70816078D01*
X165053408Y-70940560D01*
X138842552Y-70940560D01*
X138830292Y-70816078D01*
X138793982Y-70696380D01*
X138735017Y-70586066D01*
X138655665Y-70489375D01*
X138558974Y-70410023D01*
X138448660Y-70351058D01*
X138328962Y-70314748D01*
X138204480Y-70302488D01*
X136504480Y-70302488D01*
X136379998Y-70314748D01*
X136260300Y-70351058D01*
X136149986Y-70410023D01*
X136053295Y-70489375D01*
X135973943Y-70586066D01*
X135914978Y-70696380D01*
X135878668Y-70816078D01*
X135866408Y-70940560D01*
X135866408Y-72640560D01*
X135878668Y-72765042D01*
X135914978Y-72884740D01*
X135973943Y-72995054D01*
X136053295Y-73091745D01*
X136149986Y-73171097D01*
X136260300Y-73230062D01*
X136329167Y-73250953D01*
X136299346Y-73275426D01*
X136113774Y-73501546D01*
X135975881Y-73759526D01*
X135890967Y-74039449D01*
X135862295Y-74330560D01*
X135318731Y-74330560D01*
X135355394Y-70619099D01*
X135529829Y-70376347D01*
X136084090Y-69839232D01*
X136350363Y-69660304D01*
X137556029Y-69164167D01*
X164650105Y-69128684D01*
X164658664Y-69131280D01*
M02*
