G04 #@! TF.GenerationSoftware,KiCad,Pcbnew,(5.1.2)-2*
G04 #@! TF.CreationDate,2020-07-25T22:21:03+02:00*
G04 #@! TF.ProjectId,Adapter,41646170-7465-4722-9e6b-696361645f70,1*
G04 #@! TF.SameCoordinates,Original*
G04 #@! TF.FileFunction,Copper,L2,Bot*
G04 #@! TF.FilePolarity,Positive*
%FSLAX46Y46*%
G04 Gerber Fmt 4.6, Leading zero omitted, Abs format (unit mm)*
G04 Created by KiCad (PCBNEW (5.1.2)-2) date 2020-07-25 22:21:03*
%MOMM*%
%LPD*%
G04 APERTURE LIST*
%ADD10O,1.700000X1.700000*%
%ADD11R,1.700000X1.700000*%
%ADD12R,1.800000X1.800000*%
%ADD13C,1.800000*%
%ADD14C,1.400000*%
%ADD15O,1.400000X1.400000*%
%ADD16C,0.800000*%
%ADD17C,1.000000*%
%ADD18C,0.250000*%
%ADD19C,0.300000*%
%ADD20C,0.254000*%
G04 APERTURE END LIST*
D10*
X166541000Y-114970600D03*
X166541000Y-112430600D03*
X166541000Y-109890600D03*
X166541000Y-107350600D03*
X166541000Y-104810600D03*
X166541000Y-102270600D03*
X166541000Y-99730600D03*
X166541000Y-97190600D03*
X166541000Y-94650600D03*
X166541000Y-92110600D03*
X166541000Y-89570600D03*
X166541000Y-87030600D03*
X166541000Y-84490600D03*
X166541000Y-81950600D03*
X166541000Y-79410600D03*
X166541000Y-76870600D03*
X166541000Y-74330600D03*
D11*
X166541000Y-71790600D03*
D10*
X137354000Y-114970600D03*
X137354000Y-112430600D03*
X137354000Y-109890600D03*
X137354000Y-107350600D03*
X137354000Y-104810600D03*
X137354000Y-102270600D03*
X137354000Y-99730600D03*
X137354000Y-97190600D03*
X137354000Y-94650600D03*
X137354000Y-92110600D03*
X137354000Y-89570600D03*
X137354000Y-87030600D03*
X137354000Y-84490600D03*
X137354000Y-81950600D03*
X137354000Y-79410600D03*
X137354000Y-76870600D03*
X137354000Y-74330600D03*
D11*
X137354000Y-71790600D03*
X160253000Y-104938000D03*
D10*
X160253000Y-107478000D03*
X157713000Y-104938000D03*
X157713000Y-107478000D03*
X155173000Y-104938000D03*
X155173000Y-107478000D03*
X152633000Y-104938000D03*
X152633000Y-107478000D03*
X150093000Y-104938000D03*
X150093000Y-107478000D03*
D12*
X145854000Y-113559000D03*
D13*
X143314000Y-113559000D03*
D14*
X154084000Y-114759000D03*
D15*
X149004000Y-114759000D03*
D16*
X155844200Y-94333600D03*
D17*
X143380900Y-92360200D03*
D18*
X150093000Y-104938000D02*
X151268300Y-104938000D01*
X166541000Y-84490600D02*
X166541000Y-85665900D01*
X166541000Y-85665900D02*
X166173600Y-85665900D01*
X166173600Y-85665900D02*
X165365700Y-86473800D01*
X165365700Y-86473800D02*
X165365700Y-102195900D01*
X165365700Y-102195900D02*
X161348200Y-106213400D01*
X161348200Y-106213400D02*
X158448600Y-106213400D01*
X158448600Y-106213400D02*
X158348500Y-106113300D01*
X158348500Y-106113300D02*
X152076200Y-106113300D01*
X152076200Y-106113300D02*
X151268300Y-105305400D01*
X151268300Y-105305400D02*
X151268300Y-104938000D01*
X166541000Y-81950600D02*
X166541000Y-83125900D01*
X166541000Y-83125900D02*
X166173700Y-83125900D01*
X166173700Y-83125900D02*
X155844200Y-93455400D01*
X155844200Y-93455400D02*
X155844200Y-94333600D01*
D19*
X150093000Y-107478000D02*
X143380900Y-100765900D01*
X143380900Y-100765900D02*
X143380900Y-92360200D01*
X152633000Y-107478000D02*
X150093000Y-107478000D01*
X157713000Y-107478000D02*
X156412700Y-107478000D01*
X155173000Y-107803000D02*
X156087700Y-107803000D01*
X156087700Y-107803000D02*
X156412700Y-107478000D01*
X155173000Y-107803000D02*
X155173000Y-108128100D01*
X155173000Y-107478000D02*
X155173000Y-107803000D01*
X152633000Y-107478000D02*
X153933300Y-107478000D01*
X155173000Y-108128100D02*
X154583400Y-108128100D01*
X154583400Y-108128100D02*
X153933300Y-107478000D01*
X155173000Y-108128100D02*
X155173000Y-108778300D01*
X154084000Y-114759000D02*
X154084000Y-109867300D01*
X154084000Y-109867300D02*
X155173000Y-108778300D01*
X160253000Y-104938000D02*
X144885600Y-89570600D01*
X144885600Y-89570600D02*
X137354000Y-89570600D01*
D18*
X149004000Y-114759000D02*
X147978700Y-114759000D01*
X145854000Y-113559000D02*
X147079300Y-113559000D01*
X147978700Y-114759000D02*
X147978700Y-114458400D01*
X147978700Y-114458400D02*
X147079300Y-113559000D01*
D20*
G36*
X165895389Y-68889714D02*
G01*
X166178636Y-68914993D01*
X166923093Y-69118653D01*
X167486063Y-69387176D01*
X168281599Y-69937536D01*
X168783608Y-70455570D01*
X169032842Y-70826470D01*
X168590755Y-116924197D01*
X165261246Y-118379316D01*
X140713489Y-118448949D01*
X138845165Y-118450733D01*
X138375946Y-118408856D01*
X135346171Y-116695818D01*
X135011879Y-116198339D01*
X134944375Y-116044561D01*
X135308728Y-74330600D01*
X135861815Y-74330600D01*
X135890487Y-74621711D01*
X135975401Y-74901634D01*
X136113294Y-75159614D01*
X136298866Y-75385734D01*
X136524986Y-75571306D01*
X136579791Y-75600600D01*
X136524986Y-75629894D01*
X136298866Y-75815466D01*
X136113294Y-76041586D01*
X135975401Y-76299566D01*
X135890487Y-76579489D01*
X135861815Y-76870600D01*
X135890487Y-77161711D01*
X135975401Y-77441634D01*
X136113294Y-77699614D01*
X136298866Y-77925734D01*
X136524986Y-78111306D01*
X136579791Y-78140600D01*
X136524986Y-78169894D01*
X136298866Y-78355466D01*
X136113294Y-78581586D01*
X135975401Y-78839566D01*
X135890487Y-79119489D01*
X135861815Y-79410600D01*
X135890487Y-79701711D01*
X135975401Y-79981634D01*
X136113294Y-80239614D01*
X136298866Y-80465734D01*
X136524986Y-80651306D01*
X136579791Y-80680600D01*
X136524986Y-80709894D01*
X136298866Y-80895466D01*
X136113294Y-81121586D01*
X135975401Y-81379566D01*
X135890487Y-81659489D01*
X135861815Y-81950600D01*
X135890487Y-82241711D01*
X135975401Y-82521634D01*
X136113294Y-82779614D01*
X136298866Y-83005734D01*
X136524986Y-83191306D01*
X136579791Y-83220600D01*
X136524986Y-83249894D01*
X136298866Y-83435466D01*
X136113294Y-83661586D01*
X135975401Y-83919566D01*
X135890487Y-84199489D01*
X135861815Y-84490600D01*
X135890487Y-84781711D01*
X135975401Y-85061634D01*
X136113294Y-85319614D01*
X136298866Y-85545734D01*
X136524986Y-85731306D01*
X136579791Y-85760600D01*
X136524986Y-85789894D01*
X136298866Y-85975466D01*
X136113294Y-86201586D01*
X135975401Y-86459566D01*
X135890487Y-86739489D01*
X135861815Y-87030600D01*
X135890487Y-87321711D01*
X135975401Y-87601634D01*
X136113294Y-87859614D01*
X136298866Y-88085734D01*
X136524986Y-88271306D01*
X136579791Y-88300600D01*
X136524986Y-88329894D01*
X136298866Y-88515466D01*
X136113294Y-88741586D01*
X135975401Y-88999566D01*
X135890487Y-89279489D01*
X135861815Y-89570600D01*
X135890487Y-89861711D01*
X135975401Y-90141634D01*
X136113294Y-90399614D01*
X136298866Y-90625734D01*
X136524986Y-90811306D01*
X136579791Y-90840600D01*
X136524986Y-90869894D01*
X136298866Y-91055466D01*
X136113294Y-91281586D01*
X135975401Y-91539566D01*
X135890487Y-91819489D01*
X135861815Y-92110600D01*
X135890487Y-92401711D01*
X135975401Y-92681634D01*
X136113294Y-92939614D01*
X136298866Y-93165734D01*
X136524986Y-93351306D01*
X136579791Y-93380600D01*
X136524986Y-93409894D01*
X136298866Y-93595466D01*
X136113294Y-93821586D01*
X135975401Y-94079566D01*
X135890487Y-94359489D01*
X135861815Y-94650600D01*
X135890487Y-94941711D01*
X135975401Y-95221634D01*
X136113294Y-95479614D01*
X136298866Y-95705734D01*
X136524986Y-95891306D01*
X136579791Y-95920600D01*
X136524986Y-95949894D01*
X136298866Y-96135466D01*
X136113294Y-96361586D01*
X135975401Y-96619566D01*
X135890487Y-96899489D01*
X135861815Y-97190600D01*
X135890487Y-97481711D01*
X135975401Y-97761634D01*
X136113294Y-98019614D01*
X136298866Y-98245734D01*
X136524986Y-98431306D01*
X136579791Y-98460600D01*
X136524986Y-98489894D01*
X136298866Y-98675466D01*
X136113294Y-98901586D01*
X135975401Y-99159566D01*
X135890487Y-99439489D01*
X135861815Y-99730600D01*
X135890487Y-100021711D01*
X135975401Y-100301634D01*
X136113294Y-100559614D01*
X136298866Y-100785734D01*
X136524986Y-100971306D01*
X136579791Y-101000600D01*
X136524986Y-101029894D01*
X136298866Y-101215466D01*
X136113294Y-101441586D01*
X135975401Y-101699566D01*
X135890487Y-101979489D01*
X135861815Y-102270600D01*
X135890487Y-102561711D01*
X135975401Y-102841634D01*
X136113294Y-103099614D01*
X136298866Y-103325734D01*
X136524986Y-103511306D01*
X136579791Y-103540600D01*
X136524986Y-103569894D01*
X136298866Y-103755466D01*
X136113294Y-103981586D01*
X135975401Y-104239566D01*
X135890487Y-104519489D01*
X135861815Y-104810600D01*
X135890487Y-105101711D01*
X135975401Y-105381634D01*
X136113294Y-105639614D01*
X136298866Y-105865734D01*
X136524986Y-106051306D01*
X136579791Y-106080600D01*
X136524986Y-106109894D01*
X136298866Y-106295466D01*
X136113294Y-106521586D01*
X135975401Y-106779566D01*
X135890487Y-107059489D01*
X135861815Y-107350600D01*
X135890487Y-107641711D01*
X135975401Y-107921634D01*
X136113294Y-108179614D01*
X136298866Y-108405734D01*
X136524986Y-108591306D01*
X136579791Y-108620600D01*
X136524986Y-108649894D01*
X136298866Y-108835466D01*
X136113294Y-109061586D01*
X135975401Y-109319566D01*
X135890487Y-109599489D01*
X135861815Y-109890600D01*
X135890487Y-110181711D01*
X135975401Y-110461634D01*
X136113294Y-110719614D01*
X136298866Y-110945734D01*
X136524986Y-111131306D01*
X136579791Y-111160600D01*
X136524986Y-111189894D01*
X136298866Y-111375466D01*
X136113294Y-111601586D01*
X135975401Y-111859566D01*
X135890487Y-112139489D01*
X135861815Y-112430600D01*
X135890487Y-112721711D01*
X135975401Y-113001634D01*
X136113294Y-113259614D01*
X136298866Y-113485734D01*
X136524986Y-113671306D01*
X136579791Y-113700600D01*
X136524986Y-113729894D01*
X136298866Y-113915466D01*
X136113294Y-114141586D01*
X135975401Y-114399566D01*
X135890487Y-114679489D01*
X135861815Y-114970600D01*
X135890487Y-115261711D01*
X135975401Y-115541634D01*
X136113294Y-115799614D01*
X136298866Y-116025734D01*
X136524986Y-116211306D01*
X136782966Y-116349199D01*
X137062889Y-116434113D01*
X137281050Y-116455600D01*
X137426950Y-116455600D01*
X137645111Y-116434113D01*
X137925034Y-116349199D01*
X138183014Y-116211306D01*
X138409134Y-116025734D01*
X138594706Y-115799614D01*
X138732599Y-115541634D01*
X138817513Y-115261711D01*
X138846185Y-114970600D01*
X138817513Y-114679489D01*
X138732599Y-114399566D01*
X138594706Y-114141586D01*
X138409134Y-113915466D01*
X138183014Y-113729894D01*
X138128209Y-113700600D01*
X138183014Y-113671306D01*
X138409134Y-113485734D01*
X138473079Y-113407816D01*
X141779000Y-113407816D01*
X141779000Y-113710184D01*
X141837989Y-114006743D01*
X141953701Y-114286095D01*
X142121688Y-114537505D01*
X142335495Y-114751312D01*
X142586905Y-114919299D01*
X142866257Y-115035011D01*
X143162816Y-115094000D01*
X143465184Y-115094000D01*
X143761743Y-115035011D01*
X144041095Y-114919299D01*
X144292505Y-114751312D01*
X144358944Y-114684873D01*
X144364498Y-114703180D01*
X144423463Y-114813494D01*
X144502815Y-114910185D01*
X144599506Y-114989537D01*
X144709820Y-115048502D01*
X144829518Y-115084812D01*
X144954000Y-115097072D01*
X146754000Y-115097072D01*
X146878482Y-115084812D01*
X146998180Y-115048502D01*
X147108494Y-114989537D01*
X147205185Y-114910185D01*
X147227264Y-114883282D01*
X147229697Y-114907986D01*
X147273154Y-115051247D01*
X147343726Y-115183276D01*
X147421412Y-115277937D01*
X147438699Y-115299001D01*
X147554424Y-115393974D01*
X147686453Y-115464546D01*
X147829714Y-115508003D01*
X147897126Y-115514643D01*
X148055445Y-115707555D01*
X148258725Y-115874382D01*
X148490646Y-115998347D01*
X148742294Y-116074683D01*
X148938421Y-116094000D01*
X149069579Y-116094000D01*
X149265706Y-116074683D01*
X149517354Y-115998347D01*
X149749275Y-115874382D01*
X149952555Y-115707555D01*
X149974947Y-115680269D01*
X153342336Y-115680269D01*
X153401797Y-115914037D01*
X153640242Y-116024934D01*
X153895740Y-116087183D01*
X154158473Y-116098390D01*
X154418344Y-116058125D01*
X154665366Y-115967935D01*
X154766203Y-115914037D01*
X154825664Y-115680269D01*
X154084000Y-114938605D01*
X153342336Y-115680269D01*
X149974947Y-115680269D01*
X150119382Y-115504275D01*
X150243347Y-115272354D01*
X150319683Y-115020706D01*
X150338123Y-114833473D01*
X152744610Y-114833473D01*
X152784875Y-115093344D01*
X152875065Y-115340366D01*
X152928963Y-115441203D01*
X153162731Y-115500664D01*
X153904395Y-114759000D01*
X154263605Y-114759000D01*
X155005269Y-115500664D01*
X155239037Y-115441203D01*
X155349934Y-115202758D01*
X155412183Y-114947260D01*
X155423390Y-114684527D01*
X155383125Y-114424656D01*
X155292935Y-114177634D01*
X155239037Y-114076797D01*
X155005269Y-114017336D01*
X154263605Y-114759000D01*
X153904395Y-114759000D01*
X153162731Y-114017336D01*
X152928963Y-114076797D01*
X152818066Y-114315242D01*
X152755817Y-114570740D01*
X152744610Y-114833473D01*
X150338123Y-114833473D01*
X150345459Y-114759000D01*
X150319683Y-114497294D01*
X150243347Y-114245646D01*
X150119382Y-114013725D01*
X149974948Y-113837731D01*
X153342336Y-113837731D01*
X154084000Y-114579395D01*
X154825664Y-113837731D01*
X154766203Y-113603963D01*
X154527758Y-113493066D01*
X154272260Y-113430817D01*
X154009527Y-113419610D01*
X153749656Y-113459875D01*
X153502634Y-113550065D01*
X153401797Y-113603963D01*
X153342336Y-113837731D01*
X149974948Y-113837731D01*
X149952555Y-113810445D01*
X149749275Y-113643618D01*
X149517354Y-113519653D01*
X149265706Y-113443317D01*
X149069579Y-113424000D01*
X148938421Y-113424000D01*
X148742294Y-113443317D01*
X148490646Y-113519653D01*
X148258725Y-113643618D01*
X148247737Y-113652635D01*
X147643103Y-113048002D01*
X147619301Y-113018999D01*
X147503576Y-112924026D01*
X147392072Y-112864425D01*
X147392072Y-112659000D01*
X147379812Y-112534518D01*
X147343502Y-112414820D01*
X147284537Y-112304506D01*
X147205185Y-112207815D01*
X147108494Y-112128463D01*
X146998180Y-112069498D01*
X146878482Y-112033188D01*
X146754000Y-112020928D01*
X144954000Y-112020928D01*
X144829518Y-112033188D01*
X144709820Y-112069498D01*
X144599506Y-112128463D01*
X144502815Y-112207815D01*
X144423463Y-112304506D01*
X144364498Y-112414820D01*
X144358944Y-112433127D01*
X144292505Y-112366688D01*
X144041095Y-112198701D01*
X143761743Y-112082989D01*
X143465184Y-112024000D01*
X143162816Y-112024000D01*
X142866257Y-112082989D01*
X142586905Y-112198701D01*
X142335495Y-112366688D01*
X142121688Y-112580495D01*
X141953701Y-112831905D01*
X141837989Y-113111257D01*
X141779000Y-113407816D01*
X138473079Y-113407816D01*
X138594706Y-113259614D01*
X138732599Y-113001634D01*
X138817513Y-112721711D01*
X138846185Y-112430600D01*
X138817513Y-112139489D01*
X138732599Y-111859566D01*
X138594706Y-111601586D01*
X138409134Y-111375466D01*
X138183014Y-111189894D01*
X138128209Y-111160600D01*
X138183014Y-111131306D01*
X138409134Y-110945734D01*
X138594706Y-110719614D01*
X138732599Y-110461634D01*
X138817513Y-110181711D01*
X138846185Y-109890600D01*
X138817513Y-109599489D01*
X138732599Y-109319566D01*
X138594706Y-109061586D01*
X138409134Y-108835466D01*
X138183014Y-108649894D01*
X138128209Y-108620600D01*
X138183014Y-108591306D01*
X138409134Y-108405734D01*
X138594706Y-108179614D01*
X138732599Y-107921634D01*
X138758912Y-107834891D01*
X148651519Y-107834891D01*
X148748843Y-108109252D01*
X148897822Y-108359355D01*
X149092731Y-108575588D01*
X149326080Y-108749641D01*
X149588901Y-108874825D01*
X149736110Y-108919476D01*
X149966000Y-108798155D01*
X149966000Y-107605000D01*
X150220000Y-107605000D01*
X150220000Y-108798155D01*
X150449890Y-108919476D01*
X150597099Y-108874825D01*
X150859920Y-108749641D01*
X151093269Y-108575588D01*
X151288178Y-108359355D01*
X151363000Y-108233745D01*
X151437822Y-108359355D01*
X151632731Y-108575588D01*
X151866080Y-108749641D01*
X152128901Y-108874825D01*
X152276110Y-108919476D01*
X152506000Y-108798155D01*
X152506000Y-107605000D01*
X152760000Y-107605000D01*
X152760000Y-108798155D01*
X152989890Y-108919476D01*
X153137099Y-108874825D01*
X153399920Y-108749641D01*
X153633269Y-108575588D01*
X153828178Y-108359355D01*
X153903000Y-108233745D01*
X153977822Y-108359355D01*
X154172731Y-108575588D01*
X154406080Y-108749641D01*
X154668901Y-108874825D01*
X154816110Y-108919476D01*
X155046000Y-108798155D01*
X155046000Y-107605000D01*
X155300000Y-107605000D01*
X155300000Y-108798155D01*
X155529890Y-108919476D01*
X155677099Y-108874825D01*
X155939920Y-108749641D01*
X156173269Y-108575588D01*
X156368178Y-108359355D01*
X156443000Y-108233745D01*
X156517822Y-108359355D01*
X156712731Y-108575588D01*
X156946080Y-108749641D01*
X157208901Y-108874825D01*
X157356110Y-108919476D01*
X157586000Y-108798155D01*
X157586000Y-107605000D01*
X155300000Y-107605000D01*
X155046000Y-107605000D01*
X152760000Y-107605000D01*
X152506000Y-107605000D01*
X150220000Y-107605000D01*
X149966000Y-107605000D01*
X148772186Y-107605000D01*
X148651519Y-107834891D01*
X138758912Y-107834891D01*
X138817513Y-107641711D01*
X138846185Y-107350600D01*
X138817513Y-107059489D01*
X138732599Y-106779566D01*
X138594706Y-106521586D01*
X138409134Y-106295466D01*
X138183014Y-106109894D01*
X138128209Y-106080600D01*
X138183014Y-106051306D01*
X138409134Y-105865734D01*
X138594706Y-105639614D01*
X138732599Y-105381634D01*
X138817513Y-105101711D01*
X138846185Y-104810600D01*
X138817513Y-104519489D01*
X138732599Y-104239566D01*
X138594706Y-103981586D01*
X138409134Y-103755466D01*
X138183014Y-103569894D01*
X138128209Y-103540600D01*
X138183014Y-103511306D01*
X138409134Y-103325734D01*
X138594706Y-103099614D01*
X138732599Y-102841634D01*
X138817513Y-102561711D01*
X138846185Y-102270600D01*
X138817513Y-101979489D01*
X138732599Y-101699566D01*
X138594706Y-101441586D01*
X138409134Y-101215466D01*
X138183014Y-101029894D01*
X138128209Y-101000600D01*
X138183014Y-100971306D01*
X138409134Y-100785734D01*
X138594706Y-100559614D01*
X138732599Y-100301634D01*
X138817513Y-100021711D01*
X138846185Y-99730600D01*
X138817513Y-99439489D01*
X138732599Y-99159566D01*
X138594706Y-98901586D01*
X138409134Y-98675466D01*
X138183014Y-98489894D01*
X138128209Y-98460600D01*
X138183014Y-98431306D01*
X138409134Y-98245734D01*
X138594706Y-98019614D01*
X138732599Y-97761634D01*
X138817513Y-97481711D01*
X138846185Y-97190600D01*
X138817513Y-96899489D01*
X138732599Y-96619566D01*
X138594706Y-96361586D01*
X138409134Y-96135466D01*
X138183014Y-95949894D01*
X138128209Y-95920600D01*
X138183014Y-95891306D01*
X138409134Y-95705734D01*
X138594706Y-95479614D01*
X138732599Y-95221634D01*
X138817513Y-94941711D01*
X138846185Y-94650600D01*
X138817513Y-94359489D01*
X138732599Y-94079566D01*
X138594706Y-93821586D01*
X138409134Y-93595466D01*
X138183014Y-93409894D01*
X138128209Y-93380600D01*
X138183014Y-93351306D01*
X138409134Y-93165734D01*
X138594706Y-92939614D01*
X138732599Y-92681634D01*
X138817513Y-92401711D01*
X138846185Y-92110600D01*
X138817513Y-91819489D01*
X138732599Y-91539566D01*
X138594706Y-91281586D01*
X138409134Y-91055466D01*
X138183014Y-90869894D01*
X138128209Y-90840600D01*
X138183014Y-90811306D01*
X138409134Y-90625734D01*
X138594706Y-90399614D01*
X138618232Y-90355600D01*
X144560443Y-90355600D01*
X157657842Y-103453000D01*
X157640050Y-103453000D01*
X157421889Y-103474487D01*
X157141966Y-103559401D01*
X156883986Y-103697294D01*
X156657866Y-103882866D01*
X156472294Y-104108986D01*
X156443000Y-104163791D01*
X156413706Y-104108986D01*
X156228134Y-103882866D01*
X156002014Y-103697294D01*
X155744034Y-103559401D01*
X155464111Y-103474487D01*
X155245950Y-103453000D01*
X155100050Y-103453000D01*
X154881889Y-103474487D01*
X154601966Y-103559401D01*
X154343986Y-103697294D01*
X154117866Y-103882866D01*
X153932294Y-104108986D01*
X153903000Y-104163791D01*
X153873706Y-104108986D01*
X153688134Y-103882866D01*
X153462014Y-103697294D01*
X153204034Y-103559401D01*
X152924111Y-103474487D01*
X152705950Y-103453000D01*
X152560050Y-103453000D01*
X152341889Y-103474487D01*
X152061966Y-103559401D01*
X151803986Y-103697294D01*
X151577866Y-103882866D01*
X151392294Y-104108986D01*
X151363000Y-104163791D01*
X151333706Y-104108986D01*
X151148134Y-103882866D01*
X150922014Y-103697294D01*
X150664034Y-103559401D01*
X150384111Y-103474487D01*
X150165950Y-103453000D01*
X150020050Y-103453000D01*
X149801889Y-103474487D01*
X149521966Y-103559401D01*
X149263986Y-103697294D01*
X149037866Y-103882866D01*
X148852294Y-104108986D01*
X148714401Y-104366966D01*
X148629487Y-104646889D01*
X148600815Y-104938000D01*
X148629487Y-105229111D01*
X148714401Y-105509034D01*
X148852294Y-105767014D01*
X149037866Y-105993134D01*
X149263986Y-106178706D01*
X149321756Y-106209584D01*
X149092731Y-106380412D01*
X148897822Y-106596645D01*
X148748843Y-106846748D01*
X148651519Y-107121109D01*
X148772186Y-107351000D01*
X149966000Y-107351000D01*
X149966000Y-107331000D01*
X150220000Y-107331000D01*
X150220000Y-107351000D01*
X152506000Y-107351000D01*
X152506000Y-107331000D01*
X152760000Y-107331000D01*
X152760000Y-107351000D01*
X155046000Y-107351000D01*
X155046000Y-107331000D01*
X155300000Y-107331000D01*
X155300000Y-107351000D01*
X157586000Y-107351000D01*
X157586000Y-107331000D01*
X157840000Y-107331000D01*
X157840000Y-107351000D01*
X157860000Y-107351000D01*
X157860000Y-107605000D01*
X157840000Y-107605000D01*
X157840000Y-108798155D01*
X158069890Y-108919476D01*
X158217099Y-108874825D01*
X158479920Y-108749641D01*
X158713269Y-108575588D01*
X158908178Y-108359355D01*
X158977799Y-108242477D01*
X159012294Y-108307014D01*
X159197866Y-108533134D01*
X159423986Y-108718706D01*
X159681966Y-108856599D01*
X159961889Y-108941513D01*
X160180050Y-108963000D01*
X160325950Y-108963000D01*
X160544111Y-108941513D01*
X160824034Y-108856599D01*
X161082014Y-108718706D01*
X161308134Y-108533134D01*
X161493706Y-108307014D01*
X161631599Y-108049034D01*
X161716513Y-107769111D01*
X161745185Y-107478000D01*
X161716513Y-107186889D01*
X161635672Y-106920394D01*
X161640447Y-106918946D01*
X161772476Y-106848374D01*
X161888201Y-106753401D01*
X161912004Y-106724397D01*
X165406895Y-103229507D01*
X165485866Y-103325734D01*
X165711986Y-103511306D01*
X165766791Y-103540600D01*
X165711986Y-103569894D01*
X165485866Y-103755466D01*
X165300294Y-103981586D01*
X165162401Y-104239566D01*
X165077487Y-104519489D01*
X165048815Y-104810600D01*
X165077487Y-105101711D01*
X165162401Y-105381634D01*
X165300294Y-105639614D01*
X165485866Y-105865734D01*
X165711986Y-106051306D01*
X165766791Y-106080600D01*
X165711986Y-106109894D01*
X165485866Y-106295466D01*
X165300294Y-106521586D01*
X165162401Y-106779566D01*
X165077487Y-107059489D01*
X165048815Y-107350600D01*
X165077487Y-107641711D01*
X165162401Y-107921634D01*
X165300294Y-108179614D01*
X165485866Y-108405734D01*
X165711986Y-108591306D01*
X165766791Y-108620600D01*
X165711986Y-108649894D01*
X165485866Y-108835466D01*
X165300294Y-109061586D01*
X165162401Y-109319566D01*
X165077487Y-109599489D01*
X165048815Y-109890600D01*
X165077487Y-110181711D01*
X165162401Y-110461634D01*
X165300294Y-110719614D01*
X165485866Y-110945734D01*
X165711986Y-111131306D01*
X165766791Y-111160600D01*
X165711986Y-111189894D01*
X165485866Y-111375466D01*
X165300294Y-111601586D01*
X165162401Y-111859566D01*
X165077487Y-112139489D01*
X165048815Y-112430600D01*
X165077487Y-112721711D01*
X165162401Y-113001634D01*
X165300294Y-113259614D01*
X165485866Y-113485734D01*
X165711986Y-113671306D01*
X165766791Y-113700600D01*
X165711986Y-113729894D01*
X165485866Y-113915466D01*
X165300294Y-114141586D01*
X165162401Y-114399566D01*
X165077487Y-114679489D01*
X165048815Y-114970600D01*
X165077487Y-115261711D01*
X165162401Y-115541634D01*
X165300294Y-115799614D01*
X165485866Y-116025734D01*
X165711986Y-116211306D01*
X165969966Y-116349199D01*
X166249889Y-116434113D01*
X166468050Y-116455600D01*
X166613950Y-116455600D01*
X166832111Y-116434113D01*
X167112034Y-116349199D01*
X167370014Y-116211306D01*
X167596134Y-116025734D01*
X167781706Y-115799614D01*
X167919599Y-115541634D01*
X168004513Y-115261711D01*
X168033185Y-114970600D01*
X168004513Y-114679489D01*
X167919599Y-114399566D01*
X167781706Y-114141586D01*
X167596134Y-113915466D01*
X167370014Y-113729894D01*
X167315209Y-113700600D01*
X167370014Y-113671306D01*
X167596134Y-113485734D01*
X167781706Y-113259614D01*
X167919599Y-113001634D01*
X168004513Y-112721711D01*
X168033185Y-112430600D01*
X168004513Y-112139489D01*
X167919599Y-111859566D01*
X167781706Y-111601586D01*
X167596134Y-111375466D01*
X167370014Y-111189894D01*
X167315209Y-111160600D01*
X167370014Y-111131306D01*
X167596134Y-110945734D01*
X167781706Y-110719614D01*
X167919599Y-110461634D01*
X168004513Y-110181711D01*
X168033185Y-109890600D01*
X168004513Y-109599489D01*
X167919599Y-109319566D01*
X167781706Y-109061586D01*
X167596134Y-108835466D01*
X167370014Y-108649894D01*
X167315209Y-108620600D01*
X167370014Y-108591306D01*
X167596134Y-108405734D01*
X167781706Y-108179614D01*
X167919599Y-107921634D01*
X168004513Y-107641711D01*
X168033185Y-107350600D01*
X168004513Y-107059489D01*
X167919599Y-106779566D01*
X167781706Y-106521586D01*
X167596134Y-106295466D01*
X167370014Y-106109894D01*
X167315209Y-106080600D01*
X167370014Y-106051306D01*
X167596134Y-105865734D01*
X167781706Y-105639614D01*
X167919599Y-105381634D01*
X168004513Y-105101711D01*
X168033185Y-104810600D01*
X168004513Y-104519489D01*
X167919599Y-104239566D01*
X167781706Y-103981586D01*
X167596134Y-103755466D01*
X167370014Y-103569894D01*
X167315209Y-103540600D01*
X167370014Y-103511306D01*
X167596134Y-103325734D01*
X167781706Y-103099614D01*
X167919599Y-102841634D01*
X168004513Y-102561711D01*
X168033185Y-102270600D01*
X168004513Y-101979489D01*
X167919599Y-101699566D01*
X167781706Y-101441586D01*
X167596134Y-101215466D01*
X167370014Y-101029894D01*
X167315209Y-101000600D01*
X167370014Y-100971306D01*
X167596134Y-100785734D01*
X167781706Y-100559614D01*
X167919599Y-100301634D01*
X168004513Y-100021711D01*
X168033185Y-99730600D01*
X168004513Y-99439489D01*
X167919599Y-99159566D01*
X167781706Y-98901586D01*
X167596134Y-98675466D01*
X167370014Y-98489894D01*
X167315209Y-98460600D01*
X167370014Y-98431306D01*
X167596134Y-98245734D01*
X167781706Y-98019614D01*
X167919599Y-97761634D01*
X168004513Y-97481711D01*
X168033185Y-97190600D01*
X168004513Y-96899489D01*
X167919599Y-96619566D01*
X167781706Y-96361586D01*
X167596134Y-96135466D01*
X167370014Y-95949894D01*
X167315209Y-95920600D01*
X167370014Y-95891306D01*
X167596134Y-95705734D01*
X167781706Y-95479614D01*
X167919599Y-95221634D01*
X168004513Y-94941711D01*
X168033185Y-94650600D01*
X168004513Y-94359489D01*
X167919599Y-94079566D01*
X167781706Y-93821586D01*
X167596134Y-93595466D01*
X167370014Y-93409894D01*
X167315209Y-93380600D01*
X167370014Y-93351306D01*
X167596134Y-93165734D01*
X167781706Y-92939614D01*
X167919599Y-92681634D01*
X168004513Y-92401711D01*
X168033185Y-92110600D01*
X168004513Y-91819489D01*
X167919599Y-91539566D01*
X167781706Y-91281586D01*
X167596134Y-91055466D01*
X167370014Y-90869894D01*
X167315209Y-90840600D01*
X167370014Y-90811306D01*
X167596134Y-90625734D01*
X167781706Y-90399614D01*
X167919599Y-90141634D01*
X168004513Y-89861711D01*
X168033185Y-89570600D01*
X168004513Y-89279489D01*
X167919599Y-88999566D01*
X167781706Y-88741586D01*
X167596134Y-88515466D01*
X167370014Y-88329894D01*
X167315209Y-88300600D01*
X167370014Y-88271306D01*
X167596134Y-88085734D01*
X167781706Y-87859614D01*
X167919599Y-87601634D01*
X168004513Y-87321711D01*
X168033185Y-87030600D01*
X168004513Y-86739489D01*
X167919599Y-86459566D01*
X167781706Y-86201586D01*
X167596134Y-85975466D01*
X167370014Y-85789894D01*
X167315209Y-85760600D01*
X167370014Y-85731306D01*
X167596134Y-85545734D01*
X167781706Y-85319614D01*
X167919599Y-85061634D01*
X168004513Y-84781711D01*
X168033185Y-84490600D01*
X168004513Y-84199489D01*
X167919599Y-83919566D01*
X167781706Y-83661586D01*
X167596134Y-83435466D01*
X167370014Y-83249894D01*
X167315209Y-83220600D01*
X167370014Y-83191306D01*
X167596134Y-83005734D01*
X167781706Y-82779614D01*
X167919599Y-82521634D01*
X168004513Y-82241711D01*
X168033185Y-81950600D01*
X168004513Y-81659489D01*
X167919599Y-81379566D01*
X167781706Y-81121586D01*
X167596134Y-80895466D01*
X167370014Y-80709894D01*
X167315209Y-80680600D01*
X167370014Y-80651306D01*
X167596134Y-80465734D01*
X167781706Y-80239614D01*
X167919599Y-79981634D01*
X168004513Y-79701711D01*
X168033185Y-79410600D01*
X168004513Y-79119489D01*
X167919599Y-78839566D01*
X167781706Y-78581586D01*
X167596134Y-78355466D01*
X167370014Y-78169894D01*
X167315209Y-78140600D01*
X167370014Y-78111306D01*
X167596134Y-77925734D01*
X167781706Y-77699614D01*
X167919599Y-77441634D01*
X168004513Y-77161711D01*
X168033185Y-76870600D01*
X168004513Y-76579489D01*
X167919599Y-76299566D01*
X167781706Y-76041586D01*
X167596134Y-75815466D01*
X167370014Y-75629894D01*
X167315209Y-75600600D01*
X167370014Y-75571306D01*
X167596134Y-75385734D01*
X167781706Y-75159614D01*
X167919599Y-74901634D01*
X168004513Y-74621711D01*
X168033185Y-74330600D01*
X168004513Y-74039489D01*
X167919599Y-73759566D01*
X167781706Y-73501586D01*
X167596134Y-73275466D01*
X167566313Y-73250993D01*
X167635180Y-73230102D01*
X167745494Y-73171137D01*
X167842185Y-73091785D01*
X167921537Y-72995094D01*
X167980502Y-72884780D01*
X168016812Y-72765082D01*
X168029072Y-72640600D01*
X168026000Y-72076350D01*
X167867250Y-71917600D01*
X166668000Y-71917600D01*
X166668000Y-71937600D01*
X166414000Y-71937600D01*
X166414000Y-71917600D01*
X165214750Y-71917600D01*
X165056000Y-72076350D01*
X165052928Y-72640600D01*
X165065188Y-72765082D01*
X165101498Y-72884780D01*
X165160463Y-72995094D01*
X165239815Y-73091785D01*
X165336506Y-73171137D01*
X165446820Y-73230102D01*
X165515687Y-73250993D01*
X165485866Y-73275466D01*
X165300294Y-73501586D01*
X165162401Y-73759566D01*
X165077487Y-74039489D01*
X165048815Y-74330600D01*
X165077487Y-74621711D01*
X165162401Y-74901634D01*
X165300294Y-75159614D01*
X165485866Y-75385734D01*
X165711986Y-75571306D01*
X165766791Y-75600600D01*
X165711986Y-75629894D01*
X165485866Y-75815466D01*
X165300294Y-76041586D01*
X165162401Y-76299566D01*
X165077487Y-76579489D01*
X165048815Y-76870600D01*
X165077487Y-77161711D01*
X165162401Y-77441634D01*
X165300294Y-77699614D01*
X165485866Y-77925734D01*
X165711986Y-78111306D01*
X165766791Y-78140600D01*
X165711986Y-78169894D01*
X165485866Y-78355466D01*
X165300294Y-78581586D01*
X165162401Y-78839566D01*
X165077487Y-79119489D01*
X165048815Y-79410600D01*
X165077487Y-79701711D01*
X165162401Y-79981634D01*
X165300294Y-80239614D01*
X165485866Y-80465734D01*
X165711986Y-80651306D01*
X165766791Y-80680600D01*
X165711986Y-80709894D01*
X165485866Y-80895466D01*
X165300294Y-81121586D01*
X165162401Y-81379566D01*
X165077487Y-81659489D01*
X165048815Y-81950600D01*
X165077487Y-82241711D01*
X165162401Y-82521634D01*
X165300294Y-82779614D01*
X165365604Y-82859194D01*
X155333203Y-92891596D01*
X155304199Y-92915399D01*
X155249071Y-92982574D01*
X155209226Y-93031124D01*
X155138655Y-93163153D01*
X155138654Y-93163154D01*
X155095197Y-93306415D01*
X155084200Y-93418068D01*
X155084200Y-93418078D01*
X155080524Y-93455400D01*
X155084200Y-93492722D01*
X155084200Y-93629889D01*
X155040263Y-93673826D01*
X154926995Y-93843344D01*
X154848974Y-94031702D01*
X154809200Y-94231661D01*
X154809200Y-94435539D01*
X154848974Y-94635498D01*
X154926995Y-94823856D01*
X155040263Y-94993374D01*
X155184426Y-95137537D01*
X155353944Y-95250805D01*
X155542302Y-95328826D01*
X155742261Y-95368600D01*
X155946139Y-95368600D01*
X156146098Y-95328826D01*
X156334456Y-95250805D01*
X156503974Y-95137537D01*
X156648137Y-94993374D01*
X156761405Y-94823856D01*
X156839426Y-94635498D01*
X156879200Y-94435539D01*
X156879200Y-94231661D01*
X156839426Y-94031702D01*
X156761405Y-93843344D01*
X156669141Y-93705260D01*
X165214778Y-85159624D01*
X165300294Y-85319614D01*
X165365559Y-85399139D01*
X164854702Y-85909997D01*
X164825699Y-85933799D01*
X164770571Y-86000974D01*
X164730726Y-86049524D01*
X164662640Y-86176903D01*
X164660154Y-86181554D01*
X164616697Y-86324815D01*
X164605700Y-86436468D01*
X164605700Y-86436478D01*
X164602024Y-86473800D01*
X164605700Y-86511122D01*
X164605701Y-101881097D01*
X161741072Y-104745727D01*
X161741072Y-104088000D01*
X161728812Y-103963518D01*
X161692502Y-103843820D01*
X161633537Y-103733506D01*
X161554185Y-103636815D01*
X161457494Y-103557463D01*
X161347180Y-103498498D01*
X161227482Y-103462188D01*
X161103000Y-103449928D01*
X159875086Y-103449928D01*
X145467947Y-89042790D01*
X145443364Y-89012836D01*
X145323833Y-88914738D01*
X145187460Y-88841846D01*
X145039487Y-88796959D01*
X144924161Y-88785600D01*
X144924153Y-88785600D01*
X144885600Y-88781803D01*
X144847047Y-88785600D01*
X138618232Y-88785600D01*
X138594706Y-88741586D01*
X138409134Y-88515466D01*
X138183014Y-88329894D01*
X138128209Y-88300600D01*
X138183014Y-88271306D01*
X138409134Y-88085734D01*
X138594706Y-87859614D01*
X138732599Y-87601634D01*
X138817513Y-87321711D01*
X138846185Y-87030600D01*
X138817513Y-86739489D01*
X138732599Y-86459566D01*
X138594706Y-86201586D01*
X138409134Y-85975466D01*
X138183014Y-85789894D01*
X138128209Y-85760600D01*
X138183014Y-85731306D01*
X138409134Y-85545734D01*
X138594706Y-85319614D01*
X138732599Y-85061634D01*
X138817513Y-84781711D01*
X138846185Y-84490600D01*
X138817513Y-84199489D01*
X138732599Y-83919566D01*
X138594706Y-83661586D01*
X138409134Y-83435466D01*
X138183014Y-83249894D01*
X138128209Y-83220600D01*
X138183014Y-83191306D01*
X138409134Y-83005734D01*
X138594706Y-82779614D01*
X138732599Y-82521634D01*
X138817513Y-82241711D01*
X138846185Y-81950600D01*
X138817513Y-81659489D01*
X138732599Y-81379566D01*
X138594706Y-81121586D01*
X138409134Y-80895466D01*
X138183014Y-80709894D01*
X138128209Y-80680600D01*
X138183014Y-80651306D01*
X138409134Y-80465734D01*
X138594706Y-80239614D01*
X138732599Y-79981634D01*
X138817513Y-79701711D01*
X138846185Y-79410600D01*
X138817513Y-79119489D01*
X138732599Y-78839566D01*
X138594706Y-78581586D01*
X138409134Y-78355466D01*
X138183014Y-78169894D01*
X138128209Y-78140600D01*
X138183014Y-78111306D01*
X138409134Y-77925734D01*
X138594706Y-77699614D01*
X138732599Y-77441634D01*
X138817513Y-77161711D01*
X138846185Y-76870600D01*
X138817513Y-76579489D01*
X138732599Y-76299566D01*
X138594706Y-76041586D01*
X138409134Y-75815466D01*
X138183014Y-75629894D01*
X138128209Y-75600600D01*
X138183014Y-75571306D01*
X138409134Y-75385734D01*
X138594706Y-75159614D01*
X138732599Y-74901634D01*
X138817513Y-74621711D01*
X138846185Y-74330600D01*
X138817513Y-74039489D01*
X138732599Y-73759566D01*
X138594706Y-73501586D01*
X138409134Y-73275466D01*
X138379313Y-73250993D01*
X138448180Y-73230102D01*
X138558494Y-73171137D01*
X138655185Y-73091785D01*
X138734537Y-72995094D01*
X138793502Y-72884780D01*
X138829812Y-72765082D01*
X138842072Y-72640600D01*
X138842072Y-70940600D01*
X165052928Y-70940600D01*
X165056000Y-71504850D01*
X165214750Y-71663600D01*
X166414000Y-71663600D01*
X166414000Y-70464350D01*
X166668000Y-70464350D01*
X166668000Y-71663600D01*
X167867250Y-71663600D01*
X168026000Y-71504850D01*
X168029072Y-70940600D01*
X168016812Y-70816118D01*
X167980502Y-70696420D01*
X167921537Y-70586106D01*
X167842185Y-70489415D01*
X167745494Y-70410063D01*
X167635180Y-70351098D01*
X167515482Y-70314788D01*
X167391000Y-70302528D01*
X166826750Y-70305600D01*
X166668000Y-70464350D01*
X166414000Y-70464350D01*
X166255250Y-70305600D01*
X165691000Y-70302528D01*
X165566518Y-70314788D01*
X165446820Y-70351098D01*
X165336506Y-70410063D01*
X165239815Y-70489415D01*
X165160463Y-70586106D01*
X165101498Y-70696420D01*
X165065188Y-70816118D01*
X165052928Y-70940600D01*
X138842072Y-70940600D01*
X138829812Y-70816118D01*
X138793502Y-70696420D01*
X138734537Y-70586106D01*
X138655185Y-70489415D01*
X138558494Y-70410063D01*
X138448180Y-70351098D01*
X138328482Y-70314788D01*
X138204000Y-70302528D01*
X136504000Y-70302528D01*
X136379518Y-70314788D01*
X136259820Y-70351098D01*
X136149506Y-70410063D01*
X136052815Y-70489415D01*
X135973463Y-70586106D01*
X135914498Y-70696420D01*
X135878188Y-70816118D01*
X135865928Y-70940600D01*
X135865928Y-72640600D01*
X135878188Y-72765082D01*
X135914498Y-72884780D01*
X135973463Y-72995094D01*
X136052815Y-73091785D01*
X136149506Y-73171137D01*
X136259820Y-73230102D01*
X136328687Y-73250993D01*
X136298866Y-73275466D01*
X136113294Y-73501586D01*
X135975401Y-73759566D01*
X135890487Y-74039489D01*
X135861815Y-74330600D01*
X135308728Y-74330600D01*
X135340972Y-70639170D01*
X135529829Y-70376347D01*
X136050900Y-69871395D01*
X139034640Y-68884804D01*
X165895389Y-68889714D01*
X165895389Y-68889714D01*
G37*
X165895389Y-68889714D02*
X166178636Y-68914993D01*
X166923093Y-69118653D01*
X167486063Y-69387176D01*
X168281599Y-69937536D01*
X168783608Y-70455570D01*
X169032842Y-70826470D01*
X168590755Y-116924197D01*
X165261246Y-118379316D01*
X140713489Y-118448949D01*
X138845165Y-118450733D01*
X138375946Y-118408856D01*
X135346171Y-116695818D01*
X135011879Y-116198339D01*
X134944375Y-116044561D01*
X135308728Y-74330600D01*
X135861815Y-74330600D01*
X135890487Y-74621711D01*
X135975401Y-74901634D01*
X136113294Y-75159614D01*
X136298866Y-75385734D01*
X136524986Y-75571306D01*
X136579791Y-75600600D01*
X136524986Y-75629894D01*
X136298866Y-75815466D01*
X136113294Y-76041586D01*
X135975401Y-76299566D01*
X135890487Y-76579489D01*
X135861815Y-76870600D01*
X135890487Y-77161711D01*
X135975401Y-77441634D01*
X136113294Y-77699614D01*
X136298866Y-77925734D01*
X136524986Y-78111306D01*
X136579791Y-78140600D01*
X136524986Y-78169894D01*
X136298866Y-78355466D01*
X136113294Y-78581586D01*
X135975401Y-78839566D01*
X135890487Y-79119489D01*
X135861815Y-79410600D01*
X135890487Y-79701711D01*
X135975401Y-79981634D01*
X136113294Y-80239614D01*
X136298866Y-80465734D01*
X136524986Y-80651306D01*
X136579791Y-80680600D01*
X136524986Y-80709894D01*
X136298866Y-80895466D01*
X136113294Y-81121586D01*
X135975401Y-81379566D01*
X135890487Y-81659489D01*
X135861815Y-81950600D01*
X135890487Y-82241711D01*
X135975401Y-82521634D01*
X136113294Y-82779614D01*
X136298866Y-83005734D01*
X136524986Y-83191306D01*
X136579791Y-83220600D01*
X136524986Y-83249894D01*
X136298866Y-83435466D01*
X136113294Y-83661586D01*
X135975401Y-83919566D01*
X135890487Y-84199489D01*
X135861815Y-84490600D01*
X135890487Y-84781711D01*
X135975401Y-85061634D01*
X136113294Y-85319614D01*
X136298866Y-85545734D01*
X136524986Y-85731306D01*
X136579791Y-85760600D01*
X136524986Y-85789894D01*
X136298866Y-85975466D01*
X136113294Y-86201586D01*
X135975401Y-86459566D01*
X135890487Y-86739489D01*
X135861815Y-87030600D01*
X135890487Y-87321711D01*
X135975401Y-87601634D01*
X136113294Y-87859614D01*
X136298866Y-88085734D01*
X136524986Y-88271306D01*
X136579791Y-88300600D01*
X136524986Y-88329894D01*
X136298866Y-88515466D01*
X136113294Y-88741586D01*
X135975401Y-88999566D01*
X135890487Y-89279489D01*
X135861815Y-89570600D01*
X135890487Y-89861711D01*
X135975401Y-90141634D01*
X136113294Y-90399614D01*
X136298866Y-90625734D01*
X136524986Y-90811306D01*
X136579791Y-90840600D01*
X136524986Y-90869894D01*
X136298866Y-91055466D01*
X136113294Y-91281586D01*
X135975401Y-91539566D01*
X135890487Y-91819489D01*
X135861815Y-92110600D01*
X135890487Y-92401711D01*
X135975401Y-92681634D01*
X136113294Y-92939614D01*
X136298866Y-93165734D01*
X136524986Y-93351306D01*
X136579791Y-93380600D01*
X136524986Y-93409894D01*
X136298866Y-93595466D01*
X136113294Y-93821586D01*
X135975401Y-94079566D01*
X135890487Y-94359489D01*
X135861815Y-94650600D01*
X135890487Y-94941711D01*
X135975401Y-95221634D01*
X136113294Y-95479614D01*
X136298866Y-95705734D01*
X136524986Y-95891306D01*
X136579791Y-95920600D01*
X136524986Y-95949894D01*
X136298866Y-96135466D01*
X136113294Y-96361586D01*
X135975401Y-96619566D01*
X135890487Y-96899489D01*
X135861815Y-97190600D01*
X135890487Y-97481711D01*
X135975401Y-97761634D01*
X136113294Y-98019614D01*
X136298866Y-98245734D01*
X136524986Y-98431306D01*
X136579791Y-98460600D01*
X136524986Y-98489894D01*
X136298866Y-98675466D01*
X136113294Y-98901586D01*
X135975401Y-99159566D01*
X135890487Y-99439489D01*
X135861815Y-99730600D01*
X135890487Y-100021711D01*
X135975401Y-100301634D01*
X136113294Y-100559614D01*
X136298866Y-100785734D01*
X136524986Y-100971306D01*
X136579791Y-101000600D01*
X136524986Y-101029894D01*
X136298866Y-101215466D01*
X136113294Y-101441586D01*
X135975401Y-101699566D01*
X135890487Y-101979489D01*
X135861815Y-102270600D01*
X135890487Y-102561711D01*
X135975401Y-102841634D01*
X136113294Y-103099614D01*
X136298866Y-103325734D01*
X136524986Y-103511306D01*
X136579791Y-103540600D01*
X136524986Y-103569894D01*
X136298866Y-103755466D01*
X136113294Y-103981586D01*
X135975401Y-104239566D01*
X135890487Y-104519489D01*
X135861815Y-104810600D01*
X135890487Y-105101711D01*
X135975401Y-105381634D01*
X136113294Y-105639614D01*
X136298866Y-105865734D01*
X136524986Y-106051306D01*
X136579791Y-106080600D01*
X136524986Y-106109894D01*
X136298866Y-106295466D01*
X136113294Y-106521586D01*
X135975401Y-106779566D01*
X135890487Y-107059489D01*
X135861815Y-107350600D01*
X135890487Y-107641711D01*
X135975401Y-107921634D01*
X136113294Y-108179614D01*
X136298866Y-108405734D01*
X136524986Y-108591306D01*
X136579791Y-108620600D01*
X136524986Y-108649894D01*
X136298866Y-108835466D01*
X136113294Y-109061586D01*
X135975401Y-109319566D01*
X135890487Y-109599489D01*
X135861815Y-109890600D01*
X135890487Y-110181711D01*
X135975401Y-110461634D01*
X136113294Y-110719614D01*
X136298866Y-110945734D01*
X136524986Y-111131306D01*
X136579791Y-111160600D01*
X136524986Y-111189894D01*
X136298866Y-111375466D01*
X136113294Y-111601586D01*
X135975401Y-111859566D01*
X135890487Y-112139489D01*
X135861815Y-112430600D01*
X135890487Y-112721711D01*
X135975401Y-113001634D01*
X136113294Y-113259614D01*
X136298866Y-113485734D01*
X136524986Y-113671306D01*
X136579791Y-113700600D01*
X136524986Y-113729894D01*
X136298866Y-113915466D01*
X136113294Y-114141586D01*
X135975401Y-114399566D01*
X135890487Y-114679489D01*
X135861815Y-114970600D01*
X135890487Y-115261711D01*
X135975401Y-115541634D01*
X136113294Y-115799614D01*
X136298866Y-116025734D01*
X136524986Y-116211306D01*
X136782966Y-116349199D01*
X137062889Y-116434113D01*
X137281050Y-116455600D01*
X137426950Y-116455600D01*
X137645111Y-116434113D01*
X137925034Y-116349199D01*
X138183014Y-116211306D01*
X138409134Y-116025734D01*
X138594706Y-115799614D01*
X138732599Y-115541634D01*
X138817513Y-115261711D01*
X138846185Y-114970600D01*
X138817513Y-114679489D01*
X138732599Y-114399566D01*
X138594706Y-114141586D01*
X138409134Y-113915466D01*
X138183014Y-113729894D01*
X138128209Y-113700600D01*
X138183014Y-113671306D01*
X138409134Y-113485734D01*
X138473079Y-113407816D01*
X141779000Y-113407816D01*
X141779000Y-113710184D01*
X141837989Y-114006743D01*
X141953701Y-114286095D01*
X142121688Y-114537505D01*
X142335495Y-114751312D01*
X142586905Y-114919299D01*
X142866257Y-115035011D01*
X143162816Y-115094000D01*
X143465184Y-115094000D01*
X143761743Y-115035011D01*
X144041095Y-114919299D01*
X144292505Y-114751312D01*
X144358944Y-114684873D01*
X144364498Y-114703180D01*
X144423463Y-114813494D01*
X144502815Y-114910185D01*
X144599506Y-114989537D01*
X144709820Y-115048502D01*
X144829518Y-115084812D01*
X144954000Y-115097072D01*
X146754000Y-115097072D01*
X146878482Y-115084812D01*
X146998180Y-115048502D01*
X147108494Y-114989537D01*
X147205185Y-114910185D01*
X147227264Y-114883282D01*
X147229697Y-114907986D01*
X147273154Y-115051247D01*
X147343726Y-115183276D01*
X147421412Y-115277937D01*
X147438699Y-115299001D01*
X147554424Y-115393974D01*
X147686453Y-115464546D01*
X147829714Y-115508003D01*
X147897126Y-115514643D01*
X148055445Y-115707555D01*
X148258725Y-115874382D01*
X148490646Y-115998347D01*
X148742294Y-116074683D01*
X148938421Y-116094000D01*
X149069579Y-116094000D01*
X149265706Y-116074683D01*
X149517354Y-115998347D01*
X149749275Y-115874382D01*
X149952555Y-115707555D01*
X149974947Y-115680269D01*
X153342336Y-115680269D01*
X153401797Y-115914037D01*
X153640242Y-116024934D01*
X153895740Y-116087183D01*
X154158473Y-116098390D01*
X154418344Y-116058125D01*
X154665366Y-115967935D01*
X154766203Y-115914037D01*
X154825664Y-115680269D01*
X154084000Y-114938605D01*
X153342336Y-115680269D01*
X149974947Y-115680269D01*
X150119382Y-115504275D01*
X150243347Y-115272354D01*
X150319683Y-115020706D01*
X150338123Y-114833473D01*
X152744610Y-114833473D01*
X152784875Y-115093344D01*
X152875065Y-115340366D01*
X152928963Y-115441203D01*
X153162731Y-115500664D01*
X153904395Y-114759000D01*
X154263605Y-114759000D01*
X155005269Y-115500664D01*
X155239037Y-115441203D01*
X155349934Y-115202758D01*
X155412183Y-114947260D01*
X155423390Y-114684527D01*
X155383125Y-114424656D01*
X155292935Y-114177634D01*
X155239037Y-114076797D01*
X155005269Y-114017336D01*
X154263605Y-114759000D01*
X153904395Y-114759000D01*
X153162731Y-114017336D01*
X152928963Y-114076797D01*
X152818066Y-114315242D01*
X152755817Y-114570740D01*
X152744610Y-114833473D01*
X150338123Y-114833473D01*
X150345459Y-114759000D01*
X150319683Y-114497294D01*
X150243347Y-114245646D01*
X150119382Y-114013725D01*
X149974948Y-113837731D01*
X153342336Y-113837731D01*
X154084000Y-114579395D01*
X154825664Y-113837731D01*
X154766203Y-113603963D01*
X154527758Y-113493066D01*
X154272260Y-113430817D01*
X154009527Y-113419610D01*
X153749656Y-113459875D01*
X153502634Y-113550065D01*
X153401797Y-113603963D01*
X153342336Y-113837731D01*
X149974948Y-113837731D01*
X149952555Y-113810445D01*
X149749275Y-113643618D01*
X149517354Y-113519653D01*
X149265706Y-113443317D01*
X149069579Y-113424000D01*
X148938421Y-113424000D01*
X148742294Y-113443317D01*
X148490646Y-113519653D01*
X148258725Y-113643618D01*
X148247737Y-113652635D01*
X147643103Y-113048002D01*
X147619301Y-113018999D01*
X147503576Y-112924026D01*
X147392072Y-112864425D01*
X147392072Y-112659000D01*
X147379812Y-112534518D01*
X147343502Y-112414820D01*
X147284537Y-112304506D01*
X147205185Y-112207815D01*
X147108494Y-112128463D01*
X146998180Y-112069498D01*
X146878482Y-112033188D01*
X146754000Y-112020928D01*
X144954000Y-112020928D01*
X144829518Y-112033188D01*
X144709820Y-112069498D01*
X144599506Y-112128463D01*
X144502815Y-112207815D01*
X144423463Y-112304506D01*
X144364498Y-112414820D01*
X144358944Y-112433127D01*
X144292505Y-112366688D01*
X144041095Y-112198701D01*
X143761743Y-112082989D01*
X143465184Y-112024000D01*
X143162816Y-112024000D01*
X142866257Y-112082989D01*
X142586905Y-112198701D01*
X142335495Y-112366688D01*
X142121688Y-112580495D01*
X141953701Y-112831905D01*
X141837989Y-113111257D01*
X141779000Y-113407816D01*
X138473079Y-113407816D01*
X138594706Y-113259614D01*
X138732599Y-113001634D01*
X138817513Y-112721711D01*
X138846185Y-112430600D01*
X138817513Y-112139489D01*
X138732599Y-111859566D01*
X138594706Y-111601586D01*
X138409134Y-111375466D01*
X138183014Y-111189894D01*
X138128209Y-111160600D01*
X138183014Y-111131306D01*
X138409134Y-110945734D01*
X138594706Y-110719614D01*
X138732599Y-110461634D01*
X138817513Y-110181711D01*
X138846185Y-109890600D01*
X138817513Y-109599489D01*
X138732599Y-109319566D01*
X138594706Y-109061586D01*
X138409134Y-108835466D01*
X138183014Y-108649894D01*
X138128209Y-108620600D01*
X138183014Y-108591306D01*
X138409134Y-108405734D01*
X138594706Y-108179614D01*
X138732599Y-107921634D01*
X138758912Y-107834891D01*
X148651519Y-107834891D01*
X148748843Y-108109252D01*
X148897822Y-108359355D01*
X149092731Y-108575588D01*
X149326080Y-108749641D01*
X149588901Y-108874825D01*
X149736110Y-108919476D01*
X149966000Y-108798155D01*
X149966000Y-107605000D01*
X150220000Y-107605000D01*
X150220000Y-108798155D01*
X150449890Y-108919476D01*
X150597099Y-108874825D01*
X150859920Y-108749641D01*
X151093269Y-108575588D01*
X151288178Y-108359355D01*
X151363000Y-108233745D01*
X151437822Y-108359355D01*
X151632731Y-108575588D01*
X151866080Y-108749641D01*
X152128901Y-108874825D01*
X152276110Y-108919476D01*
X152506000Y-108798155D01*
X152506000Y-107605000D01*
X152760000Y-107605000D01*
X152760000Y-108798155D01*
X152989890Y-108919476D01*
X153137099Y-108874825D01*
X153399920Y-108749641D01*
X153633269Y-108575588D01*
X153828178Y-108359355D01*
X153903000Y-108233745D01*
X153977822Y-108359355D01*
X154172731Y-108575588D01*
X154406080Y-108749641D01*
X154668901Y-108874825D01*
X154816110Y-108919476D01*
X155046000Y-108798155D01*
X155046000Y-107605000D01*
X155300000Y-107605000D01*
X155300000Y-108798155D01*
X155529890Y-108919476D01*
X155677099Y-108874825D01*
X155939920Y-108749641D01*
X156173269Y-108575588D01*
X156368178Y-108359355D01*
X156443000Y-108233745D01*
X156517822Y-108359355D01*
X156712731Y-108575588D01*
X156946080Y-108749641D01*
X157208901Y-108874825D01*
X157356110Y-108919476D01*
X157586000Y-108798155D01*
X157586000Y-107605000D01*
X155300000Y-107605000D01*
X155046000Y-107605000D01*
X152760000Y-107605000D01*
X152506000Y-107605000D01*
X150220000Y-107605000D01*
X149966000Y-107605000D01*
X148772186Y-107605000D01*
X148651519Y-107834891D01*
X138758912Y-107834891D01*
X138817513Y-107641711D01*
X138846185Y-107350600D01*
X138817513Y-107059489D01*
X138732599Y-106779566D01*
X138594706Y-106521586D01*
X138409134Y-106295466D01*
X138183014Y-106109894D01*
X138128209Y-106080600D01*
X138183014Y-106051306D01*
X138409134Y-105865734D01*
X138594706Y-105639614D01*
X138732599Y-105381634D01*
X138817513Y-105101711D01*
X138846185Y-104810600D01*
X138817513Y-104519489D01*
X138732599Y-104239566D01*
X138594706Y-103981586D01*
X138409134Y-103755466D01*
X138183014Y-103569894D01*
X138128209Y-103540600D01*
X138183014Y-103511306D01*
X138409134Y-103325734D01*
X138594706Y-103099614D01*
X138732599Y-102841634D01*
X138817513Y-102561711D01*
X138846185Y-102270600D01*
X138817513Y-101979489D01*
X138732599Y-101699566D01*
X138594706Y-101441586D01*
X138409134Y-101215466D01*
X138183014Y-101029894D01*
X138128209Y-101000600D01*
X138183014Y-100971306D01*
X138409134Y-100785734D01*
X138594706Y-100559614D01*
X138732599Y-100301634D01*
X138817513Y-100021711D01*
X138846185Y-99730600D01*
X138817513Y-99439489D01*
X138732599Y-99159566D01*
X138594706Y-98901586D01*
X138409134Y-98675466D01*
X138183014Y-98489894D01*
X138128209Y-98460600D01*
X138183014Y-98431306D01*
X138409134Y-98245734D01*
X138594706Y-98019614D01*
X138732599Y-97761634D01*
X138817513Y-97481711D01*
X138846185Y-97190600D01*
X138817513Y-96899489D01*
X138732599Y-96619566D01*
X138594706Y-96361586D01*
X138409134Y-96135466D01*
X138183014Y-95949894D01*
X138128209Y-95920600D01*
X138183014Y-95891306D01*
X138409134Y-95705734D01*
X138594706Y-95479614D01*
X138732599Y-95221634D01*
X138817513Y-94941711D01*
X138846185Y-94650600D01*
X138817513Y-94359489D01*
X138732599Y-94079566D01*
X138594706Y-93821586D01*
X138409134Y-93595466D01*
X138183014Y-93409894D01*
X138128209Y-93380600D01*
X138183014Y-93351306D01*
X138409134Y-93165734D01*
X138594706Y-92939614D01*
X138732599Y-92681634D01*
X138817513Y-92401711D01*
X138846185Y-92110600D01*
X138817513Y-91819489D01*
X138732599Y-91539566D01*
X138594706Y-91281586D01*
X138409134Y-91055466D01*
X138183014Y-90869894D01*
X138128209Y-90840600D01*
X138183014Y-90811306D01*
X138409134Y-90625734D01*
X138594706Y-90399614D01*
X138618232Y-90355600D01*
X144560443Y-90355600D01*
X157657842Y-103453000D01*
X157640050Y-103453000D01*
X157421889Y-103474487D01*
X157141966Y-103559401D01*
X156883986Y-103697294D01*
X156657866Y-103882866D01*
X156472294Y-104108986D01*
X156443000Y-104163791D01*
X156413706Y-104108986D01*
X156228134Y-103882866D01*
X156002014Y-103697294D01*
X155744034Y-103559401D01*
X155464111Y-103474487D01*
X155245950Y-103453000D01*
X155100050Y-103453000D01*
X154881889Y-103474487D01*
X154601966Y-103559401D01*
X154343986Y-103697294D01*
X154117866Y-103882866D01*
X153932294Y-104108986D01*
X153903000Y-104163791D01*
X153873706Y-104108986D01*
X153688134Y-103882866D01*
X153462014Y-103697294D01*
X153204034Y-103559401D01*
X152924111Y-103474487D01*
X152705950Y-103453000D01*
X152560050Y-103453000D01*
X152341889Y-103474487D01*
X152061966Y-103559401D01*
X151803986Y-103697294D01*
X151577866Y-103882866D01*
X151392294Y-104108986D01*
X151363000Y-104163791D01*
X151333706Y-104108986D01*
X151148134Y-103882866D01*
X150922014Y-103697294D01*
X150664034Y-103559401D01*
X150384111Y-103474487D01*
X150165950Y-103453000D01*
X150020050Y-103453000D01*
X149801889Y-103474487D01*
X149521966Y-103559401D01*
X149263986Y-103697294D01*
X149037866Y-103882866D01*
X148852294Y-104108986D01*
X148714401Y-104366966D01*
X148629487Y-104646889D01*
X148600815Y-104938000D01*
X148629487Y-105229111D01*
X148714401Y-105509034D01*
X148852294Y-105767014D01*
X149037866Y-105993134D01*
X149263986Y-106178706D01*
X149321756Y-106209584D01*
X149092731Y-106380412D01*
X148897822Y-106596645D01*
X148748843Y-106846748D01*
X148651519Y-107121109D01*
X148772186Y-107351000D01*
X149966000Y-107351000D01*
X149966000Y-107331000D01*
X150220000Y-107331000D01*
X150220000Y-107351000D01*
X152506000Y-107351000D01*
X152506000Y-107331000D01*
X152760000Y-107331000D01*
X152760000Y-107351000D01*
X155046000Y-107351000D01*
X155046000Y-107331000D01*
X155300000Y-107331000D01*
X155300000Y-107351000D01*
X157586000Y-107351000D01*
X157586000Y-107331000D01*
X157840000Y-107331000D01*
X157840000Y-107351000D01*
X157860000Y-107351000D01*
X157860000Y-107605000D01*
X157840000Y-107605000D01*
X157840000Y-108798155D01*
X158069890Y-108919476D01*
X158217099Y-108874825D01*
X158479920Y-108749641D01*
X158713269Y-108575588D01*
X158908178Y-108359355D01*
X158977799Y-108242477D01*
X159012294Y-108307014D01*
X159197866Y-108533134D01*
X159423986Y-108718706D01*
X159681966Y-108856599D01*
X159961889Y-108941513D01*
X160180050Y-108963000D01*
X160325950Y-108963000D01*
X160544111Y-108941513D01*
X160824034Y-108856599D01*
X161082014Y-108718706D01*
X161308134Y-108533134D01*
X161493706Y-108307014D01*
X161631599Y-108049034D01*
X161716513Y-107769111D01*
X161745185Y-107478000D01*
X161716513Y-107186889D01*
X161635672Y-106920394D01*
X161640447Y-106918946D01*
X161772476Y-106848374D01*
X161888201Y-106753401D01*
X161912004Y-106724397D01*
X165406895Y-103229507D01*
X165485866Y-103325734D01*
X165711986Y-103511306D01*
X165766791Y-103540600D01*
X165711986Y-103569894D01*
X165485866Y-103755466D01*
X165300294Y-103981586D01*
X165162401Y-104239566D01*
X165077487Y-104519489D01*
X165048815Y-104810600D01*
X165077487Y-105101711D01*
X165162401Y-105381634D01*
X165300294Y-105639614D01*
X165485866Y-105865734D01*
X165711986Y-106051306D01*
X165766791Y-106080600D01*
X165711986Y-106109894D01*
X165485866Y-106295466D01*
X165300294Y-106521586D01*
X165162401Y-106779566D01*
X165077487Y-107059489D01*
X165048815Y-107350600D01*
X165077487Y-107641711D01*
X165162401Y-107921634D01*
X165300294Y-108179614D01*
X165485866Y-108405734D01*
X165711986Y-108591306D01*
X165766791Y-108620600D01*
X165711986Y-108649894D01*
X165485866Y-108835466D01*
X165300294Y-109061586D01*
X165162401Y-109319566D01*
X165077487Y-109599489D01*
X165048815Y-109890600D01*
X165077487Y-110181711D01*
X165162401Y-110461634D01*
X165300294Y-110719614D01*
X165485866Y-110945734D01*
X165711986Y-111131306D01*
X165766791Y-111160600D01*
X165711986Y-111189894D01*
X165485866Y-111375466D01*
X165300294Y-111601586D01*
X165162401Y-111859566D01*
X165077487Y-112139489D01*
X165048815Y-112430600D01*
X165077487Y-112721711D01*
X165162401Y-113001634D01*
X165300294Y-113259614D01*
X165485866Y-113485734D01*
X165711986Y-113671306D01*
X165766791Y-113700600D01*
X165711986Y-113729894D01*
X165485866Y-113915466D01*
X165300294Y-114141586D01*
X165162401Y-114399566D01*
X165077487Y-114679489D01*
X165048815Y-114970600D01*
X165077487Y-115261711D01*
X165162401Y-115541634D01*
X165300294Y-115799614D01*
X165485866Y-116025734D01*
X165711986Y-116211306D01*
X165969966Y-116349199D01*
X166249889Y-116434113D01*
X166468050Y-116455600D01*
X166613950Y-116455600D01*
X166832111Y-116434113D01*
X167112034Y-116349199D01*
X167370014Y-116211306D01*
X167596134Y-116025734D01*
X167781706Y-115799614D01*
X167919599Y-115541634D01*
X168004513Y-115261711D01*
X168033185Y-114970600D01*
X168004513Y-114679489D01*
X167919599Y-114399566D01*
X167781706Y-114141586D01*
X167596134Y-113915466D01*
X167370014Y-113729894D01*
X167315209Y-113700600D01*
X167370014Y-113671306D01*
X167596134Y-113485734D01*
X167781706Y-113259614D01*
X167919599Y-113001634D01*
X168004513Y-112721711D01*
X168033185Y-112430600D01*
X168004513Y-112139489D01*
X167919599Y-111859566D01*
X167781706Y-111601586D01*
X167596134Y-111375466D01*
X167370014Y-111189894D01*
X167315209Y-111160600D01*
X167370014Y-111131306D01*
X167596134Y-110945734D01*
X167781706Y-110719614D01*
X167919599Y-110461634D01*
X168004513Y-110181711D01*
X168033185Y-109890600D01*
X168004513Y-109599489D01*
X167919599Y-109319566D01*
X167781706Y-109061586D01*
X167596134Y-108835466D01*
X167370014Y-108649894D01*
X167315209Y-108620600D01*
X167370014Y-108591306D01*
X167596134Y-108405734D01*
X167781706Y-108179614D01*
X167919599Y-107921634D01*
X168004513Y-107641711D01*
X168033185Y-107350600D01*
X168004513Y-107059489D01*
X167919599Y-106779566D01*
X167781706Y-106521586D01*
X167596134Y-106295466D01*
X167370014Y-106109894D01*
X167315209Y-106080600D01*
X167370014Y-106051306D01*
X167596134Y-105865734D01*
X167781706Y-105639614D01*
X167919599Y-105381634D01*
X168004513Y-105101711D01*
X168033185Y-104810600D01*
X168004513Y-104519489D01*
X167919599Y-104239566D01*
X167781706Y-103981586D01*
X167596134Y-103755466D01*
X167370014Y-103569894D01*
X167315209Y-103540600D01*
X167370014Y-103511306D01*
X167596134Y-103325734D01*
X167781706Y-103099614D01*
X167919599Y-102841634D01*
X168004513Y-102561711D01*
X168033185Y-102270600D01*
X168004513Y-101979489D01*
X167919599Y-101699566D01*
X167781706Y-101441586D01*
X167596134Y-101215466D01*
X167370014Y-101029894D01*
X167315209Y-101000600D01*
X167370014Y-100971306D01*
X167596134Y-100785734D01*
X167781706Y-100559614D01*
X167919599Y-100301634D01*
X168004513Y-100021711D01*
X168033185Y-99730600D01*
X168004513Y-99439489D01*
X167919599Y-99159566D01*
X167781706Y-98901586D01*
X167596134Y-98675466D01*
X167370014Y-98489894D01*
X167315209Y-98460600D01*
X167370014Y-98431306D01*
X167596134Y-98245734D01*
X167781706Y-98019614D01*
X167919599Y-97761634D01*
X168004513Y-97481711D01*
X168033185Y-97190600D01*
X168004513Y-96899489D01*
X167919599Y-96619566D01*
X167781706Y-96361586D01*
X167596134Y-96135466D01*
X167370014Y-95949894D01*
X167315209Y-95920600D01*
X167370014Y-95891306D01*
X167596134Y-95705734D01*
X167781706Y-95479614D01*
X167919599Y-95221634D01*
X168004513Y-94941711D01*
X168033185Y-94650600D01*
X168004513Y-94359489D01*
X167919599Y-94079566D01*
X167781706Y-93821586D01*
X167596134Y-93595466D01*
X167370014Y-93409894D01*
X167315209Y-93380600D01*
X167370014Y-93351306D01*
X167596134Y-93165734D01*
X167781706Y-92939614D01*
X167919599Y-92681634D01*
X168004513Y-92401711D01*
X168033185Y-92110600D01*
X168004513Y-91819489D01*
X167919599Y-91539566D01*
X167781706Y-91281586D01*
X167596134Y-91055466D01*
X167370014Y-90869894D01*
X167315209Y-90840600D01*
X167370014Y-90811306D01*
X167596134Y-90625734D01*
X167781706Y-90399614D01*
X167919599Y-90141634D01*
X168004513Y-89861711D01*
X168033185Y-89570600D01*
X168004513Y-89279489D01*
X167919599Y-88999566D01*
X167781706Y-88741586D01*
X167596134Y-88515466D01*
X167370014Y-88329894D01*
X167315209Y-88300600D01*
X167370014Y-88271306D01*
X167596134Y-88085734D01*
X167781706Y-87859614D01*
X167919599Y-87601634D01*
X168004513Y-87321711D01*
X168033185Y-87030600D01*
X168004513Y-86739489D01*
X167919599Y-86459566D01*
X167781706Y-86201586D01*
X167596134Y-85975466D01*
X167370014Y-85789894D01*
X167315209Y-85760600D01*
X167370014Y-85731306D01*
X167596134Y-85545734D01*
X167781706Y-85319614D01*
X167919599Y-85061634D01*
X168004513Y-84781711D01*
X168033185Y-84490600D01*
X168004513Y-84199489D01*
X167919599Y-83919566D01*
X167781706Y-83661586D01*
X167596134Y-83435466D01*
X167370014Y-83249894D01*
X167315209Y-83220600D01*
X167370014Y-83191306D01*
X167596134Y-83005734D01*
X167781706Y-82779614D01*
X167919599Y-82521634D01*
X168004513Y-82241711D01*
X168033185Y-81950600D01*
X168004513Y-81659489D01*
X167919599Y-81379566D01*
X167781706Y-81121586D01*
X167596134Y-80895466D01*
X167370014Y-80709894D01*
X167315209Y-80680600D01*
X167370014Y-80651306D01*
X167596134Y-80465734D01*
X167781706Y-80239614D01*
X167919599Y-79981634D01*
X168004513Y-79701711D01*
X168033185Y-79410600D01*
X168004513Y-79119489D01*
X167919599Y-78839566D01*
X167781706Y-78581586D01*
X167596134Y-78355466D01*
X167370014Y-78169894D01*
X167315209Y-78140600D01*
X167370014Y-78111306D01*
X167596134Y-77925734D01*
X167781706Y-77699614D01*
X167919599Y-77441634D01*
X168004513Y-77161711D01*
X168033185Y-76870600D01*
X168004513Y-76579489D01*
X167919599Y-76299566D01*
X167781706Y-76041586D01*
X167596134Y-75815466D01*
X167370014Y-75629894D01*
X167315209Y-75600600D01*
X167370014Y-75571306D01*
X167596134Y-75385734D01*
X167781706Y-75159614D01*
X167919599Y-74901634D01*
X168004513Y-74621711D01*
X168033185Y-74330600D01*
X168004513Y-74039489D01*
X167919599Y-73759566D01*
X167781706Y-73501586D01*
X167596134Y-73275466D01*
X167566313Y-73250993D01*
X167635180Y-73230102D01*
X167745494Y-73171137D01*
X167842185Y-73091785D01*
X167921537Y-72995094D01*
X167980502Y-72884780D01*
X168016812Y-72765082D01*
X168029072Y-72640600D01*
X168026000Y-72076350D01*
X167867250Y-71917600D01*
X166668000Y-71917600D01*
X166668000Y-71937600D01*
X166414000Y-71937600D01*
X166414000Y-71917600D01*
X165214750Y-71917600D01*
X165056000Y-72076350D01*
X165052928Y-72640600D01*
X165065188Y-72765082D01*
X165101498Y-72884780D01*
X165160463Y-72995094D01*
X165239815Y-73091785D01*
X165336506Y-73171137D01*
X165446820Y-73230102D01*
X165515687Y-73250993D01*
X165485866Y-73275466D01*
X165300294Y-73501586D01*
X165162401Y-73759566D01*
X165077487Y-74039489D01*
X165048815Y-74330600D01*
X165077487Y-74621711D01*
X165162401Y-74901634D01*
X165300294Y-75159614D01*
X165485866Y-75385734D01*
X165711986Y-75571306D01*
X165766791Y-75600600D01*
X165711986Y-75629894D01*
X165485866Y-75815466D01*
X165300294Y-76041586D01*
X165162401Y-76299566D01*
X165077487Y-76579489D01*
X165048815Y-76870600D01*
X165077487Y-77161711D01*
X165162401Y-77441634D01*
X165300294Y-77699614D01*
X165485866Y-77925734D01*
X165711986Y-78111306D01*
X165766791Y-78140600D01*
X165711986Y-78169894D01*
X165485866Y-78355466D01*
X165300294Y-78581586D01*
X165162401Y-78839566D01*
X165077487Y-79119489D01*
X165048815Y-79410600D01*
X165077487Y-79701711D01*
X165162401Y-79981634D01*
X165300294Y-80239614D01*
X165485866Y-80465734D01*
X165711986Y-80651306D01*
X165766791Y-80680600D01*
X165711986Y-80709894D01*
X165485866Y-80895466D01*
X165300294Y-81121586D01*
X165162401Y-81379566D01*
X165077487Y-81659489D01*
X165048815Y-81950600D01*
X165077487Y-82241711D01*
X165162401Y-82521634D01*
X165300294Y-82779614D01*
X165365604Y-82859194D01*
X155333203Y-92891596D01*
X155304199Y-92915399D01*
X155249071Y-92982574D01*
X155209226Y-93031124D01*
X155138655Y-93163153D01*
X155138654Y-93163154D01*
X155095197Y-93306415D01*
X155084200Y-93418068D01*
X155084200Y-93418078D01*
X155080524Y-93455400D01*
X155084200Y-93492722D01*
X155084200Y-93629889D01*
X155040263Y-93673826D01*
X154926995Y-93843344D01*
X154848974Y-94031702D01*
X154809200Y-94231661D01*
X154809200Y-94435539D01*
X154848974Y-94635498D01*
X154926995Y-94823856D01*
X155040263Y-94993374D01*
X155184426Y-95137537D01*
X155353944Y-95250805D01*
X155542302Y-95328826D01*
X155742261Y-95368600D01*
X155946139Y-95368600D01*
X156146098Y-95328826D01*
X156334456Y-95250805D01*
X156503974Y-95137537D01*
X156648137Y-94993374D01*
X156761405Y-94823856D01*
X156839426Y-94635498D01*
X156879200Y-94435539D01*
X156879200Y-94231661D01*
X156839426Y-94031702D01*
X156761405Y-93843344D01*
X156669141Y-93705260D01*
X165214778Y-85159624D01*
X165300294Y-85319614D01*
X165365559Y-85399139D01*
X164854702Y-85909997D01*
X164825699Y-85933799D01*
X164770571Y-86000974D01*
X164730726Y-86049524D01*
X164662640Y-86176903D01*
X164660154Y-86181554D01*
X164616697Y-86324815D01*
X164605700Y-86436468D01*
X164605700Y-86436478D01*
X164602024Y-86473800D01*
X164605700Y-86511122D01*
X164605701Y-101881097D01*
X161741072Y-104745727D01*
X161741072Y-104088000D01*
X161728812Y-103963518D01*
X161692502Y-103843820D01*
X161633537Y-103733506D01*
X161554185Y-103636815D01*
X161457494Y-103557463D01*
X161347180Y-103498498D01*
X161227482Y-103462188D01*
X161103000Y-103449928D01*
X159875086Y-103449928D01*
X145467947Y-89042790D01*
X145443364Y-89012836D01*
X145323833Y-88914738D01*
X145187460Y-88841846D01*
X145039487Y-88796959D01*
X144924161Y-88785600D01*
X144924153Y-88785600D01*
X144885600Y-88781803D01*
X144847047Y-88785600D01*
X138618232Y-88785600D01*
X138594706Y-88741586D01*
X138409134Y-88515466D01*
X138183014Y-88329894D01*
X138128209Y-88300600D01*
X138183014Y-88271306D01*
X138409134Y-88085734D01*
X138594706Y-87859614D01*
X138732599Y-87601634D01*
X138817513Y-87321711D01*
X138846185Y-87030600D01*
X138817513Y-86739489D01*
X138732599Y-86459566D01*
X138594706Y-86201586D01*
X138409134Y-85975466D01*
X138183014Y-85789894D01*
X138128209Y-85760600D01*
X138183014Y-85731306D01*
X138409134Y-85545734D01*
X138594706Y-85319614D01*
X138732599Y-85061634D01*
X138817513Y-84781711D01*
X138846185Y-84490600D01*
X138817513Y-84199489D01*
X138732599Y-83919566D01*
X138594706Y-83661586D01*
X138409134Y-83435466D01*
X138183014Y-83249894D01*
X138128209Y-83220600D01*
X138183014Y-83191306D01*
X138409134Y-83005734D01*
X138594706Y-82779614D01*
X138732599Y-82521634D01*
X138817513Y-82241711D01*
X138846185Y-81950600D01*
X138817513Y-81659489D01*
X138732599Y-81379566D01*
X138594706Y-81121586D01*
X138409134Y-80895466D01*
X138183014Y-80709894D01*
X138128209Y-80680600D01*
X138183014Y-80651306D01*
X138409134Y-80465734D01*
X138594706Y-80239614D01*
X138732599Y-79981634D01*
X138817513Y-79701711D01*
X138846185Y-79410600D01*
X138817513Y-79119489D01*
X138732599Y-78839566D01*
X138594706Y-78581586D01*
X138409134Y-78355466D01*
X138183014Y-78169894D01*
X138128209Y-78140600D01*
X138183014Y-78111306D01*
X138409134Y-77925734D01*
X138594706Y-77699614D01*
X138732599Y-77441634D01*
X138817513Y-77161711D01*
X138846185Y-76870600D01*
X138817513Y-76579489D01*
X138732599Y-76299566D01*
X138594706Y-76041586D01*
X138409134Y-75815466D01*
X138183014Y-75629894D01*
X138128209Y-75600600D01*
X138183014Y-75571306D01*
X138409134Y-75385734D01*
X138594706Y-75159614D01*
X138732599Y-74901634D01*
X138817513Y-74621711D01*
X138846185Y-74330600D01*
X138817513Y-74039489D01*
X138732599Y-73759566D01*
X138594706Y-73501586D01*
X138409134Y-73275466D01*
X138379313Y-73250993D01*
X138448180Y-73230102D01*
X138558494Y-73171137D01*
X138655185Y-73091785D01*
X138734537Y-72995094D01*
X138793502Y-72884780D01*
X138829812Y-72765082D01*
X138842072Y-72640600D01*
X138842072Y-70940600D01*
X165052928Y-70940600D01*
X165056000Y-71504850D01*
X165214750Y-71663600D01*
X166414000Y-71663600D01*
X166414000Y-70464350D01*
X166668000Y-70464350D01*
X166668000Y-71663600D01*
X167867250Y-71663600D01*
X168026000Y-71504850D01*
X168029072Y-70940600D01*
X168016812Y-70816118D01*
X167980502Y-70696420D01*
X167921537Y-70586106D01*
X167842185Y-70489415D01*
X167745494Y-70410063D01*
X167635180Y-70351098D01*
X167515482Y-70314788D01*
X167391000Y-70302528D01*
X166826750Y-70305600D01*
X166668000Y-70464350D01*
X166414000Y-70464350D01*
X166255250Y-70305600D01*
X165691000Y-70302528D01*
X165566518Y-70314788D01*
X165446820Y-70351098D01*
X165336506Y-70410063D01*
X165239815Y-70489415D01*
X165160463Y-70586106D01*
X165101498Y-70696420D01*
X165065188Y-70816118D01*
X165052928Y-70940600D01*
X138842072Y-70940600D01*
X138829812Y-70816118D01*
X138793502Y-70696420D01*
X138734537Y-70586106D01*
X138655185Y-70489415D01*
X138558494Y-70410063D01*
X138448180Y-70351098D01*
X138328482Y-70314788D01*
X138204000Y-70302528D01*
X136504000Y-70302528D01*
X136379518Y-70314788D01*
X136259820Y-70351098D01*
X136149506Y-70410063D01*
X136052815Y-70489415D01*
X135973463Y-70586106D01*
X135914498Y-70696420D01*
X135878188Y-70816118D01*
X135865928Y-70940600D01*
X135865928Y-72640600D01*
X135878188Y-72765082D01*
X135914498Y-72884780D01*
X135973463Y-72995094D01*
X136052815Y-73091785D01*
X136149506Y-73171137D01*
X136259820Y-73230102D01*
X136328687Y-73250993D01*
X136298866Y-73275466D01*
X136113294Y-73501586D01*
X135975401Y-73759566D01*
X135890487Y-74039489D01*
X135861815Y-74330600D01*
X135308728Y-74330600D01*
X135340972Y-70639170D01*
X135529829Y-70376347D01*
X136050900Y-69871395D01*
X139034640Y-68884804D01*
X165895389Y-68889714D01*
M02*
