G04 #@! TF.GenerationSoftware,KiCad,Pcbnew,(5.1.5)-3*
G04 #@! TF.CreationDate,2020-01-29T14:55:58+01:00*
G04 #@! TF.ProjectId,Adapter,41646170-7465-4722-9e6b-696361645f70,1*
G04 #@! TF.SameCoordinates,Original*
G04 #@! TF.FileFunction,Legend,Top*
G04 #@! TF.FilePolarity,Positive*
%FSLAX46Y46*%
G04 Gerber Fmt 4.6, Leading zero omitted, Abs format (unit mm)*
G04 Created by KiCad (PCBNEW (5.1.5)-3) date 2020-01-29 14:55:58*
%MOMM*%
%LPD*%
G04 APERTURE LIST*
%ADD10C,0.150000*%
%ADD11C,0.120000*%
%ADD12C,0.100000*%
G04 APERTURE END LIST*
D10*
X142024523Y-70877180D02*
X142643571Y-70877180D01*
X142310238Y-71258133D01*
X142453095Y-71258133D01*
X142548333Y-71305752D01*
X142595952Y-71353371D01*
X142643571Y-71448609D01*
X142643571Y-71686704D01*
X142595952Y-71781942D01*
X142548333Y-71829561D01*
X142453095Y-71877180D01*
X142167380Y-71877180D01*
X142072142Y-71829561D01*
X142024523Y-71781942D01*
X143262619Y-70877180D02*
X143357857Y-70877180D01*
X143453095Y-70924800D01*
X143500714Y-70972419D01*
X143548333Y-71067657D01*
X143595952Y-71258133D01*
X143595952Y-71496228D01*
X143548333Y-71686704D01*
X143500714Y-71781942D01*
X143453095Y-71829561D01*
X143357857Y-71877180D01*
X143262619Y-71877180D01*
X143167380Y-71829561D01*
X143119761Y-71781942D01*
X143072142Y-71686704D01*
X143024523Y-71496228D01*
X143024523Y-71258133D01*
X143072142Y-71067657D01*
X143119761Y-70972419D01*
X143167380Y-70924800D01*
X143262619Y-70877180D01*
X144024523Y-71781942D02*
X144072142Y-71829561D01*
X144024523Y-71877180D01*
X143976904Y-71829561D01*
X144024523Y-71781942D01*
X144024523Y-71877180D01*
X144453095Y-70972419D02*
X144500714Y-70924800D01*
X144595952Y-70877180D01*
X144834047Y-70877180D01*
X144929285Y-70924800D01*
X144976904Y-70972419D01*
X145024523Y-71067657D01*
X145024523Y-71162895D01*
X144976904Y-71305752D01*
X144405476Y-71877180D01*
X145024523Y-71877180D01*
X145643571Y-70877180D02*
X145738809Y-70877180D01*
X145834047Y-70924800D01*
X145881666Y-70972419D01*
X145929285Y-71067657D01*
X145976904Y-71258133D01*
X145976904Y-71496228D01*
X145929285Y-71686704D01*
X145881666Y-71781942D01*
X145834047Y-71829561D01*
X145738809Y-71877180D01*
X145643571Y-71877180D01*
X145548333Y-71829561D01*
X145500714Y-71781942D01*
X145453095Y-71686704D01*
X145405476Y-71496228D01*
X145405476Y-71258133D01*
X145453095Y-71067657D01*
X145500714Y-70972419D01*
X145548333Y-70924800D01*
X145643571Y-70877180D01*
X146595952Y-70877180D02*
X146691190Y-70877180D01*
X146786428Y-70924800D01*
X146834047Y-70972419D01*
X146881666Y-71067657D01*
X146929285Y-71258133D01*
X146929285Y-71496228D01*
X146881666Y-71686704D01*
X146834047Y-71781942D01*
X146786428Y-71829561D01*
X146691190Y-71877180D01*
X146595952Y-71877180D01*
X146500714Y-71829561D01*
X146453095Y-71781942D01*
X146405476Y-71686704D01*
X146357857Y-71496228D01*
X146357857Y-71258133D01*
X146405476Y-71067657D01*
X146453095Y-70972419D01*
X146500714Y-70924800D01*
X146595952Y-70877180D01*
X148119761Y-71877180D02*
X148119761Y-71210514D01*
X148119761Y-71305752D02*
X148167380Y-71258133D01*
X148262619Y-71210514D01*
X148405476Y-71210514D01*
X148500714Y-71258133D01*
X148548333Y-71353371D01*
X148548333Y-71877180D01*
X148548333Y-71353371D02*
X148595952Y-71258133D01*
X148691190Y-71210514D01*
X148834047Y-71210514D01*
X148929285Y-71258133D01*
X148976904Y-71353371D01*
X148976904Y-71877180D01*
X149453095Y-71877180D02*
X149453095Y-71210514D01*
X149453095Y-71305752D02*
X149500714Y-71258133D01*
X149595952Y-71210514D01*
X149738809Y-71210514D01*
X149834047Y-71258133D01*
X149881666Y-71353371D01*
X149881666Y-71877180D01*
X149881666Y-71353371D02*
X149929285Y-71258133D01*
X150024523Y-71210514D01*
X150167380Y-71210514D01*
X150262619Y-71258133D01*
X150310238Y-71353371D01*
X150310238Y-71877180D01*
D11*
X131115000Y-72694800D02*
X161315000Y-72694800D01*
X131115000Y-82753200D02*
X131115000Y-72108379D01*
X161315000Y-82753200D02*
X161315000Y-72108379D01*
X161315000Y-72694800D02*
X160188496Y-73281221D01*
X161315000Y-72694800D02*
X160188496Y-72108379D01*
X131115000Y-72694800D02*
X132241504Y-73281221D01*
X131115000Y-72694800D02*
X132241504Y-72108379D01*
D10*
X141788323Y-114514380D02*
X142407371Y-114514380D01*
X142074038Y-114895333D01*
X142216895Y-114895333D01*
X142312133Y-114942952D01*
X142359752Y-114990571D01*
X142407371Y-115085809D01*
X142407371Y-115323904D01*
X142359752Y-115419142D01*
X142312133Y-115466761D01*
X142216895Y-115514380D01*
X141931180Y-115514380D01*
X141835942Y-115466761D01*
X141788323Y-115419142D01*
X143312133Y-114514380D02*
X142835942Y-114514380D01*
X142788323Y-114990571D01*
X142835942Y-114942952D01*
X142931180Y-114895333D01*
X143169276Y-114895333D01*
X143264514Y-114942952D01*
X143312133Y-114990571D01*
X143359752Y-115085809D01*
X143359752Y-115323904D01*
X143312133Y-115419142D01*
X143264514Y-115466761D01*
X143169276Y-115514380D01*
X142931180Y-115514380D01*
X142835942Y-115466761D01*
X142788323Y-115419142D01*
X143788323Y-115419142D02*
X143835942Y-115466761D01*
X143788323Y-115514380D01*
X143740704Y-115466761D01*
X143788323Y-115419142D01*
X143788323Y-115514380D01*
X144169276Y-114514380D02*
X144788323Y-114514380D01*
X144454990Y-114895333D01*
X144597847Y-114895333D01*
X144693085Y-114942952D01*
X144740704Y-114990571D01*
X144788323Y-115085809D01*
X144788323Y-115323904D01*
X144740704Y-115419142D01*
X144693085Y-115466761D01*
X144597847Y-115514380D01*
X144312133Y-115514380D01*
X144216895Y-115466761D01*
X144169276Y-115419142D01*
X145407371Y-114514380D02*
X145502609Y-114514380D01*
X145597847Y-114562000D01*
X145645466Y-114609619D01*
X145693085Y-114704857D01*
X145740704Y-114895333D01*
X145740704Y-115133428D01*
X145693085Y-115323904D01*
X145645466Y-115419142D01*
X145597847Y-115466761D01*
X145502609Y-115514380D01*
X145407371Y-115514380D01*
X145312133Y-115466761D01*
X145264514Y-115419142D01*
X145216895Y-115323904D01*
X145169276Y-115133428D01*
X145169276Y-114895333D01*
X145216895Y-114704857D01*
X145264514Y-114609619D01*
X145312133Y-114562000D01*
X145407371Y-114514380D01*
X146312133Y-114942952D02*
X146216895Y-114895333D01*
X146169276Y-114847714D01*
X146121657Y-114752476D01*
X146121657Y-114704857D01*
X146169276Y-114609619D01*
X146216895Y-114562000D01*
X146312133Y-114514380D01*
X146502609Y-114514380D01*
X146597847Y-114562000D01*
X146645466Y-114609619D01*
X146693085Y-114704857D01*
X146693085Y-114752476D01*
X146645466Y-114847714D01*
X146597847Y-114895333D01*
X146502609Y-114942952D01*
X146312133Y-114942952D01*
X146216895Y-114990571D01*
X146169276Y-115038190D01*
X146121657Y-115133428D01*
X146121657Y-115323904D01*
X146169276Y-115419142D01*
X146216895Y-115466761D01*
X146312133Y-115514380D01*
X146502609Y-115514380D01*
X146597847Y-115466761D01*
X146645466Y-115419142D01*
X146693085Y-115323904D01*
X146693085Y-115133428D01*
X146645466Y-115038190D01*
X146597847Y-114990571D01*
X146502609Y-114942952D01*
X147883561Y-115514380D02*
X147883561Y-114847714D01*
X147883561Y-114942952D02*
X147931180Y-114895333D01*
X148026419Y-114847714D01*
X148169276Y-114847714D01*
X148264514Y-114895333D01*
X148312133Y-114990571D01*
X148312133Y-115514380D01*
X148312133Y-114990571D02*
X148359752Y-114895333D01*
X148454990Y-114847714D01*
X148597847Y-114847714D01*
X148693085Y-114895333D01*
X148740704Y-114990571D01*
X148740704Y-115514380D01*
X149216895Y-115514380D02*
X149216895Y-114847714D01*
X149216895Y-114942952D02*
X149264514Y-114895333D01*
X149359752Y-114847714D01*
X149502609Y-114847714D01*
X149597847Y-114895333D01*
X149645466Y-114990571D01*
X149645466Y-115514380D01*
X149645466Y-114990571D02*
X149693085Y-114895333D01*
X149788323Y-114847714D01*
X149931180Y-114847714D01*
X150026419Y-114895333D01*
X150074038Y-114990571D01*
X150074038Y-115514380D01*
D11*
X128324800Y-113792000D02*
X163632800Y-113792000D01*
X128324800Y-111950000D02*
X128324800Y-114378421D01*
X163632800Y-111950000D02*
X163632800Y-114378421D01*
X163632800Y-113792000D02*
X162506296Y-114378421D01*
X163632800Y-113792000D02*
X162506296Y-113205579D01*
X128324800Y-113792000D02*
X129451304Y-114378421D01*
X128324800Y-113792000D02*
X129451304Y-113205579D01*
D10*
X125312419Y-92184523D02*
X125312419Y-92803571D01*
X124931466Y-92470238D01*
X124931466Y-92613095D01*
X124883847Y-92708333D01*
X124836228Y-92755952D01*
X124740990Y-92803571D01*
X124502895Y-92803571D01*
X124407657Y-92755952D01*
X124360038Y-92708333D01*
X124312419Y-92613095D01*
X124312419Y-92327380D01*
X124360038Y-92232142D01*
X124407657Y-92184523D01*
X124312419Y-93755952D02*
X124312419Y-93184523D01*
X124312419Y-93470238D02*
X125312419Y-93470238D01*
X125169561Y-93375000D01*
X125074323Y-93279761D01*
X125026704Y-93184523D01*
X124407657Y-94184523D02*
X124360038Y-94232142D01*
X124312419Y-94184523D01*
X124360038Y-94136904D01*
X124407657Y-94184523D01*
X124312419Y-94184523D01*
X124312419Y-95184523D02*
X124312419Y-94613095D01*
X124312419Y-94898809D02*
X125312419Y-94898809D01*
X125169561Y-94803571D01*
X125074323Y-94708333D01*
X125026704Y-94613095D01*
X125312419Y-96089285D02*
X125312419Y-95613095D01*
X124836228Y-95565476D01*
X124883847Y-95613095D01*
X124931466Y-95708333D01*
X124931466Y-95946428D01*
X124883847Y-96041666D01*
X124836228Y-96089285D01*
X124740990Y-96136904D01*
X124502895Y-96136904D01*
X124407657Y-96089285D01*
X124360038Y-96041666D01*
X124312419Y-95946428D01*
X124312419Y-95708333D01*
X124360038Y-95613095D01*
X124407657Y-95565476D01*
X125312419Y-96755952D02*
X125312419Y-96851190D01*
X125264800Y-96946428D01*
X125217180Y-96994047D01*
X125121942Y-97041666D01*
X124931466Y-97089285D01*
X124693371Y-97089285D01*
X124502895Y-97041666D01*
X124407657Y-96994047D01*
X124360038Y-96946428D01*
X124312419Y-96851190D01*
X124312419Y-96755952D01*
X124360038Y-96660714D01*
X124407657Y-96613095D01*
X124502895Y-96565476D01*
X124693371Y-96517857D01*
X124931466Y-96517857D01*
X125121942Y-96565476D01*
X125217180Y-96613095D01*
X125264800Y-96660714D01*
X125312419Y-96755952D01*
X124312419Y-98279761D02*
X124979085Y-98279761D01*
X124883847Y-98279761D02*
X124931466Y-98327380D01*
X124979085Y-98422619D01*
X124979085Y-98565476D01*
X124931466Y-98660714D01*
X124836228Y-98708333D01*
X124312419Y-98708333D01*
X124836228Y-98708333D02*
X124931466Y-98755952D01*
X124979085Y-98851190D01*
X124979085Y-98994047D01*
X124931466Y-99089285D01*
X124836228Y-99136904D01*
X124312419Y-99136904D01*
X124312419Y-99613095D02*
X124979085Y-99613095D01*
X124883847Y-99613095D02*
X124931466Y-99660714D01*
X124979085Y-99755952D01*
X124979085Y-99898809D01*
X124931466Y-99994047D01*
X124836228Y-100041666D01*
X124312419Y-100041666D01*
X124836228Y-100041666D02*
X124931466Y-100089285D01*
X124979085Y-100184523D01*
X124979085Y-100327380D01*
X124931466Y-100422619D01*
X124836228Y-100470238D01*
X124312419Y-100470238D01*
D11*
X126034800Y-80800000D02*
X126034800Y-111950000D01*
X128324800Y-80800000D02*
X125448379Y-80800000D01*
X128324800Y-111950000D02*
X125448379Y-111950000D01*
X126034800Y-111950000D02*
X125448379Y-110823496D01*
X126034800Y-111950000D02*
X126621221Y-110823496D01*
X126034800Y-80800000D02*
X125448379Y-81926504D01*
X126034800Y-80800000D02*
X126621221Y-81926504D01*
D12*
X137769666Y-107498400D02*
X137703000Y-107465066D01*
X137603000Y-107465066D01*
X137503000Y-107498400D01*
X137436333Y-107565066D01*
X137403000Y-107631733D01*
X137369666Y-107765066D01*
X137369666Y-107865066D01*
X137403000Y-107998400D01*
X137436333Y-108065066D01*
X137503000Y-108131733D01*
X137603000Y-108165066D01*
X137669666Y-108165066D01*
X137769666Y-108131733D01*
X137803000Y-108098400D01*
X137803000Y-107865066D01*
X137669666Y-107865066D01*
X138103000Y-108165066D02*
X138103000Y-107465066D01*
X138503000Y-108165066D01*
X138503000Y-107465066D01*
X138836333Y-108165066D02*
X138836333Y-107465066D01*
X139003000Y-107465066D01*
X139103000Y-107498400D01*
X139169666Y-107565066D01*
X139203000Y-107631733D01*
X139236333Y-107765066D01*
X139236333Y-107865066D01*
X139203000Y-107998400D01*
X139169666Y-108065066D01*
X139103000Y-108131733D01*
X139003000Y-108165066D01*
X138836333Y-108165066D01*
X134839180Y-108137304D02*
X134896323Y-108156352D01*
X134991561Y-108156352D01*
X135029657Y-108137304D01*
X135048704Y-108118257D01*
X135067752Y-108080161D01*
X135067752Y-108042066D01*
X135048704Y-108003971D01*
X135029657Y-107984923D01*
X134991561Y-107965876D01*
X134915371Y-107946828D01*
X134877276Y-107927780D01*
X134858228Y-107908733D01*
X134839180Y-107870638D01*
X134839180Y-107832542D01*
X134858228Y-107794447D01*
X134877276Y-107775400D01*
X134915371Y-107756352D01*
X135010609Y-107756352D01*
X135067752Y-107775400D01*
X135201085Y-107756352D02*
X135296323Y-108156352D01*
X135372514Y-107870638D01*
X135448704Y-108156352D01*
X135543942Y-107756352D01*
X135696323Y-108156352D02*
X135696323Y-107756352D01*
X135791561Y-107756352D01*
X135848704Y-107775400D01*
X135886800Y-107813495D01*
X135905847Y-107851590D01*
X135924895Y-107927780D01*
X135924895Y-107984923D01*
X135905847Y-108061114D01*
X135886800Y-108099209D01*
X135848704Y-108137304D01*
X135791561Y-108156352D01*
X135696323Y-108156352D01*
X136096323Y-108156352D02*
X136096323Y-107756352D01*
X136362990Y-107756352D02*
X136439180Y-107756352D01*
X136477276Y-107775400D01*
X136515371Y-107813495D01*
X136534419Y-107889685D01*
X136534419Y-108023019D01*
X136515371Y-108099209D01*
X136477276Y-108137304D01*
X136439180Y-108156352D01*
X136362990Y-108156352D01*
X136324895Y-108137304D01*
X136286800Y-108099209D01*
X136267752Y-108023019D01*
X136267752Y-107889685D01*
X136286800Y-107813495D01*
X136324895Y-107775400D01*
X136362990Y-107756352D01*
X132343638Y-108162704D02*
X132400780Y-108181752D01*
X132496019Y-108181752D01*
X132534114Y-108162704D01*
X132553161Y-108143657D01*
X132572209Y-108105561D01*
X132572209Y-108067466D01*
X132553161Y-108029371D01*
X132534114Y-108010323D01*
X132496019Y-107991276D01*
X132419828Y-107972228D01*
X132381733Y-107953180D01*
X132362685Y-107934133D01*
X132343638Y-107896038D01*
X132343638Y-107857942D01*
X132362685Y-107819847D01*
X132381733Y-107800800D01*
X132419828Y-107781752D01*
X132515066Y-107781752D01*
X132572209Y-107800800D01*
X132705542Y-107781752D02*
X132800780Y-108181752D01*
X132876971Y-107896038D01*
X132953161Y-108181752D01*
X133048400Y-107781752D01*
X133429352Y-108143657D02*
X133410304Y-108162704D01*
X133353161Y-108181752D01*
X133315066Y-108181752D01*
X133257923Y-108162704D01*
X133219828Y-108124609D01*
X133200780Y-108086514D01*
X133181733Y-108010323D01*
X133181733Y-107953180D01*
X133200780Y-107876990D01*
X133219828Y-107838895D01*
X133257923Y-107800800D01*
X133315066Y-107781752D01*
X133353161Y-107781752D01*
X133410304Y-107800800D01*
X133429352Y-107819847D01*
X133791257Y-108181752D02*
X133600780Y-108181752D01*
X133600780Y-107781752D01*
X133924590Y-108181752D02*
X133924590Y-107781752D01*
X134153161Y-108181752D02*
X133981733Y-107953180D01*
X134153161Y-107781752D02*
X133924590Y-108010323D01*
X139835066Y-107490466D02*
X140268400Y-107490466D01*
X140035066Y-107757133D01*
X140135066Y-107757133D01*
X140201733Y-107790466D01*
X140235066Y-107823800D01*
X140268400Y-107890466D01*
X140268400Y-108057133D01*
X140235066Y-108123800D01*
X140201733Y-108157133D01*
X140135066Y-108190466D01*
X139935066Y-108190466D01*
X139868400Y-108157133D01*
X139835066Y-108123800D01*
X140568400Y-108123800D02*
X140601733Y-108157133D01*
X140568400Y-108190466D01*
X140535066Y-108157133D01*
X140568400Y-108123800D01*
X140568400Y-108190466D01*
X140835066Y-107490466D02*
X141268400Y-107490466D01*
X141035066Y-107757133D01*
X141135066Y-107757133D01*
X141201733Y-107790466D01*
X141235066Y-107823800D01*
X141268400Y-107890466D01*
X141268400Y-108057133D01*
X141235066Y-108123800D01*
X141201733Y-108157133D01*
X141135066Y-108190466D01*
X140935066Y-108190466D01*
X140868400Y-108157133D01*
X140835066Y-108123800D01*
X141468400Y-107490466D02*
X141701733Y-108190466D01*
X141935066Y-107490466D01*
X154759866Y-108165066D02*
X154526533Y-107831733D01*
X154359866Y-108165066D02*
X154359866Y-107465066D01*
X154626533Y-107465066D01*
X154693200Y-107498400D01*
X154726533Y-107531733D01*
X154759866Y-107598400D01*
X154759866Y-107698400D01*
X154726533Y-107765066D01*
X154693200Y-107798400D01*
X154626533Y-107831733D01*
X154359866Y-107831733D01*
X154959866Y-107465066D02*
X155359866Y-107465066D01*
X155159866Y-108165066D02*
X155159866Y-107465066D01*
X155559866Y-108131733D02*
X155659866Y-108165066D01*
X155826533Y-108165066D01*
X155893200Y-108131733D01*
X155926533Y-108098400D01*
X155959866Y-108031733D01*
X155959866Y-107965066D01*
X155926533Y-107898400D01*
X155893200Y-107865066D01*
X155826533Y-107831733D01*
X155693200Y-107798400D01*
X155626533Y-107765066D01*
X155593200Y-107731733D01*
X155559866Y-107665066D01*
X155559866Y-107598400D01*
X155593200Y-107531733D01*
X155626533Y-107498400D01*
X155693200Y-107465066D01*
X155859866Y-107465066D01*
X155959866Y-107498400D01*
X149520333Y-108190466D02*
X149287000Y-107857133D01*
X149120333Y-108190466D02*
X149120333Y-107490466D01*
X149387000Y-107490466D01*
X149453666Y-107523800D01*
X149487000Y-107557133D01*
X149520333Y-107623800D01*
X149520333Y-107723800D01*
X149487000Y-107790466D01*
X149453666Y-107823800D01*
X149387000Y-107857133D01*
X149120333Y-107857133D01*
X149753666Y-107490466D02*
X150220333Y-108190466D01*
X150220333Y-107490466D02*
X149753666Y-108190466D01*
X150487000Y-108190466D02*
X150487000Y-107490466D01*
X150653666Y-107490466D01*
X150753666Y-107523800D01*
X150820333Y-107590466D01*
X150853666Y-107657133D01*
X150887000Y-107790466D01*
X150887000Y-107890466D01*
X150853666Y-108023800D01*
X150820333Y-108090466D01*
X150753666Y-108157133D01*
X150653666Y-108190466D01*
X150487000Y-108190466D01*
X146462066Y-107490466D02*
X146862066Y-107490466D01*
X146662066Y-108190466D02*
X146662066Y-107490466D01*
X147028733Y-107490466D02*
X147495400Y-108190466D01*
X147495400Y-107490466D02*
X147028733Y-108190466D01*
X147762066Y-108190466D02*
X147762066Y-107490466D01*
X147928733Y-107490466D01*
X148028733Y-107523800D01*
X148095400Y-107590466D01*
X148128733Y-107657133D01*
X148162066Y-107790466D01*
X148162066Y-107890466D01*
X148128733Y-108023800D01*
X148095400Y-108090466D01*
X148028733Y-108157133D01*
X147928733Y-108190466D01*
X147762066Y-108190466D01*
X144396666Y-108149200D02*
X144363333Y-108182533D01*
X144263333Y-108215866D01*
X144196666Y-108215866D01*
X144096666Y-108182533D01*
X144030000Y-108115866D01*
X143996666Y-108049200D01*
X143963333Y-107915866D01*
X143963333Y-107815866D01*
X143996666Y-107682533D01*
X144030000Y-107615866D01*
X144096666Y-107549200D01*
X144196666Y-107515866D01*
X144263333Y-107515866D01*
X144363333Y-107549200D01*
X144396666Y-107582533D01*
X144596666Y-107515866D02*
X144996666Y-107515866D01*
X144796666Y-108215866D02*
X144796666Y-107515866D01*
X145196666Y-108182533D02*
X145296666Y-108215866D01*
X145463333Y-108215866D01*
X145530000Y-108182533D01*
X145563333Y-108149200D01*
X145596666Y-108082533D01*
X145596666Y-108015866D01*
X145563333Y-107949200D01*
X145530000Y-107915866D01*
X145463333Y-107882533D01*
X145330000Y-107849200D01*
X145263333Y-107815866D01*
X145230000Y-107782533D01*
X145196666Y-107715866D01*
X145196666Y-107649200D01*
X145230000Y-107582533D01*
X145263333Y-107549200D01*
X145330000Y-107515866D01*
X145496666Y-107515866D01*
X145596666Y-107549200D01*
X157048266Y-107523800D02*
X156981600Y-107490466D01*
X156881600Y-107490466D01*
X156781600Y-107523800D01*
X156714933Y-107590466D01*
X156681600Y-107657133D01*
X156648266Y-107790466D01*
X156648266Y-107890466D01*
X156681600Y-108023800D01*
X156714933Y-108090466D01*
X156781600Y-108157133D01*
X156881600Y-108190466D01*
X156948266Y-108190466D01*
X157048266Y-108157133D01*
X157081600Y-108123800D01*
X157081600Y-107890466D01*
X156948266Y-107890466D01*
X157381600Y-108190466D02*
X157381600Y-107490466D01*
X157781600Y-108190466D01*
X157781600Y-107490466D01*
X158114933Y-108190466D02*
X158114933Y-107490466D01*
X158281600Y-107490466D01*
X158381600Y-107523800D01*
X158448266Y-107590466D01*
X158481600Y-107657133D01*
X158514933Y-107790466D01*
X158514933Y-107890466D01*
X158481600Y-108023800D01*
X158448266Y-108090466D01*
X158381600Y-108157133D01*
X158281600Y-108190466D01*
X158114933Y-108190466D01*
X151595266Y-107465066D02*
X152028600Y-107465066D01*
X151795266Y-107731733D01*
X151895266Y-107731733D01*
X151961933Y-107765066D01*
X151995266Y-107798400D01*
X152028600Y-107865066D01*
X152028600Y-108031733D01*
X151995266Y-108098400D01*
X151961933Y-108131733D01*
X151895266Y-108165066D01*
X151695266Y-108165066D01*
X151628600Y-108131733D01*
X151595266Y-108098400D01*
X152328600Y-108098400D02*
X152361933Y-108131733D01*
X152328600Y-108165066D01*
X152295266Y-108131733D01*
X152328600Y-108098400D01*
X152328600Y-108165066D01*
X152595266Y-107465066D02*
X153028600Y-107465066D01*
X152795266Y-107731733D01*
X152895266Y-107731733D01*
X152961933Y-107765066D01*
X152995266Y-107798400D01*
X153028600Y-107865066D01*
X153028600Y-108031733D01*
X152995266Y-108098400D01*
X152961933Y-108131733D01*
X152895266Y-108165066D01*
X152695266Y-108165066D01*
X152628600Y-108131733D01*
X152595266Y-108098400D01*
X153228600Y-107465066D02*
X153461933Y-108165066D01*
X153695266Y-107465066D01*
X156489438Y-81054600D02*
X156451342Y-81035552D01*
X156394200Y-81035552D01*
X156337057Y-81054600D01*
X156298961Y-81092695D01*
X156279914Y-81130790D01*
X156260866Y-81206980D01*
X156260866Y-81264123D01*
X156279914Y-81340314D01*
X156298961Y-81378409D01*
X156337057Y-81416504D01*
X156394200Y-81435552D01*
X156432295Y-81435552D01*
X156489438Y-81416504D01*
X156508485Y-81397457D01*
X156508485Y-81264123D01*
X156432295Y-81264123D01*
X156679914Y-81435552D02*
X156679914Y-81035552D01*
X156908485Y-81435552D01*
X156908485Y-81035552D01*
X157098961Y-81435552D02*
X157098961Y-81035552D01*
X157194200Y-81035552D01*
X157251342Y-81054600D01*
X157289438Y-81092695D01*
X157308485Y-81130790D01*
X157327533Y-81206980D01*
X157327533Y-81264123D01*
X157308485Y-81340314D01*
X157289438Y-81378409D01*
X157251342Y-81416504D01*
X157194200Y-81435552D01*
X157098961Y-81435552D01*
X158623066Y-85103533D02*
X158656400Y-85070200D01*
X158723066Y-85036866D01*
X158889733Y-85036866D01*
X158956400Y-85070200D01*
X158989733Y-85103533D01*
X159023066Y-85170200D01*
X159023066Y-85236866D01*
X158989733Y-85336866D01*
X158589733Y-85736866D01*
X159023066Y-85736866D01*
X159423066Y-85336866D02*
X159356400Y-85303533D01*
X159323066Y-85270200D01*
X159289733Y-85203533D01*
X159289733Y-85170200D01*
X159323066Y-85103533D01*
X159356400Y-85070200D01*
X159423066Y-85036866D01*
X159556400Y-85036866D01*
X159623066Y-85070200D01*
X159656400Y-85103533D01*
X159689733Y-85170200D01*
X159689733Y-85203533D01*
X159656400Y-85270200D01*
X159623066Y-85303533D01*
X159556400Y-85336866D01*
X159423066Y-85336866D01*
X159356400Y-85370200D01*
X159323066Y-85403533D01*
X159289733Y-85470200D01*
X159289733Y-85603533D01*
X159323066Y-85670200D01*
X159356400Y-85703533D01*
X159423066Y-85736866D01*
X159556400Y-85736866D01*
X159623066Y-85703533D01*
X159656400Y-85670200D01*
X159689733Y-85603533D01*
X159689733Y-85470200D01*
X159656400Y-85403533D01*
X159623066Y-85370200D01*
X159556400Y-85336866D01*
X158623066Y-82766733D02*
X158656400Y-82733400D01*
X158723066Y-82700066D01*
X158889733Y-82700066D01*
X158956400Y-82733400D01*
X158989733Y-82766733D01*
X159023066Y-82833400D01*
X159023066Y-82900066D01*
X158989733Y-83000066D01*
X158589733Y-83400066D01*
X159023066Y-83400066D01*
X159256400Y-82700066D02*
X159723066Y-82700066D01*
X159423066Y-83400066D01*
X158623066Y-87694333D02*
X158656400Y-87661000D01*
X158723066Y-87627666D01*
X158889733Y-87627666D01*
X158956400Y-87661000D01*
X158989733Y-87694333D01*
X159023066Y-87761000D01*
X159023066Y-87827666D01*
X158989733Y-87927666D01*
X158589733Y-88327666D01*
X159023066Y-88327666D01*
X159356400Y-88327666D02*
X159489733Y-88327666D01*
X159556400Y-88294333D01*
X159589733Y-88261000D01*
X159656400Y-88161000D01*
X159689733Y-88027666D01*
X159689733Y-87761000D01*
X159656400Y-87694333D01*
X159623066Y-87661000D01*
X159556400Y-87627666D01*
X159423066Y-87627666D01*
X159356400Y-87661000D01*
X159323066Y-87694333D01*
X159289733Y-87761000D01*
X159289733Y-87927666D01*
X159323066Y-87994333D01*
X159356400Y-88027666D01*
X159423066Y-88061000D01*
X159556400Y-88061000D01*
X159623066Y-88027666D01*
X159656400Y-87994333D01*
X159689733Y-87927666D01*
X158589733Y-90040666D02*
X159023066Y-90040666D01*
X158789733Y-90307333D01*
X158889733Y-90307333D01*
X158956400Y-90340666D01*
X158989733Y-90374000D01*
X159023066Y-90440666D01*
X159023066Y-90607333D01*
X158989733Y-90674000D01*
X158956400Y-90707333D01*
X158889733Y-90740666D01*
X158689733Y-90740666D01*
X158623066Y-90707333D01*
X158589733Y-90674000D01*
X159456400Y-90040666D02*
X159523066Y-90040666D01*
X159589733Y-90074000D01*
X159623066Y-90107333D01*
X159656400Y-90174000D01*
X159689733Y-90307333D01*
X159689733Y-90474000D01*
X159656400Y-90607333D01*
X159623066Y-90674000D01*
X159589733Y-90707333D01*
X159523066Y-90740666D01*
X159456400Y-90740666D01*
X159389733Y-90707333D01*
X159356400Y-90674000D01*
X159323066Y-90607333D01*
X159289733Y-90474000D01*
X159289733Y-90307333D01*
X159323066Y-90174000D01*
X159356400Y-90107333D01*
X159389733Y-90074000D01*
X159456400Y-90040666D01*
X158615133Y-92529866D02*
X159048466Y-92529866D01*
X158815133Y-92796533D01*
X158915133Y-92796533D01*
X158981800Y-92829866D01*
X159015133Y-92863200D01*
X159048466Y-92929866D01*
X159048466Y-93096533D01*
X159015133Y-93163200D01*
X158981800Y-93196533D01*
X158915133Y-93229866D01*
X158715133Y-93229866D01*
X158648466Y-93196533D01*
X158615133Y-93163200D01*
X159715133Y-93229866D02*
X159315133Y-93229866D01*
X159515133Y-93229866D02*
X159515133Y-92529866D01*
X159448466Y-92629866D01*
X159381800Y-92696533D01*
X159315133Y-92729866D01*
X157716666Y-95146066D02*
X158150000Y-95146066D01*
X157916666Y-95412733D01*
X158016666Y-95412733D01*
X158083333Y-95446066D01*
X158116666Y-95479400D01*
X158150000Y-95546066D01*
X158150000Y-95712733D01*
X158116666Y-95779400D01*
X158083333Y-95812733D01*
X158016666Y-95846066D01*
X157816666Y-95846066D01*
X157750000Y-95812733D01*
X157716666Y-95779400D01*
X158450000Y-95779400D02*
X158483333Y-95812733D01*
X158450000Y-95846066D01*
X158416666Y-95812733D01*
X158450000Y-95779400D01*
X158450000Y-95846066D01*
X158716666Y-95146066D02*
X159150000Y-95146066D01*
X158916666Y-95412733D01*
X159016666Y-95412733D01*
X159083333Y-95446066D01*
X159116666Y-95479400D01*
X159150000Y-95546066D01*
X159150000Y-95712733D01*
X159116666Y-95779400D01*
X159083333Y-95812733D01*
X159016666Y-95846066D01*
X158816666Y-95846066D01*
X158750000Y-95812733D01*
X158716666Y-95779400D01*
X159350000Y-95146066D02*
X159583333Y-95846066D01*
X159816666Y-95146066D01*
X158948466Y-100149866D02*
X159381800Y-100149866D01*
X159148466Y-100416533D01*
X159248466Y-100416533D01*
X159315133Y-100449866D01*
X159348466Y-100483200D01*
X159381800Y-100549866D01*
X159381800Y-100716533D01*
X159348466Y-100783200D01*
X159315133Y-100816533D01*
X159248466Y-100849866D01*
X159048466Y-100849866D01*
X158981800Y-100816533D01*
X158948466Y-100783200D01*
X158956400Y-97651133D02*
X158989733Y-97617800D01*
X159056400Y-97584466D01*
X159223066Y-97584466D01*
X159289733Y-97617800D01*
X159323066Y-97651133D01*
X159356400Y-97717800D01*
X159356400Y-97784466D01*
X159323066Y-97884466D01*
X158923066Y-98284466D01*
X159356400Y-98284466D01*
X159264333Y-102999400D02*
X159264333Y-103466066D01*
X159097666Y-102732733D02*
X158931000Y-103232733D01*
X159364333Y-103232733D01*
X157937266Y-105441000D02*
X157870600Y-105407666D01*
X157770600Y-105407666D01*
X157670600Y-105441000D01*
X157603933Y-105507666D01*
X157570600Y-105574333D01*
X157537266Y-105707666D01*
X157537266Y-105807666D01*
X157570600Y-105941000D01*
X157603933Y-106007666D01*
X157670600Y-106074333D01*
X157770600Y-106107666D01*
X157837266Y-106107666D01*
X157937266Y-106074333D01*
X157970600Y-106041000D01*
X157970600Y-105807666D01*
X157837266Y-105807666D01*
X158270600Y-106107666D02*
X158270600Y-105407666D01*
X158670600Y-106107666D01*
X158670600Y-105407666D01*
X159003933Y-106107666D02*
X159003933Y-105407666D01*
X159170600Y-105407666D01*
X159270600Y-105441000D01*
X159337266Y-105507666D01*
X159370600Y-105574333D01*
X159403933Y-105707666D01*
X159403933Y-105807666D01*
X159370600Y-105941000D01*
X159337266Y-106007666D01*
X159270600Y-106074333D01*
X159170600Y-106107666D01*
X159003933Y-106107666D01*
X133041466Y-82444533D02*
X133074800Y-82411200D01*
X133141466Y-82377866D01*
X133308133Y-82377866D01*
X133374800Y-82411200D01*
X133408133Y-82444533D01*
X133441466Y-82511200D01*
X133441466Y-82577866D01*
X133408133Y-82677866D01*
X133008133Y-83077866D01*
X133441466Y-83077866D01*
X134041466Y-82611200D02*
X134041466Y-83077866D01*
X133874800Y-82344533D02*
X133708133Y-82844533D01*
X134141466Y-82844533D01*
X133041466Y-85054533D02*
X133074800Y-85021200D01*
X133141466Y-84987866D01*
X133308133Y-84987866D01*
X133374800Y-85021200D01*
X133408133Y-85054533D01*
X133441466Y-85121200D01*
X133441466Y-85187866D01*
X133408133Y-85287866D01*
X133008133Y-85687866D01*
X133441466Y-85687866D01*
X133674800Y-84987866D02*
X134108133Y-84987866D01*
X133874800Y-85254533D01*
X133974800Y-85254533D01*
X134041466Y-85287866D01*
X134074800Y-85321200D01*
X134108133Y-85387866D01*
X134108133Y-85554533D01*
X134074800Y-85621200D01*
X134041466Y-85654533D01*
X133974800Y-85687866D01*
X133774800Y-85687866D01*
X133708133Y-85654533D01*
X133674800Y-85621200D01*
X133041466Y-87719733D02*
X133074800Y-87686400D01*
X133141466Y-87653066D01*
X133308133Y-87653066D01*
X133374800Y-87686400D01*
X133408133Y-87719733D01*
X133441466Y-87786400D01*
X133441466Y-87853066D01*
X133408133Y-87953066D01*
X133008133Y-88353066D01*
X133441466Y-88353066D01*
X133708133Y-87719733D02*
X133741466Y-87686400D01*
X133808133Y-87653066D01*
X133974800Y-87653066D01*
X134041466Y-87686400D01*
X134074800Y-87719733D01*
X134108133Y-87786400D01*
X134108133Y-87853066D01*
X134074800Y-87953066D01*
X133674800Y-88353066D01*
X134108133Y-88353066D01*
X133041466Y-90183533D02*
X133074800Y-90150200D01*
X133141466Y-90116866D01*
X133308133Y-90116866D01*
X133374800Y-90150200D01*
X133408133Y-90183533D01*
X133441466Y-90250200D01*
X133441466Y-90316866D01*
X133408133Y-90416866D01*
X133008133Y-90816866D01*
X133441466Y-90816866D01*
X134108133Y-90816866D02*
X133708133Y-90816866D01*
X133908133Y-90816866D02*
X133908133Y-90116866D01*
X133841466Y-90216866D01*
X133774800Y-90283533D01*
X133708133Y-90316866D01*
X133041466Y-92545733D02*
X133074800Y-92512400D01*
X133141466Y-92479066D01*
X133308133Y-92479066D01*
X133374800Y-92512400D01*
X133408133Y-92545733D01*
X133441466Y-92612400D01*
X133441466Y-92679066D01*
X133408133Y-92779066D01*
X133008133Y-93179066D01*
X133441466Y-93179066D01*
X133874800Y-92479066D02*
X133941466Y-92479066D01*
X134008133Y-92512400D01*
X134041466Y-92545733D01*
X134074800Y-92612400D01*
X134108133Y-92745733D01*
X134108133Y-92912400D01*
X134074800Y-93045733D01*
X134041466Y-93112400D01*
X134008133Y-93145733D01*
X133941466Y-93179066D01*
X133874800Y-93179066D01*
X133808133Y-93145733D01*
X133774800Y-93112400D01*
X133741466Y-93045733D01*
X133708133Y-92912400D01*
X133708133Y-92745733D01*
X133741466Y-92612400D01*
X133774800Y-92545733D01*
X133808133Y-92512400D01*
X133874800Y-92479066D01*
X133441466Y-95592066D02*
X133041466Y-95592066D01*
X133241466Y-95592066D02*
X133241466Y-94892066D01*
X133174800Y-94992066D01*
X133108133Y-95058733D01*
X133041466Y-95092066D01*
X133774800Y-95592066D02*
X133908133Y-95592066D01*
X133974800Y-95558733D01*
X134008133Y-95525400D01*
X134074800Y-95425400D01*
X134108133Y-95292066D01*
X134108133Y-95025400D01*
X134074800Y-94958733D01*
X134041466Y-94925400D01*
X133974800Y-94892066D01*
X133841466Y-94892066D01*
X133774800Y-94925400D01*
X133741466Y-94958733D01*
X133708133Y-95025400D01*
X133708133Y-95192066D01*
X133741466Y-95258733D01*
X133774800Y-95292066D01*
X133841466Y-95325400D01*
X133974800Y-95325400D01*
X134041466Y-95292066D01*
X134074800Y-95258733D01*
X134108133Y-95192066D01*
X133441466Y-98233666D02*
X133041466Y-98233666D01*
X133241466Y-98233666D02*
X133241466Y-97533666D01*
X133174800Y-97633666D01*
X133108133Y-97700333D01*
X133041466Y-97733666D01*
X133841466Y-97833666D02*
X133774800Y-97800333D01*
X133741466Y-97767000D01*
X133708133Y-97700333D01*
X133708133Y-97667000D01*
X133741466Y-97600333D01*
X133774800Y-97567000D01*
X133841466Y-97533666D01*
X133974800Y-97533666D01*
X134041466Y-97567000D01*
X134074800Y-97600333D01*
X134108133Y-97667000D01*
X134108133Y-97700333D01*
X134074800Y-97767000D01*
X134041466Y-97800333D01*
X133974800Y-97833666D01*
X133841466Y-97833666D01*
X133774800Y-97867000D01*
X133741466Y-97900333D01*
X133708133Y-97967000D01*
X133708133Y-98100333D01*
X133741466Y-98167000D01*
X133774800Y-98200333D01*
X133841466Y-98233666D01*
X133974800Y-98233666D01*
X134041466Y-98200333D01*
X134074800Y-98167000D01*
X134108133Y-98100333D01*
X134108133Y-97967000D01*
X134074800Y-97900333D01*
X134041466Y-97867000D01*
X133974800Y-97833666D01*
X133441466Y-100849866D02*
X133041466Y-100849866D01*
X133241466Y-100849866D02*
X133241466Y-100149866D01*
X133174800Y-100249866D01*
X133108133Y-100316533D01*
X133041466Y-100349866D01*
X133674800Y-100149866D02*
X134141466Y-100149866D01*
X133841466Y-100849866D01*
X133441466Y-103389866D02*
X133041466Y-103389866D01*
X133241466Y-103389866D02*
X133241466Y-102689866D01*
X133174800Y-102789866D01*
X133108133Y-102856533D01*
X133041466Y-102889866D01*
X134041466Y-102689866D02*
X133908133Y-102689866D01*
X133841466Y-102723200D01*
X133808133Y-102756533D01*
X133741466Y-102856533D01*
X133708133Y-102989866D01*
X133708133Y-103256533D01*
X133741466Y-103323200D01*
X133774800Y-103356533D01*
X133841466Y-103389866D01*
X133974800Y-103389866D01*
X134041466Y-103356533D01*
X134074800Y-103323200D01*
X134108133Y-103256533D01*
X134108133Y-103089866D01*
X134074800Y-103023200D01*
X134041466Y-102989866D01*
X133974800Y-102956533D01*
X133841466Y-102956533D01*
X133774800Y-102989866D01*
X133741466Y-103023200D01*
X133708133Y-103089866D01*
X133441466Y-106082266D02*
X133041466Y-106082266D01*
X133241466Y-106082266D02*
X133241466Y-105382266D01*
X133174800Y-105482266D01*
X133108133Y-105548933D01*
X133041466Y-105582266D01*
X134074800Y-105382266D02*
X133741466Y-105382266D01*
X133708133Y-105715600D01*
X133741466Y-105682266D01*
X133808133Y-105648933D01*
X133974800Y-105648933D01*
X134041466Y-105682266D01*
X134074800Y-105715600D01*
X134108133Y-105782266D01*
X134108133Y-105948933D01*
X134074800Y-106015600D01*
X134041466Y-106048933D01*
X133974800Y-106082266D01*
X133808133Y-106082266D01*
X133741466Y-106048933D01*
X133708133Y-106015600D01*
D11*
X159985000Y-81423200D02*
X161315000Y-81423200D01*
X159985000Y-82753200D02*
X159985000Y-81423200D01*
X159985000Y-84023200D02*
X162645000Y-84023200D01*
X162645000Y-84023200D02*
X162645000Y-106943200D01*
X159985000Y-84023200D02*
X159985000Y-106943200D01*
X159985000Y-106943200D02*
X162645000Y-106943200D01*
X143406000Y-111414000D02*
X143406000Y-110084000D01*
X144736000Y-111414000D02*
X143406000Y-111414000D01*
X146006000Y-111414000D02*
X146006000Y-108754000D01*
X146006000Y-108754000D02*
X158766000Y-108754000D01*
X146006000Y-111414000D02*
X158766000Y-111414000D01*
X158766000Y-111414000D02*
X158766000Y-108754000D01*
X142077000Y-111414000D02*
X142077000Y-108754000D01*
X134397000Y-111414000D02*
X142077000Y-111414000D01*
X134397000Y-108754000D02*
X142077000Y-108754000D01*
X134397000Y-111414000D02*
X134397000Y-108754000D01*
X133127000Y-111414000D02*
X131797000Y-111414000D01*
X131797000Y-111414000D02*
X131797000Y-110084000D01*
X129785000Y-106943200D02*
X132445000Y-106943200D01*
X129785000Y-84023200D02*
X129785000Y-106943200D01*
X132445000Y-84023200D02*
X132445000Y-106943200D01*
X129785000Y-84023200D02*
X132445000Y-84023200D01*
X129785000Y-82753200D02*
X129785000Y-81423200D01*
X129785000Y-81423200D02*
X131115000Y-81423200D01*
X157930000Y-81702200D02*
X157127530Y-81702200D01*
X156512470Y-81702200D02*
X155710000Y-81702200D01*
X157930000Y-93067200D02*
X157930000Y-81702200D01*
X155710000Y-93067200D02*
X155710000Y-81702200D01*
X157930000Y-93067200D02*
X157383471Y-93067200D01*
X156256529Y-93067200D02*
X155710000Y-93067200D01*
X157930000Y-93827200D02*
X157930000Y-94587200D01*
X157930000Y-94587200D02*
X156820000Y-94587200D01*
X154423000Y-105299200D02*
X154423000Y-79799200D01*
X134423000Y-105299200D02*
X134423000Y-79799200D01*
X154423000Y-79799200D02*
X134423000Y-79799200D01*
X154423000Y-105299200D02*
X134423000Y-105299200D01*
X150561053Y-81095000D02*
G75*
G03X150561053Y-81095000I-511953J0D01*
G01*
D10*
X162207600Y-107469028D02*
X162207600Y-107897600D01*
X162179028Y-107983314D01*
X162121885Y-108040457D01*
X162036171Y-108069028D01*
X161979028Y-108069028D01*
X162750457Y-107669028D02*
X162750457Y-108069028D01*
X162607600Y-107440457D02*
X162464742Y-107869028D01*
X162836171Y-107869028D01*
X159616680Y-109704628D02*
X159616680Y-110133200D01*
X159588108Y-110218914D01*
X159530965Y-110276057D01*
X159445251Y-110304628D01*
X159388108Y-110304628D01*
X159873822Y-109761771D02*
X159902394Y-109733200D01*
X159959537Y-109704628D01*
X160102394Y-109704628D01*
X160159537Y-109733200D01*
X160188108Y-109761771D01*
X160216680Y-109818914D01*
X160216680Y-109876057D01*
X160188108Y-109961771D01*
X159845251Y-110304628D01*
X160216680Y-110304628D01*
X130597000Y-109755428D02*
X130597000Y-110184000D01*
X130568428Y-110269714D01*
X130511285Y-110326857D01*
X130425571Y-110355428D01*
X130368428Y-110355428D01*
X131197000Y-110355428D02*
X130854142Y-110355428D01*
X131025571Y-110355428D02*
X131025571Y-109755428D01*
X130968428Y-109841142D01*
X130911285Y-109898285D01*
X130854142Y-109926857D01*
X129467000Y-107672228D02*
X129467000Y-108100800D01*
X129438428Y-108186514D01*
X129381285Y-108243657D01*
X129295571Y-108272228D01*
X129238428Y-108272228D01*
X129695571Y-107672228D02*
X130067000Y-107672228D01*
X129867000Y-107900800D01*
X129952714Y-107900800D01*
X130009857Y-107929371D01*
X130038428Y-107957942D01*
X130067000Y-108015085D01*
X130067000Y-108157942D01*
X130038428Y-108215085D01*
X130009857Y-108243657D01*
X129952714Y-108272228D01*
X129781285Y-108272228D01*
X129724142Y-108243657D01*
X129695571Y-108215085D01*
X155298800Y-95150028D02*
X155298800Y-95578600D01*
X155270228Y-95664314D01*
X155213085Y-95721457D01*
X155127371Y-95750028D01*
X155070228Y-95750028D01*
X155870228Y-95150028D02*
X155584514Y-95150028D01*
X155555942Y-95435742D01*
X155584514Y-95407171D01*
X155641657Y-95378600D01*
X155784514Y-95378600D01*
X155841657Y-95407171D01*
X155870228Y-95435742D01*
X155898800Y-95492885D01*
X155898800Y-95635742D01*
X155870228Y-95692885D01*
X155841657Y-95721457D01*
X155784514Y-95750028D01*
X155641657Y-95750028D01*
X155584514Y-95721457D01*
X155555942Y-95692885D01*
X143749995Y-105464780D02*
X143749995Y-106274304D01*
X143797614Y-106369542D01*
X143845233Y-106417161D01*
X143940471Y-106464780D01*
X144130947Y-106464780D01*
X144226185Y-106417161D01*
X144273804Y-106369542D01*
X144321423Y-106274304D01*
X144321423Y-105464780D01*
X145321423Y-106464780D02*
X144749995Y-106464780D01*
X145035709Y-106464780D02*
X145035709Y-105464780D01*
X144940471Y-105607638D01*
X144845233Y-105702876D01*
X144749995Y-105750495D01*
M02*
