G04 #@! TF.GenerationSoftware,KiCad,Pcbnew,(5.1.5)-3*
G04 #@! TF.CreationDate,2020-01-29T14:55:58+01:00*
G04 #@! TF.ProjectId,Adapter,41646170-7465-4722-9e6b-696361645f70,1*
G04 #@! TF.SameCoordinates,Original*
G04 #@! TF.FileFunction,Soldermask,Top*
G04 #@! TF.FilePolarity,Negative*
%FSLAX46Y46*%
G04 Gerber Fmt 4.6, Leading zero omitted, Abs format (unit mm)*
G04 Created by KiCad (PCBNEW (5.1.5)-3) date 2020-01-29 14:55:58*
%MOMM*%
%LPD*%
G04 APERTURE LIST*
%ADD10C,0.100000*%
G04 APERTURE END LIST*
D10*
G36*
X140860512Y-109187927D02*
G01*
X141009812Y-109217624D01*
X141173784Y-109285544D01*
X141321354Y-109384147D01*
X141446853Y-109509646D01*
X141545456Y-109657216D01*
X141613376Y-109821188D01*
X141648000Y-109995259D01*
X141648000Y-110172741D01*
X141613376Y-110346812D01*
X141545456Y-110510784D01*
X141446853Y-110658354D01*
X141321354Y-110783853D01*
X141173784Y-110882456D01*
X141009812Y-110950376D01*
X140860512Y-110980073D01*
X140835742Y-110985000D01*
X140658258Y-110985000D01*
X140633488Y-110980073D01*
X140484188Y-110950376D01*
X140320216Y-110882456D01*
X140172646Y-110783853D01*
X140047147Y-110658354D01*
X139948544Y-110510784D01*
X139880624Y-110346812D01*
X139846000Y-110172741D01*
X139846000Y-109995259D01*
X139880624Y-109821188D01*
X139948544Y-109657216D01*
X140047147Y-109509646D01*
X140172646Y-109384147D01*
X140320216Y-109285544D01*
X140484188Y-109217624D01*
X140633488Y-109187927D01*
X140658258Y-109183000D01*
X140835742Y-109183000D01*
X140860512Y-109187927D01*
G37*
G36*
X155009512Y-109187927D02*
G01*
X155158812Y-109217624D01*
X155322784Y-109285544D01*
X155470354Y-109384147D01*
X155595853Y-109509646D01*
X155694456Y-109657216D01*
X155762376Y-109821188D01*
X155797000Y-109995259D01*
X155797000Y-110172741D01*
X155762376Y-110346812D01*
X155694456Y-110510784D01*
X155595853Y-110658354D01*
X155470354Y-110783853D01*
X155322784Y-110882456D01*
X155158812Y-110950376D01*
X155009512Y-110980073D01*
X154984742Y-110985000D01*
X154807258Y-110985000D01*
X154782488Y-110980073D01*
X154633188Y-110950376D01*
X154469216Y-110882456D01*
X154321646Y-110783853D01*
X154196147Y-110658354D01*
X154097544Y-110510784D01*
X154029624Y-110346812D01*
X153995000Y-110172741D01*
X153995000Y-109995259D01*
X154029624Y-109821188D01*
X154097544Y-109657216D01*
X154196147Y-109509646D01*
X154321646Y-109384147D01*
X154469216Y-109285544D01*
X154633188Y-109217624D01*
X154782488Y-109187927D01*
X154807258Y-109183000D01*
X154984742Y-109183000D01*
X155009512Y-109187927D01*
G37*
G36*
X157549512Y-109187927D02*
G01*
X157698812Y-109217624D01*
X157862784Y-109285544D01*
X158010354Y-109384147D01*
X158135853Y-109509646D01*
X158234456Y-109657216D01*
X158302376Y-109821188D01*
X158337000Y-109995259D01*
X158337000Y-110172741D01*
X158302376Y-110346812D01*
X158234456Y-110510784D01*
X158135853Y-110658354D01*
X158010354Y-110783853D01*
X157862784Y-110882456D01*
X157698812Y-110950376D01*
X157549512Y-110980073D01*
X157524742Y-110985000D01*
X157347258Y-110985000D01*
X157322488Y-110980073D01*
X157173188Y-110950376D01*
X157009216Y-110882456D01*
X156861646Y-110783853D01*
X156736147Y-110658354D01*
X156637544Y-110510784D01*
X156569624Y-110346812D01*
X156535000Y-110172741D01*
X156535000Y-109995259D01*
X156569624Y-109821188D01*
X156637544Y-109657216D01*
X156736147Y-109509646D01*
X156861646Y-109384147D01*
X157009216Y-109285544D01*
X157173188Y-109217624D01*
X157322488Y-109187927D01*
X157347258Y-109183000D01*
X157524742Y-109183000D01*
X157549512Y-109187927D01*
G37*
G36*
X152469512Y-109187927D02*
G01*
X152618812Y-109217624D01*
X152782784Y-109285544D01*
X152930354Y-109384147D01*
X153055853Y-109509646D01*
X153154456Y-109657216D01*
X153222376Y-109821188D01*
X153257000Y-109995259D01*
X153257000Y-110172741D01*
X153222376Y-110346812D01*
X153154456Y-110510784D01*
X153055853Y-110658354D01*
X152930354Y-110783853D01*
X152782784Y-110882456D01*
X152618812Y-110950376D01*
X152469512Y-110980073D01*
X152444742Y-110985000D01*
X152267258Y-110985000D01*
X152242488Y-110980073D01*
X152093188Y-110950376D01*
X151929216Y-110882456D01*
X151781646Y-110783853D01*
X151656147Y-110658354D01*
X151557544Y-110510784D01*
X151489624Y-110346812D01*
X151455000Y-110172741D01*
X151455000Y-109995259D01*
X151489624Y-109821188D01*
X151557544Y-109657216D01*
X151656147Y-109509646D01*
X151781646Y-109384147D01*
X151929216Y-109285544D01*
X152093188Y-109217624D01*
X152242488Y-109187927D01*
X152267258Y-109183000D01*
X152444742Y-109183000D01*
X152469512Y-109187927D01*
G37*
G36*
X149929512Y-109187927D02*
G01*
X150078812Y-109217624D01*
X150242784Y-109285544D01*
X150390354Y-109384147D01*
X150515853Y-109509646D01*
X150614456Y-109657216D01*
X150682376Y-109821188D01*
X150717000Y-109995259D01*
X150717000Y-110172741D01*
X150682376Y-110346812D01*
X150614456Y-110510784D01*
X150515853Y-110658354D01*
X150390354Y-110783853D01*
X150242784Y-110882456D01*
X150078812Y-110950376D01*
X149929512Y-110980073D01*
X149904742Y-110985000D01*
X149727258Y-110985000D01*
X149702488Y-110980073D01*
X149553188Y-110950376D01*
X149389216Y-110882456D01*
X149241646Y-110783853D01*
X149116147Y-110658354D01*
X149017544Y-110510784D01*
X148949624Y-110346812D01*
X148915000Y-110172741D01*
X148915000Y-109995259D01*
X148949624Y-109821188D01*
X149017544Y-109657216D01*
X149116147Y-109509646D01*
X149241646Y-109384147D01*
X149389216Y-109285544D01*
X149553188Y-109217624D01*
X149702488Y-109187927D01*
X149727258Y-109183000D01*
X149904742Y-109183000D01*
X149929512Y-109187927D01*
G37*
G36*
X147389512Y-109187927D02*
G01*
X147538812Y-109217624D01*
X147702784Y-109285544D01*
X147850354Y-109384147D01*
X147975853Y-109509646D01*
X148074456Y-109657216D01*
X148142376Y-109821188D01*
X148177000Y-109995259D01*
X148177000Y-110172741D01*
X148142376Y-110346812D01*
X148074456Y-110510784D01*
X147975853Y-110658354D01*
X147850354Y-110783853D01*
X147702784Y-110882456D01*
X147538812Y-110950376D01*
X147389512Y-110980073D01*
X147364742Y-110985000D01*
X147187258Y-110985000D01*
X147162488Y-110980073D01*
X147013188Y-110950376D01*
X146849216Y-110882456D01*
X146701646Y-110783853D01*
X146576147Y-110658354D01*
X146477544Y-110510784D01*
X146409624Y-110346812D01*
X146375000Y-110172741D01*
X146375000Y-109995259D01*
X146409624Y-109821188D01*
X146477544Y-109657216D01*
X146576147Y-109509646D01*
X146701646Y-109384147D01*
X146849216Y-109285544D01*
X147013188Y-109217624D01*
X147162488Y-109187927D01*
X147187258Y-109183000D01*
X147364742Y-109183000D01*
X147389512Y-109187927D01*
G37*
G36*
X134028000Y-110985000D02*
G01*
X132226000Y-110985000D01*
X132226000Y-109183000D01*
X134028000Y-109183000D01*
X134028000Y-110985000D01*
G37*
G36*
X135780512Y-109187927D02*
G01*
X135929812Y-109217624D01*
X136093784Y-109285544D01*
X136241354Y-109384147D01*
X136366853Y-109509646D01*
X136465456Y-109657216D01*
X136533376Y-109821188D01*
X136568000Y-109995259D01*
X136568000Y-110172741D01*
X136533376Y-110346812D01*
X136465456Y-110510784D01*
X136366853Y-110658354D01*
X136241354Y-110783853D01*
X136093784Y-110882456D01*
X135929812Y-110950376D01*
X135780512Y-110980073D01*
X135755742Y-110985000D01*
X135578258Y-110985000D01*
X135553488Y-110980073D01*
X135404188Y-110950376D01*
X135240216Y-110882456D01*
X135092646Y-110783853D01*
X134967147Y-110658354D01*
X134868544Y-110510784D01*
X134800624Y-110346812D01*
X134766000Y-110172741D01*
X134766000Y-109995259D01*
X134800624Y-109821188D01*
X134868544Y-109657216D01*
X134967147Y-109509646D01*
X135092646Y-109384147D01*
X135240216Y-109285544D01*
X135404188Y-109217624D01*
X135553488Y-109187927D01*
X135578258Y-109183000D01*
X135755742Y-109183000D01*
X135780512Y-109187927D01*
G37*
G36*
X138320512Y-109187927D02*
G01*
X138469812Y-109217624D01*
X138633784Y-109285544D01*
X138781354Y-109384147D01*
X138906853Y-109509646D01*
X139005456Y-109657216D01*
X139073376Y-109821188D01*
X139108000Y-109995259D01*
X139108000Y-110172741D01*
X139073376Y-110346812D01*
X139005456Y-110510784D01*
X138906853Y-110658354D01*
X138781354Y-110783853D01*
X138633784Y-110882456D01*
X138469812Y-110950376D01*
X138320512Y-110980073D01*
X138295742Y-110985000D01*
X138118258Y-110985000D01*
X138093488Y-110980073D01*
X137944188Y-110950376D01*
X137780216Y-110882456D01*
X137632646Y-110783853D01*
X137507147Y-110658354D01*
X137408544Y-110510784D01*
X137340624Y-110346812D01*
X137306000Y-110172741D01*
X137306000Y-109995259D01*
X137340624Y-109821188D01*
X137408544Y-109657216D01*
X137507147Y-109509646D01*
X137632646Y-109384147D01*
X137780216Y-109285544D01*
X137944188Y-109217624D01*
X138093488Y-109187927D01*
X138118258Y-109183000D01*
X138295742Y-109183000D01*
X138320512Y-109187927D01*
G37*
G36*
X145637000Y-110985000D02*
G01*
X143835000Y-110985000D01*
X143835000Y-109183000D01*
X145637000Y-109183000D01*
X145637000Y-110985000D01*
G37*
G36*
X161428512Y-104717127D02*
G01*
X161577812Y-104746824D01*
X161741784Y-104814744D01*
X161889354Y-104913347D01*
X162014853Y-105038846D01*
X162113456Y-105186416D01*
X162181376Y-105350388D01*
X162216000Y-105524459D01*
X162216000Y-105701941D01*
X162181376Y-105876012D01*
X162113456Y-106039984D01*
X162014853Y-106187554D01*
X161889354Y-106313053D01*
X161741784Y-106411656D01*
X161577812Y-106479576D01*
X161428512Y-106509273D01*
X161403742Y-106514200D01*
X161226258Y-106514200D01*
X161201488Y-106509273D01*
X161052188Y-106479576D01*
X160888216Y-106411656D01*
X160740646Y-106313053D01*
X160615147Y-106187554D01*
X160516544Y-106039984D01*
X160448624Y-105876012D01*
X160414000Y-105701941D01*
X160414000Y-105524459D01*
X160448624Y-105350388D01*
X160516544Y-105186416D01*
X160615147Y-105038846D01*
X160740646Y-104913347D01*
X160888216Y-104814744D01*
X161052188Y-104746824D01*
X161201488Y-104717127D01*
X161226258Y-104712200D01*
X161403742Y-104712200D01*
X161428512Y-104717127D01*
G37*
G36*
X131228512Y-104717127D02*
G01*
X131377812Y-104746824D01*
X131541784Y-104814744D01*
X131689354Y-104913347D01*
X131814853Y-105038846D01*
X131913456Y-105186416D01*
X131981376Y-105350388D01*
X132016000Y-105524459D01*
X132016000Y-105701941D01*
X131981376Y-105876012D01*
X131913456Y-106039984D01*
X131814853Y-106187554D01*
X131689354Y-106313053D01*
X131541784Y-106411656D01*
X131377812Y-106479576D01*
X131228512Y-106509273D01*
X131203742Y-106514200D01*
X131026258Y-106514200D01*
X131001488Y-106509273D01*
X130852188Y-106479576D01*
X130688216Y-106411656D01*
X130540646Y-106313053D01*
X130415147Y-106187554D01*
X130316544Y-106039984D01*
X130248624Y-105876012D01*
X130214000Y-105701941D01*
X130214000Y-105524459D01*
X130248624Y-105350388D01*
X130316544Y-105186416D01*
X130415147Y-105038846D01*
X130540646Y-104913347D01*
X130688216Y-104814744D01*
X130852188Y-104746824D01*
X131001488Y-104717127D01*
X131026258Y-104712200D01*
X131203742Y-104712200D01*
X131228512Y-104717127D01*
G37*
G36*
X143014000Y-104750200D02*
G01*
X142012000Y-104750200D01*
X142012000Y-102548200D01*
X143014000Y-102548200D01*
X143014000Y-104750200D01*
G37*
G36*
X140479000Y-104750200D02*
G01*
X139477000Y-104750200D01*
X139477000Y-102548200D01*
X140479000Y-102548200D01*
X140479000Y-104750200D01*
G37*
G36*
X141744000Y-104750200D02*
G01*
X140742000Y-104750200D01*
X140742000Y-102548200D01*
X141744000Y-102548200D01*
X141744000Y-104750200D01*
G37*
G36*
X139204000Y-104750200D02*
G01*
X138202000Y-104750200D01*
X138202000Y-102548200D01*
X139204000Y-102548200D01*
X139204000Y-104750200D01*
G37*
G36*
X144284000Y-104750200D02*
G01*
X143282000Y-104750200D01*
X143282000Y-102548200D01*
X144284000Y-102548200D01*
X144284000Y-104750200D01*
G37*
G36*
X145554000Y-104750200D02*
G01*
X144552000Y-104750200D01*
X144552000Y-102548200D01*
X145554000Y-102548200D01*
X145554000Y-104750200D01*
G37*
G36*
X148094000Y-104750200D02*
G01*
X147092000Y-104750200D01*
X147092000Y-102548200D01*
X148094000Y-102548200D01*
X148094000Y-104750200D01*
G37*
G36*
X149364000Y-104750200D02*
G01*
X148362000Y-104750200D01*
X148362000Y-102548200D01*
X149364000Y-102548200D01*
X149364000Y-104750200D01*
G37*
G36*
X150634000Y-104750200D02*
G01*
X149632000Y-104750200D01*
X149632000Y-102548200D01*
X150634000Y-102548200D01*
X150634000Y-104750200D01*
G37*
G36*
X151904000Y-104750200D02*
G01*
X150902000Y-104750200D01*
X150902000Y-102548200D01*
X151904000Y-102548200D01*
X151904000Y-104750200D01*
G37*
G36*
X137944000Y-104750200D02*
G01*
X136942000Y-104750200D01*
X136942000Y-102548200D01*
X137944000Y-102548200D01*
X137944000Y-104750200D01*
G37*
G36*
X146824000Y-104750200D02*
G01*
X145822000Y-104750200D01*
X145822000Y-102548200D01*
X146824000Y-102548200D01*
X146824000Y-104750200D01*
G37*
G36*
X161428512Y-102177127D02*
G01*
X161577812Y-102206824D01*
X161741784Y-102274744D01*
X161889354Y-102373347D01*
X162014853Y-102498846D01*
X162113456Y-102646416D01*
X162181376Y-102810388D01*
X162216000Y-102984459D01*
X162216000Y-103161941D01*
X162181376Y-103336012D01*
X162113456Y-103499984D01*
X162014853Y-103647554D01*
X161889354Y-103773053D01*
X161741784Y-103871656D01*
X161577812Y-103939576D01*
X161428512Y-103969273D01*
X161403742Y-103974200D01*
X161226258Y-103974200D01*
X161201488Y-103969273D01*
X161052188Y-103939576D01*
X160888216Y-103871656D01*
X160740646Y-103773053D01*
X160615147Y-103647554D01*
X160516544Y-103499984D01*
X160448624Y-103336012D01*
X160414000Y-103161941D01*
X160414000Y-102984459D01*
X160448624Y-102810388D01*
X160516544Y-102646416D01*
X160615147Y-102498846D01*
X160740646Y-102373347D01*
X160888216Y-102274744D01*
X161052188Y-102206824D01*
X161201488Y-102177127D01*
X161226258Y-102172200D01*
X161403742Y-102172200D01*
X161428512Y-102177127D01*
G37*
G36*
X131228512Y-102177127D02*
G01*
X131377812Y-102206824D01*
X131541784Y-102274744D01*
X131689354Y-102373347D01*
X131814853Y-102498846D01*
X131913456Y-102646416D01*
X131981376Y-102810388D01*
X132016000Y-102984459D01*
X132016000Y-103161941D01*
X131981376Y-103336012D01*
X131913456Y-103499984D01*
X131814853Y-103647554D01*
X131689354Y-103773053D01*
X131541784Y-103871656D01*
X131377812Y-103939576D01*
X131228512Y-103969273D01*
X131203742Y-103974200D01*
X131026258Y-103974200D01*
X131001488Y-103969273D01*
X130852188Y-103939576D01*
X130688216Y-103871656D01*
X130540646Y-103773053D01*
X130415147Y-103647554D01*
X130316544Y-103499984D01*
X130248624Y-103336012D01*
X130214000Y-103161941D01*
X130214000Y-102984459D01*
X130248624Y-102810388D01*
X130316544Y-102646416D01*
X130415147Y-102498846D01*
X130540646Y-102373347D01*
X130688216Y-102274744D01*
X130852188Y-102206824D01*
X131001488Y-102177127D01*
X131026258Y-102172200D01*
X131203742Y-102172200D01*
X131228512Y-102177127D01*
G37*
G36*
X154274000Y-102400200D02*
G01*
X152072000Y-102400200D01*
X152072000Y-101398200D01*
X154274000Y-101398200D01*
X154274000Y-102400200D01*
G37*
G36*
X136774000Y-102400200D02*
G01*
X134572000Y-102400200D01*
X134572000Y-101398200D01*
X136774000Y-101398200D01*
X136774000Y-102400200D01*
G37*
G36*
X161428512Y-99637127D02*
G01*
X161577812Y-99666824D01*
X161741784Y-99734744D01*
X161889354Y-99833347D01*
X162014853Y-99958846D01*
X162113456Y-100106416D01*
X162181376Y-100270388D01*
X162216000Y-100444459D01*
X162216000Y-100621941D01*
X162181376Y-100796012D01*
X162113456Y-100959984D01*
X162014853Y-101107554D01*
X161889354Y-101233053D01*
X161741784Y-101331656D01*
X161577812Y-101399576D01*
X161428512Y-101429273D01*
X161403742Y-101434200D01*
X161226258Y-101434200D01*
X161201488Y-101429273D01*
X161052188Y-101399576D01*
X160888216Y-101331656D01*
X160740646Y-101233053D01*
X160615147Y-101107554D01*
X160516544Y-100959984D01*
X160448624Y-100796012D01*
X160414000Y-100621941D01*
X160414000Y-100444459D01*
X160448624Y-100270388D01*
X160516544Y-100106416D01*
X160615147Y-99958846D01*
X160740646Y-99833347D01*
X160888216Y-99734744D01*
X161052188Y-99666824D01*
X161201488Y-99637127D01*
X161226258Y-99632200D01*
X161403742Y-99632200D01*
X161428512Y-99637127D01*
G37*
G36*
X131228512Y-99637127D02*
G01*
X131377812Y-99666824D01*
X131541784Y-99734744D01*
X131689354Y-99833347D01*
X131814853Y-99958846D01*
X131913456Y-100106416D01*
X131981376Y-100270388D01*
X132016000Y-100444459D01*
X132016000Y-100621941D01*
X131981376Y-100796012D01*
X131913456Y-100959984D01*
X131814853Y-101107554D01*
X131689354Y-101233053D01*
X131541784Y-101331656D01*
X131377812Y-101399576D01*
X131228512Y-101429273D01*
X131203742Y-101434200D01*
X131026258Y-101434200D01*
X131001488Y-101429273D01*
X130852188Y-101399576D01*
X130688216Y-101331656D01*
X130540646Y-101233053D01*
X130415147Y-101107554D01*
X130316544Y-100959984D01*
X130248624Y-100796012D01*
X130214000Y-100621941D01*
X130214000Y-100444459D01*
X130248624Y-100270388D01*
X130316544Y-100106416D01*
X130415147Y-99958846D01*
X130540646Y-99833347D01*
X130688216Y-99734744D01*
X130852188Y-99666824D01*
X131001488Y-99637127D01*
X131026258Y-99632200D01*
X131203742Y-99632200D01*
X131228512Y-99637127D01*
G37*
G36*
X136748300Y-101130200D02*
G01*
X134546300Y-101130200D01*
X134546300Y-100128200D01*
X136748300Y-100128200D01*
X136748300Y-101130200D01*
G37*
G36*
X154274000Y-101130200D02*
G01*
X152072000Y-101130200D01*
X152072000Y-100128200D01*
X154274000Y-100128200D01*
X154274000Y-101130200D01*
G37*
G36*
X154274000Y-99860200D02*
G01*
X152072000Y-99860200D01*
X152072000Y-98858200D01*
X154274000Y-98858200D01*
X154274000Y-99860200D01*
G37*
G36*
X136774000Y-99860200D02*
G01*
X134572000Y-99860200D01*
X134572000Y-98858200D01*
X136774000Y-98858200D01*
X136774000Y-99860200D01*
G37*
G36*
X131228512Y-97097127D02*
G01*
X131377812Y-97126824D01*
X131541784Y-97194744D01*
X131689354Y-97293347D01*
X131814853Y-97418846D01*
X131913456Y-97566416D01*
X131981376Y-97730388D01*
X132016000Y-97904459D01*
X132016000Y-98081941D01*
X131981376Y-98256012D01*
X131913456Y-98419984D01*
X131814853Y-98567554D01*
X131689354Y-98693053D01*
X131541784Y-98791656D01*
X131377812Y-98859576D01*
X131228512Y-98889273D01*
X131203742Y-98894200D01*
X131026258Y-98894200D01*
X131001488Y-98889273D01*
X130852188Y-98859576D01*
X130688216Y-98791656D01*
X130540646Y-98693053D01*
X130415147Y-98567554D01*
X130316544Y-98419984D01*
X130248624Y-98256012D01*
X130214000Y-98081941D01*
X130214000Y-97904459D01*
X130248624Y-97730388D01*
X130316544Y-97566416D01*
X130415147Y-97418846D01*
X130540646Y-97293347D01*
X130688216Y-97194744D01*
X130852188Y-97126824D01*
X131001488Y-97097127D01*
X131026258Y-97092200D01*
X131203742Y-97092200D01*
X131228512Y-97097127D01*
G37*
G36*
X161428512Y-97097127D02*
G01*
X161577812Y-97126824D01*
X161741784Y-97194744D01*
X161889354Y-97293347D01*
X162014853Y-97418846D01*
X162113456Y-97566416D01*
X162181376Y-97730388D01*
X162216000Y-97904459D01*
X162216000Y-98081941D01*
X162181376Y-98256012D01*
X162113456Y-98419984D01*
X162014853Y-98567554D01*
X161889354Y-98693053D01*
X161741784Y-98791656D01*
X161577812Y-98859576D01*
X161428512Y-98889273D01*
X161403742Y-98894200D01*
X161226258Y-98894200D01*
X161201488Y-98889273D01*
X161052188Y-98859576D01*
X160888216Y-98791656D01*
X160740646Y-98693053D01*
X160615147Y-98567554D01*
X160516544Y-98419984D01*
X160448624Y-98256012D01*
X160414000Y-98081941D01*
X160414000Y-97904459D01*
X160448624Y-97730388D01*
X160516544Y-97566416D01*
X160615147Y-97418846D01*
X160740646Y-97293347D01*
X160888216Y-97194744D01*
X161052188Y-97126824D01*
X161201488Y-97097127D01*
X161226258Y-97092200D01*
X161403742Y-97092200D01*
X161428512Y-97097127D01*
G37*
G36*
X154274000Y-98590200D02*
G01*
X152072000Y-98590200D01*
X152072000Y-97588200D01*
X154274000Y-97588200D01*
X154274000Y-98590200D01*
G37*
G36*
X136774000Y-98590200D02*
G01*
X134572000Y-98590200D01*
X134572000Y-97588200D01*
X136774000Y-97588200D01*
X136774000Y-98590200D01*
G37*
G36*
X136774000Y-97320200D02*
G01*
X134572000Y-97320200D01*
X134572000Y-96318200D01*
X136774000Y-96318200D01*
X136774000Y-97320200D01*
G37*
G36*
X154274000Y-97320200D02*
G01*
X152072000Y-97320200D01*
X152072000Y-96318200D01*
X154274000Y-96318200D01*
X154274000Y-97320200D01*
G37*
G36*
X161428512Y-94557127D02*
G01*
X161577812Y-94586824D01*
X161741784Y-94654744D01*
X161889354Y-94753347D01*
X162014853Y-94878846D01*
X162113456Y-95026416D01*
X162181376Y-95190388D01*
X162216000Y-95364459D01*
X162216000Y-95541941D01*
X162181376Y-95716012D01*
X162113456Y-95879984D01*
X162014853Y-96027554D01*
X161889354Y-96153053D01*
X161741784Y-96251656D01*
X161577812Y-96319576D01*
X161428512Y-96349273D01*
X161403742Y-96354200D01*
X161226258Y-96354200D01*
X161201488Y-96349273D01*
X161052188Y-96319576D01*
X160888216Y-96251656D01*
X160740646Y-96153053D01*
X160615147Y-96027554D01*
X160516544Y-95879984D01*
X160448624Y-95716012D01*
X160414000Y-95541941D01*
X160414000Y-95364459D01*
X160448624Y-95190388D01*
X160516544Y-95026416D01*
X160615147Y-94878846D01*
X160740646Y-94753347D01*
X160888216Y-94654744D01*
X161052188Y-94586824D01*
X161201488Y-94557127D01*
X161226258Y-94552200D01*
X161403742Y-94552200D01*
X161428512Y-94557127D01*
G37*
G36*
X131228512Y-94557127D02*
G01*
X131377812Y-94586824D01*
X131541784Y-94654744D01*
X131689354Y-94753347D01*
X131814853Y-94878846D01*
X131913456Y-95026416D01*
X131981376Y-95190388D01*
X132016000Y-95364459D01*
X132016000Y-95541941D01*
X131981376Y-95716012D01*
X131913456Y-95879984D01*
X131814853Y-96027554D01*
X131689354Y-96153053D01*
X131541784Y-96251656D01*
X131377812Y-96319576D01*
X131228512Y-96349273D01*
X131203742Y-96354200D01*
X131026258Y-96354200D01*
X131001488Y-96349273D01*
X130852188Y-96319576D01*
X130688216Y-96251656D01*
X130540646Y-96153053D01*
X130415147Y-96027554D01*
X130316544Y-95879984D01*
X130248624Y-95716012D01*
X130214000Y-95541941D01*
X130214000Y-95364459D01*
X130248624Y-95190388D01*
X130316544Y-95026416D01*
X130415147Y-94878846D01*
X130540646Y-94753347D01*
X130688216Y-94654744D01*
X130852188Y-94586824D01*
X131001488Y-94557127D01*
X131026258Y-94552200D01*
X131203742Y-94552200D01*
X131228512Y-94557127D01*
G37*
G36*
X154274000Y-96050200D02*
G01*
X152072000Y-96050200D01*
X152072000Y-95048200D01*
X154274000Y-95048200D01*
X154274000Y-96050200D01*
G37*
G36*
X136774000Y-96050200D02*
G01*
X134572000Y-96050200D01*
X134572000Y-95048200D01*
X136774000Y-95048200D01*
X136774000Y-96050200D01*
G37*
G36*
X154274000Y-94780200D02*
G01*
X152072000Y-94780200D01*
X152072000Y-93778200D01*
X154274000Y-93778200D01*
X154274000Y-94780200D01*
G37*
G36*
X136774000Y-94780200D02*
G01*
X134572000Y-94780200D01*
X134572000Y-93778200D01*
X136774000Y-93778200D01*
X136774000Y-94780200D01*
G37*
G36*
X156980721Y-81867374D02*
G01*
X157080995Y-81908909D01*
X157080996Y-81908910D01*
X157171242Y-81969210D01*
X157247990Y-82045958D01*
X157247991Y-82045960D01*
X157308291Y-82136205D01*
X157349826Y-82236479D01*
X157371000Y-82342930D01*
X157371000Y-82451470D01*
X157349826Y-82557921D01*
X157308291Y-82658195D01*
X157308290Y-82658196D01*
X157247990Y-82748442D01*
X157171242Y-82825190D01*
X157125812Y-82855545D01*
X157080995Y-82885491D01*
X157005611Y-82916716D01*
X156984000Y-82928267D01*
X156965059Y-82943812D01*
X156949513Y-82962754D01*
X156937962Y-82984365D01*
X156930849Y-83007814D01*
X156928447Y-83032200D01*
X156930849Y-83056586D01*
X156937962Y-83080035D01*
X156949513Y-83101646D01*
X156965058Y-83120587D01*
X156984000Y-83136133D01*
X157005611Y-83147684D01*
X157080995Y-83178909D01*
X157080996Y-83178910D01*
X157171242Y-83239210D01*
X157247990Y-83315958D01*
X157247991Y-83315960D01*
X157308291Y-83406205D01*
X157349826Y-83506479D01*
X157371000Y-83612930D01*
X157371000Y-83721470D01*
X157349826Y-83827921D01*
X157308291Y-83928195D01*
X157308290Y-83928196D01*
X157247990Y-84018442D01*
X157171242Y-84095190D01*
X157125812Y-84125545D01*
X157080995Y-84155491D01*
X157005611Y-84186716D01*
X156984000Y-84198267D01*
X156965059Y-84213812D01*
X156949513Y-84232754D01*
X156937962Y-84254365D01*
X156930849Y-84277814D01*
X156928447Y-84302200D01*
X156930849Y-84326586D01*
X156937962Y-84350035D01*
X156949513Y-84371646D01*
X156965058Y-84390587D01*
X156984000Y-84406133D01*
X157005611Y-84417684D01*
X157080995Y-84448909D01*
X157080996Y-84448910D01*
X157171242Y-84509210D01*
X157247990Y-84585958D01*
X157247991Y-84585960D01*
X157308291Y-84676205D01*
X157349826Y-84776479D01*
X157371000Y-84882930D01*
X157371000Y-84991470D01*
X157349826Y-85097921D01*
X157308291Y-85198195D01*
X157278345Y-85243012D01*
X157247990Y-85288442D01*
X157171242Y-85365190D01*
X157125812Y-85395545D01*
X157080995Y-85425491D01*
X157005611Y-85456716D01*
X156984000Y-85468267D01*
X156965059Y-85483812D01*
X156949513Y-85502754D01*
X156937962Y-85524365D01*
X156930849Y-85547814D01*
X156928447Y-85572200D01*
X156930849Y-85596586D01*
X156937962Y-85620035D01*
X156949513Y-85641646D01*
X156965058Y-85660587D01*
X156984000Y-85676133D01*
X157005611Y-85687684D01*
X157080995Y-85718909D01*
X157125812Y-85748855D01*
X157171242Y-85779210D01*
X157247990Y-85855958D01*
X157247991Y-85855960D01*
X157308291Y-85946205D01*
X157349826Y-86046479D01*
X157371000Y-86152930D01*
X157371000Y-86261470D01*
X157349826Y-86367921D01*
X157308291Y-86468195D01*
X157308290Y-86468196D01*
X157247990Y-86558442D01*
X157171242Y-86635190D01*
X157125812Y-86665545D01*
X157080995Y-86695491D01*
X157005611Y-86726716D01*
X156984000Y-86738267D01*
X156965059Y-86753812D01*
X156949513Y-86772754D01*
X156937962Y-86794365D01*
X156930849Y-86817814D01*
X156928447Y-86842200D01*
X156930849Y-86866586D01*
X156937962Y-86890035D01*
X156949513Y-86911646D01*
X156965058Y-86930587D01*
X156984000Y-86946133D01*
X157005611Y-86957684D01*
X157080995Y-86988909D01*
X157080996Y-86988910D01*
X157171242Y-87049210D01*
X157247990Y-87125958D01*
X157247991Y-87125960D01*
X157308291Y-87216205D01*
X157349826Y-87316479D01*
X157371000Y-87422930D01*
X157371000Y-87531470D01*
X157349826Y-87637921D01*
X157308291Y-87738195D01*
X157278345Y-87783012D01*
X157247990Y-87828442D01*
X157171242Y-87905190D01*
X157125812Y-87935545D01*
X157080995Y-87965491D01*
X157005611Y-87996716D01*
X156984000Y-88008267D01*
X156965059Y-88023812D01*
X156949513Y-88042754D01*
X156937962Y-88064365D01*
X156930849Y-88087814D01*
X156928447Y-88112200D01*
X156930849Y-88136586D01*
X156937962Y-88160035D01*
X156949513Y-88181646D01*
X156965058Y-88200587D01*
X156984000Y-88216133D01*
X157005611Y-88227684D01*
X157080995Y-88258909D01*
X157125812Y-88288855D01*
X157171242Y-88319210D01*
X157247990Y-88395958D01*
X157247991Y-88395960D01*
X157308291Y-88486205D01*
X157349826Y-88586479D01*
X157371000Y-88692930D01*
X157371000Y-88801470D01*
X157349826Y-88907921D01*
X157308291Y-89008195D01*
X157308290Y-89008196D01*
X157247990Y-89098442D01*
X157171242Y-89175190D01*
X157125812Y-89205545D01*
X157080995Y-89235491D01*
X157005611Y-89266716D01*
X156984000Y-89278267D01*
X156965059Y-89293812D01*
X156949513Y-89312754D01*
X156937962Y-89334365D01*
X156930849Y-89357814D01*
X156928447Y-89382200D01*
X156930849Y-89406586D01*
X156937962Y-89430035D01*
X156949513Y-89451646D01*
X156965058Y-89470587D01*
X156984000Y-89486133D01*
X157005611Y-89497684D01*
X157080995Y-89528909D01*
X157080996Y-89528910D01*
X157171242Y-89589210D01*
X157247990Y-89665958D01*
X157247991Y-89665960D01*
X157308291Y-89756205D01*
X157349826Y-89856479D01*
X157371000Y-89962930D01*
X157371000Y-90071470D01*
X157349826Y-90177921D01*
X157308291Y-90278195D01*
X157278345Y-90323012D01*
X157247990Y-90368442D01*
X157171242Y-90445190D01*
X157125812Y-90475545D01*
X157080995Y-90505491D01*
X157005611Y-90536716D01*
X156984000Y-90548267D01*
X156965059Y-90563812D01*
X156949513Y-90582754D01*
X156937962Y-90604365D01*
X156930849Y-90627814D01*
X156928447Y-90652200D01*
X156930849Y-90676586D01*
X156937962Y-90700035D01*
X156949513Y-90721646D01*
X156965058Y-90740587D01*
X156984000Y-90756133D01*
X157005611Y-90767684D01*
X157080995Y-90798909D01*
X157125812Y-90828855D01*
X157171242Y-90859210D01*
X157247990Y-90935958D01*
X157247991Y-90935960D01*
X157308291Y-91026205D01*
X157349826Y-91126479D01*
X157371000Y-91232930D01*
X157371000Y-91341470D01*
X157349826Y-91447921D01*
X157308291Y-91548195D01*
X157308290Y-91548196D01*
X157247990Y-91638442D01*
X157171242Y-91715190D01*
X157125812Y-91745545D01*
X157080995Y-91775491D01*
X157005611Y-91806716D01*
X156984000Y-91818267D01*
X156965059Y-91833812D01*
X156949513Y-91852754D01*
X156937962Y-91874365D01*
X156930849Y-91897814D01*
X156928447Y-91922200D01*
X156930849Y-91946586D01*
X156937962Y-91970035D01*
X156949513Y-91991646D01*
X156965058Y-92010587D01*
X156984000Y-92026133D01*
X157005611Y-92037684D01*
X157080995Y-92068909D01*
X157080996Y-92068910D01*
X157171242Y-92129210D01*
X157247990Y-92205958D01*
X157247991Y-92205960D01*
X157308291Y-92296205D01*
X157349826Y-92396479D01*
X157371000Y-92502930D01*
X157371000Y-92611470D01*
X157349826Y-92717921D01*
X157308291Y-92818195D01*
X157278345Y-92863012D01*
X157247990Y-92908442D01*
X157171242Y-92985190D01*
X157146172Y-93001941D01*
X157078336Y-93047268D01*
X157059394Y-93062814D01*
X157043849Y-93081756D01*
X157032298Y-93103367D01*
X157025185Y-93126815D01*
X157022783Y-93151202D01*
X157025185Y-93175588D01*
X157032298Y-93199037D01*
X157043849Y-93220647D01*
X157059395Y-93239589D01*
X157078337Y-93255134D01*
X157099948Y-93266685D01*
X157123396Y-93273798D01*
X157147782Y-93276200D01*
X157371000Y-93276200D01*
X157371000Y-94378200D01*
X156269000Y-94378200D01*
X156269000Y-93276200D01*
X156492218Y-93276200D01*
X156516604Y-93273798D01*
X156540053Y-93266685D01*
X156561664Y-93255134D01*
X156580606Y-93239589D01*
X156596151Y-93220647D01*
X156607702Y-93199036D01*
X156614815Y-93175587D01*
X156617217Y-93151201D01*
X156614815Y-93126815D01*
X156607702Y-93103366D01*
X156596151Y-93081755D01*
X156580606Y-93062813D01*
X156561664Y-93047268D01*
X156493828Y-93001941D01*
X156468758Y-92985190D01*
X156392010Y-92908442D01*
X156361655Y-92863012D01*
X156331709Y-92818195D01*
X156290174Y-92717921D01*
X156269000Y-92611470D01*
X156269000Y-92502930D01*
X156290174Y-92396479D01*
X156331709Y-92296205D01*
X156392009Y-92205960D01*
X156392010Y-92205958D01*
X156468758Y-92129210D01*
X156559004Y-92068910D01*
X156559005Y-92068909D01*
X156634389Y-92037684D01*
X156656000Y-92026133D01*
X156674941Y-92010588D01*
X156690487Y-91991646D01*
X156702038Y-91970035D01*
X156709151Y-91946586D01*
X156711553Y-91922200D01*
X156709151Y-91897814D01*
X156702038Y-91874365D01*
X156690487Y-91852754D01*
X156674942Y-91833813D01*
X156656000Y-91818267D01*
X156634389Y-91806716D01*
X156559005Y-91775491D01*
X156514188Y-91745545D01*
X156468758Y-91715190D01*
X156392010Y-91638442D01*
X156331710Y-91548196D01*
X156331709Y-91548195D01*
X156290174Y-91447921D01*
X156269000Y-91341470D01*
X156269000Y-91232930D01*
X156290174Y-91126479D01*
X156331709Y-91026205D01*
X156392009Y-90935960D01*
X156392010Y-90935958D01*
X156468758Y-90859210D01*
X156514188Y-90828855D01*
X156559005Y-90798909D01*
X156634389Y-90767684D01*
X156656000Y-90756133D01*
X156674941Y-90740588D01*
X156690487Y-90721646D01*
X156702038Y-90700035D01*
X156709151Y-90676586D01*
X156711553Y-90652200D01*
X156709151Y-90627814D01*
X156702038Y-90604365D01*
X156690487Y-90582754D01*
X156674942Y-90563813D01*
X156656000Y-90548267D01*
X156634389Y-90536716D01*
X156559005Y-90505491D01*
X156514188Y-90475545D01*
X156468758Y-90445190D01*
X156392010Y-90368442D01*
X156361655Y-90323012D01*
X156331709Y-90278195D01*
X156290174Y-90177921D01*
X156269000Y-90071470D01*
X156269000Y-89962930D01*
X156290174Y-89856479D01*
X156331709Y-89756205D01*
X156392009Y-89665960D01*
X156392010Y-89665958D01*
X156468758Y-89589210D01*
X156559004Y-89528910D01*
X156559005Y-89528909D01*
X156634389Y-89497684D01*
X156656000Y-89486133D01*
X156674941Y-89470588D01*
X156690487Y-89451646D01*
X156702038Y-89430035D01*
X156709151Y-89406586D01*
X156711553Y-89382200D01*
X156709151Y-89357814D01*
X156702038Y-89334365D01*
X156690487Y-89312754D01*
X156674942Y-89293813D01*
X156656000Y-89278267D01*
X156634389Y-89266716D01*
X156559005Y-89235491D01*
X156514188Y-89205545D01*
X156468758Y-89175190D01*
X156392010Y-89098442D01*
X156331710Y-89008196D01*
X156331709Y-89008195D01*
X156290174Y-88907921D01*
X156269000Y-88801470D01*
X156269000Y-88692930D01*
X156290174Y-88586479D01*
X156331709Y-88486205D01*
X156392009Y-88395960D01*
X156392010Y-88395958D01*
X156468758Y-88319210D01*
X156514188Y-88288855D01*
X156559005Y-88258909D01*
X156634389Y-88227684D01*
X156656000Y-88216133D01*
X156674941Y-88200588D01*
X156690487Y-88181646D01*
X156702038Y-88160035D01*
X156709151Y-88136586D01*
X156711553Y-88112200D01*
X156709151Y-88087814D01*
X156702038Y-88064365D01*
X156690487Y-88042754D01*
X156674942Y-88023813D01*
X156656000Y-88008267D01*
X156634389Y-87996716D01*
X156559005Y-87965491D01*
X156514188Y-87935545D01*
X156468758Y-87905190D01*
X156392010Y-87828442D01*
X156361655Y-87783012D01*
X156331709Y-87738195D01*
X156290174Y-87637921D01*
X156269000Y-87531470D01*
X156269000Y-87422930D01*
X156290174Y-87316479D01*
X156331709Y-87216205D01*
X156392009Y-87125960D01*
X156392010Y-87125958D01*
X156468758Y-87049210D01*
X156559004Y-86988910D01*
X156559005Y-86988909D01*
X156634389Y-86957684D01*
X156656000Y-86946133D01*
X156674941Y-86930588D01*
X156690487Y-86911646D01*
X156702038Y-86890035D01*
X156709151Y-86866586D01*
X156711553Y-86842200D01*
X156709151Y-86817814D01*
X156702038Y-86794365D01*
X156690487Y-86772754D01*
X156674942Y-86753813D01*
X156656000Y-86738267D01*
X156634389Y-86726716D01*
X156559005Y-86695491D01*
X156514188Y-86665545D01*
X156468758Y-86635190D01*
X156392010Y-86558442D01*
X156331710Y-86468196D01*
X156331709Y-86468195D01*
X156290174Y-86367921D01*
X156269000Y-86261470D01*
X156269000Y-86152930D01*
X156290174Y-86046479D01*
X156331709Y-85946205D01*
X156392009Y-85855960D01*
X156392010Y-85855958D01*
X156468758Y-85779210D01*
X156514188Y-85748855D01*
X156559005Y-85718909D01*
X156634389Y-85687684D01*
X156656000Y-85676133D01*
X156674941Y-85660588D01*
X156690487Y-85641646D01*
X156702038Y-85620035D01*
X156709151Y-85596586D01*
X156711553Y-85572200D01*
X156709151Y-85547814D01*
X156702038Y-85524365D01*
X156690487Y-85502754D01*
X156674942Y-85483813D01*
X156656000Y-85468267D01*
X156634389Y-85456716D01*
X156559005Y-85425491D01*
X156514188Y-85395545D01*
X156468758Y-85365190D01*
X156392010Y-85288442D01*
X156361655Y-85243012D01*
X156331709Y-85198195D01*
X156290174Y-85097921D01*
X156269000Y-84991470D01*
X156269000Y-84882930D01*
X156290174Y-84776479D01*
X156331709Y-84676205D01*
X156392009Y-84585960D01*
X156392010Y-84585958D01*
X156468758Y-84509210D01*
X156559004Y-84448910D01*
X156559005Y-84448909D01*
X156634389Y-84417684D01*
X156656000Y-84406133D01*
X156674941Y-84390588D01*
X156690487Y-84371646D01*
X156702038Y-84350035D01*
X156709151Y-84326586D01*
X156711553Y-84302200D01*
X156709151Y-84277814D01*
X156702038Y-84254365D01*
X156690487Y-84232754D01*
X156674942Y-84213813D01*
X156656000Y-84198267D01*
X156634389Y-84186716D01*
X156559005Y-84155491D01*
X156514188Y-84125545D01*
X156468758Y-84095190D01*
X156392010Y-84018442D01*
X156331710Y-83928196D01*
X156331709Y-83928195D01*
X156290174Y-83827921D01*
X156269000Y-83721470D01*
X156269000Y-83612930D01*
X156290174Y-83506479D01*
X156331709Y-83406205D01*
X156392009Y-83315960D01*
X156392010Y-83315958D01*
X156468758Y-83239210D01*
X156559004Y-83178910D01*
X156559005Y-83178909D01*
X156634389Y-83147684D01*
X156656000Y-83136133D01*
X156674941Y-83120588D01*
X156690487Y-83101646D01*
X156702038Y-83080035D01*
X156709151Y-83056586D01*
X156711553Y-83032200D01*
X156709151Y-83007814D01*
X156702038Y-82984365D01*
X156690487Y-82962754D01*
X156674942Y-82943813D01*
X156656000Y-82928267D01*
X156634389Y-82916716D01*
X156559005Y-82885491D01*
X156514188Y-82855545D01*
X156468758Y-82825190D01*
X156392010Y-82748442D01*
X156331710Y-82658196D01*
X156331709Y-82658195D01*
X156290174Y-82557921D01*
X156269000Y-82451470D01*
X156269000Y-82342930D01*
X156290174Y-82236479D01*
X156331709Y-82136205D01*
X156392009Y-82045960D01*
X156392010Y-82045958D01*
X156468758Y-81969210D01*
X156559004Y-81908910D01*
X156559005Y-81908909D01*
X156659279Y-81867374D01*
X156765730Y-81846200D01*
X156874270Y-81846200D01*
X156980721Y-81867374D01*
G37*
G36*
X131228512Y-92017127D02*
G01*
X131377812Y-92046824D01*
X131541784Y-92114744D01*
X131689354Y-92213347D01*
X131814853Y-92338846D01*
X131913456Y-92486416D01*
X131981376Y-92650388D01*
X132016000Y-92824459D01*
X132016000Y-93001941D01*
X131981376Y-93176012D01*
X131913456Y-93339984D01*
X131814853Y-93487554D01*
X131689354Y-93613053D01*
X131541784Y-93711656D01*
X131377812Y-93779576D01*
X131228512Y-93809273D01*
X131203742Y-93814200D01*
X131026258Y-93814200D01*
X131001488Y-93809273D01*
X130852188Y-93779576D01*
X130688216Y-93711656D01*
X130540646Y-93613053D01*
X130415147Y-93487554D01*
X130316544Y-93339984D01*
X130248624Y-93176012D01*
X130214000Y-93001941D01*
X130214000Y-92824459D01*
X130248624Y-92650388D01*
X130316544Y-92486416D01*
X130415147Y-92338846D01*
X130540646Y-92213347D01*
X130688216Y-92114744D01*
X130852188Y-92046824D01*
X131001488Y-92017127D01*
X131026258Y-92012200D01*
X131203742Y-92012200D01*
X131228512Y-92017127D01*
G37*
G36*
X161428512Y-92017127D02*
G01*
X161577812Y-92046824D01*
X161741784Y-92114744D01*
X161889354Y-92213347D01*
X162014853Y-92338846D01*
X162113456Y-92486416D01*
X162181376Y-92650388D01*
X162216000Y-92824459D01*
X162216000Y-93001941D01*
X162181376Y-93176012D01*
X162113456Y-93339984D01*
X162014853Y-93487554D01*
X161889354Y-93613053D01*
X161741784Y-93711656D01*
X161577812Y-93779576D01*
X161428512Y-93809273D01*
X161403742Y-93814200D01*
X161226258Y-93814200D01*
X161201488Y-93809273D01*
X161052188Y-93779576D01*
X160888216Y-93711656D01*
X160740646Y-93613053D01*
X160615147Y-93487554D01*
X160516544Y-93339984D01*
X160448624Y-93176012D01*
X160414000Y-93001941D01*
X160414000Y-92824459D01*
X160448624Y-92650388D01*
X160516544Y-92486416D01*
X160615147Y-92338846D01*
X160740646Y-92213347D01*
X160888216Y-92114744D01*
X161052188Y-92046824D01*
X161201488Y-92017127D01*
X161226258Y-92012200D01*
X161403742Y-92012200D01*
X161428512Y-92017127D01*
G37*
G36*
X154274000Y-93510200D02*
G01*
X152072000Y-93510200D01*
X152072000Y-92508200D01*
X154274000Y-92508200D01*
X154274000Y-93510200D01*
G37*
G36*
X136774000Y-93510200D02*
G01*
X134572000Y-93510200D01*
X134572000Y-92508200D01*
X136774000Y-92508200D01*
X136774000Y-93510200D01*
G37*
G36*
X154274000Y-92240200D02*
G01*
X152072000Y-92240200D01*
X152072000Y-91238200D01*
X154274000Y-91238200D01*
X154274000Y-92240200D01*
G37*
G36*
X136774000Y-92240200D02*
G01*
X134572000Y-92240200D01*
X134572000Y-91238200D01*
X136774000Y-91238200D01*
X136774000Y-92240200D01*
G37*
G36*
X161428512Y-89477127D02*
G01*
X161577812Y-89506824D01*
X161741784Y-89574744D01*
X161889354Y-89673347D01*
X162014853Y-89798846D01*
X162113456Y-89946416D01*
X162181376Y-90110388D01*
X162216000Y-90284459D01*
X162216000Y-90461941D01*
X162181376Y-90636012D01*
X162113456Y-90799984D01*
X162014853Y-90947554D01*
X161889354Y-91073053D01*
X161741784Y-91171656D01*
X161577812Y-91239576D01*
X161428512Y-91269273D01*
X161403742Y-91274200D01*
X161226258Y-91274200D01*
X161201488Y-91269273D01*
X161052188Y-91239576D01*
X160888216Y-91171656D01*
X160740646Y-91073053D01*
X160615147Y-90947554D01*
X160516544Y-90799984D01*
X160448624Y-90636012D01*
X160414000Y-90461941D01*
X160414000Y-90284459D01*
X160448624Y-90110388D01*
X160516544Y-89946416D01*
X160615147Y-89798846D01*
X160740646Y-89673347D01*
X160888216Y-89574744D01*
X161052188Y-89506824D01*
X161201488Y-89477127D01*
X161226258Y-89472200D01*
X161403742Y-89472200D01*
X161428512Y-89477127D01*
G37*
G36*
X131228512Y-89477127D02*
G01*
X131377812Y-89506824D01*
X131541784Y-89574744D01*
X131689354Y-89673347D01*
X131814853Y-89798846D01*
X131913456Y-89946416D01*
X131981376Y-90110388D01*
X132016000Y-90284459D01*
X132016000Y-90461941D01*
X131981376Y-90636012D01*
X131913456Y-90799984D01*
X131814853Y-90947554D01*
X131689354Y-91073053D01*
X131541784Y-91171656D01*
X131377812Y-91239576D01*
X131228512Y-91269273D01*
X131203742Y-91274200D01*
X131026258Y-91274200D01*
X131001488Y-91269273D01*
X130852188Y-91239576D01*
X130688216Y-91171656D01*
X130540646Y-91073053D01*
X130415147Y-90947554D01*
X130316544Y-90799984D01*
X130248624Y-90636012D01*
X130214000Y-90461941D01*
X130214000Y-90284459D01*
X130248624Y-90110388D01*
X130316544Y-89946416D01*
X130415147Y-89798846D01*
X130540646Y-89673347D01*
X130688216Y-89574744D01*
X130852188Y-89506824D01*
X131001488Y-89477127D01*
X131026258Y-89472200D01*
X131203742Y-89472200D01*
X131228512Y-89477127D01*
G37*
G36*
X154274000Y-90970200D02*
G01*
X152072000Y-90970200D01*
X152072000Y-89968200D01*
X154274000Y-89968200D01*
X154274000Y-90970200D01*
G37*
G36*
X136774000Y-90970200D02*
G01*
X134572000Y-90970200D01*
X134572000Y-89968200D01*
X136774000Y-89968200D01*
X136774000Y-90970200D01*
G37*
G36*
X154274000Y-89700200D02*
G01*
X152072000Y-89700200D01*
X152072000Y-88698200D01*
X154274000Y-88698200D01*
X154274000Y-89700200D01*
G37*
G36*
X136774000Y-89700200D02*
G01*
X134572000Y-89700200D01*
X134572000Y-88698200D01*
X136774000Y-88698200D01*
X136774000Y-89700200D01*
G37*
G36*
X161428512Y-86937127D02*
G01*
X161577812Y-86966824D01*
X161741784Y-87034744D01*
X161889354Y-87133347D01*
X162014853Y-87258846D01*
X162113456Y-87406416D01*
X162181376Y-87570388D01*
X162216000Y-87744459D01*
X162216000Y-87921941D01*
X162181376Y-88096012D01*
X162113456Y-88259984D01*
X162014853Y-88407554D01*
X161889354Y-88533053D01*
X161741784Y-88631656D01*
X161577812Y-88699576D01*
X161428512Y-88729273D01*
X161403742Y-88734200D01*
X161226258Y-88734200D01*
X161201488Y-88729273D01*
X161052188Y-88699576D01*
X160888216Y-88631656D01*
X160740646Y-88533053D01*
X160615147Y-88407554D01*
X160516544Y-88259984D01*
X160448624Y-88096012D01*
X160414000Y-87921941D01*
X160414000Y-87744459D01*
X160448624Y-87570388D01*
X160516544Y-87406416D01*
X160615147Y-87258846D01*
X160740646Y-87133347D01*
X160888216Y-87034744D01*
X161052188Y-86966824D01*
X161201488Y-86937127D01*
X161226258Y-86932200D01*
X161403742Y-86932200D01*
X161428512Y-86937127D01*
G37*
G36*
X131228512Y-86937127D02*
G01*
X131377812Y-86966824D01*
X131541784Y-87034744D01*
X131689354Y-87133347D01*
X131814853Y-87258846D01*
X131913456Y-87406416D01*
X131981376Y-87570388D01*
X132016000Y-87744459D01*
X132016000Y-87921941D01*
X131981376Y-88096012D01*
X131913456Y-88259984D01*
X131814853Y-88407554D01*
X131689354Y-88533053D01*
X131541784Y-88631656D01*
X131377812Y-88699576D01*
X131228512Y-88729273D01*
X131203742Y-88734200D01*
X131026258Y-88734200D01*
X131001488Y-88729273D01*
X130852188Y-88699576D01*
X130688216Y-88631656D01*
X130540646Y-88533053D01*
X130415147Y-88407554D01*
X130316544Y-88259984D01*
X130248624Y-88096012D01*
X130214000Y-87921941D01*
X130214000Y-87744459D01*
X130248624Y-87570388D01*
X130316544Y-87406416D01*
X130415147Y-87258846D01*
X130540646Y-87133347D01*
X130688216Y-87034744D01*
X130852188Y-86966824D01*
X131001488Y-86937127D01*
X131026258Y-86932200D01*
X131203742Y-86932200D01*
X131228512Y-86937127D01*
G37*
G36*
X136774000Y-88430200D02*
G01*
X134572000Y-88430200D01*
X134572000Y-87428200D01*
X136774000Y-87428200D01*
X136774000Y-88430200D01*
G37*
G36*
X154274000Y-88430200D02*
G01*
X152072000Y-88430200D01*
X152072000Y-87428200D01*
X154274000Y-87428200D01*
X154274000Y-88430200D01*
G37*
G36*
X136774000Y-87160200D02*
G01*
X134572000Y-87160200D01*
X134572000Y-86158200D01*
X136774000Y-86158200D01*
X136774000Y-87160200D01*
G37*
G36*
X154274000Y-87160200D02*
G01*
X152072000Y-87160200D01*
X152072000Y-86158200D01*
X154274000Y-86158200D01*
X154274000Y-87160200D01*
G37*
G36*
X131228512Y-84397127D02*
G01*
X131377812Y-84426824D01*
X131541784Y-84494744D01*
X131689354Y-84593347D01*
X131814853Y-84718846D01*
X131913456Y-84866416D01*
X131981376Y-85030388D01*
X132016000Y-85204459D01*
X132016000Y-85381941D01*
X131981376Y-85556012D01*
X131913456Y-85719984D01*
X131814853Y-85867554D01*
X131689354Y-85993053D01*
X131541784Y-86091656D01*
X131377812Y-86159576D01*
X131228512Y-86189273D01*
X131203742Y-86194200D01*
X131026258Y-86194200D01*
X131001488Y-86189273D01*
X130852188Y-86159576D01*
X130688216Y-86091656D01*
X130540646Y-85993053D01*
X130415147Y-85867554D01*
X130316544Y-85719984D01*
X130248624Y-85556012D01*
X130214000Y-85381941D01*
X130214000Y-85204459D01*
X130248624Y-85030388D01*
X130316544Y-84866416D01*
X130415147Y-84718846D01*
X130540646Y-84593347D01*
X130688216Y-84494744D01*
X130852188Y-84426824D01*
X131001488Y-84397127D01*
X131026258Y-84392200D01*
X131203742Y-84392200D01*
X131228512Y-84397127D01*
G37*
G36*
X161428512Y-84397127D02*
G01*
X161577812Y-84426824D01*
X161741784Y-84494744D01*
X161889354Y-84593347D01*
X162014853Y-84718846D01*
X162113456Y-84866416D01*
X162181376Y-85030388D01*
X162216000Y-85204459D01*
X162216000Y-85381941D01*
X162181376Y-85556012D01*
X162113456Y-85719984D01*
X162014853Y-85867554D01*
X161889354Y-85993053D01*
X161741784Y-86091656D01*
X161577812Y-86159576D01*
X161428512Y-86189273D01*
X161403742Y-86194200D01*
X161226258Y-86194200D01*
X161201488Y-86189273D01*
X161052188Y-86159576D01*
X160888216Y-86091656D01*
X160740646Y-85993053D01*
X160615147Y-85867554D01*
X160516544Y-85719984D01*
X160448624Y-85556012D01*
X160414000Y-85381941D01*
X160414000Y-85204459D01*
X160448624Y-85030388D01*
X160516544Y-84866416D01*
X160615147Y-84718846D01*
X160740646Y-84593347D01*
X160888216Y-84494744D01*
X161052188Y-84426824D01*
X161201488Y-84397127D01*
X161226258Y-84392200D01*
X161403742Y-84392200D01*
X161428512Y-84397127D01*
G37*
G36*
X136774000Y-85890200D02*
G01*
X134572000Y-85890200D01*
X134572000Y-84888200D01*
X136774000Y-84888200D01*
X136774000Y-85890200D01*
G37*
G36*
X154274000Y-85890200D02*
G01*
X152072000Y-85890200D01*
X152072000Y-84888200D01*
X154274000Y-84888200D01*
X154274000Y-85890200D01*
G37*
G36*
X132016000Y-83654200D02*
G01*
X130214000Y-83654200D01*
X130214000Y-81852200D01*
X132016000Y-81852200D01*
X132016000Y-83654200D01*
G37*
G36*
X162216000Y-83654200D02*
G01*
X160414000Y-83654200D01*
X160414000Y-81852200D01*
X162216000Y-81852200D01*
X162216000Y-83654200D01*
G37*
G36*
X154274000Y-83350200D02*
G01*
X152072000Y-83350200D01*
X152072000Y-82348200D01*
X154274000Y-82348200D01*
X154274000Y-83350200D01*
G37*
G36*
X136774000Y-83350200D02*
G01*
X134572000Y-83350200D01*
X134572000Y-82348200D01*
X136774000Y-82348200D01*
X136774000Y-83350200D01*
G37*
G36*
X136774000Y-82080200D02*
G01*
X134572000Y-82080200D01*
X134572000Y-81078200D01*
X136774000Y-81078200D01*
X136774000Y-82080200D01*
G37*
G36*
X154274000Y-82080200D02*
G01*
X152072000Y-82080200D01*
X152072000Y-81078200D01*
X154274000Y-81078200D01*
X154274000Y-82080200D01*
G37*
M02*
